<svg width="41" height="41" viewBox="0 0 41 41" fill="none" xmlns="http://www.w3.org/2000/svg">
<g clip-path="url(#clip0_2442_4575)">
<path d="M11.6778 16.9385C11.6778 17.4272 11.7307 17.8234 11.8233 18.1139C11.9291 18.4045 12.0614 18.7215 12.2466 19.0648C12.3127 19.1705 12.3391 19.2762 12.3391 19.3686C12.3391 19.5007 12.2598 19.6327 12.0878 19.7648L11.2546 20.3195C11.1356 20.3987 11.0165 20.4384 10.9107 20.4384C10.7784 20.4384 10.6462 20.3723 10.5139 20.2535C10.3288 20.0554 10.17 19.844 10.0378 19.6327C9.90551 19.4082 9.77325 19.1573 9.62776 18.8535C8.59611 20.0686 7.29994 20.6761 5.73923 20.6761C4.62823 20.6761 3.74207 20.3591 3.09398 19.7252C2.44589 19.0913 2.11523 18.246 2.11523 17.1895C2.11523 16.0669 2.51202 15.1556 3.31883 14.4689C4.12563 13.7821 5.19696 13.4387 6.55926 13.4387C7.00896 13.4387 7.47188 13.4783 7.96125 13.5444C8.45062 13.6104 8.95322 13.7161 9.48227 13.8349V12.8708C9.48227 11.8671 9.27065 11.1671 8.86064 10.7577C8.4374 10.3483 7.72318 10.1502 6.70475 10.1502C6.24183 10.1502 5.76569 10.203 5.27632 10.3219C4.78694 10.4408 4.3108 10.586 3.84788 10.7709C3.63626 10.8634 3.47754 10.9162 3.38496 10.9426C3.29237 10.969 3.22624 10.9822 3.17334 10.9822C2.98817 10.9822 2.89558 10.8502 2.89558 10.5728V9.92569C2.89558 9.71438 2.92204 9.5559 2.98817 9.46345C3.0543 9.371 3.17334 9.27855 3.3585 9.18611C3.82142 8.94838 4.37693 8.75028 5.02502 8.5918C5.6731 8.42011 6.36087 8.34087 7.08832 8.34087C8.66224 8.34087 9.81293 8.69745 10.5536 9.41062C11.281 10.1238 11.6514 11.2068 11.6514 12.6595V16.9385H11.6778ZM6.30796 18.946C6.74443 18.946 7.19413 18.8667 7.67027 18.7083C8.14642 18.5498 8.56966 18.2592 8.92677 17.863C9.13839 17.6121 9.2971 17.3347 9.37646 17.0178C9.45582 16.7008 9.50872 16.3178 9.50872 15.8688V15.3141C9.12516 15.2216 8.71515 15.1424 8.29191 15.0896C7.86867 15.0367 7.45865 15.0103 7.04864 15.0103C6.16248 15.0103 5.51439 15.182 5.07792 15.5386C4.64145 15.8952 4.42983 16.3971 4.42983 17.0574C4.42983 17.6781 4.58855 18.1404 4.91921 18.4573C5.23664 18.7875 5.69956 18.946 6.30796 18.946ZM16.9287 20.3723C16.6906 20.3723 16.5319 20.3327 16.4261 20.2403C16.3203 20.161 16.2277 19.9761 16.1483 19.7252L13.0401 9.51628C12.9608 9.25214 12.9211 9.08045 12.9211 8.988C12.9211 8.77669 13.0269 8.65783 13.2385 8.65783H14.5347C14.786 8.65783 14.958 8.69745 15.0505 8.7899C15.1563 8.86914 15.2357 9.05404 15.3151 9.30497L17.5371 18.0479L19.6004 9.30497C19.6665 9.04083 19.7459 8.86914 19.8517 8.7899C19.9575 8.71066 20.1427 8.65783 20.3807 8.65783H21.4388C21.6901 8.65783 21.8621 8.69745 21.9679 8.7899C22.0737 8.86914 22.1663 9.05404 22.2192 9.30497L24.3089 18.1536L26.5971 9.30497C26.6764 9.04083 26.769 8.86914 26.8616 8.7899C26.9674 8.71066 27.1394 8.65783 27.3774 8.65783H28.6075C28.8191 8.65783 28.9381 8.76349 28.9381 8.988C28.9381 9.05404 28.9249 9.12007 28.9117 9.19931C28.8985 9.27855 28.872 9.38421 28.8191 9.52948L25.6316 19.7384C25.5522 20.0025 25.4596 20.1742 25.3538 20.2535C25.248 20.3327 25.0761 20.3855 24.8512 20.3855H23.7137C23.4625 20.3855 23.2905 20.3459 23.1847 20.2535C23.0789 20.161 22.9863 19.9893 22.9334 19.7252L20.8833 11.2068L18.8465 19.712C18.7803 19.9761 18.701 20.1478 18.5952 20.2403C18.4894 20.3327 18.3042 20.3723 18.0661 20.3723H16.9287ZM33.9244 20.7289C33.2367 20.7289 32.5489 20.6497 31.8876 20.4912C31.2263 20.3327 30.7105 20.161 30.3666 19.9629C30.1549 19.844 30.0095 19.712 29.9566 19.5931C29.9036 19.4743 29.8772 19.3422 29.8772 19.2233V18.5498C29.8772 18.2724 29.983 18.1404 30.1814 18.1404C30.2608 18.1404 30.3401 18.1536 30.4195 18.18C30.4988 18.2064 30.6179 18.2592 30.7501 18.3121C31.1998 18.5102 31.6892 18.6686 32.205 18.7743C32.7341 18.8799 33.2499 18.9328 33.7789 18.9328C34.6122 18.9328 35.2603 18.7875 35.71 18.4969C36.1597 18.2064 36.3978 17.7838 36.3978 17.2423C36.3978 16.8725 36.2787 16.5687 36.0406 16.3178C35.8026 16.0669 35.3529 15.8424 34.7048 15.6311L32.787 15.0367C31.8215 14.733 31.1072 14.284 30.6708 13.6896C30.2343 13.1085 30.0095 12.4614 30.0095 11.7747C30.0095 11.22 30.1285 10.7313 30.3666 10.3087C30.6046 9.88607 30.9221 9.51628 31.3189 9.22573C31.7156 8.92197 32.1653 8.69745 32.6944 8.53897C33.2234 8.38049 33.779 8.31445 34.3609 8.31445C34.6519 8.31445 34.9561 8.32766 35.2471 8.36728C35.5513 8.4069 35.829 8.45973 36.1068 8.51256C36.3713 8.57859 36.6226 8.64462 36.8607 8.72387C37.0987 8.80311 37.2839 8.88235 37.4162 8.96159C37.6013 9.06724 37.7336 9.1729 37.813 9.29176C37.8923 9.39742 37.932 9.54269 37.932 9.72759V10.3483C37.932 10.6257 37.8262 10.7709 37.6278 10.7709C37.522 10.7709 37.35 10.7181 37.1252 10.6124C36.3713 10.2691 35.5248 10.0974 34.5858 10.0974C33.8319 10.0974 33.2367 10.2162 32.8267 10.4672C32.4166 10.7181 32.205 11.1011 32.205 11.6426C32.205 12.0124 32.3373 12.3293 32.6018 12.5803C32.8663 12.8312 33.3557 13.0821 34.0567 13.3066L35.9348 13.901C36.8871 14.2047 37.5749 14.6273 37.9849 15.1688C38.3949 15.7103 38.5933 16.331 38.5933 17.0178C38.5933 17.5857 38.4743 18.1007 38.2494 18.5498C38.0114 18.9988 37.6939 19.395 37.2839 19.712C36.8739 20.0422 36.3845 20.2799 35.8158 20.4516C35.2206 20.6365 34.599 20.7289 33.9244 20.7289Z" fill="#252F3E"/>
<path d="M36.424 27.1475C32.0725 30.3568 25.7504 32.0605 20.3144 32.0605C12.696 32.0605 5.83158 29.2474 0.646879 24.5722C0.236865 24.2024 0.607201 23.7005 1.09657 23.9911C6.70452 27.24 13.6219 29.2078 20.7773 29.2078C25.6049 29.2078 30.9086 28.2041 35.7891 26.1438C36.5166 25.8136 37.1382 26.6192 36.424 27.1475Z" fill="#FF9900"/>
<path d="M38.2342 25.086C37.6787 24.3729 34.5573 24.7427 33.1421 24.9143C32.7188 24.9672 32.6527 24.5974 33.0363 24.32C35.5228 22.5767 39.6097 23.0786 40.0859 23.6597C40.562 24.254 39.9536 28.3349 37.6258 30.2895C37.2687 30.5933 36.9248 30.4348 37.0835 30.0386C37.6126 28.7311 38.7897 25.786 38.2342 25.086Z" fill="#FF9900"/>
</g>
<defs>
<clipPath id="clip0_2442_4575">
<rect width="40" height="40" fill="white" transform="translate(0.5 0.1875)"/>
</clipPath>
</defs>
</svg>
