<svg width="40" height="41" viewBox="0 0 40 41" fill="none" xmlns="http://www.w3.org/2000/svg">
<g clip-path="url(#clip0_2442_4591)">
<path d="M20.0025 40.188V32.438C28.2125 32.438 34.585 24.313 31.4325 15.6655C30.8533 14.0787 29.9342 12.6376 28.7395 11.4433C27.5447 10.249 26.1034 9.33039 24.5163 8.75179C15.8763 5.62429 7.735 11.9705 7.735 20.1768H0C0 7.09803 12.655 -3.1007 26.375 1.18305C32.375 3.0643 37.1475 7.82428 39.0063 13.808C43.2938 27.5455 33.11 40.1918 20.0025 40.1918V40.188Z" fill="#0080FF"/>
<path d="M12.3118 32.4582V24.752H20.0218V32.4582H12.3118ZM6.37055 38.3957V32.4582H12.3118V38.3957H6.37055ZM6.37055 32.4582H1.4043V27.4957H6.37055V32.4582Z" fill="#0080FF"/>
</g>
<defs>
<clipPath id="clip0_2442_4591">
<rect width="40" height="40" fill="white" transform="translate(0 0.1875)"/>
</clipPath>
</defs>
</svg>
