<svg width="212" height="142" viewBox="0 0 212 142" fill="none" xmlns="http://www.w3.org/2000/svg">
<path fill-rule="evenodd" clip-rule="evenodd" d="M152.907 49.1076C151.114 49.1076 149.653 47.6541 149.653 45.8639C149.653 45.7338 149.668 45.5961 149.683 45.4737C148.376 45.1448 147.145 44.6322 146.021 43.959C145.937 44.0661 145.852 44.1655 145.76 44.2573C144.49 45.5196 142.428 45.5196 141.159 44.2573C139.882 42.995 139.882 40.9371 141.159 39.6748C141.251 39.583 141.351 39.4912 141.451 39.4147C140.774 38.2978 140.259 37.0737 139.936 35.7655C139.805 35.7885 139.674 35.7961 139.543 35.7961C137.743 35.7961 136.289 34.3426 136.289 32.5524C136.289 30.7623 137.743 29.3164 139.543 29.3164C139.674 29.3164 139.805 29.324 139.936 29.3393C140.259 28.0388 140.774 26.8147 141.451 25.6978C141.351 25.6136 141.251 25.5295 141.159 25.4377C139.882 24.1677 139.882 22.1175 141.159 20.8475C142.428 19.5852 144.49 19.5852 145.76 20.8475C145.852 20.947 145.937 21.0464 146.021 21.1459C147.145 20.4726 148.376 19.9601 149.683 19.6388C149.668 19.5087 149.653 19.3787 149.653 19.2409C149.653 17.4508 151.114 16.0049 152.907 16.0049C154.707 16.0049 156.169 17.4508 156.169 19.2409C156.169 19.3787 156.154 19.5087 156.138 19.6388C157.446 19.9601 158.677 20.4726 159.8 21.1459C159.877 21.0464 159.97 20.947 160.062 20.8475C161.331 19.5852 163.393 19.5852 164.663 20.8475C165.932 22.1175 165.932 24.1677 164.663 25.4377C164.57 25.5295 164.47 25.6136 164.37 25.6978C165.04 26.8147 165.555 28.0388 165.886 29.3393C166.009 29.324 166.148 29.3164 166.278 29.3164C168.079 29.3164 169.533 30.7623 169.533 32.5524C169.533 34.3426 168.079 35.7961 166.278 35.7961C166.148 35.7961 166.009 35.7885 165.886 35.7655C165.555 37.0737 165.04 38.2978 164.37 39.4147C164.47 39.4912 164.57 39.583 164.663 39.6748C165.932 40.9371 165.932 42.995 164.663 44.2573C163.393 45.5196 161.331 45.5196 160.062 44.2573C159.97 44.1655 159.877 44.0661 159.8 43.959C158.677 44.6322 157.446 45.1448 156.138 45.4737C156.154 45.5961 156.169 45.7338 156.169 45.8639C156.169 47.6541 154.707 49.1076 152.907 49.1076ZM152.907 38.5732C156.246 38.5732 158.954 35.8803 158.954 32.5524C158.954 29.2322 156.246 26.5317 152.907 26.5317C149.568 26.5317 146.868 29.2322 146.868 32.5524C146.868 35.8803 149.568 38.5732 152.907 38.5732Z" fill="#E9E9E9"/>
<path fill-rule="evenodd" clip-rule="evenodd" d="M131.802 63.3678C130.733 63.3678 129.864 62.511 129.864 61.4476C129.864 61.366 129.869 61.287 129.879 61.2105C129.11 61.0192 128.379 60.7132 127.709 60.3154C127.663 60.3766 127.612 60.4352 127.556 60.4913C126.802 61.2411 125.578 61.2411 124.824 60.4913C124.063 59.7416 124.063 58.5252 124.824 57.7755C124.881 57.7194 124.94 57.6658 125.001 57.6148C124.594 56.9569 124.294 56.2225 124.101 55.4574C124.024 55.4625 123.945 55.4676 123.863 55.4727C122.793 55.4727 121.932 54.6083 121.932 53.5449C121.932 52.4815 122.793 51.6247 123.863 51.6247C123.945 51.6247 124.024 51.6298 124.101 51.64C124.294 50.8673 124.594 50.1405 125.001 49.4749C124.94 49.429 124.881 49.378 124.824 49.3219C124.063 48.5645 124.063 47.3482 124.824 46.5984C125.578 45.8487 126.802 45.8487 127.556 46.5984C127.612 46.6545 127.663 46.7132 127.709 46.7744C128.379 46.3766 129.11 46.0706 129.879 45.8793C129.869 45.8028 129.864 45.7237 129.864 45.6421C129.864 44.5788 130.733 43.7219 131.802 43.7219C132.864 43.7219 133.733 44.5788 133.733 45.6421C133.733 45.7237 133.728 45.8028 133.718 45.8793C134.495 46.0706 135.218 46.3766 135.888 46.7744C135.934 46.7132 135.985 46.6545 136.042 46.5984C136.795 45.8487 138.019 45.8487 138.773 46.5984C139.534 47.3482 139.534 48.5645 138.773 49.3219C138.716 49.378 138.66 49.429 138.603 49.4749C139.004 50.1405 139.304 50.8673 139.504 51.64C139.575 51.6298 139.652 51.6247 139.734 51.6247C140.804 51.6247 141.665 52.4815 141.665 53.5449C141.665 54.6083 140.804 55.4727 139.734 55.4727C139.652 55.4676 139.575 55.4625 139.504 55.4574C139.304 56.2225 139.004 56.9569 138.603 57.6148C138.66 57.6658 138.716 57.7194 138.773 57.7755C139.534 58.5252 139.534 59.7416 138.773 60.4913C138.019 61.2411 136.795 61.2411 136.042 60.4913C135.985 60.4352 135.934 60.3766 135.888 60.3154C135.218 60.7132 134.495 61.0192 133.718 61.2105C133.728 61.287 133.733 61.366 133.733 61.4476C133.733 62.511 132.864 63.3678 131.802 63.3678ZM131.802 57.1176C133.78 57.1176 135.388 55.5186 135.388 53.5449C135.388 51.5711 133.78 49.9722 131.802 49.9722C129.817 49.9722 128.21 51.5711 128.21 53.5449C128.21 55.5186 129.817 57.1176 131.802 57.1176Z" fill="#E9E9E9"/>
<path d="M2.58288 21.3143C5.26022 18.7438 9.44549 18.2695 13.0461 19.2028C16.7928 20.1667 20.1241 22.5613 22.3321 25.7132C24.3017 28.5285 26.1404 32.5372 24.4786 35.888C23.4169 38.0301 21.2858 39.5296 18.9777 40.1722C16.662 40.8225 14.1847 40.6848 11.8459 40.1645C7.63752 39.2312 3.57535 36.9055 1.42116 33.1951C-0.733018 29.4771 -0.509909 24.2902 2.58288 21.3143Z" fill="black"/>
<path d="M27.4106 20.2432C32.0498 16.0968 39.2048 14.9875 44.8903 17.5503C47.5753 18.7667 50.0141 20.8705 50.8758 23.6782C51.7298 26.4935 50.5758 29.982 47.8677 31.1602C49.291 31.5427 49.6756 33.5776 48.837 34.7787C47.9907 35.9798 46.4136 36.4312 44.9441 36.4924C43.467 36.5459 41.9436 36.2858 40.5511 36.7755C39.5279 37.1427 38.6893 37.8694 37.8507 38.5427C35.4426 40.4705 32.6345 42.1536 29.5494 42.253C20.8865 42.5285 21.0789 31.0224 23.6254 25.4377C24.5179 23.4793 25.8027 21.6891 27.4106 20.2432Z" fill="black"/>
<path d="M68.0783 140.001L57.9613 99.9437L23.8098 106.86C16.0548 117.05 12.9851 129.466 11.8926 140.001H68.0783Z" fill="white"/>
<path d="M12.0448 139.014C12.0397 139.014 12.0346 139.011 12.0295 139.006C11.9371 138.998 11.8679 138.922 11.8756 138.822C12.5603 131.884 14.2144 125.06 16.6533 119.1C17.8919 116.078 19.3768 113.171 21.0539 110.463C21.4771 109.774 21.9233 109.086 22.3772 108.42C22.4618 108.306 22.5465 108.16 22.6388 108.015C22.9927 107.418 23.4466 106.684 24.0775 106.554C25.8932 106.181 27.7114 105.814 29.5322 105.452C33.2943 104.695 37.118 103.937 40.8186 103.21C44.2653 102.53 47.8427 101.826 51.351 101.122C53.1666 100.76 54.9849 100.393 56.8057 100.02L57.5442 99.8673C57.5904 99.8571 57.6289 99.8494 57.6596 99.8443C57.9674 99.7678 58.0366 99.852 58.1674 100.127C58.2982 100.41 58.3521 100.739 58.4136 101.068C58.4444 101.214 58.4675 101.359 58.4982 101.489C58.7188 102.382 58.9393 103.272 59.1599 104.159C60.1062 107.969 61.0679 111.687 61.8757 114.824C62.2245 116.165 62.5732 117.504 62.922 118.84C64.3915 124.493 65.9148 130.346 67.3227 136.114C67.5381 136.997 67.7535 137.881 67.9689 138.769C67.992 138.861 67.9305 138.953 67.8382 138.975C67.7535 138.991 67.6612 138.937 67.6381 138.845C67.4278 137.963 67.2124 137.078 66.9919 136.191C65.584 130.422 64.0683 124.578 62.5912 118.924C62.2424 117.588 61.8962 116.249 61.5526 114.908C60.7371 111.771 59.7754 108.045 58.8291 104.243C58.6085 103.351 58.388 102.461 58.1674 101.573C58.1367 101.428 58.1059 101.283 58.0828 101.122C58.0289 100.824 57.9674 100.51 57.8597 100.273C57.8366 100.227 57.8212 100.181 57.8058 100.158C57.7827 100.158 57.7597 100.166 57.7366 100.173C57.7058 100.178 57.6648 100.186 57.6135 100.196L56.8672 100.349C55.0516 100.722 53.2333 101.089 51.4125 101.451C47.9043 102.155 44.3345 102.859 40.8801 103.539C37.1795 104.274 33.3559 105.024 29.6014 105.781C27.7806 106.143 25.9624 106.51 24.1467 106.883C23.6543 106.982 23.2543 107.655 22.9235 108.191C22.8311 108.344 22.7465 108.481 22.6619 108.612C22.208 109.269 21.7617 109.958 21.3386 110.639C19.6691 113.332 18.1996 116.224 16.9687 119.23C14.5375 125.159 12.8988 131.945 12.2141 138.861C12.2064 138.945 12.1372 139.014 12.0448 139.014Z" fill="black" stroke="black" stroke-width="0.2"/>
<path d="M43.9885 139.014C43.8962 139.014 43.8269 138.945 43.8192 138.861L43.7808 138.448C43.6654 137.262 43.55 136.03 43.6346 134.814C43.9193 130.346 47.766 128.533 51.0819 127.454C51.1665 127.424 51.2666 127.477 51.2896 127.561C51.3204 127.653 51.2743 127.745 51.1819 127.775C47.966 128.824 44.2424 130.568 43.9731 134.829C43.8962 136.022 44.0039 137.239 44.1193 138.417L44.1578 138.83C44.1655 138.922 44.0962 138.998 44.0039 139.006C43.9988 139.011 43.9936 139.014 43.9885 139.014Z" fill="black" stroke="black" stroke-width="0.2"/>
<path d="M32.0037 38.1602L26.9414 55.4192C26.9414 55.4192 36.5968 67.2465 43.8671 66.7798C51.1452 66.3132 49.7911 58.1274 44.3672 55.5875L39.0818 54.0651L40.6589 40.5317L32.0037 38.1602Z" fill="white"/>
<path fill-rule="evenodd" clip-rule="evenodd" d="M43.4436 66.9634C36.2271 66.9634 27.2026 56.0005 26.8102 55.5262C26.7795 55.4803 26.7641 55.4268 26.7795 55.3732L31.8341 38.1065C31.8649 38.0224 31.9572 37.9688 32.0418 37.9918L40.697 40.371C40.7817 40.394 40.8355 40.4705 40.8201 40.5546L39.266 53.9426L44.413 55.4268C44.4233 55.4268 44.4335 55.4293 44.4438 55.4344C47.5289 56.888 49.5215 60.2847 48.9676 63.1765C48.5367 65.3951 46.6826 66.7721 43.8821 66.9481C43.7334 66.9583 43.5872 66.9634 43.4436 66.9634ZM27.1334 55.3809C27.9335 56.3448 37.0426 67.0552 43.8591 66.6115C46.5364 66.4432 48.229 65.2038 48.629 63.1153C49.1599 60.3688 47.2596 57.1328 44.3053 55.7481L39.0275 54.2257C38.9506 54.2027 38.8967 54.1262 38.9121 54.0421L40.4739 40.6541L32.1188 38.3666L27.1334 55.3809Z" fill="black" stroke="black" stroke-width="0.2"/>
<path d="M47.2896 34.5798C47.6512 36.5689 47.6666 38.6574 46.9896 40.5623C46.3125 42.4673 44.8969 44.1656 42.9966 44.8847C41.3502 45.5121 39.473 45.3591 37.842 44.6858C36.2186 44.0126 34.8338 42.8421 33.7106 41.5033C31.9718 42.1153 29.8561 41.3962 28.856 39.8585C28.2789 38.9711 28.0789 37.7929 28.5482 36.8443C29.0175 35.9033 30.2639 35.3372 31.2179 35.7886C31.7718 36.041 32.1565 36.5689 32.7181 36.7984C33.3336 37.0585 34.0798 36.9055 34.6415 36.5306C35.2031 36.1558 35.6032 35.5897 35.9263 35.0006C36.9341 33.1416 37.2342 30.9153 36.7572 28.8574C36.7957 29.0487 37.842 29.3394 38.0266 29.4082C38.4882 29.5612 38.9729 29.676 39.4576 29.7525C40.4116 29.8979 41.3964 29.8902 42.3504 29.7219C42.8351 29.6377 43.3197 29.5153 43.7814 29.3547C44.1506 29.2246 44.6276 28.8804 45.02 28.8727C45.8432 28.8651 46.0817 30.3492 46.2817 30.9306C46.6972 32.1241 47.0588 33.3328 47.2896 34.5798Z" fill="white"/>
<path fill-rule="evenodd" clip-rule="evenodd" d="M40.7572 45.4508C39.7724 45.4508 38.7492 45.2443 37.7798 44.8388C36.295 44.2268 34.9024 43.1634 33.6484 41.6946C31.8789 42.2607 29.7324 41.511 28.7169 39.9503C28.0552 38.9328 27.9321 37.7164 28.4014 36.7754C28.9323 35.6891 30.2863 35.1612 31.2942 35.6355C31.5711 35.7656 31.8173 35.9569 32.0481 36.1481C32.2866 36.347 32.5174 36.5306 32.779 36.6454C33.3022 36.8672 33.9792 36.7678 34.5408 36.3929C35.0025 36.0869 35.3948 35.6202 35.7718 34.9241C36.7643 33.1033 37.0566 30.9077 36.5873 28.8956C36.5642 28.8038 36.6258 28.712 36.7181 28.6891C36.795 28.6738 36.8797 28.7197 36.9104 28.7962C36.9643 28.8497 37.1951 28.9722 37.9491 29.2017C38.0029 29.2246 38.0491 29.2399 38.0799 29.2476C38.5261 29.4006 39.0031 29.5153 39.4801 29.5842C40.4264 29.7295 41.3804 29.7219 42.3267 29.5612C42.8037 29.4771 43.273 29.3547 43.7269 29.194C43.8423 29.1558 43.9808 29.0869 44.1193 29.0104C44.4193 28.865 44.7194 28.712 45.0194 28.7044C45.0194 28.7044 45.022 28.7044 45.0271 28.7044C45.8272 28.7044 46.135 29.7907 46.335 30.5099C46.3735 30.6476 46.4119 30.7776 46.4427 30.8694C46.9351 32.2924 47.2505 33.4629 47.4505 34.5492C47.8737 36.8213 47.7737 38.864 47.1505 40.6159C46.4119 42.6967 44.8809 44.3492 43.0576 45.0454C42.3421 45.3131 41.565 45.4508 40.7572 45.4508ZM33.7099 41.335C33.7561 41.335 33.8023 41.3503 33.833 41.3962C35.0717 42.865 36.4488 43.9208 37.9106 44.5328C39.5955 45.229 41.4265 45.3055 42.9345 44.7317C44.6732 44.0661 46.1273 42.4902 46.8274 40.5088C47.4275 38.8104 47.5275 36.8213 47.1197 34.6104C46.9274 33.5394 46.6043 32.3918 46.1196 30.9842C46.0888 30.8771 46.0503 30.747 46.0119 30.6017C45.8349 29.982 45.5733 29.041 45.0271 29.041C45.0271 29.041 45.0245 29.041 45.0194 29.041C44.804 29.041 44.5347 29.1787 44.2731 29.3088C44.1193 29.3929 43.9731 29.4618 43.8346 29.5153C43.373 29.676 42.8806 29.806 42.3805 29.8902C41.4034 30.0585 40.411 30.0661 39.4262 29.9208C38.9261 29.8443 38.4414 29.7219 37.9721 29.5612C37.9414 29.5536 37.9029 29.5459 37.849 29.523C37.4721 29.4082 37.1951 29.3164 37.0028 29.2323C37.3644 31.206 37.0335 33.3175 36.0718 35.0847C35.6641 35.8268 35.2409 36.3317 34.7332 36.676C34.0792 37.112 33.2791 37.2191 32.6482 36.959C32.3405 36.829 32.0789 36.6148 31.8327 36.4082C31.6019 36.2246 31.3942 36.0487 31.148 35.9339C30.3171 35.5437 29.1554 36.0181 28.7015 36.9208C28.2937 37.747 28.4091 38.864 29.0015 39.7667C29.9555 41.2355 31.9943 41.9241 33.6484 41.3426C33.6689 41.3375 33.6894 41.335 33.7099 41.335Z" fill="black" stroke="black" stroke-width="0.2"/>
<path d="M33.1257 39.8584C33.0642 39.8584 33.0026 39.8202 32.9719 39.759C32.5872 38.9404 31.6947 38.4049 30.7869 38.4508C30.6869 38.4584 30.61 38.3819 30.61 38.2901C30.6023 38.1983 30.6715 38.1218 30.7715 38.1142C31.8025 38.0606 32.8411 38.6803 33.2796 39.6136C33.3181 39.6978 33.2796 39.7972 33.195 39.8355C33.1745 39.8508 33.1514 39.8584 33.1257 39.8584Z" fill="black" stroke="black" stroke-width="0.2"/>
<path d="M18.8082 110.692C15.2461 108.849 12.9996 105.23 11.2917 101.619C7.29104 93.1273 5.34459 83.7175 5.37536 74.3382C5.39075 69.6869 5.97545 64.7907 8.70665 61.0191C11.6686 56.9339 16.7233 54.8147 21.7318 54.065C23.7475 53.7667 25.8862 53.6672 27.7404 54.5011C30.1561 55.5874 31.6333 57.9973 33.449 59.9098C35.5647 62.1361 38.2959 63.7809 41.2656 64.6148C43.1582 65.1426 45.4431 65.2803 46.6818 63.4749C47.2357 62.6639 47.405 61.6617 47.2742 60.6902C47.0049 58.6552 45.6663 57.0869 44.3661 55.5874C46.8588 55.1896 49.4207 56.1765 51.3902 57.7524C53.3598 59.3208 54.8138 61.4322 56.1448 63.5667C60.1916 70.0923 63.3075 77.1688 65.8002 84.429C66.6849 86.9995 67.5004 89.6847 67.2235 92.3852C66.9003 95.4377 66.331 98.3525 64.0691 100.433C63.3306 101.114 62.6304 101.711 62.0227 102.223C60.8686 103.187 59.353 103.593 57.8605 103.386C49.6207 102.262 29.6945 108.68 28.0097 110.042C25.4708 112.085 21.6394 112.161 18.8082 110.692Z" fill="#FF9536"/>
<path d="M26.9403 85.699C26.8711 85.699 26.8018 85.6531 26.7788 85.5842L22.8474 73.2902C22.8166 73.2061 22.8628 73.1066 22.9551 73.0837C23.0474 73.0531 23.1397 73.099 23.1705 73.1908L27.1019 85.4771C27.1327 85.5689 27.0865 85.6607 26.9942 85.6913C26.9788 85.6964 26.9608 85.699 26.9403 85.699Z" fill="black" stroke="black" stroke-width="0.2"/>
<path d="M54.761 80.9864C54.6764 80.9864 54.6071 80.9252 54.5918 80.841C54.0994 77.429 53.2531 74.0552 52.076 70.8192C52.0452 70.7274 52.0914 70.6356 52.176 70.605C52.2683 70.5667 52.3606 70.6126 52.3914 70.7044C53.5762 73.9634 54.4302 77.3602 54.9303 80.7951C54.938 80.8869 54.8764 80.9711 54.7841 80.9864C54.7738 80.9864 54.7661 80.9864 54.761 80.9864Z" fill="black" stroke="black" stroke-width="0.2"/>
<path d="M28.2711 107.135C28.4095 107.579 28.6096 108.091 29.0558 108.237C29.4097 108.351 29.8405 108.275 30.1252 108.038C36.3262 103.004 41.2731 99.7677 48.6127 96.6311C49.5436 96.2257 48.0665 100.28 53.3827 96.6617C54.2136 96.0879 53.5135 94.3896 52.5133 94.2213C53.3442 94.1065 54.052 93.395 54.1597 92.5688C54.2597 91.7426 53.7597 90.8781 52.9826 90.5568C53.7827 90.7098 54.5367 89.9142 54.5752 89.1032C54.6136 88.2923 54.1289 87.5426 53.5442 86.9688C55.7677 88.0399 58.8758 91.1688 60.6377 89.065C61.1147 86.9306 59.6067 85.7907 57.9449 84.3677C56.2831 82.9448 54.1136 82.2333 51.9517 81.8278C47.1509 80.9328 42.1502 81.3765 37.4571 82.7306C33.3334 83.924 29.402 85.7907 25.7553 88.0399C24.8628 88.5983 24.5628 88.7131 24.5474 89.7459C24.532 90.8475 24.8551 92.0562 25.0321 93.1426C25.386 95.4071 25.8245 97.6639 26.34 99.8978C26.8939 102.331 27.5402 104.748 28.2711 107.135Z" fill="white"/>
<path d="M48.7445 96.7154C48.6753 96.7154 48.606 96.6695 48.583 96.593C48.5522 96.5088 48.606 96.4093 48.6907 96.3864L50.8141 95.7132C50.9064 95.6826 50.9987 95.7285 51.0295 95.8203C51.0526 95.9121 51.0064 96.0039 50.9218 96.0345L48.7984 96.7077C48.7779 96.7128 48.7599 96.7154 48.7445 96.7154Z" fill="black"/>
<path d="M16.9474 93.5175C16.9012 93.5175 16.8551 93.5022 16.8166 93.4563C16.7627 93.3874 16.7704 93.2803 16.8397 93.2191C18.9708 91.4825 21.3173 90.0137 23.81 88.8508C23.8946 88.8049 23.9946 88.8432 24.0331 88.9273C24.0716 89.0115 24.0331 89.1109 23.9485 89.1492C21.4866 90.3044 19.1631 91.7656 17.0551 93.4792C17.0243 93.5098 16.9859 93.5175 16.9474 93.5175Z" fill="black" stroke="black" stroke-width="0.2"/>
<path d="M55.3212 98.6203C55.352 100.02 55.752 101.512 56.8599 102.361C58.2755 103.463 60.3143 103.157 62.0453 102.66C70.2697 100.311 77.6785 95.7743 81.9407 88.3995C82.1177 88.1011 83.6795 84.3678 83.0409 83.5263C82.4408 82.7383 80.9406 84.2377 79.9635 84.4443C75.7321 85.3317 71.5545 86.4793 67.4692 87.8793C65.3663 88.5984 63.2891 89.3864 61.2375 90.2432C59.668 90.8935 58.337 91.0694 57.2907 92.4847C55.9828 94.2443 55.2673 96.4399 55.3212 98.6203Z" fill="white"/>
<path d="M62.0463 102.828C61.9771 102.828 61.9079 102.782 61.8848 102.705C61.8617 102.614 61.9079 102.522 62.0002 102.499C71.0939 99.8978 77.9334 94.994 81.7956 88.3153C82.0495 87.8792 83.4497 84.3371 82.9035 83.6333C82.8496 83.5568 82.865 83.4497 82.9419 83.3962C83.0112 83.335 83.1189 83.3503 83.1727 83.4268C83.9421 84.4366 82.111 88.4453 82.0879 88.4836C78.1873 95.2388 71.2709 100.196 62.0925 102.82C62.0771 102.825 62.0617 102.828 62.0463 102.828Z" fill="black" stroke="black" stroke-width="0.2"/>
<path d="M87.4193 76.3961H72.3093C71.9862 76.3961 71.6861 76.5491 71.4861 76.7939L59.3073 92.2092C58.761 92.8901 59.2534 93.8999 60.1305 93.8999H74.7174C75.0328 93.8999 75.3328 93.7546 75.5329 93.5174L88.2348 78.1021C88.7965 77.4212 88.3041 76.3961 87.4193 76.3961Z" fill="black"/>
<path d="M80.9943 78.3852C80.8174 78.2169 80.5558 78.0562 80.3404 78.1709C80.148 78.2704 80.1172 78.5229 80.1019 78.7371C79.9839 80.823 79.8634 82.909 79.7403 84.995C79.771 83.1283 79.2787 81.2005 78.0631 79.7775C77.763 79.4256 77.2399 79.0966 76.886 79.3873C76.6706 79.571 76.6552 79.8846 76.6629 80.16C76.7706 82.501 77.7092 84.9261 76.886 87.1218C76.7398 85.7218 76.4013 84.3447 75.8935 83.0365C75.6858 82.501 75.4319 81.9502 74.9549 81.6212C74.4856 81.2846 73.747 81.2617 73.3931 81.7207C73.0161 82.2026 73.2469 82.8912 73.4547 83.4726C74.0548 85.1404 74.301 86.9229 74.1932 88.6901C73.9624 87.313 73.6778 85.8212 72.6469 84.8726C72.3391 84.5972 71.9698 84.3753 71.5544 84.3447C71.1466 84.3065 70.7004 84.4977 70.5234 84.8726C70.3234 85.2781 70.485 85.7524 70.6235 86.1884C71.1235 87.8486 71.1158 89.6617 70.6235 91.3218C70.2542 92.5764 68.6847 94.2518 70.3465 95.2311C70.9158 95.5677 71.6236 95.5906 72.2776 95.4988C74.1317 95.2311 75.7473 94.1218 77.1937 92.936C78.6786 91.7349 80.0788 90.4114 81.1636 88.8431C82.2407 87.2671 82.9869 85.4311 83.0408 83.5261C83.0946 81.6289 82.4099 79.6704 80.9943 78.3852Z" fill="white"/>
<path d="M105.376 105.085C105.276 105.085 105.207 105.008 105.207 104.916V46.9273H79.5338V72.9229C79.5338 73.0147 79.4646 73.0912 79.3646 73.0912C79.2723 73.0912 79.1953 73.0147 79.1953 72.9229V46.759C79.1953 46.6672 79.2723 46.5907 79.3646 46.5907H105.376C105.469 46.5907 105.546 46.6672 105.546 46.759V104.916C105.546 105.008 105.469 105.085 105.376 105.085Z" fill="black" stroke="black" stroke-width="0.2"/>
<path d="M124.81 117.922H92.5431C91.8507 117.922 91.2891 117.363 91.2891 116.682V113.668C91.2891 112.98 91.8507 112.421 92.5431 112.421H124.81C125.502 112.421 126.064 112.98 126.064 113.668V116.682C126.064 117.363 125.502 117.922 124.81 117.922Z" fill="white"/>
<path d="M124.341 134.431H92.0744C91.3819 134.431 90.8203 133.873 90.8203 133.184V130.17C90.8203 129.481 91.3819 128.923 92.0744 128.923H124.341C125.033 128.923 125.587 129.481 125.587 130.17V133.184C125.587 133.873 125.033 134.431 124.341 134.431Z" fill="white"/>
<path d="M125.163 128.923H92.8889C92.2042 128.923 91.6426 128.372 91.6426 127.684V124.669C91.6426 123.981 92.2042 123.422 92.8889 123.422H125.163C125.848 123.422 126.41 123.981 126.41 124.669V127.684C126.41 128.372 125.848 128.923 125.163 128.923Z" fill="white"/>
<path d="M128.556 123.422H96.2892C95.5968 123.422 95.0352 122.872 95.0352 122.183V119.169C95.0352 118.48 95.5968 117.922 96.2892 117.922H128.556C129.248 117.922 129.81 118.48 129.81 119.169V122.183C129.81 122.872 129.248 123.422 128.556 123.422Z" fill="white"/>
<path d="M124.787 118.09H96.513C96.4207 118.09 96.3438 118.014 96.3438 117.922C96.3438 117.83 96.4207 117.754 96.513 117.754H124.787C124.879 117.754 124.956 117.83 124.956 117.922C124.956 118.014 124.879 118.09 124.787 118.09Z" fill="black" stroke="black" stroke-width="0.2"/>
<path d="M126.857 139.932H94.59C93.8976 139.932 93.3359 139.373 93.3359 138.685V135.671C93.3359 134.982 93.8976 134.431 94.59 134.431H126.857C127.549 134.431 128.111 134.982 128.111 135.671V138.685C128.111 139.373 127.549 139.932 126.857 139.932Z" fill="white"/>
<path d="M124.387 134.599H94.6204C94.5281 134.599 94.4512 134.523 94.4512 134.431C94.4512 134.332 94.5281 134.263 94.6204 134.263H124.387C124.479 134.263 124.556 134.332 124.556 134.431C124.556 134.523 124.479 134.599 124.387 134.599Z" fill="black" stroke="black" stroke-width="0.2"/>
<path d="M124.11 129.091H93.1361C93.0437 129.091 92.9668 129.022 92.9668 128.923C92.9668 128.831 93.0437 128.755 93.1361 128.755H124.11C124.202 128.755 124.279 128.831 124.279 128.923C124.279 129.022 124.202 129.091 124.11 129.091Z" fill="black" stroke="black" stroke-width="0.2"/>
<path d="M125.048 123.591H96.4896C96.3896 123.591 96.3203 123.514 96.3203 123.422C96.3203 123.331 96.3896 123.254 96.4896 123.254H125.048C125.14 123.254 125.217 123.331 125.217 123.422C125.217 123.514 125.14 123.591 125.048 123.591Z" fill="black" stroke="black" stroke-width="0.2"/>
<path d="M112.716 124.088C112.716 132.817 105.607 139.886 96.8285 139.886C88.0502 139.886 80.9414 132.817 80.9414 124.088C80.9414 115.359 88.0502 108.29 96.8285 108.29C105.607 108.29 112.716 115.359 112.716 124.088Z" fill="white"/>
<path fill-rule="evenodd" clip-rule="evenodd" d="M96.8278 140.054C87.9726 140.054 80.7715 132.893 80.7715 124.088C80.7715 115.282 87.9726 108.122 96.8278 108.122C105.683 108.122 112.884 115.282 112.884 124.088C112.884 132.893 105.683 140.054 96.8278 140.054ZM96.8278 108.458C88.1573 108.458 81.11 115.466 81.11 124.088C81.11 132.71 88.1573 139.717 96.8278 139.717C105.498 139.717 112.546 132.71 112.546 124.088C112.546 115.466 105.498 108.458 96.8278 108.458Z" fill="#E9E9E9"/>
<path fill-rule="evenodd" clip-rule="evenodd" d="M96.8276 136.68C89.8419 136.68 84.1641 131.027 84.1641 124.088C84.1641 117.142 89.8419 111.496 96.8276 111.496C103.806 111.496 109.491 117.142 109.491 124.088C109.491 131.027 103.806 136.68 96.8276 136.68ZM96.8276 111.832C90.0342 111.832 84.5026 117.333 84.5026 124.088C84.5026 130.843 90.0342 136.344 96.8276 136.344C103.621 136.344 109.153 130.843 109.153 124.088C109.153 117.333 103.621 111.832 96.8276 111.832Z" fill="white"/>
<path d="M96.0134 133.903V131.486C94.6132 131.463 93.1745 131.034 92.3359 130.43L92.913 128.831C93.7746 129.405 95.0287 129.856 96.375 129.856C98.0753 129.856 99.2293 128.877 99.2293 127.515C99.2293 126.199 98.2984 125.389 96.5135 124.669C94.067 123.713 92.5514 122.619 92.5514 120.538C92.5514 118.557 93.967 117.05 96.1827 116.69V114.273H97.6675V116.591C99.1139 116.644 100.099 117.027 100.791 117.432L100.191 119.008C99.6909 118.718 98.7062 118.197 97.1675 118.197C95.3133 118.197 94.6132 119.291 94.6132 120.248C94.6132 121.495 95.5057 122.114 97.5983 122.979C100.076 123.981 101.322 125.22 101.322 127.347C101.322 129.237 99.9987 131.004 97.5291 131.417V133.903H96.0134Z" fill="#E9E9E9"/>
<path d="M138.451 138.769C138.404 138.769 138.358 138.746 138.327 138.715C138.266 138.654 138.266 138.547 138.327 138.478L150.699 126.177L138.327 113.875C138.266 113.806 138.266 113.699 138.327 113.638C138.397 113.569 138.504 113.569 138.566 113.638L151.06 126.054C151.129 126.123 151.129 126.23 151.06 126.291L138.566 138.715C138.535 138.746 138.489 138.769 138.451 138.769Z" fill="black" stroke="black" stroke-width="0.2"/>
<path d="M143.529 138.769C143.49 138.769 143.444 138.746 143.413 138.715C143.344 138.654 143.344 138.547 143.413 138.478L155.784 126.177L143.413 113.875C143.344 113.806 143.344 113.699 143.413 113.638C143.475 113.569 143.583 113.569 143.652 113.638L156.146 126.054C156.208 126.123 156.208 126.23 156.146 126.291L143.652 138.715C143.621 138.746 143.575 138.769 143.529 138.769Z" fill="black" stroke="black" stroke-width="0.2"/>
<path d="M80.0414 12.3021H74.2559V13.9852H75.2252V34.0442H79.0643V13.9852H80.0414V12.3021Z" fill="white"/>
<path fill-rule="evenodd" clip-rule="evenodd" d="M79.0636 34.2125H75.2246C75.1323 34.2125 75.0553 34.136 75.0553 34.0442V14.1535H74.2552C74.1629 14.1535 74.0859 14.077 74.0859 13.9852V12.3021C74.0859 12.2103 74.1629 12.1338 74.2552 12.1338H80.0407C80.133 12.1338 80.21 12.2103 80.21 12.3021V13.9852C80.21 14.077 80.133 14.1535 80.0407 14.1535H79.2329V34.0442C79.2329 34.136 79.1637 34.2125 79.0636 34.2125ZM75.3938 33.8759H78.8944V13.9852C78.8944 13.8934 78.9713 13.8168 79.0636 13.8168H79.8715V12.4704H74.4245V13.8168H75.2246C75.3169 13.8168 75.3938 13.8934 75.3938 13.9852V33.8759Z" fill="black" stroke="black" stroke-width="0.2"/>
<path d="M81.7653 37.2574V34.7557H80.4035V33.4016H73.8871V34.7557H72.5254V37.2574H81.7653Z" fill="white" stroke="black" stroke-width="0.2"/>
<path d="M81.7646 37.4256C81.6723 37.4256 81.5954 37.3491 81.5954 37.2573V34.924H80.4029C80.3106 34.924 80.2336 34.8475 80.2336 34.7557V33.5699H74.0557V34.7557C74.0557 34.8475 73.9788 34.924 73.8865 34.924H72.694V37.2573C72.694 37.3491 72.6247 37.4256 72.5247 37.4256C72.4324 37.4256 72.3555 37.3491 72.3555 37.2573V34.7557C72.3555 34.6639 72.4324 34.5874 72.5247 34.5874H73.7172V33.4016C73.7172 33.3098 73.7942 33.2333 73.8865 33.2333H80.4029C80.4952 33.2333 80.5721 33.3098 80.5721 33.4016V34.5874H81.7646C81.857 34.5874 81.9339 34.6639 81.9339 34.7557V37.2573C81.9339 37.3491 81.857 37.4256 81.7646 37.4256Z" fill="black"/>
<path d="M96.0277 12.3021H90.2422V13.9852H91.2116V34.0442H95.0583V13.9852H96.0277V12.3021Z" fill="white"/>
<path fill-rule="evenodd" clip-rule="evenodd" d="M95.0596 34.2125H91.2129C91.1205 34.2125 91.0436 34.136 91.0436 34.0442V14.1535H90.2435C90.1512 14.1535 90.0742 14.077 90.0742 13.9852V12.3021C90.0742 12.2103 90.1512 12.1338 90.2435 12.1338H96.029C96.1213 12.1338 96.1982 12.2103 96.1982 12.3021V13.9852C96.1982 14.077 96.1213 14.1535 96.029 14.1535H95.2289V34.0442C95.2289 34.136 95.1519 34.2125 95.0596 34.2125ZM91.3821 33.8759H94.8904V13.9852C94.8904 13.8934 94.9596 13.8168 95.0596 13.8168H95.8597V12.4704H90.4127V13.8168H91.2129C91.3052 13.8168 91.3821 13.8934 91.3821 13.9852V33.8759Z" fill="black" stroke="black" stroke-width="0.2"/>
<path d="M97.7517 37.2574V34.7557H96.39V33.4016H89.8736V34.7557H88.5195V37.2574H97.7517Z" fill="white"/>
<path d="M97.7511 37.4256C97.6588 37.4256 97.5818 37.3491 97.5818 37.2573V34.924H96.3893C96.297 34.924 96.2201 34.8475 96.2201 34.7557V33.5699H90.0499V34.7557C90.0499 34.8475 89.9729 34.924 89.8729 34.924H88.6881V37.2573C88.6881 37.3491 88.6112 37.4256 88.5189 37.4256C88.4189 37.4256 88.3496 37.3491 88.3496 37.2573V34.7557C88.3496 34.6639 88.4189 34.5874 88.5189 34.5874H89.7037V33.4016C89.7037 33.3098 89.7806 33.2333 89.8729 33.2333H96.3893C96.4816 33.2333 96.5586 33.3098 96.5586 33.4016V34.5874H97.7511C97.8434 34.5874 97.9203 34.6639 97.9203 34.7557V37.2573C97.9203 37.3491 97.8434 37.4256 97.7511 37.4256Z" fill="black" stroke="black" stroke-width="0.2"/>
<path d="M112.016 12.3021H106.23V13.9852H107.2V33.8529H111.047V13.9852H112.016V12.3021Z" fill="white"/>
<path fill-rule="evenodd" clip-rule="evenodd" d="M111.046 34.0212H107.199C107.107 34.0212 107.03 33.9447 107.03 33.8529V14.1535H106.23C106.137 14.1535 106.061 14.077 106.061 13.9852V12.3021C106.061 12.2103 106.137 12.1338 106.23 12.1338H112.015C112.108 12.1338 112.185 12.2103 112.185 12.3021V13.9852C112.185 14.077 112.108 14.1535 112.015 14.1535H111.215V33.8529C111.215 33.9447 111.138 34.0212 111.046 34.0212ZM107.368 33.6846H110.877V13.9852C110.877 13.8934 110.954 13.8168 111.046 13.8168H111.846V12.4704H106.399V13.8168H107.199C107.299 13.8168 107.368 13.8934 107.368 13.9852V33.6846Z" fill="black" stroke="black" stroke-width="0.2"/>
<path d="M113.738 37.2574V34.7557H112.376V33.4016H105.868V34.7557H104.506V37.2574H113.738Z" fill="white" stroke="black" stroke-width="0.2"/>
<path d="M113.739 37.4256C113.647 37.4256 113.57 37.3491 113.57 37.2573V34.924H112.378C112.285 34.924 112.208 34.8475 112.208 34.7557V33.5699H106.038V34.7557C106.038 34.8475 105.961 34.924 105.869 34.924H104.676V37.2573C104.676 37.3491 104.599 37.4256 104.507 37.4256C104.415 37.4256 104.338 37.3491 104.338 37.2573V34.7557C104.338 34.6639 104.415 34.5874 104.507 34.5874H105.7V33.4016C105.7 33.3098 105.777 33.2333 105.869 33.2333H112.378C112.478 33.2333 112.555 33.3098 112.555 33.4016V34.5874H113.739C113.839 34.5874 113.909 34.6639 113.909 34.7557V37.2573C113.909 37.3491 113.839 37.4256 113.739 37.4256Z" fill="black"/>
<path d="M115.855 10.6573H70.4095C70.3172 10.6573 70.2402 10.5808 70.2402 10.489C70.2402 10.3972 70.3172 10.3207 70.4095 10.3207H115.855C115.955 10.3207 116.024 10.3972 116.024 10.489C116.024 10.5808 115.955 10.6573 115.855 10.6573Z" fill="black" stroke="black" stroke-width="0.2"/>
<path d="M70.4082 39.6136V37.2573H115.854V39.6136H70.4082Z" fill="white"/>
<path d="M115.855 39.782C115.763 39.782 115.686 39.7055 115.686 39.6137V37.4257H70.5788V39.6137C70.5788 39.7055 70.5095 39.782 70.4095 39.782C70.3172 39.782 70.2402 39.7055 70.2402 39.6137V37.2574C70.2402 37.158 70.3172 37.0891 70.4095 37.0891H115.855C115.955 37.0891 116.024 37.158 116.024 37.2574V39.6137C116.024 39.7055 115.955 39.782 115.855 39.782Z" fill="black" stroke="black" stroke-width="0.2"/>
<path d="M109.446 39.6136H118.317V41.9776H67.9473V39.6136H77.9027H109.446Z" fill="white"/>
<path d="M118.316 42.1459H67.9466C67.8543 42.1459 67.7773 42.0694 67.7773 41.9776V39.6136C67.7773 39.5218 67.8543 39.4453 67.9466 39.4453H77.902C77.9943 39.4453 78.0713 39.5218 78.0713 39.6136C78.0713 39.7054 77.9943 39.7819 77.902 39.7819H68.1159V41.8092H118.147V39.7819H109.445C109.353 39.7819 109.276 39.7054 109.276 39.6136C109.276 39.5218 109.353 39.4453 109.445 39.4453H118.316C118.416 39.4453 118.485 39.5218 118.485 39.6136V41.9776C118.485 42.0694 118.416 42.1459 118.316 42.1459Z" fill="black" stroke="black" stroke-width="0.2"/>
<path d="M93.1348 0.268311L70.4082 8.20929H115.854L93.1348 0.268311Z" fill="white"/>
<path fill-rule="evenodd" clip-rule="evenodd" d="M115.854 8.37761H70.4087C70.3317 8.37761 70.2625 8.31641 70.2471 8.23991C70.2317 8.15575 70.2779 8.07925 70.3548 8.04865L93.0814 0.107666C93.1122 0.100016 93.1507 0.100016 93.1891 0.107666L115.916 8.04865C115.993 8.07925 116.039 8.15575 116.023 8.23991C116.008 8.31641 115.939 8.37761 115.854 8.37761ZM71.4011 8.041H114.862L93.1353 0.444278L71.4011 8.041Z" fill="black" stroke="black" stroke-width="0.2"/>
<path d="M192.452 126.176C192.598 133.773 186.489 139.932 178.819 139.932C171.148 139.932 164.809 133.773 164.671 126.176C164.524 118.58 170.625 112.421 178.303 112.421C185.974 112.421 192.306 118.58 192.452 126.176Z" fill="white"/>
<path d="M179.05 133.1C179.015 133.1 178.983 133.084 178.963 133.056L171.02 122.224C170.986 122.177 170.997 122.112 171.045 122.078C171.093 122.045 171.16 122.056 171.194 122.102L179.05 132.816L192.806 114.144C192.84 114.097 192.907 114.086 192.955 114.12C193.003 114.153 193.014 114.218 192.98 114.265L179.137 133.056C179.117 133.084 179.084 133.1 179.05 133.1Z" fill="#FF9536"/>
<path fill-rule="evenodd" clip-rule="evenodd" d="M178.819 140.1C171.064 140.1 164.64 133.857 164.501 126.176C164.424 122.466 165.817 118.978 168.409 116.353C171.025 113.706 174.533 112.253 178.303 112.253C186.051 112.253 192.475 118.496 192.621 126.169C192.69 129.879 191.298 133.375 188.705 135.999C186.097 138.646 182.589 140.1 178.819 140.1ZM178.303 112.59C174.626 112.59 171.202 114.005 168.656 116.583C166.124 119.153 164.77 122.558 164.84 126.169C164.978 133.666 171.248 139.763 178.819 139.763C182.496 139.763 185.92 138.34 188.466 135.762C190.998 133.199 192.352 129.795 192.282 126.176C192.144 118.687 185.866 112.59 178.303 112.59Z" fill="black"/>
<path d="M178.302 109.216C178.202 109.216 178.133 109.147 178.133 109.048V96.5776C178.133 96.4782 178.202 96.4093 178.302 96.4093C178.394 96.4093 178.471 96.4782 178.471 96.5776V109.048C178.471 109.147 178.394 109.216 178.302 109.216Z" fill="black" stroke="black" stroke-width="0.2"/>
<path d="M157.222 93.2038H199.89C202.268 93.2038 204.207 91.276 204.207 88.912V4.56011C204.207 2.19618 202.268 0.268311 199.89 0.268311H157.222C154.853 0.268311 152.906 2.19618 152.906 4.56011V88.912C152.906 91.276 154.853 93.2038 157.222 93.2038Z" fill="white"/>
<path fill-rule="evenodd" clip-rule="evenodd" d="M199.89 93.3721H157.222C154.752 93.3721 152.736 91.3754 152.736 88.912V4.56008C152.736 2.0967 154.752 0.0999756 157.222 0.0999756H199.89C202.367 0.0999756 204.375 2.0967 204.375 4.56008V88.912C204.375 91.3754 202.367 93.3721 199.89 93.3721ZM157.222 0.436587C154.937 0.436587 153.075 2.28795 153.075 4.56008V88.912C153.075 91.1841 154.937 93.0355 157.222 93.0355H199.89C202.175 93.0355 204.037 91.1841 204.037 88.912V4.56008C204.037 2.28795 202.175 0.436587 199.89 0.436587H157.222Z" fill="black" stroke="black" stroke-width="0.2"/>
<path d="M158.045 90.2585H199.075C200.514 90.2585 201.691 89.0803 201.691 87.6497V5.56227C201.691 4.13167 200.514 2.96118 199.075 2.96118H158.045C156.607 2.96118 155.422 4.13167 155.422 5.56227V87.6497C155.422 89.0803 156.607 90.2585 158.045 90.2585Z" fill="white"/>
<path fill-rule="evenodd" clip-rule="evenodd" d="M199.074 90.4267H158.045C156.506 90.4267 155.252 89.1797 155.252 87.6497V5.56224C155.252 4.03984 156.506 2.79285 158.045 2.79285H199.074C200.613 2.79285 201.859 4.03984 201.859 5.56224V87.6497C201.859 89.1797 200.613 90.4267 199.074 90.4267ZM158.045 3.12946C156.691 3.12946 155.59 4.22345 155.59 5.56224V87.6497C155.59 88.9961 156.691 90.0825 158.045 90.0825H199.074C200.421 90.0825 201.521 88.9961 201.521 87.6497V5.56224C201.521 4.22345 200.421 3.12946 199.074 3.12946H158.045Z" fill="black" stroke="black" stroke-width="0.2"/>
<path d="M183.365 5.76117H173.171C173.079 5.76117 173.002 5.68467 173.002 5.59287C173.002 5.50106 173.079 5.42456 173.171 5.42456H183.365C183.457 5.42456 183.534 5.50106 183.534 5.59287C183.534 5.68467 183.457 5.76117 183.365 5.76117Z" fill="black" stroke="black" stroke-width="0.2"/>
<path d="M199.999 26.547H157.123V64.6913H199.999V26.547Z" fill="#E9E9E9"/>
<path d="M210.8 61.3175L160.508 61.2793L160.531 27.8935L185.581 10.8563L210.831 27.9317L210.8 61.3175Z" fill="white"/>
<path fill-rule="evenodd" clip-rule="evenodd" d="M210.8 61.4857L160.507 61.4475C160.415 61.4475 160.338 61.371 160.338 61.2792L160.361 27.8934C160.361 27.8322 160.392 27.7786 160.438 27.748L185.48 10.7185C185.542 10.6803 185.619 10.6803 185.673 10.7185L210.923 27.7939C210.969 27.8245 211 27.8781 211 27.9316L210.977 61.3174C210.977 61.3633 210.953 61.4092 210.923 61.4398C210.892 61.4704 210.846 61.4857 210.8 61.4857ZM160.676 61.1109L210.63 61.1491L210.661 28.0234L185.58 11.0628L160.699 27.9775L160.676 61.1109Z" fill="black" stroke="black" stroke-width="0.2"/>
<path d="M196.366 40.57C196.366 46.4531 191.581 51.2115 185.665 51.2115C179.756 51.2115 174.963 46.4531 174.963 40.57C174.963 34.6946 179.756 29.9285 185.665 29.9285C191.581 29.9285 196.366 34.6946 196.366 40.57Z" fill="#FF9536"/>
<path fill-rule="evenodd" clip-rule="evenodd" d="M185.666 51.3798C179.673 51.3798 174.795 46.5295 174.795 40.57C174.795 34.6104 179.673 29.7601 185.666 29.7601C191.659 29.7601 196.537 34.6104 196.537 40.57C196.537 46.5295 191.659 51.3798 185.666 51.3798ZM185.666 30.0967C179.865 30.0967 175.133 34.8017 175.133 40.57C175.133 46.3459 179.865 51.0432 185.666 51.0432C191.474 51.0432 196.198 46.3459 196.198 40.57C196.198 34.8017 191.474 30.0967 185.666 30.0967Z" fill="white"/>
<path fill-rule="evenodd" clip-rule="evenodd" d="M185.666 49.1076C180.935 49.1076 177.088 45.2748 177.088 40.5699C177.088 35.8649 180.935 32.0398 185.666 32.0398C190.398 32.0398 194.252 35.8649 194.252 40.5699C194.252 45.2748 190.398 49.1076 185.666 49.1076ZM185.666 32.3764C181.119 32.3764 177.426 36.0562 177.426 40.5699C177.426 45.0912 181.119 48.7709 185.666 48.7709C190.213 48.7709 193.914 45.0912 193.914 40.5699C193.914 36.0562 190.213 32.3764 185.666 32.3764Z" fill="white"/>
<path d="M185.12 47.1798V45.5579C184.181 45.5426 183.204 45.2519 182.643 44.8465L183.027 43.7678C183.612 44.1579 184.451 44.464 185.358 44.464C186.512 44.464 187.289 43.7984 187.289 42.8803C187.289 42.0006 186.659 41.4497 185.458 40.9678C183.804 40.3252 182.789 39.5831 182.789 38.1831C182.789 36.8443 183.743 35.8344 185.235 35.5896V33.9678H186.235V35.5284C187.205 35.559 187.874 35.8191 188.343 36.0869L187.936 37.1503C187.597 36.959 186.928 36.6071 185.897 36.6071C184.651 36.6071 184.181 37.3415 184.181 37.9918C184.181 38.8257 184.781 39.2465 186.189 39.8279C187.851 40.5011 188.697 41.335 188.697 42.7732C188.697 44.0432 187.805 45.2366 186.135 45.5044V47.1798H185.12Z" fill="white"/>
<path d="M210.8 61.3175L160.508 61.2792L160.531 27.8934L185.558 44.6399L210.831 27.9317L210.8 61.3175Z" fill="white"/>
<path fill-rule="evenodd" clip-rule="evenodd" d="M210.8 61.4858L160.507 61.4475C160.415 61.4475 160.338 61.371 160.338 61.2792L160.361 27.8934C160.361 27.8246 160.399 27.771 160.453 27.7404C160.507 27.7098 160.576 27.7175 160.623 27.7481L185.557 44.4333L210.73 27.794C210.784 27.7557 210.853 27.7557 210.907 27.7863C210.961 27.8169 211 27.8705 211 27.9317L210.977 61.3175C210.977 61.3634 210.953 61.4093 210.923 61.4399C210.892 61.4705 210.846 61.4858 210.8 61.4858ZM160.676 61.1109L210.63 61.1492L210.661 28.2453L185.65 44.7776C185.596 44.8158 185.519 44.8158 185.457 44.7776L160.699 28.2071L160.676 61.1109Z" fill="black" stroke="black" stroke-width="0.2"/>
<path d="M209.091 60.4147C209.055 60.4147 209.024 60.4045 208.999 60.3841L186.865 45.5885C186.788 45.5349 186.765 45.4278 186.818 45.3513C186.872 45.2748 186.972 45.2519 187.049 45.3054L209.183 60.1011C209.26 60.1546 209.283 60.2617 209.23 60.3382C209.199 60.3841 209.145 60.4147 209.091 60.4147Z" fill="black" stroke="black" stroke-width="0.2"/>
<path d="M162.516 60.2158C162.462 60.2158 162.408 60.1929 162.37 60.1393C162.324 60.0628 162.339 59.9634 162.416 59.9098L183.704 45.4584C183.781 45.4125 183.881 45.4278 183.935 45.5043C183.988 45.5808 183.965 45.6879 183.888 45.7415L162.608 60.1852C162.577 60.2056 162.547 60.2158 162.516 60.2158Z" fill="black" stroke="black" stroke-width="0.2"/>
<path d="M189.243 18.0628C191.167 21.0158 190.313 24.9557 187.343 26.8683C184.373 28.7809 180.411 27.9317 178.488 24.9787C176.572 22.0257 177.418 18.0858 180.388 16.1732C183.358 14.2683 187.32 15.1098 189.243 18.0628Z" fill="#E9E9E9"/>
<path fill-rule="evenodd" clip-rule="evenodd" d="M183.881 28.0618C183.419 28.0618 182.95 28.0082 182.488 27.9088C180.773 27.5492 179.303 26.5394 178.349 25.0705C176.38 22.0487 177.257 17.994 180.296 16.0355C183.342 14.0771 187.42 14.9492 189.382 17.9711C190.336 19.4399 190.659 21.1842 190.297 22.8902C189.928 24.5962 188.912 26.0574 187.435 27.006C186.358 27.7022 185.135 28.0618 183.881 28.0618ZM183.858 15.3241C182.696 15.3241 181.527 15.6454 180.48 16.3186C177.595 18.1776 176.764 22.0181 178.634 24.8869C179.534 26.2793 180.934 27.2355 182.558 27.5798C184.189 27.9317 185.858 27.6257 187.251 26.723C188.651 25.8279 189.612 24.4432 189.959 22.8213C190.313 21.1995 190.005 19.547 189.105 18.1547C187.912 16.3262 185.904 15.3241 183.858 15.3241Z" fill="white"/>
<path fill-rule="evenodd" clip-rule="evenodd" d="M183.873 26.6924C182.166 26.6924 180.496 25.8585 179.496 24.3361C178.742 23.1732 178.488 21.7885 178.78 20.4344C179.073 19.088 179.873 17.9252 181.042 17.1754C183.45 15.6301 186.674 16.3186 188.236 18.7131C188.99 19.8683 189.244 21.253 188.959 22.6071C188.667 23.9612 187.859 25.1164 186.697 25.8661C185.82 26.4246 184.843 26.6924 183.873 26.6924ZM183.858 16.6858C182.958 16.6858 182.042 16.9383 181.227 17.4585C180.134 18.1623 179.38 19.241 179.111 20.511C178.842 21.7732 179.08 23.0661 179.781 24.1525C181.242 26.3864 184.258 27.029 186.512 25.5831C187.597 24.8793 188.351 23.8006 188.62 22.5383C188.897 21.276 188.659 19.9754 187.951 18.8967C187.02 17.4661 185.458 16.6858 183.858 16.6858Z" fill="white"/>
<path d="M185.749 25.017L185.218 24.206C184.741 24.4967 184.156 24.6651 183.741 24.6498L183.587 23.9842C184.002 23.9842 184.526 23.8694 184.979 23.5711C185.557 23.2039 185.733 22.6224 185.433 22.1558C185.141 21.712 184.649 21.6432 183.887 21.7886C182.848 21.9951 182.094 21.9569 181.633 21.253C181.202 20.5798 181.348 19.7612 182.017 19.1569L181.487 18.3459L181.987 18.017L182.502 18.8049C183.002 18.5066 183.418 18.4224 183.741 18.4071L183.887 19.0727C183.649 19.0804 183.202 19.1186 182.679 19.4552C182.056 19.8607 182.064 20.3809 182.271 20.7022C182.548 21.123 182.987 21.1459 183.879 20.9776C184.941 20.7787 185.633 20.9241 186.103 21.6508C186.518 22.2858 186.464 23.1733 185.718 23.8465L186.264 24.688L185.749 25.017Z" fill="white"/>
<path d="M195.467 13.9699C194.028 15.7754 191.389 16.0738 189.573 14.6508C187.758 13.2202 187.45 10.5962 188.889 8.79069C190.327 6.98523 192.959 6.67922 194.774 8.10982C196.59 9.54042 196.898 12.1645 195.467 13.9699Z" fill="#E9E9E9"/>
<path fill-rule="evenodd" clip-rule="evenodd" d="M192.174 15.7142C191.22 15.7142 190.266 15.4082 189.466 14.7809C187.581 13.2967 187.265 10.5656 188.758 8.68361C189.481 7.78088 190.512 7.20711 191.674 7.0694C192.828 6.93935 193.967 7.26066 194.882 7.97979C196.767 9.46394 197.09 12.1951 195.598 14.0694C194.736 15.1481 193.459 15.7142 192.174 15.7142ZM192.182 7.37542C192.028 7.37542 191.871 7.38562 191.712 7.40602C190.643 7.52842 189.689 8.05629 189.02 8.89782C187.642 10.6268 187.942 13.1437 189.681 14.5131C191.42 15.8825 193.951 15.5918 195.328 13.8628C196.705 12.1339 196.413 9.60929 194.674 8.2399C193.959 7.67378 193.082 7.37542 192.182 7.37542Z" fill="white"/>
<path fill-rule="evenodd" clip-rule="evenodd" d="M192.175 14.8268C191.421 14.8268 190.659 14.5819 190.028 14.0847C188.528 12.8989 188.274 10.7262 189.459 9.24206C190.643 7.75026 192.828 7.4978 194.329 8.67594C195.829 9.85408 196.083 12.0268 194.89 13.5186C194.213 14.3754 193.198 14.8268 192.175 14.8268ZM192.182 8.27047C191.259 8.27047 190.343 8.67594 189.72 9.44862C188.651 10.7951 188.882 12.7535 190.236 13.8169C191.59 14.8803 193.559 14.6508 194.629 13.312C195.698 11.9656 195.467 10.0071 194.113 8.9437C193.544 8.49233 192.859 8.27047 192.182 8.27047Z" fill="white"/>
<path d="M190.39 13.2738L190.79 12.7765C190.505 12.547 190.274 12.218 190.197 11.9579L190.582 11.7208C190.667 11.9809 190.851 12.2792 191.128 12.5011C191.482 12.7765 191.882 12.7612 192.105 12.4781C192.328 12.2104 192.267 11.8891 192.013 11.4453C191.667 10.8486 191.536 10.3743 191.874 9.94589C192.205 9.54043 192.744 9.45627 193.259 9.73933L193.659 9.24207L193.967 9.48688L193.582 9.96119C193.875 10.206 194.013 10.4508 194.09 10.6497L193.706 10.8792C193.652 10.7339 193.536 10.4661 193.213 10.2137C192.836 9.91529 192.505 10.03 192.351 10.2213C192.144 10.4814 192.228 10.7568 192.521 11.277C192.867 11.8814 192.921 12.3481 192.567 12.7841C192.259 13.1743 191.69 13.3273 191.113 13.006L190.705 13.5262L190.39 13.2738Z" fill="white"/>
<path d="M191.497 81.8355H165.101C163.816 81.8355 162.777 80.795 162.777 79.5251C162.777 78.2475 163.816 77.2147 165.101 77.2147H191.497C192.782 77.2147 193.821 78.2475 193.821 79.5251C193.821 80.795 192.782 81.8355 191.497 81.8355Z" fill="#E9E9E9"/>
</svg>
