<svg width="212" height="141" viewBox="0 0 212 141" fill="none" xmlns="http://www.w3.org/2000/svg">
<path d="M63.6932 84.371L71.4599 57.0164L70.0924 46.4439C70.0924 46.4439 79.9871 39.3982 73.0193 33.8953C66.0439 28.3925 62.418 35.4686 57.317 36.0691C52.2237 36.6771 47.8526 37.802 44.2727 48.1313C40.6928 58.4605 30.875 81.2395 30.875 81.2395L63.6932 84.371Z" fill="black"/>
<path d="M108.735 137.53H69.2949L72.1066 113.633L93.7088 109.476L108.735 137.53Z" fill="white"/>
<path fill-rule="evenodd" clip-rule="evenodd" d="M108.734 137.697H69.294C69.2479 137.697 69.2018 137.674 69.1634 137.636C69.1327 137.606 69.1173 137.56 69.125 137.507L71.9367 113.611C71.952 113.542 72.0058 113.481 72.0749 113.466L93.6772 109.309C93.7463 109.293 93.8232 109.331 93.8616 109.392L108.888 137.454C108.911 137.499 108.911 137.568 108.88 137.613C108.849 137.667 108.796 137.697 108.734 137.697ZM69.4861 137.362H108.458L93.6157 109.658L72.2593 113.77L69.4861 137.362Z" fill="black" stroke="black" stroke-width="0.3"/>
<path d="M73.8278 116.742L100.277 116.195C100.277 116.195 91.3277 98.0446 85.7044 87.3202C83.031 82.205 78.2911 78.4503 72.6677 76.9834C63.357 74.5664 47.8006 71.8454 31.8755 74.8628C28.4108 75.524 25.3379 77.4698 23.3098 80.32C17.9093 87.8826 7.03902 104.102 4.73438 114.956H33.7422L28.4876 133.129L71.1083 132.886L73.8278 116.742Z" fill="#FF9536"/>
<path d="M145.856 139.62H67.713C67.1445 139.62 66.6836 139.164 66.6836 138.594V138.624C66.6836 138.062 67.1445 137.606 67.713 137.606H145.856C146.424 137.606 146.885 138.062 146.885 138.624V138.594C146.885 139.164 146.424 139.62 145.856 139.62Z" fill="white"/>
<path fill-rule="evenodd" clip-rule="evenodd" d="M145.855 139.787H67.7121C67.0668 139.787 66.5367 139.278 66.5137 138.639C66.5137 138.634 66.5137 138.629 66.5137 138.624V138.594C66.5137 138.589 66.5137 138.584 66.5137 138.579C66.5367 137.948 67.0668 137.438 67.7121 137.438H145.855C146.5 137.438 147.03 137.948 147.053 138.579C147.053 138.584 147.053 138.589 147.053 138.594V138.624C147.053 138.629 147.053 138.634 147.053 138.639C147.03 139.278 146.5 139.787 145.855 139.787ZM66.8517 138.609C66.8594 139.073 67.2435 139.453 67.7121 139.453H145.855C146.324 139.453 146.708 139.073 146.715 138.609C146.708 138.145 146.324 137.773 145.855 137.773H67.7121C67.2435 137.773 66.8594 138.145 66.8517 138.609Z" fill="black"/>
<path d="M144.334 137.53H137.059V136.298H144.334V137.53Z" fill="black"/>
<path d="M134.64 137.53H127.365V136.298H134.64V137.53Z" fill="black"/>
<path d="M124.945 137.53H117.67V136.298H124.945V137.53Z" fill="black"/>
<path d="M115.25 137.53H107.975V136.298H115.25V137.53Z" fill="black"/>
<path d="M105.547 137.53H98.2793V136.298H105.547V137.53Z" fill="black"/>
<path d="M95.8513 137.53H88.584V136.298H95.8513V137.53Z" fill="black"/>
<path d="M86.1579 137.53H78.8906V136.298H86.1579V137.53Z" fill="black"/>
<path d="M76.4626 137.53H69.1953V136.298H76.4626V137.53Z" fill="black"/>
<path d="M67.4278 123.263C73.5966 123.263 79.6578 125.186 84.5283 128.949C87.824 131.495 90.9429 135.052 92.4717 139.924H23.1709C14.2749 139.924 7.69132 131.746 9.681 123.172L11.6707 114.561C11.6707 114.561 27.012 110.965 37.0218 114.956L34.9323 123.263H67.4278Z" fill="white"/>
<path d="M92.4725 140.091H23.1717C18.8774 140.091 14.8904 138.191 12.217 134.87C9.54357 131.548 8.55257 127.269 9.51284 123.134L11.5102 114.523C11.5256 114.432 11.6178 114.371 11.7099 114.394C11.8021 114.416 11.8559 114.508 11.8329 114.599L9.84317 123.21C8.90595 127.246 9.86622 131.419 12.4782 134.657C15.0901 137.902 18.9849 139.757 23.1717 139.757H92.2421C90.8977 135.637 88.2704 132.05 84.4216 129.078C82.0401 127.239 79.3437 125.817 76.4091 124.852C76.3246 124.829 76.2785 124.73 76.3092 124.647C76.3323 124.556 76.4322 124.51 76.5167 124.54C79.4897 125.513 82.2168 126.95 84.629 128.812C88.6007 131.883 91.2971 135.599 92.6339 139.871C92.6492 139.924 92.6415 139.977 92.6108 140.023C92.5724 140.068 92.5263 140.091 92.4725 140.091Z" fill="black" stroke="black" stroke-width="0.3"/>
<path d="M83.7137 137.309C83.6446 137.309 83.5831 137.271 83.5524 137.203C82.1235 133.722 78.9662 130.932 75.3095 129.914C75.2173 129.884 75.1635 129.792 75.1942 129.701C75.2173 129.617 75.3095 129.564 75.4016 129.587C79.1505 130.636 82.4001 133.509 83.8674 137.081C83.9058 137.165 83.8597 137.264 83.7752 137.294C83.7547 137.304 83.7342 137.309 83.7137 137.309Z" fill="black" stroke="black" stroke-width="0.3"/>
<path d="M76.3711 137.469C76.3019 137.469 76.2405 137.431 76.2174 137.37C74.9038 134.459 72.2995 132.11 69.242 131.1C69.1498 131.069 69.1038 130.97 69.1345 130.887C69.1652 130.796 69.2574 130.75 69.3496 130.78C72.4916 131.822 75.1727 134.239 76.5247 137.233C76.5631 137.317 76.5247 137.416 76.4402 137.454C76.4146 137.464 76.3916 137.469 76.3711 137.469Z" fill="black" stroke="black" stroke-width="0.3"/>
<path d="M62.8271 74.9007C62.8271 74.9007 70.4555 81.156 63.6952 84.3711C56.9349 87.5785 47.2246 73.5326 47.2246 73.5326C49.2681 72.917 50.8583 71.3132 51.4421 69.2763L55.2832 55.8308L65.9691 61.1436L62.8271 74.9007Z" fill="white"/>
<path d="M56.2118 51.6505C56.2118 51.6505 54.4987 46.9153 51.5488 47.2421C47.047 47.7438 45.864 55.2988 52.9239 56.2716C52.9239 56.2716 59.1618 68.3034 67.6659 66.9125C76.1701 65.5292 73.7963 46.7329 72.8437 43.4038C72.8437 43.4038 62.5727 40.0063 60.5599 46.1476C59.3846 49.7199 59.7994 52.3345 56.2118 51.6505Z" fill="white"/>
<path fill-rule="evenodd" clip-rule="evenodd" d="M66.3216 67.1937C63.2103 67.1937 60.0069 65.4988 56.9801 62.2229C54.6063 59.6615 53.0852 56.9101 52.8164 56.4236C49.0291 55.8688 47.7077 53.505 47.7308 51.4604C47.7615 49.1955 49.3978 47.3105 51.5334 47.0749C54.3835 46.7633 56.0736 50.822 56.3425 51.506C58.893 51.9545 59.2156 50.6472 59.7918 48.291C59.9531 47.6297 60.1375 46.8849 60.3986 46.0944C60.8365 44.7415 61.7046 43.7382 62.9799 43.1074C66.7211 41.2376 72.6517 43.1606 72.8975 43.2442C72.9513 43.267 72.9897 43.305 73.0051 43.3582C73.7733 46.0336 75.448 58.5138 71.7606 64.2599C70.7388 65.856 69.3637 66.8061 67.6967 67.0797C67.2409 67.1557 66.7825 67.1937 66.3216 67.1937ZM51.8407 47.3941C51.7485 47.3941 51.6564 47.3992 51.5642 47.4093C49.3287 47.6601 48.0918 49.6819 48.0688 51.468C48.0457 53.3834 49.3133 55.6028 52.947 56.1044C53.0084 56.112 53.0545 56.1424 53.0776 56.1956C53.139 56.3096 59.3539 68.1058 67.6429 66.7529C69.2101 66.4944 70.5007 65.5976 71.4763 64.0775C75.0639 58.491 73.4737 46.3528 72.7055 43.533C71.9603 43.305 66.506 41.7165 63.1258 43.4038C61.9428 43.9967 61.1285 44.9391 60.7213 46.1932C60.4678 46.9761 60.2834 47.7133 60.1221 48.3746C59.5536 50.7004 59.1388 52.3801 56.1811 51.8177C56.1274 51.8025 56.0736 51.7645 56.0582 51.7037C56.0429 51.6657 54.4603 47.3941 51.8407 47.3941Z" fill="black"/>
<path d="M54.2622 53.9838C54.2084 53.9838 54.1546 53.961 54.1239 53.9154C53.3096 52.7905 51.9422 52.0989 50.544 52.1065C50.4518 52.1065 50.375 52.0305 50.375 51.9392C50.375 51.848 50.4518 51.772 50.544 51.772C52.0497 51.7644 53.5247 52.5093 54.4005 53.7178C54.4542 53.7938 54.4389 53.9002 54.362 53.9534C54.3313 53.9686 54.3006 53.9838 54.2622 53.9838Z" fill="black"/>
<path d="M152.338 139.62H114.357V134.368H152.338V139.62Z" fill="black"/>
<path fill-rule="evenodd" clip-rule="evenodd" d="M152.339 139.787H114.358C114.259 139.787 114.189 139.711 114.189 139.62V134.368C114.189 134.277 114.259 134.201 114.358 134.201H152.339C152.431 134.201 152.508 134.277 152.508 134.368V139.62C152.508 139.711 152.431 139.787 152.339 139.787ZM114.527 139.453H152.17V134.535H114.527V139.453Z" fill="black"/>
<path d="M90.436 70.7051C90.5358 69.3826 91.788 68.1285 93.1631 68.1285L182.123 68.2045L177.844 126.273L87.6627 126.463C86.8791 126.463 86.326 125.893 86.3875 125.133L90.436 70.7051Z" fill="black"/>
<path fill-rule="evenodd" clip-rule="evenodd" d="M87.6637 126.63C87.2335 126.63 86.8417 126.471 86.5728 126.19C86.3117 125.908 86.1887 125.528 86.2195 125.118L90.268 70.6899C90.3755 69.2382 91.7353 67.9613 93.1641 67.9613L182.124 68.0373C182.17 68.0373 182.216 68.0601 182.247 68.0905C182.277 68.1285 182.293 68.1741 182.293 68.2197L178.014 126.281C178.006 126.372 177.937 126.44 177.845 126.44L87.6637 126.63ZM86.5575 125.148C86.5344 125.46 86.6266 125.749 86.8187 125.962C87.0261 126.174 87.3257 126.296 87.6637 126.296L177.691 126.106L181.939 68.3717L93.1641 68.2957C91.9196 68.2957 90.6982 69.451 90.606 70.7127L86.5575 125.148Z" fill="black"/>
<path d="M179.701 126.205H91.3639C90.5803 126.205 90.0272 125.635 90.0886 124.867L94.0834 70.9333C94.1909 69.4283 95.6659 68.1058 97.21 68.1058H184.41C185.202 68.1058 185.747 68.6759 185.693 69.4359L181.614 124.48C181.545 125.392 180.646 126.205 179.701 126.205Z" fill="white"/>
<path fill-rule="evenodd" clip-rule="evenodd" d="M179.702 126.372H91.3649C90.9347 126.372 90.5429 126.212 90.2817 125.924C90.0128 125.65 89.8899 125.27 89.9206 124.86L93.9154 70.918C94.0306 69.3295 95.5747 67.9386 97.211 67.9386H184.411C184.849 67.9386 185.233 68.0906 185.502 68.3794C185.763 68.6607 185.894 69.0407 185.863 69.4511L181.784 124.495C181.707 125.49 180.739 126.372 179.702 126.372ZM97.211 68.273C95.7437 68.273 94.3609 69.5195 94.2534 70.9408L90.2586 124.882C90.2356 125.202 90.3278 125.49 90.5275 125.696C90.7273 125.916 91.0269 126.038 91.3649 126.038H179.702C180.555 126.038 181.384 125.285 181.446 124.464L185.525 69.4207C185.548 69.1091 185.448 68.8203 185.256 68.6075C185.049 68.387 184.749 68.273 184.411 68.273H97.211Z" fill="black" stroke="black" stroke-width="0.3"/>
<path d="M126.473 139.498H139.993L142.651 110.38C143.012 106.481 139.909 103.122 135.952 103.122C132.465 103.122 129.561 105.752 129.246 109.179L126.473 139.498Z" fill="black"/>
<path d="M127.986 139.498H141.507L144.165 110.38C144.526 106.481 141.422 103.122 137.466 103.122C133.978 103.122 131.075 105.752 130.76 109.179L127.986 139.498Z" fill="white"/>
<path d="M137.465 103.054C139.365 103.054 141.198 103.848 142.484 105.241V105.242C143.764 106.635 144.407 108.507 144.233 110.386L141.575 139.504C141.572 139.535 141.54 139.566 141.506 139.566H127.985C127.97 139.566 127.948 139.557 127.933 139.541C127.923 139.532 127.918 139.524 127.916 139.517L127.915 139.499L127.916 139.493L130.689 109.173C131.007 105.684 133.92 103.054 137.465 103.054ZM137.465 103.189C133.996 103.189 131.14 105.767 130.828 109.186L128.07 139.322L128.061 139.431H141.443L141.452 139.34L144.095 110.374C144.266 108.537 143.642 106.692 142.378 105.333C141.122 103.968 139.328 103.189 137.465 103.189Z" fill="black" stroke="black" stroke-width="0.2"/>
<path d="M153.551 139.62H115.562V134.368H153.551V139.62Z" fill="white"/>
<path fill-rule="evenodd" clip-rule="evenodd" d="M153.552 139.787H115.564C115.471 139.787 115.395 139.711 115.395 139.62V134.368C115.395 134.277 115.471 134.201 115.564 134.201H153.552C153.644 134.201 153.721 134.277 153.721 134.368V139.62C153.721 139.711 153.644 139.787 153.552 139.787ZM115.733 139.453H153.383V134.535H115.733V139.453Z" fill="black" stroke="black" stroke-width="0.3"/>
<path d="M172.067 72.4836L161.488 91.6904L179.073 135.614L211 123.05L193.415 79.1266L172.067 72.4836Z" fill="white"/>
<path fill-rule="evenodd" clip-rule="evenodd" d="M178.891 135.829C178.865 135.829 178.842 135.824 178.822 135.814C178.783 135.791 178.752 135.761 178.729 135.723L161.145 91.7991C161.129 91.7535 161.129 91.7002 161.16 91.6622L171.731 72.4555C171.769 72.3795 171.854 72.3491 171.931 72.3719L193.287 79.0148C193.333 79.03 193.372 79.068 193.387 79.1136L210.971 123.038C211.01 123.121 210.964 123.22 210.879 123.25L178.952 135.814C178.932 135.824 178.911 135.829 178.891 135.829ZM161.491 91.7535L178.983 135.442L210.595 123.007L193.103 79.3113L171.961 72.7367L161.491 91.7535Z" fill="black" stroke="black" stroke-width="0.5"/>
<path d="M182.053 122.975C182.033 122.975 182.012 122.972 181.992 122.967C181.9 122.929 181.861 122.83 181.9 122.747L192.655 98.1358C192.685 98.0522 192.785 98.0142 192.87 98.0522C192.962 98.0902 193 98.1891 192.962 98.2727L182.207 122.876C182.184 122.937 182.122 122.975 182.053 122.975Z" fill="black" stroke="black" stroke-width="0.2"/>
<path fill-rule="evenodd" clip-rule="evenodd" d="M195.405 117.32C195.021 117.32 194.637 117.244 194.283 117.084C193.584 116.788 193.054 116.241 192.77 115.549C192.194 114.112 192.908 112.478 194.36 111.908C195.067 111.627 195.835 111.642 196.534 111.939C197.226 112.235 197.763 112.782 198.04 113.474C198.616 114.91 197.902 116.545 196.45 117.115C196.112 117.251 195.758 117.32 195.405 117.32ZM194.491 112.22C193.208 112.721 192.578 114.158 193.085 115.427C193.331 116.035 193.799 116.522 194.414 116.78C195.028 117.039 195.704 117.054 196.327 116.803C197.602 116.301 198.232 114.865 197.725 113.596C197.479 112.987 197.01 112.509 196.396 112.243C195.789 111.984 195.105 111.977 194.491 112.22Z" fill="black" stroke="black" stroke-width="0.2"/>
<path fill-rule="evenodd" clip-rule="evenodd" d="M178.936 108.754C178.552 108.754 178.176 108.67 177.815 108.518C177.116 108.222 176.585 107.674 176.309 106.983C175.733 105.546 176.447 103.912 177.899 103.342C178.598 103.061 179.374 103.076 180.065 103.373C180.757 103.669 181.295 104.216 181.571 104.908C182.147 106.344 181.433 107.979 179.981 108.549C179.643 108.685 179.29 108.754 178.936 108.754ZM178.944 103.471C178.629 103.471 178.322 103.532 178.022 103.654C176.739 104.155 176.109 105.592 176.616 106.861C176.862 107.469 177.338 107.948 177.945 108.214C178.56 108.473 179.236 108.48 179.858 108.237C181.141 107.735 181.763 106.299 181.256 105.029C181.01 104.421 180.542 103.935 179.935 103.677C179.612 103.54 179.282 103.471 178.944 103.471Z" fill="black" stroke="black" stroke-width="0.2"/>
<path d="M178.12 82.1745C178.12 81.1788 177.306 80.3732 176.299 80.3732C175.293 80.3732 174.479 81.1788 174.479 82.1745C174.479 83.1702 175.293 83.9758 176.299 83.9758C177.306 83.9758 178.12 83.1702 178.12 82.1745Z" fill="white"/>
<path fill-rule="evenodd" clip-rule="evenodd" d="M176.3 84.1431C175.202 84.1431 174.311 83.2614 174.311 82.1745C174.311 81.0876 175.202 80.2059 176.3 80.2059C177.399 80.2059 178.29 81.0876 178.29 82.1745C178.29 83.2614 177.399 84.1431 176.3 84.1431ZM176.3 80.5404C175.394 80.5404 174.649 81.27 174.649 82.1745C174.649 83.0714 175.394 83.8086 176.3 83.8086C177.214 83.8086 177.952 83.0714 177.952 82.1745C177.952 81.27 177.214 80.5404 176.3 80.5404Z" fill="black"/>
<path d="M176.299 82.3415C176.238 82.3415 176.184 82.3035 176.153 82.2503C176.115 82.1819 172.704 75.5694 166.305 69.3445C160.412 63.606 150.695 57.0239 137.904 58.2552C137.812 58.2704 137.735 58.202 137.719 58.1108C137.712 58.0196 137.781 57.936 137.873 57.9284C143.581 57.3735 149.166 58.3008 154.466 60.6874C158.699 62.5952 162.763 65.4302 166.55 69.1089C172.988 75.3794 176.422 82.0299 176.453 82.0983C176.491 82.1819 176.46 82.2807 176.376 82.3187C176.35 82.3339 176.325 82.3415 176.299 82.3415Z" fill="black" stroke="black" stroke-width="0.2"/>
<path d="M137.888 68.2728C137.796 68.2728 137.719 68.1968 137.719 68.1056V42.4687C137.719 42.3699 137.796 42.3015 137.888 42.3015C137.98 42.3015 138.057 42.3699 138.057 42.4687V68.1056C138.057 68.1968 137.98 68.2728 137.888 68.2728Z" fill="black" stroke="black" stroke-width="0.2"/>
<path d="M175.078 93.7958C175.062 93.7958 175.047 93.7933 175.032 93.7882L171.882 92.8609C171.797 92.8305 171.744 92.7393 171.774 92.6481C171.797 92.5645 171.89 92.5113 171.982 92.5341L175.124 93.469C175.216 93.4918 175.262 93.583 175.239 93.6742C175.216 93.7502 175.147 93.7958 175.078 93.7958Z" fill="black"/>
<path d="M171.506 91.4548C171.468 91.4548 171.422 91.4396 171.391 91.4168C171.322 91.3484 171.314 91.2496 171.376 91.1812L172.951 89.433C173.012 89.3646 173.119 89.357 173.189 89.4178C173.258 89.4862 173.265 89.585 173.204 89.661L171.629 91.4016C171.598 91.4396 171.552 91.4548 171.506 91.4548Z" fill="black"/>
<path d="M171.935 96.3117C171.866 96.3117 171.805 96.2737 171.782 96.2129L170.721 93.6591C170.691 93.5755 170.729 93.4767 170.814 93.4463C170.906 93.4083 171.006 93.4463 171.036 93.5375L172.089 96.0837C172.127 96.1673 172.089 96.2661 171.997 96.3041C171.976 96.3092 171.956 96.3117 171.935 96.3117Z" fill="black"/>
<path d="M144.742 76.5424C144.081 76.1168 143.198 76.436 142.96 77.1733L139.172 89.3494C138.934 90.0943 139.495 90.8544 140.286 90.862L153.046 90.9988L151.886 94.7611C151.625 95.6123 152.378 96.4332 153.262 96.2508L169.356 92.9217C170.262 92.7393 170.608 91.6296 169.963 90.9684L158.585 79.2178C157.963 78.5794 156.872 78.8302 156.603 79.6815L155.397 83.497L144.742 76.5424Z" fill="#E9E9E9"/>
<path d="M191.918 17.9571V11.7702C191.918 9.718 190.235 8.05347 188.161 8.05347H125.544C123.469 8.05347 121.787 9.718 121.787 11.7702V17.9571H191.918Z" fill="#E9E9E9"/>
<path d="M184.888 45.0607H128.816C124.937 45.0607 121.787 41.9445 121.787 38.1062V15.2739H191.918V38.1062C191.918 41.9445 188.776 45.0607 184.888 45.0607Z" fill="#E9E9E9"/>
<path d="M129.691 11.9374C129.691 12.6974 129.069 13.3131 128.301 13.3131C127.532 13.3131 126.91 12.6974 126.91 11.9374C126.91 11.1773 127.532 10.5616 128.301 10.5616C129.069 10.5616 129.691 11.1773 129.691 11.9374Z" fill="white"/>
<path d="M133.748 11.9374C133.748 12.6974 133.125 13.3131 132.357 13.3131C131.589 13.3131 130.967 12.6974 130.967 11.9374C130.967 11.1773 131.589 10.5616 132.357 10.5616C133.125 10.5616 133.748 11.1773 133.748 11.9374Z" fill="white"/>
<path d="M137.812 11.9374C137.812 12.6974 137.182 13.3131 136.422 13.3131C135.654 13.3131 135.031 12.6974 135.031 11.9374C135.031 11.1773 135.654 10.5616 136.422 10.5616C137.182 10.5616 137.812 11.1773 137.812 11.9374Z" fill="white"/>
<path d="M143.895 36.7151H126.91V19.9102H143.895V36.7151Z" fill="white"/>
<path d="M128.578 33.0138C128.547 33.0138 128.516 33.0062 128.486 32.991C128.409 32.9454 128.386 32.839 128.432 32.763L133.371 24.7291C133.402 24.6835 133.456 24.6531 133.517 24.6455C133.571 24.6455 133.625 24.6759 133.656 24.7215L139.172 32.7554C139.225 32.8314 139.202 32.9302 139.125 32.9834C139.049 33.0366 138.941 33.0138 138.887 32.9378L133.525 25.1243L128.724 32.9302C128.685 32.9834 128.632 33.0138 128.578 33.0138Z" fill="#E9E9E9"/>
<path d="M142.236 30.346C142.183 30.346 142.129 30.3232 142.098 30.2776L138.756 26.0061L137.066 28.3622C137.012 28.4382 136.905 28.4535 136.828 28.4002C136.751 28.347 136.736 28.2406 136.79 28.1646L138.61 25.6336C138.641 25.588 138.695 25.5576 138.749 25.5576C138.802 25.5576 138.848 25.5804 138.879 25.626L142.367 30.0724C142.421 30.1484 142.413 30.2548 142.336 30.308C142.305 30.3308 142.267 30.346 142.236 30.346Z" fill="#E9E9E9"/>
<path fill-rule="evenodd" clip-rule="evenodd" d="M140.693 24.4554C139.986 24.4554 139.418 23.8854 139.418 23.1937C139.418 22.4945 139.986 21.9244 140.693 21.9244C141.4 21.9244 141.968 22.4945 141.968 23.1937C141.968 23.8854 141.4 24.4554 140.693 24.4554ZM140.693 22.2589C140.178 22.2589 139.756 22.6769 139.756 23.1937C139.756 23.703 140.178 24.121 140.693 24.121C141.208 24.121 141.63 23.703 141.63 23.1937C141.63 22.6769 141.208 22.2589 140.693 22.2589Z" fill="#E9E9E9"/>
<path d="M134.395 31.4632C134.333 31.4632 134.274 31.4581 134.218 31.448C133.68 31.3644 133.281 30.9159 132.989 30.5359C132.948 30.4802 132.907 30.4244 132.866 30.3687C132.628 30.0419 132.374 29.6998 132.051 29.525C131.852 29.411 131.606 29.3882 131.406 29.449C131.299 29.487 131.145 29.563 131.06 29.7378C131.022 29.8214 130.922 29.8594 130.838 29.8214C130.753 29.7834 130.715 29.677 130.753 29.5934C130.861 29.373 131.06 29.2058 131.299 29.1298C131.598 29.0386 131.936 29.0766 132.213 29.2286C132.605 29.449 132.873 29.8138 133.142 30.1711C133.183 30.2268 133.222 30.28 133.258 30.3307C133.511 30.6651 133.857 31.0527 134.272 31.1211C134.594 31.1667 134.971 31.0071 135.27 30.6803C135.57 30.3687 135.77 29.9507 135.969 29.5554C136.015 29.4718 136.115 29.4338 136.2 29.4794C136.284 29.5174 136.315 29.6162 136.277 29.6998C136.069 30.1179 135.846 30.5587 135.524 30.9083C135.186 31.2656 134.779 31.4632 134.395 31.4632Z" fill="#E9E9E9"/>
<path d="M165.444 36.7151H148.459V19.9102H165.444V36.7151Z" fill="white"/>
<path d="M150.118 33.0138C150.088 33.0138 150.06 33.0062 150.034 32.991C149.957 32.9454 149.926 32.839 149.98 32.763L154.92 24.7291C154.951 24.6835 155.004 24.6531 155.058 24.6455C155.12 24.6455 155.173 24.6759 155.204 24.7215L160.712 32.7554C160.766 32.8314 160.743 32.9302 160.666 32.9834C160.589 33.0366 160.489 33.0138 160.436 32.9378L155.073 25.1243L150.264 32.9302C150.234 32.9834 150.18 33.0138 150.118 33.0138Z" fill="#E9E9E9"/>
<path d="M163.777 30.346C163.731 30.346 163.677 30.3232 163.646 30.2776L160.297 26.0061L158.607 28.3622C158.553 28.4382 158.445 28.4535 158.376 28.4002C158.299 28.347 158.276 28.2406 158.33 28.1646L160.158 25.6336C160.189 25.588 160.235 25.5576 160.289 25.5576C160.343 25.5576 160.397 25.5804 160.427 25.626L163.915 30.0724C163.969 30.1484 163.953 30.2548 163.884 30.308C163.854 30.3308 163.815 30.346 163.777 30.346Z" fill="#E9E9E9"/>
<path fill-rule="evenodd" clip-rule="evenodd" d="M162.242 24.4554C161.535 24.4554 160.959 23.8854 160.959 23.1937C160.959 22.4945 161.535 21.9244 162.242 21.9244C162.941 21.9244 163.517 22.4945 163.517 23.1937C163.517 23.8854 162.941 24.4554 162.242 24.4554ZM162.242 22.2589C161.72 22.2589 161.297 22.6769 161.297 23.1937C161.297 23.703 161.72 24.121 162.242 24.121C162.757 24.121 163.179 23.703 163.179 23.1937C163.179 22.6769 162.757 22.2589 162.242 22.2589Z" fill="#E9E9E9"/>
<path d="M155.934 31.4632C155.877 31.4632 155.821 31.4581 155.765 31.448C155.227 31.3644 154.828 30.9159 154.536 30.5359C154.495 30.4802 154.454 30.4244 154.413 30.3687C154.167 30.0419 153.921 29.6998 153.591 29.525C153.399 29.411 153.153 29.3882 152.945 29.449C152.838 29.487 152.692 29.563 152.607 29.7378C152.569 29.8214 152.469 29.8594 152.385 29.8214C152.3 29.7834 152.262 29.677 152.3 29.5934C152.408 29.373 152.6 29.2058 152.846 29.1298C153.137 29.0386 153.483 29.0766 153.76 29.2286C154.144 29.449 154.42 29.8138 154.682 30.1711C154.723 30.2268 154.764 30.28 154.804 30.3307C155.058 30.6651 155.396 31.0527 155.811 31.1211C156.141 31.1667 156.51 31.0071 156.817 30.6803C157.109 30.3687 157.317 29.9507 157.516 29.5554C157.555 29.4718 157.655 29.4338 157.739 29.4794C157.824 29.5174 157.862 29.6162 157.816 29.6998C157.608 30.1179 157.393 30.5587 157.063 30.9083C156.733 31.2656 156.326 31.4632 155.934 31.4632Z" fill="#E9E9E9"/>
<path d="M186.985 36.7151H170V19.9102H186.985V36.7151Z" fill="white"/>
<path d="M171.666 33.0138C171.635 33.0138 171.604 33.0062 171.574 32.991C171.497 32.9454 171.474 32.839 171.52 32.763L176.467 24.7291C176.49 24.6835 176.544 24.6531 176.605 24.6455C176.659 24.6455 176.713 24.6759 176.751 24.7215L182.259 32.7554C182.313 32.8314 182.29 32.9302 182.213 32.9834C182.136 33.0366 182.029 33.0138 181.975 32.9378L176.613 25.1243L171.812 32.9302C171.781 32.9834 171.719 33.0138 171.666 33.0138Z" fill="#E9E9E9"/>
<path d="M185.326 30.346C185.272 30.346 185.226 30.3232 185.188 30.2776L181.846 26.0061L180.156 28.3622C180.102 28.4382 179.995 28.4535 179.918 28.4002C179.841 28.347 179.826 28.2406 179.879 28.1646L181.7 25.6336C181.731 25.588 181.785 25.5576 181.838 25.5576C181.892 25.5576 181.938 25.5804 181.977 25.626L185.457 30.0724C185.518 30.1484 185.503 30.2548 185.426 30.308C185.395 30.3308 185.357 30.346 185.326 30.346Z" fill="#E9E9E9"/>
<path fill-rule="evenodd" clip-rule="evenodd" d="M183.781 24.4554C183.082 24.4554 182.506 23.8854 182.506 23.1937C182.506 22.4945 183.082 21.9244 183.781 21.9244C184.488 21.9244 185.056 22.4945 185.056 23.1937C185.056 23.8854 184.488 24.4554 183.781 24.4554ZM183.781 22.2589C183.266 22.2589 182.844 22.6769 182.844 23.1937C182.844 23.703 183.266 24.121 183.781 24.121C184.303 24.121 184.718 23.703 184.718 23.1937C184.718 22.6769 184.303 22.2589 183.781 22.2589Z" fill="#E9E9E9"/>
<path d="M177.482 31.4632C177.42 31.4632 177.361 31.4581 177.305 31.448C176.775 31.3644 176.368 30.9159 176.076 30.5359C176.04 30.4802 176.001 30.4244 175.96 30.3687C175.715 30.0419 175.461 29.6998 175.138 29.525C174.939 29.411 174.693 29.3882 174.493 29.449C174.386 29.487 174.232 29.563 174.147 29.7378C174.109 29.8214 174.009 29.8594 173.925 29.8214C173.84 29.7834 173.802 29.677 173.848 29.5934C173.955 29.373 174.147 29.2058 174.393 29.1298C174.685 29.0386 175.023 29.0766 175.3 29.2286C175.692 29.449 175.968 29.8138 176.229 30.1711C176.27 30.2268 176.311 30.28 176.352 30.3307C176.598 30.6651 176.944 31.0527 177.359 31.1211C177.681 31.1667 178.058 31.0071 178.365 30.6803C178.657 30.3687 178.864 29.9507 179.064 29.5554C179.102 29.4718 179.202 29.4338 179.287 29.4794C179.371 29.5174 179.402 29.6162 179.364 29.6998C179.156 30.1179 178.941 30.5587 178.611 30.9083C178.273 31.2656 177.873 31.4632 177.482 31.4632Z" fill="#E9E9E9"/>
<path d="M143.897 40.2952H126.912C126.773 40.2952 126.658 40.1812 126.658 40.0444C126.658 39.9076 126.773 39.7936 126.912 39.7936H143.897C144.043 39.7936 144.15 39.9076 144.15 40.0444C144.15 40.1812 144.043 40.2952 143.897 40.2952Z" fill="white"/>
<path d="M165.344 40.2952H148.359C148.221 40.2952 148.105 40.1812 148.105 40.0444C148.105 39.9076 148.221 39.7936 148.359 39.7936H165.344C165.49 39.7936 165.598 39.9076 165.598 40.0444C165.598 40.1812 165.49 40.2952 165.344 40.2952Z" fill="white"/>
<path d="M186.985 40.2952H170C169.861 40.2952 169.746 40.1812 169.746 40.0444C169.746 39.9076 169.861 39.7936 170 39.7936H186.985C187.131 39.7936 187.238 39.9076 187.238 40.0444C187.238 40.1812 187.131 40.2952 186.985 40.2952Z" fill="white"/>
<path d="M190.234 15.5248H123.468C123.33 15.5248 123.215 15.4184 123.215 15.274C123.215 15.1372 123.33 15.0232 123.468 15.0232H190.234C190.38 15.0232 190.488 15.1372 190.488 15.274C190.488 15.4184 190.38 15.5248 190.234 15.5248Z" fill="white"/>
<path d="M154.467 17.9266V11.7321C154.467 9.67238 152.777 8.00024 150.695 8.00024H87.901C85.8191 8.00024 84.1367 9.67238 84.1367 11.7321V17.9266H154.467Z" fill="#E9E9E9"/>
<path d="M147.43 45.1139H91.1659C87.2864 45.1139 84.1367 41.9977 84.1367 38.1518V15.2435H154.467V38.1518C154.467 41.9977 151.317 45.1139 147.43 45.1139Z" fill="#E9E9E9"/>
<path d="M92.064 11.8993C92.064 12.6594 91.4341 13.275 90.6659 13.275C89.8976 13.275 89.2754 12.6594 89.2754 11.8993C89.2754 11.1316 89.8976 10.516 90.6659 10.516C91.4341 10.516 92.064 11.1316 92.064 11.8993Z" fill="white"/>
<path d="M96.1285 11.8993C96.1285 12.6594 95.5062 13.275 94.738 13.275C93.9698 13.275 93.3398 12.6594 93.3398 11.8993C93.3398 11.1316 93.9698 10.516 94.738 10.516C95.5062 10.516 96.1285 11.1316 96.1285 11.8993Z" fill="white"/>
<path d="M100.199 11.8993C100.199 12.6594 99.5765 13.275 98.8083 13.275C98.0324 13.275 97.4102 12.6594 97.4102 11.8993C97.4102 11.1316 98.0324 10.516 98.8083 10.516C99.5765 10.516 100.199 11.1316 100.199 11.8993Z" fill="white"/>
<path d="M106.307 36.7457H89.2754V19.8876H106.307V36.7457Z" fill="white"/>
<path d="M90.9431 33.029C90.9123 33.029 90.8816 33.0214 90.8509 33.0062C90.774 32.9606 90.751 32.8542 90.7971 32.7782L95.7521 24.7215C95.7828 24.6759 95.8366 24.6455 95.898 24.6455C95.9518 24.6455 96.0056 24.6683 96.0363 24.7139L101.567 32.7706C101.614 32.8466 101.598 32.953 101.521 33.0062C101.445 33.0518 101.337 33.0366 101.283 32.9606L95.9057 25.1167L91.089 32.953C91.0583 33.0062 90.9968 33.029 90.9431 33.029Z" fill="#E9E9E9"/>
<path d="M104.64 30.3536C104.587 30.3536 104.54 30.3308 104.502 30.2852L101.153 26.0061L99.4549 28.3698C99.4011 28.4458 99.2936 28.461 99.2167 28.4078C99.1399 28.3546 99.1245 28.2482 99.1783 28.1722L101.007 25.626C101.037 25.588 101.091 25.5576 101.137 25.5576C101.191 25.5576 101.245 25.5804 101.276 25.626L104.771 30.08C104.832 30.156 104.817 30.2624 104.74 30.3156C104.709 30.3384 104.671 30.3536 104.64 30.3536Z" fill="#E9E9E9"/>
<path fill-rule="evenodd" clip-rule="evenodd" d="M103.097 24.4477C102.391 24.4477 101.814 23.8777 101.814 23.1784C101.814 22.4792 102.391 21.9167 103.097 21.9167C103.796 21.9167 104.373 22.4792 104.373 23.1784C104.373 23.8777 103.796 24.4477 103.097 24.4477ZM103.097 22.2512C102.575 22.2512 102.152 22.6692 102.152 23.1784C102.152 23.6953 102.575 24.1133 103.097 24.1133C103.612 24.1133 104.035 23.6953 104.035 23.1784C104.035 22.6692 103.612 22.2512 103.097 22.2512Z" fill="#E9E9E9"/>
<path d="M96.7733 31.4785C96.7119 31.4785 96.653 31.4734 96.5966 31.4633C96.0589 31.3797 95.6594 30.9312 95.3675 30.5436C95.3265 30.4929 95.2856 30.4397 95.2446 30.384C94.9988 30.0495 94.7529 29.7151 94.4226 29.5327C94.2305 29.4187 93.977 29.3959 93.7773 29.4567C93.6697 29.4947 93.5161 29.5707 93.4316 29.7455C93.3932 29.8291 93.2933 29.8671 93.2088 29.8291C93.1243 29.7911 93.0859 29.6923 93.1243 29.6087C93.2318 29.3807 93.4316 29.2135 93.6774 29.1375C93.9693 29.0463 94.3074 29.0843 94.5916 29.2363C94.9757 29.4567 95.2523 29.8291 95.5211 30.1864C95.557 30.237 95.5954 30.2902 95.6364 30.346C95.8899 30.6804 96.2356 31.068 96.6504 31.1364C96.9731 31.182 97.3495 31.0148 97.6568 30.6956C97.9487 30.3764 98.1561 29.9583 98.3559 29.5631C98.402 29.4795 98.5018 29.4415 98.5863 29.4871C98.6708 29.5251 98.7016 29.6239 98.6631 29.7075C98.448 30.1332 98.2329 30.5664 97.9026 30.916C97.5723 31.2808 97.1651 31.4785 96.7733 31.4785Z" fill="#E9E9E9"/>
<path d="M127.908 36.7457H110.877V19.8876H127.908V36.7457Z" fill="white"/>
<path d="M112.544 33.029C112.514 33.029 112.485 33.0214 112.46 33.0062C112.383 32.9606 112.352 32.8542 112.406 32.7782L117.361 24.7215C117.392 24.6759 117.445 24.6455 117.499 24.6455C117.553 24.6455 117.614 24.6683 117.645 24.7139L123.169 32.7706C123.222 32.8466 123.199 32.953 123.123 33.0062C123.046 33.0518 122.938 33.0366 122.892 32.9606L117.515 25.1167L112.69 32.953C112.659 33.0062 112.606 33.029 112.544 33.029Z" fill="#E9E9E9"/>
<path d="M126.243 30.3536C126.197 30.3536 126.143 30.3308 126.113 30.2852L122.756 26.0061L121.058 28.3698C121.004 28.4458 120.904 28.461 120.827 28.4078C120.751 28.3546 120.727 28.2482 120.781 28.1722L122.61 25.626C122.64 25.588 122.694 25.5576 122.748 25.5576C122.802 25.5576 122.848 25.5804 122.886 25.626L126.382 30.08C126.435 30.156 126.42 30.2624 126.351 30.3156C126.32 30.3384 126.282 30.3536 126.243 30.3536Z" fill="#E9E9E9"/>
<path fill-rule="evenodd" clip-rule="evenodd" d="M124.699 24.4477C123.992 24.4477 123.416 23.8777 123.416 23.1784C123.416 22.4792 123.992 21.9167 124.699 21.9167C125.406 21.9167 125.982 22.4792 125.982 23.1784C125.982 23.8777 125.406 24.4477 124.699 24.4477ZM124.699 22.2512C124.177 22.2512 123.754 22.6692 123.754 23.1784C123.754 23.6953 124.177 24.1133 124.699 24.1133C125.221 24.1133 125.644 23.6953 125.644 23.1784C125.644 22.6692 125.221 22.2512 124.699 22.2512Z" fill="#E9E9E9"/>
<path d="M118.376 31.4785C118.32 31.4785 118.264 31.4734 118.207 31.4633C117.67 31.3797 117.263 30.9312 116.978 30.5436C116.937 30.4929 116.896 30.4397 116.855 30.384C116.61 30.0495 116.356 29.7151 116.033 29.5327C115.834 29.4187 115.588 29.3959 115.38 29.4567C115.273 29.4947 115.127 29.5707 115.042 29.7455C114.996 29.8291 114.896 29.8671 114.812 29.8291C114.727 29.7911 114.697 29.6923 114.735 29.6087C114.843 29.3807 115.035 29.2135 115.281 29.1375C115.572 29.0463 115.918 29.0843 116.195 29.2363C116.587 29.4567 116.863 29.8291 117.124 30.1864C117.165 30.237 117.206 30.2902 117.247 30.346C117.501 30.6804 117.839 31.068 118.254 31.1364C118.584 31.182 118.96 31.0148 119.268 30.6956C119.559 30.3764 119.767 29.9583 119.967 29.5631C120.005 29.4795 120.105 29.4415 120.189 29.4871C120.274 29.5251 120.312 29.6239 120.266 29.7075C120.059 30.1332 119.844 30.5664 119.513 30.916C119.175 31.2808 118.768 31.4785 118.376 31.4785Z" fill="#E9E9E9"/>
<path d="M149.52 36.7457H132.48V19.8876H149.52V36.7457Z" fill="white"/>
<path d="M134.156 33.029C134.125 33.029 134.094 33.0214 134.064 33.0062C133.987 32.9606 133.964 32.8542 134.01 32.7782L138.965 24.7215C138.996 24.6759 139.049 24.6455 139.103 24.6455C139.165 24.6455 139.218 24.6683 139.249 24.7139L144.78 32.7706C144.826 32.8466 144.811 32.953 144.734 33.0062C144.657 33.0518 144.55 33.0366 144.496 32.9606L139.119 25.1167L134.302 32.953C134.263 33.0062 134.21 33.029 134.156 33.029Z" fill="#E9E9E9"/>
<path d="M147.853 30.3536C147.799 30.3536 147.746 30.3308 147.715 30.2852L144.366 26.0061L142.668 28.3698C142.614 28.4458 142.506 28.461 142.43 28.4078C142.353 28.3546 142.337 28.2482 142.391 28.1722L144.22 25.626C144.25 25.588 144.296 25.5576 144.35 25.5576C144.404 25.5576 144.458 25.5804 144.488 25.626L147.984 30.08C148.038 30.156 148.03 30.2624 147.953 30.3156C147.922 30.3384 147.884 30.3536 147.853 30.3536Z" fill="#E9E9E9"/>
<path fill-rule="evenodd" clip-rule="evenodd" d="M146.301 24.4477C145.602 24.4477 145.025 23.8777 145.025 23.1784C145.025 22.4792 145.602 21.9167 146.301 21.9167C147.007 21.9167 147.584 22.4792 147.584 23.1784C147.584 23.8777 147.007 24.4477 146.301 24.4477ZM146.301 22.2512C145.786 22.2512 145.363 22.6692 145.363 23.1784C145.363 23.6953 145.786 24.1133 146.301 24.1133C146.823 24.1133 147.246 23.6953 147.246 23.1784C147.246 22.6692 146.823 22.2512 146.301 22.2512Z" fill="#E9E9E9"/>
<path d="M139.986 31.4785C139.925 31.4785 139.866 31.4734 139.81 31.4633C139.272 31.3797 138.872 30.9312 138.58 30.5436C138.539 30.4929 138.498 30.4397 138.457 30.384C138.212 30.0495 137.958 29.7151 137.635 29.5327C137.436 29.4187 137.19 29.3959 136.99 29.4567C136.883 29.4947 136.729 29.5707 136.644 29.7455C136.606 29.8291 136.506 29.8671 136.422 29.8291C136.337 29.7911 136.299 29.6923 136.337 29.6087C136.445 29.3807 136.644 29.2135 136.89 29.1375C137.182 29.0463 137.52 29.0843 137.804 29.2363C138.189 29.4567 138.465 29.8291 138.726 30.1864C138.767 30.237 138.808 30.2902 138.849 30.346C139.103 30.6804 139.448 31.068 139.863 31.1364C140.186 31.182 140.562 31.0148 140.87 30.6956C141.162 30.3764 141.369 29.9583 141.569 29.5631C141.615 29.4795 141.715 29.4415 141.799 29.4871C141.884 29.5251 141.914 29.6239 141.876 29.7075C141.661 30.1332 141.446 30.5664 141.115 30.916C140.777 31.2808 140.378 31.4785 139.986 31.4785Z" fill="#E9E9E9"/>
<path d="M106.308 40.3331H89.2769C89.131 40.3331 89.0234 40.2191 89.0234 40.0822C89.0234 39.9454 89.131 39.8314 89.2769 39.8314H106.308C106.447 39.8314 106.562 39.9454 106.562 40.0822C106.562 40.2191 106.447 40.3331 106.308 40.3331Z" fill="white"/>
<path d="M127.818 40.3331H110.779C110.641 40.3331 110.525 40.2191 110.525 40.0822C110.525 39.9454 110.641 39.8314 110.779 39.8314H127.818C127.956 39.8314 128.071 39.9454 128.071 40.0822C128.071 40.2191 127.956 40.3331 127.818 40.3331Z" fill="white"/>
<path d="M149.519 40.3331H132.48C132.342 40.3331 132.227 40.2191 132.227 40.0822C132.227 39.9454 132.342 39.8314 132.48 39.8314H149.519C149.657 39.8314 149.773 39.9454 149.773 40.0822C149.773 40.2191 149.657 40.3331 149.519 40.3331Z" fill="white"/>
<path d="M152.776 15.4944H85.818C85.6797 15.4944 85.5645 15.3804 85.5645 15.2436C85.5645 15.1068 85.6797 14.9928 85.818 14.9928H152.776C152.914 14.9928 153.029 15.1068 153.029 15.2436C153.029 15.3804 152.914 15.4944 152.776 15.4944Z" fill="white"/>
<path d="M177.207 16.9537V10.0524C177.207 7.76458 175.333 5.91003 173.021 5.91003H103.136C100.824 5.91003 98.9414 7.76458 98.9414 10.0524V16.9537H177.207Z" fill="white"/>
<path d="M170.178 47.2041H105.978C102.091 47.2041 98.9414 44.0879 98.9414 40.2496V13.9667H177.207V40.2496C177.207 44.0879 174.065 47.2041 170.178 47.2041Z" fill="white"/>
<path fill-rule="evenodd" clip-rule="evenodd" d="M170.177 47.3713H105.977C102.006 47.3713 98.7715 44.1791 98.7715 40.2496V13.9667C98.7715 13.8754 98.8483 13.7994 98.9405 13.7994H177.206C177.306 13.7994 177.375 13.8754 177.375 13.9667V40.2496C177.375 44.1791 174.149 47.3713 170.177 47.3713ZM99.1095 14.1339V40.2496C99.1095 43.9891 102.19 47.0369 105.977 47.0369H170.177C173.964 47.0369 177.037 43.9891 177.037 40.2496V14.1339H99.1095Z" fill="black" stroke="black" stroke-width="0.1"/>
<path d="M177.206 11.945C177.114 11.945 177.037 11.869 177.037 11.7778V10.0525C177.037 7.86349 175.232 6.07735 173.02 6.07735H103.135C100.915 6.07735 99.1095 7.86349 99.1095 10.0525V11.7778C99.1095 11.869 99.0404 11.945 98.9405 11.945C98.8483 11.945 98.7715 11.869 98.7715 11.7778V10.0525C98.7715 7.67348 100.73 5.74292 103.135 5.74292H173.02C175.424 5.74292 177.375 7.67348 177.375 10.0525V11.7778C177.375 11.869 177.306 11.945 177.206 11.945Z" fill="black"/>
<path fill-rule="evenodd" clip-rule="evenodd" d="M106.215 11.9449C105.262 11.9449 104.494 11.1772 104.494 10.2423C104.494 9.29986 105.262 8.53979 106.215 8.53979C107.16 8.53979 107.936 9.29986 107.936 10.2423C107.936 11.1772 107.16 11.9449 106.215 11.9449ZM106.215 8.87422C105.454 8.87422 104.832 9.48987 104.832 10.2423C104.832 10.9948 105.454 11.6104 106.215 11.6104C106.975 11.6104 107.598 10.9948 107.598 10.2423C107.598 9.48987 106.975 8.87422 106.215 8.87422Z" fill="black"/>
<path fill-rule="evenodd" clip-rule="evenodd" d="M110.74 11.9449C109.795 11.9449 109.02 11.1772 109.02 10.2423C109.02 9.29986 109.795 8.53979 110.74 8.53979C111.693 8.53979 112.461 9.29986 112.461 10.2423C112.461 11.1772 111.693 11.9449 110.74 11.9449ZM110.74 8.87422C109.98 8.87422 109.358 9.48987 109.358 10.2423C109.358 10.9948 109.98 11.6104 110.74 11.6104C111.509 11.6104 112.123 10.9948 112.123 10.2423C112.123 9.48987 111.509 8.87422 110.74 8.87422Z" fill="black"/>
<path d="M116.824 10.2425C116.824 11.0861 116.125 11.7778 115.272 11.7778C114.412 11.7778 113.721 11.0861 113.721 10.2425C113.721 9.39121 114.412 8.70715 115.272 8.70715C116.125 8.70715 116.824 9.39121 116.824 10.2425Z" fill="#E9E9E9"/>
<path d="M123.615 41.7773H104.663C104.571 41.7773 104.494 41.7013 104.494 41.6101C104.494 41.5189 104.571 41.4429 104.663 41.4429H123.615C123.715 41.4429 123.792 41.5189 123.792 41.6101C123.792 41.7013 123.715 41.7773 123.615 41.7773Z" fill="black" stroke="black" stroke-width="0.2"/>
<path d="M147.553 41.7773H128.601C128.501 41.7773 128.432 41.7013 128.432 41.6101C128.432 41.5189 128.501 41.4429 128.601 41.4429H147.553C147.645 41.4429 147.722 41.5189 147.722 41.6101C147.722 41.7013 147.645 41.7773 147.553 41.7773Z" fill="black" stroke="black" stroke-width="0.2"/>
<path d="M171.707 41.7773H152.747C152.655 41.7773 152.578 41.7013 152.578 41.6101C152.578 41.5189 152.655 41.4429 152.747 41.4429H171.707C171.799 41.4429 171.876 41.5189 171.876 41.6101C171.876 41.7013 171.799 41.7773 171.707 41.7773Z" fill="black" stroke="black" stroke-width="0.2"/>
<path d="M147.661 19.1351H128.732V37.8478H147.661V19.1351Z" fill="white"/>
<path fill-rule="evenodd" clip-rule="evenodd" d="M147.66 38.015H128.732C128.639 38.015 128.562 37.939 128.562 37.8478V19.1351C128.562 19.0439 128.639 18.9679 128.732 18.9679H147.66C147.753 18.9679 147.829 19.0439 147.829 19.1351V37.8478C147.829 37.939 147.753 38.015 147.66 38.015ZM128.901 37.6806H147.491V19.3023H128.901V37.6806Z" fill="black" stroke="black" stroke-width="0.2"/>
<path d="M138.319 34.929C135.454 34.929 133.656 34.169 133.656 34.169C133.656 34.169 135.339 29.3806 136.499 26.8876C136.729 25.4283 135.838 21.818 135.838 21.818H136.291L136.637 22.5248C136.99 23.0417 137.789 23.4217 138.35 23.5129C138.35 23.5129 139.464 23.3913 140.009 22.5248C140.109 22.3576 140.355 21.818 140.355 21.818H140.808C140.808 21.818 139.94 25.3371 140.163 26.7964C140.778 28.2709 142.99 34.169 142.99 34.169C142.99 34.169 141.223 34.929 138.319 34.929Z" fill="#FF9536"/>
<path d="M123.614 19.1351H104.662V37.8782H123.614V19.1351Z" fill="white"/>
<path fill-rule="evenodd" clip-rule="evenodd" d="M123.615 38.0454H104.663C104.571 38.0454 104.494 37.9694 104.494 37.8782V19.1351C104.494 19.0439 104.571 18.9679 104.663 18.9679H123.615C123.715 18.9679 123.792 19.0439 123.792 19.1351V37.8782C123.792 37.9694 123.715 38.0454 123.615 38.0454ZM104.832 37.711H123.446V19.3023H104.832V37.711Z" fill="black" stroke="black" stroke-width="0.2"/>
<path d="M114.122 27.6021L113.185 34.8759L110.135 34.8683L112.048 22.7833H114.06H114.176H116.188L118.093 34.8683L115.044 34.8759L114.122 27.6021Z" fill="#E9E9E9"/>
<path d="M171.706 19.1427H152.746V37.8858H171.706V19.1427Z" fill="white"/>
<path fill-rule="evenodd" clip-rule="evenodd" d="M171.707 38.0529H152.747C152.655 38.0529 152.578 37.9769 152.578 37.8856V19.1426C152.578 19.0513 152.655 18.9753 152.747 18.9753H171.707C171.799 18.9753 171.876 19.0513 171.876 19.1426V37.8856C171.876 37.9769 171.799 38.0529 171.707 38.0529ZM152.916 37.7184H171.538V19.3098H152.916V37.7184Z" fill="black" stroke="black" stroke-width="0.2"/>
<path d="M160.213 24.7747H164.484L166.374 34.1766C166.374 34.1766 166.197 34.2678 165.767 34.3514C165.352 34.4274 164.914 34.4502 164.914 34.4502L164.115 30.8323L164.107 34.5414C164.107 34.5414 163.57 34.6706 161.841 34.6554C160.735 34.6478 158.354 34.2602 158.354 34.2602L160.213 24.7747Z" fill="#E9E9E9"/>
<path d="M119.959 11.9069H107.998V1.16724H119.959V11.9069Z" fill="white"/>
<path fill-rule="evenodd" clip-rule="evenodd" d="M120.129 12.0741H107.83V1H120.129V12.0741ZM108.168 11.7397H119.791V1.33443H108.168V11.7397Z" fill="black"/>
<path d="M107.998 11.9069V12.5605C107.998 15.5247 110.679 17.9265 113.982 17.9265C117.278 17.9265 119.959 15.5247 119.959 12.5605V11.9069H107.998Z" fill="white" stroke="black" stroke-width="0.1"/>
<path fill-rule="evenodd" clip-rule="evenodd" d="M113.983 18.0936C110.588 18.0936 107.83 15.6158 107.83 12.5604V11.7395H120.129V12.5604C120.129 15.6158 117.371 18.0936 113.983 18.0936ZM108.168 12.0739V12.5604C108.168 15.4258 110.78 17.7592 113.983 17.7592C117.187 17.7592 119.791 15.4258 119.791 12.5604V12.0739H108.168Z" fill="black" stroke="black" stroke-width="0.1"/>
<path d="M143.866 11.9069H131.912V1.16724H143.866V11.9069Z" fill="white" stroke="black" stroke-width="0.1"/>
<path fill-rule="evenodd" clip-rule="evenodd" d="M144.036 12.0741H131.744V1H144.036V12.0741ZM132.082 11.7397H143.698V1.33443H132.082V11.7397Z" fill="black" stroke="black" stroke-width="0.1"/>
<path d="M131.912 11.9069V12.5605C131.912 15.5247 134.593 17.9265 137.889 17.9265C141.192 17.9265 143.866 15.5247 143.866 12.5605V11.9069H131.912Z" fill="white" stroke="black" stroke-width="0.1"/>
<path fill-rule="evenodd" clip-rule="evenodd" d="M137.89 18.0936C134.502 18.0936 131.744 15.6158 131.744 12.5604V11.7395H144.036V12.5604C144.036 15.6158 141.285 18.0936 137.89 18.0936ZM132.082 12.0739V12.5604C132.082 15.4258 134.686 17.7592 137.89 17.7592C141.093 17.7592 143.698 15.4258 143.698 12.5604V12.0739H132.082Z" fill="black" stroke="black" stroke-width="0.1"/>
<path d="M167.78 11.9069H155.826V1.16724H167.78V11.9069Z" fill="white" stroke="black" stroke-width="0.1"/>
<path fill-rule="evenodd" clip-rule="evenodd" d="M167.948 12.0741H155.656V1H167.948V12.0741ZM155.994 11.7397H167.61V1.33443H155.994V11.7397Z" fill="black" stroke="black" stroke-width="0.1"/>
<path d="M155.826 11.9069V12.5605C155.826 15.5247 158.5 17.9265 161.803 17.9265C165.106 17.9265 167.78 15.5247 167.78 12.5605V11.9069H155.826Z" fill="white" stroke="black" stroke-width="0.1"/>
<path fill-rule="evenodd" clip-rule="evenodd" d="M161.802 18.0936C158.414 18.0936 155.656 15.6158 155.656 12.5604V11.7395H167.948V12.5604C167.948 15.6158 165.19 18.0936 161.802 18.0936ZM155.994 12.0739V12.5604C155.994 15.4258 158.599 17.7592 161.802 17.7592C165.005 17.7592 167.61 15.4258 167.61 12.5604V12.0739H155.994Z" fill="black" stroke="black" stroke-width="0.1"/>
<path d="M170.854 12.0969H104.773C104.68 12.0969 104.604 12.0285 104.604 11.9297C104.604 11.8385 104.68 11.7625 104.773 11.7625H170.854C170.947 11.7625 171.023 11.8385 171.023 11.9297C171.023 12.0285 170.947 12.0969 170.854 12.0969Z" fill="black" stroke="black" stroke-width="0.1"/>
<path d="M107.998 11.9069H96.0449V1.16724H107.998V11.9069Z" fill="white" stroke="black" stroke-width="0.1"/>
<path fill-rule="evenodd" clip-rule="evenodd" d="M107.997 12.0741H96.044C95.9518 12.0741 95.875 12.0057 95.875 11.9069V1.16721C95.875 1.07601 95.9518 1 96.044 1H107.997C108.097 1 108.166 1.07601 108.166 1.16721V11.9069C108.166 12.0057 108.097 12.0741 107.997 12.0741ZM96.213 11.7397H107.828V1.33443H96.213V11.7397Z" fill="black" stroke="black" stroke-width="0.1"/>
<path d="M96.0449 11.9069V12.5605C96.0449 15.5247 98.7183 17.9265 102.022 17.9265C105.325 17.9265 107.998 15.5247 107.998 12.5605V11.9069H96.0449Z" fill="white" stroke="black" stroke-width="0.1"/>
<path fill-rule="evenodd" clip-rule="evenodd" d="M102.021 18.0936C98.6329 18.0936 95.875 15.6158 95.875 12.5604V11.9067C95.875 11.8155 95.9518 11.7395 96.044 11.7395H107.997C108.097 11.7395 108.166 11.8155 108.166 11.9067V12.5604C108.166 15.6158 105.409 18.0936 102.021 18.0936ZM96.213 12.0739V12.5604C96.213 15.4258 98.8173 17.7592 102.021 17.7592C105.224 17.7592 107.828 15.4258 107.828 12.5604V12.0739H96.213Z" fill="black" stroke="black" stroke-width="0.1"/>
<path d="M131.912 11.9069H119.959V1.16724H131.912V11.9069Z" fill="white" stroke="black" stroke-width="0.1"/>
<path fill-rule="evenodd" clip-rule="evenodd" d="M131.912 12.0741H119.958C119.866 12.0741 119.789 12.0057 119.789 11.9069V1.16721C119.789 1.07601 119.866 1 119.958 1H131.912C132.004 1 132.081 1.07601 132.081 1.16721V11.9069C132.081 12.0057 132.004 12.0741 131.912 12.0741ZM120.127 11.7397H131.743V1.33443H120.127V11.7397Z" fill="black" stroke="black" stroke-width="0.1"/>
<path d="M119.959 11.9069V12.5605C119.959 15.5247 122.632 17.9265 125.936 17.9265C129.239 17.9265 131.912 15.5247 131.912 12.5605V11.9069H119.959Z" fill="white" stroke="black" stroke-width="0.1"/>
<path fill-rule="evenodd" clip-rule="evenodd" d="M125.935 18.0936C122.547 18.0936 119.789 15.6158 119.789 12.5604V11.9067C119.789 11.8155 119.866 11.7395 119.958 11.7395H131.912C132.004 11.7395 132.081 11.8155 132.081 11.9067V12.5604C132.081 15.6158 129.323 18.0936 125.935 18.0936ZM120.127 12.0739V12.5604C120.127 15.4258 122.731 17.7592 125.935 17.7592C129.138 17.7592 131.743 15.4258 131.743 12.5604V12.0739H120.127Z" fill="black" stroke="black" stroke-width="0.1"/>
<path d="M155.826 11.9069H143.865V1.16724H155.826V11.9069Z" fill="white" stroke="black" stroke-width="0.1"/>
<path fill-rule="evenodd" clip-rule="evenodd" d="M155.827 12.0741H143.866C143.774 12.0741 143.697 12.0057 143.697 11.9069V1.16721C143.697 1.07601 143.774 1 143.866 1H155.827C155.92 1 155.996 1.07601 155.996 1.16721V11.9069C155.996 12.0057 155.92 12.0741 155.827 12.0741ZM144.035 11.7397H155.658V1.33443H144.035V11.7397Z" fill="black" stroke="black" stroke-width="0.1"/>
<path d="M143.865 11.9069V12.5605C143.865 15.5247 146.546 17.9265 149.85 17.9265C153.145 17.9265 155.826 15.5247 155.826 12.5605V11.9069H143.865Z" fill="white" stroke="black" stroke-width="0.1"/>
<path fill-rule="evenodd" clip-rule="evenodd" d="M149.851 18.0936C146.455 18.0936 143.697 15.6158 143.697 12.5604V11.9067C143.697 11.8155 143.774 11.7395 143.866 11.7395H155.827C155.92 11.7395 155.996 11.8155 155.996 11.9067V12.5604C155.996 15.6158 153.239 18.0936 149.851 18.0936ZM144.035 12.0739V12.5604C144.035 15.4258 146.647 17.7592 149.851 17.7592C153.054 17.7592 155.658 15.4258 155.658 12.5604V12.0739H144.035Z" fill="black" stroke="black" stroke-width="0.1"/>
<path d="M179.733 11.9069H167.779V1.16724H179.733V11.9069Z" fill="white" stroke="black" stroke-width="0.1"/>
<path fill-rule="evenodd" clip-rule="evenodd" d="M179.734 12.0741H167.78C167.688 12.0741 167.611 12.0057 167.611 11.9069V1.16721C167.611 1.07601 167.688 1 167.78 1H179.734C179.834 1 179.903 1.07601 179.903 1.16721V11.9069C179.903 12.0057 179.834 12.0741 179.734 12.0741ZM167.949 11.7397H179.565V1.33443H167.949V11.7397Z" fill="black" stroke="black" stroke-width="0.1"/>
<path d="M167.779 11.9069V12.5605C167.779 15.5247 170.46 17.9265 173.756 17.9265C177.059 17.9265 179.733 15.5247 179.733 12.5605V11.9069H167.779Z" fill="white" stroke="black" stroke-width="0.1"/>
<path fill-rule="evenodd" clip-rule="evenodd" d="M173.757 18.0936C170.369 18.0936 167.611 15.6158 167.611 12.5604V11.9067C167.611 11.8155 167.688 11.7395 167.78 11.7395H179.734C179.834 11.7395 179.903 11.8155 179.903 11.9067V12.5604C179.903 15.6158 177.153 18.0936 173.757 18.0936ZM167.949 12.0739V12.5604C167.949 15.4258 170.554 17.7592 173.757 17.7592C176.961 17.7592 179.565 15.4258 179.565 12.5604V12.0739H167.949Z" fill="black" stroke="black" stroke-width="0.1"/>
<path d="M41.4773 17.0827H1.16901C1.07682 17.0827 1 17.0067 1 16.9155C1 16.8243 1.07682 16.7483 1.16901 16.7483H41.4773C41.5695 16.7483 41.6463 16.8243 41.6463 16.9155C41.6463 17.0067 41.5695 17.0827 41.4773 17.0827Z" fill="black" stroke="black" stroke-width="0.2"/>
<path d="M41.4773 22.0612H1.16901C1.07682 22.0612 1 21.9852 1 21.894C1 21.8028 1.07682 21.7268 1.16901 21.7268H41.4773C41.5695 21.7268 41.6463 21.8028 41.6463 21.894C41.6463 21.9852 41.5695 22.0612 41.4773 22.0612Z" fill="black" stroke="black" stroke-width="0.2"/>
<path d="M19.5447 27.0397H1.16901C1.07682 27.0397 1 26.9713 1 26.8725C1 26.7813 1.07682 26.7053 1.16901 26.7053H19.5447C19.6369 26.7053 19.7137 26.7813 19.7137 26.8725C19.7137 26.9713 19.6369 27.0397 19.5447 27.0397Z" fill="black" stroke="black" stroke-width="0.2"/>
<path d="M19.5457 7.96985H1.16992V13.2523H19.5457V7.96985Z" fill="#E9E9E9"/>
</svg>
