<svg width="212" height="142" viewBox="0 0 212 142" fill="none" xmlns="http://www.w3.org/2000/svg">
<path d="M151.907 10.8093C151.907 10.8093 153.084 8.67927 154.706 10.5248C156.321 12.3626 153.499 14.6541 151.83 14.1466L151.907 10.8093Z" fill="white"/>
<path fill-rule="evenodd" clip-rule="evenodd" d="M152.345 14.3851C152.145 14.3851 151.96 14.362 151.783 14.3082C151.714 14.2851 151.66 14.2159 151.66 14.139L151.737 10.8017C151.737 10.7761 151.745 10.7504 151.76 10.7248C151.783 10.6786 152.329 9.70975 153.229 9.60979C153.775 9.54827 154.313 9.81741 154.828 10.4095C155.467 11.14 155.528 12.032 154.99 12.8702C154.398 13.7776 153.29 14.3851 152.345 14.3851ZM152.006 14.016C152.883 14.2005 154.113 13.6084 154.698 12.6933C154.967 12.2781 155.305 11.463 154.575 10.6325C154.136 10.1327 153.698 9.90199 153.267 9.94813C152.629 10.0173 152.175 10.694 152.075 10.8555L152.006 14.016Z" fill="black"/>
<path d="M152.767 13.0624C152.746 13.0624 152.726 13.0598 152.705 13.0547C152.621 13.0239 152.575 12.924 152.605 12.8394C152.782 12.3549 153.151 11.9474 153.613 11.7321C153.697 11.6936 153.805 11.7244 153.843 11.809C153.882 11.8935 153.843 11.9935 153.759 12.0397C153.374 12.2165 153.067 12.5549 152.928 12.9547C152.897 13.0239 152.836 13.0624 152.767 13.0624Z" fill="black"/>
<path d="M135.528 10.2173L139.434 8.95617L153.037 7.69507C153.276 8.21028 152.937 8.80238 152.376 8.8639L135.689 10.9478C135.236 11.0093 135.097 10.3557 135.528 10.2173Z" fill="#FF9536"/>
<path d="M140.879 9.80971L139.434 8.95616C139.434 8.95616 138.811 1.28958 145.409 0.374509C153.744 -0.778939 153.037 7.69506 153.037 7.69506L140.879 9.80971Z" fill="#FF9536"/>
<path d="M60.2832 48.7347L42.5586 35.1932H129.798L105.445 50.7725L60.2832 48.7347Z" fill="white"/>
<path fill-rule="evenodd" clip-rule="evenodd" d="M105.445 50.9416C105.445 50.9416 105.442 50.9416 105.437 50.9416L60.2759 48.9039C60.24 48.9039 60.2092 48.8936 60.1836 48.8731L42.459 35.3316C42.3974 35.2855 42.3744 35.2086 42.3974 35.1394C42.4205 35.0702 42.4897 35.024 42.5589 35.024H129.798C129.875 35.024 129.936 35.0779 129.96 35.1471C129.983 35.2163 129.952 35.2932 129.89 35.3393L105.537 50.9186C105.506 50.9339 105.476 50.9416 105.445 50.9416ZM60.3451 48.5655L105.399 50.6033L129.221 35.3624H43.0588L60.3451 48.5655Z" fill="black" stroke="black" stroke-width="0.2"/>
<path d="M107.536 79.647H63.3976C62.4287 79.647 61.6367 78.855 61.6367 77.8784V22.9051C61.6367 21.9285 62.4287 21.1442 63.3976 21.1442H107.536C108.505 21.1442 109.297 21.9285 109.297 22.9051V77.8784C109.297 78.855 108.505 79.647 107.536 79.647Z" fill="white"/>
<path fill-rule="evenodd" clip-rule="evenodd" d="M107.537 79.8163H63.3989C62.3377 79.8163 61.4688 78.9474 61.4688 77.8785V22.9052C61.4688 21.8363 62.3377 20.9751 63.3989 20.9751H107.537C108.599 20.9751 109.468 21.8363 109.468 22.9052V77.8785C109.468 78.9474 108.599 79.8163 107.537 79.8163ZM63.3989 21.3134C62.5222 21.3134 61.8071 22.0286 61.8071 22.9052V77.8785C61.8071 78.7628 62.5222 79.478 63.3989 79.478H107.537C108.414 79.478 109.129 78.7628 109.129 77.8785V22.9052C109.129 22.0286 108.414 21.3134 107.537 21.3134H63.3989Z" fill="black" stroke="black" stroke-width="0.2"/>
<path fill-rule="evenodd" clip-rule="evenodd" d="M100.94 52.964C100.94 61.6302 93.9115 68.6586 85.2452 68.6586C76.5713 68.6586 69.543 61.6302 69.543 52.964C69.543 44.2901 76.5713 37.2617 85.2452 37.2617C93.9115 37.2617 100.94 44.2901 100.94 52.964ZM95.7109 58.6466C94.9111 57.5701 94.3652 55.4247 94.3652 52.964C94.3652 50.4956 94.9111 48.3579 95.7109 47.2736C93.6962 43.5672 89.7591 41.0527 85.2452 41.0527C78.6629 41.0527 73.334 46.3816 73.334 52.964C73.334 59.5386 78.6629 64.8753 85.2452 64.8753C89.7591 64.8753 93.6962 62.3608 95.7109 58.6466Z" fill="white"/>
<path fill-rule="evenodd" clip-rule="evenodd" d="M85.2445 68.8277C76.4937 68.8277 69.373 61.7148 69.373 52.964C69.373 44.2131 76.4937 37.0925 85.2445 37.0925C93.9953 37.0925 101.108 44.2131 101.108 52.964C101.108 61.7148 93.9953 68.8277 85.2445 68.8277ZM85.2445 37.4309C76.6782 37.4309 69.7114 44.3977 69.7114 52.964C69.7114 61.5226 76.6782 68.4894 85.2445 68.4894C93.8031 68.4894 100.77 61.5226 100.77 52.964C100.77 44.3977 93.8031 37.4309 85.2445 37.4309ZM85.2445 65.0444C78.5776 65.0444 73.164 59.6232 73.164 52.964C73.164 46.297 78.5776 40.8835 85.2445 40.8835C89.6737 40.8835 93.7416 43.2981 95.8562 47.189C95.887 47.2506 95.887 47.3198 95.8485 47.3736C95.0334 48.4655 94.5336 50.6109 94.5336 52.964C94.5336 55.317 95.0334 57.4547 95.8485 58.5467C95.887 58.6005 95.887 58.6697 95.8562 58.7312C93.7416 62.6222 89.6737 65.0444 85.2445 65.0444ZM85.2445 41.2219C78.7698 41.2219 73.5024 46.4893 73.5024 52.964C73.5024 59.4387 78.7698 64.7061 85.2445 64.7061C89.5122 64.7061 93.434 62.3915 95.5102 58.662C94.6951 57.4932 94.1952 55.3247 94.1952 52.964C94.1952 50.6033 94.6951 48.4348 95.5102 47.2583C93.434 43.5288 89.5122 41.2219 85.2445 41.2219Z" fill="black"/>
<path d="M103.799 75.9791H98.1783L97.6016 79.6471H104.376L103.799 75.9791Z" fill="white"/>
<path fill-rule="evenodd" clip-rule="evenodd" d="M104.377 79.8162H97.6028C97.5566 79.8162 97.5105 79.7932 97.472 79.7547C97.4413 79.7163 97.4259 79.6701 97.4336 79.6163L98.018 75.956C98.0257 75.8715 98.0949 75.8099 98.1795 75.8099H103.801C103.885 75.8099 103.954 75.8715 103.97 75.956L104.547 79.6163C104.554 79.6701 104.539 79.7163 104.508 79.7547C104.477 79.7932 104.431 79.8162 104.377 79.8162ZM97.8027 79.4779H104.185L103.655 76.1483H98.3256L97.8027 79.4779Z" fill="black"/>
<path d="M109.298 30.9101H61.6223C61.5223 30.9101 61.4531 30.8332 61.4531 30.741C61.4531 30.6487 61.5223 30.5718 61.6223 30.5718H109.298C109.39 30.5718 109.467 30.6487 109.467 30.741C109.467 30.8332 109.39 30.9101 109.298 30.9101Z" fill="black" stroke="black" stroke-width="0.2"/>
<path fill-rule="evenodd" clip-rule="evenodd" d="M99.9778 28.2034C98.6706 28.2034 97.6094 27.1345 97.6094 25.8273C97.6094 24.52 98.6706 23.4589 99.9778 23.4589C101.285 23.4589 102.354 24.52 102.354 25.8273C102.354 27.1345 101.285 28.2034 99.9778 28.2034ZM99.9778 23.7972C98.8628 23.7972 97.9477 24.7046 97.9477 25.8273C97.9477 26.95 98.8628 27.865 99.9778 27.865C101.1 27.865 102.016 26.95 102.016 25.8273C102.016 24.7046 101.1 23.7972 99.9778 23.7972Z" fill="black"/>
<path d="M91.2272 26.1118H80.3848V23.2897H91.2272V26.1118Z" fill="black"/>
<path d="M76.7707 30.8717C76.6785 30.8717 76.6016 30.7948 76.6016 30.7025V21.1443C76.6016 21.0443 76.6785 20.9751 76.7707 20.9751C76.863 20.9751 76.9399 21.0443 76.9399 21.1443V30.7025C76.9399 30.7948 76.863 30.8717 76.7707 30.8717Z" fill="black"/>
<path d="M113.249 81.1235H56.9766V45.9895H113.249V81.1235Z" fill="white"/>
<path fill-rule="evenodd" clip-rule="evenodd" d="M113.251 81.2927H56.9778C56.8778 81.2927 56.8086 81.2235 56.8086 81.1235V45.9895C56.8086 45.8972 56.8778 45.8203 56.9778 45.8203H113.251C113.343 45.8203 113.42 45.8972 113.42 45.9895V81.1235C113.42 81.2235 113.343 81.2927 113.251 81.2927ZM57.1469 80.9543H113.081V46.1587H57.1469V80.9543Z" fill="black" stroke="black" stroke-width="0.2"/>
<path d="M20.4668 22.9743C20.4668 24.4277 19.2902 25.6119 17.8369 25.6119C16.3835 25.6119 15.207 24.4277 15.207 22.9743C15.207 21.521 16.3835 20.3445 17.8369 20.3445C19.2902 20.3445 20.4668 21.521 20.4668 22.9743Z" fill="white"/>
<path fill-rule="evenodd" clip-rule="evenodd" d="M17.8381 25.7811C16.2925 25.7811 15.0391 24.5199 15.0391 22.9743C15.0391 21.4287 16.2925 20.1753 17.8381 20.1753C19.3837 20.1753 20.6371 21.4287 20.6371 22.9743C20.6371 24.5199 19.3837 25.7811 17.8381 25.7811ZM17.8381 20.5136C16.477 20.5136 15.3774 21.6209 15.3774 22.9743C15.3774 24.3354 16.477 25.4427 17.8381 25.4427C19.1992 25.4427 20.2988 24.3354 20.2988 22.9743C20.2988 21.6209 19.1992 20.5136 17.8381 20.5136Z" fill="black" stroke="black" stroke-width="0.2"/>
<path d="M18.9988 90.8355C18.9886 90.8355 18.9758 90.833 18.9604 90.8279C18.8681 90.8048 18.8143 90.7125 18.8374 90.6202L42.3985 0.220678C42.4215 0.136092 42.5138 0.0822644 42.6061 0.105333C42.6907 0.128402 42.7445 0.220677 42.7214 0.312953L19.168 90.7048C19.1449 90.7817 19.0757 90.8355 18.9988 90.8355Z" fill="black" stroke="black" stroke-width="0.2"/>
<path d="M0.274108 90.8355C0.258729 90.8355 0.243352 90.833 0.227972 90.8279C0.135697 90.8048 0.0818686 90.7125 0.104938 90.6202L23.666 0.220678C23.6891 0.136092 23.7814 0.0822644 23.8737 0.105333C23.9582 0.128402 24.0198 0.220677 23.989 0.312953L0.435592 90.7048C0.412523 90.7817 0.343315 90.8355 0.274108 90.8355Z" fill="black" stroke="black" stroke-width="0.2"/>
<path d="M35.3077 90.8355C35.2308 90.8355 35.1616 90.7817 35.1462 90.7048C32.6624 81.2773 30.1863 71.6729 27.7872 62.3838C24.496 49.6805 21.1049 36.5389 17.6753 23.6741C17.6522 23.5818 17.706 23.4895 17.7906 23.4665C17.8829 23.4357 17.9752 23.4895 17.9982 23.5818C21.4355 36.4543 24.8267 49.5959 28.1101 62.2992C30.5093 71.5883 32.9931 81.1927 35.4691 90.6202C35.4922 90.7125 35.4384 90.8047 35.3461 90.8278C35.3359 90.8329 35.323 90.8355 35.3077 90.8355Z" fill="black" stroke="black" stroke-width="0.2"/>
<path d="M51.9954 82.9536C51.9185 82.9536 51.8493 82.8998 51.8339 82.8229C50.6574 78.3321 49.4962 73.949 48.2659 69.3122C47.6046 66.813 46.9433 64.2908 46.2666 61.7379C45.4822 58.6927 44.7056 55.6938 43.9366 52.7179C41.3759 42.7905 38.9614 33.4092 36.4084 23.6664C36.3777 23.5818 36.4392 23.4895 36.5238 23.4665C36.6161 23.4357 36.7083 23.4895 36.7314 23.5818C39.2844 33.3246 41.7066 42.706 44.2673 52.6333C45.0362 55.6092 45.8129 58.6082 46.5972 61.6533C47.2662 64.2062 47.9352 66.7284 48.5965 69.2276C49.8269 73.8644 50.9803 78.2475 52.1568 82.7383C52.1799 82.8306 52.1261 82.9228 52.0415 82.9459C52.0261 82.951 52.0107 82.9536 51.9954 82.9536Z" fill="black" stroke="black" stroke-width="0.2"/>
<path d="M34.8855 24.0356H18.2605C17.6761 24.0356 17.207 23.5588 17.207 22.9744C17.207 22.3977 17.6761 21.9209 18.2605 21.9209H34.8855C35.4623 21.9209 35.939 22.3977 35.939 22.9744C35.939 23.5588 35.4623 24.0356 34.8855 24.0356Z" fill="white"/>
<path fill-rule="evenodd" clip-rule="evenodd" d="M34.8848 24.2047H18.2598C17.5831 24.2047 17.0371 23.6511 17.0371 22.9744C17.0371 22.3054 17.5831 21.7517 18.2598 21.7517H34.8848C35.5538 21.7517 36.1074 22.3054 36.1074 22.9744C36.1074 23.6511 35.5538 24.2047 34.8848 24.2047ZM18.2598 22.0901C17.7753 22.0901 17.3755 22.4899 17.3755 22.9744C17.3755 23.4665 17.7753 23.8664 18.2598 23.8664H34.8848C35.3692 23.8664 35.7691 23.4665 35.7691 22.9744C35.7691 22.4899 35.3692 22.0901 34.8848 22.0901H18.2598Z" fill="black" stroke="black" stroke-width="0.2"/>
<path d="M39.1992 22.9743C39.1992 24.4277 38.0227 25.6119 36.5693 25.6119C35.116 25.6119 33.9395 24.4277 33.9395 22.9743C33.9395 21.521 35.116 20.3445 36.5693 20.3445C38.0227 20.3445 39.1992 21.521 39.1992 22.9743Z" fill="white"/>
<path fill-rule="evenodd" clip-rule="evenodd" d="M36.5686 25.7811C35.0229 25.7811 33.7695 24.5199 33.7695 22.9743C33.7695 21.4287 35.0229 20.1753 36.5686 20.1753C38.1142 20.1753 39.3676 21.4287 39.3676 22.9743C39.3676 24.5199 38.1142 25.7811 36.5686 25.7811ZM36.5686 20.5136C35.2075 20.5136 34.1079 21.6209 34.1079 22.9743C34.1079 24.3354 35.2075 25.4427 36.5686 25.4427C37.9219 25.4427 39.0293 24.3354 39.0293 22.9743C39.0293 21.6209 37.9219 20.5136 36.5686 20.5136Z" fill="black" stroke="black" stroke-width="0.2"/>
<path d="M32.5789 38.7458H13.8469C13.7546 38.7458 13.6777 38.6766 13.6777 38.5766C13.6777 38.4844 13.7546 38.4075 13.8469 38.4075H32.5789C32.6789 38.4075 32.7481 38.4844 32.7481 38.5766C32.7481 38.6766 32.6789 38.7458 32.5789 38.7458Z" fill="black" stroke="black" stroke-width="0.2"/>
<path d="M28.6102 53.5484H10.0012C9.90124 53.5484 9.83203 53.4715 9.83203 53.3793C9.83203 53.287 9.90124 53.2101 10.0012 53.2101H28.6102C28.7101 53.2101 28.7793 53.287 28.7793 53.3793C28.7793 53.4715 28.7101 53.5484 28.6102 53.5484Z" fill="black" stroke="black" stroke-width="0.2"/>
<path d="M24.6429 68.351H6.1262C6.03393 68.351 5.95703 68.2741 5.95703 68.1819C5.95703 68.0896 6.03393 68.0127 6.1262 68.0127H24.6429C24.7429 68.0127 24.8121 68.0896 24.8121 68.1819C24.8121 68.2741 24.7429 68.351 24.6429 68.351Z" fill="black" stroke="black" stroke-width="0.2"/>
<path d="M183.949 63.9525L196.214 113.835L210.924 140.634L141.264 140.649L144.563 67.6128L183.949 63.9525Z" fill="white"/>
<path d="M141.263 140.818C141.263 140.818 141.26 140.818 141.255 140.818C141.163 140.811 141.094 140.734 141.094 140.641L144.393 67.6051C144.4 67.5205 144.462 67.459 144.546 67.4513L183.933 63.7833C184.017 63.7756 184.094 63.8295 184.11 63.9141L196.375 113.774L211.077 140.549C211.123 140.634 211.093 140.741 211.008 140.78C210.923 140.826 210.824 140.795 210.777 140.718L196.067 113.92C196.062 113.904 196.057 113.889 196.052 113.874L183.817 64.1371L144.723 67.7743L141.432 140.657C141.432 140.749 141.355 140.818 141.263 140.818Z" fill="black"/>
<path d="M117.419 59.0773L100.863 85.3913L116.496 97.8177L135.421 67.6589L117.419 59.0773Z" fill="white"/>
<path fill-rule="evenodd" clip-rule="evenodd" d="M116.496 97.987C116.457 97.987 116.419 97.9716 116.388 97.9485L100.755 85.522C100.693 85.4682 100.678 85.3683 100.724 85.299L117.28 58.9851C117.326 58.9082 117.418 58.8851 117.495 58.9235L135.489 67.5052C135.535 67.5283 135.566 67.5667 135.581 67.6128C135.597 67.659 135.589 67.7128 135.558 67.7513L116.642 97.9101C116.611 97.9485 116.572 97.9793 116.526 97.987C116.516 97.987 116.506 97.987 116.496 97.987ZM101.086 85.3529L116.449 97.5717L135.174 67.7282L117.488 59.2926L101.086 85.3529Z" fill="black" stroke="black" stroke-width="0.2"/>
<path d="M122.524 90.5664H118.311V85.8834L122.97 87.2368C123.839 87.4137 124.455 88.0904 124.455 88.8747C124.455 89.8051 123.593 90.5664 122.524 90.5664Z" fill="white"/>
<path fill-rule="evenodd" clip-rule="evenodd" d="M122.524 90.7356H118.31C118.218 90.7356 118.141 90.6587 118.141 90.5664V85.8834C118.141 85.8296 118.164 85.7758 118.21 85.745C118.248 85.7142 118.302 85.7065 118.356 85.7219L123.016 87.0676C123.954 87.2675 124.623 88.0057 124.623 88.8747C124.623 89.8974 123.685 90.7356 122.524 90.7356ZM118.479 90.3895H122.524C123.493 90.3895 124.285 89.7129 124.285 88.8747C124.285 88.1672 123.731 87.5674 122.931 87.3983L118.479 86.1064V90.3895Z" fill="black"/>
<path d="M201.651 28.6801L194.861 21.1135C189.609 15.2694 181.627 12.6857 173.945 14.362L152.43 19.045L137.127 31.656C134.413 34.2628 131.937 37.1157 129.737 40.1762L115.873 59.8463L132.137 75.3871L141.264 62.2224L146.278 81.5004L185.095 60.5922L179.766 36.2775L182.142 38.7305L201.651 28.6801Z" fill="#FF9536"/>
<path d="M138.164 50.6648L160.964 44.7053L168.215 70.135L145.892 79.1165L138.164 50.6648Z" fill="white"/>
<path d="M140.218 50.7725H138.318C138.318 50.5264 138.357 44.7131 140.11 37.6924C142.463 28.311 146.815 21.3211 152.69 17.484L153.728 19.0758C140.433 27.7574 140.218 50.5495 140.218 50.7725Z" fill="white"/>
<path d="M170.939 14.831C166.171 18.9065 163.126 24.8275 161.08 33.017C159.304 40.1069 159.266 45.9664 159.266 46.2125L161.18 46.2202C161.18 45.9895 161.442 23.0512 174.668 14.2081L170.939 14.831Z" fill="white"/>
<path d="M145.186 76.6943C145.109 76.6943 145.048 76.6405 145.025 76.5636L136.589 45.5127C136.566 45.4282 136.62 45.3359 136.712 45.3051C136.797 45.2821 136.889 45.3359 136.92 45.4282L145.348 76.479C145.379 76.5713 145.325 76.6635 145.232 76.6866C145.217 76.6917 145.202 76.6943 145.186 76.6943Z" fill="black" stroke="black" stroke-width="0.2"/>
<path d="M90.8809 123.117V89.5668L102.907 112.543L95.2563 140.634L90.8809 123.117Z" fill="white"/>
<path fill-rule="evenodd" clip-rule="evenodd" d="M95.2575 140.803C95.1806 140.803 95.1114 140.749 95.096 140.672L90.7129 123.155C90.7129 123.14 90.7129 123.127 90.7129 123.117V89.5744C90.7129 89.4898 90.759 89.4283 90.8359 89.4052C90.9128 89.3899 90.9897 89.4206 91.0282 89.4898L103.062 112.459C103.078 112.497 103.086 112.543 103.078 112.582L95.419 140.68C95.4036 140.749 95.3344 140.803 95.2575 140.803ZM91.0512 123.094L95.2652 139.965L102.732 112.559L91.0512 90.2588V123.094Z" fill="black" stroke="black" stroke-width="0.2"/>
<path d="M183.948 140.634H95.2559V106H183.948V140.634Z" fill="white"/>
<path fill-rule="evenodd" clip-rule="evenodd" d="M183.95 140.803H95.2571C95.1648 140.803 95.0879 140.726 95.0879 140.634V105.999C95.0879 105.907 95.1648 105.83 95.2571 105.83H183.95C184.042 105.83 184.119 105.907 184.119 105.999V140.634C184.119 140.726 184.042 140.803 183.95 140.803ZM95.4262 140.465H183.78V106.169H95.4262V140.465Z" fill="black" stroke="black" stroke-width="0.2"/>
<path d="M183.949 106.069H95.2563L90.8809 89.5668H177.374L183.949 106.069Z" fill="white"/>
<path fill-rule="evenodd" clip-rule="evenodd" d="M183.949 106.238H95.2563C95.1794 106.238 95.1179 106.184 95.0949 106.107L90.7118 89.6129C90.7041 89.5667 90.7118 89.5129 90.7425 89.4668C90.7733 89.4283 90.8271 89.3976 90.8809 89.3976H177.374C177.443 89.3976 177.505 89.4437 177.536 89.5052L184.103 106.007C184.126 106.053 184.118 106.115 184.087 106.161C184.056 106.207 184.003 106.238 183.949 106.238ZM95.3871 105.9H183.695L177.259 89.7436H91.0962L95.3871 105.9Z" fill="black" stroke="black" stroke-width="0.2"/>
<path d="M180.666 97.9869H93.0657C92.9734 97.9869 92.8965 97.91 92.8965 97.8177C92.8965 97.7255 92.9734 97.6486 93.0657 97.6486H180.666C180.758 97.6486 180.835 97.7255 180.835 97.8177C180.835 97.91 180.758 97.9869 180.666 97.9869Z" fill="black" stroke="black" stroke-width="0.2"/>
<path d="M151.883 99.3633L150.653 96.2721H96.8945L97.7173 99.3633H151.883Z" fill="#E9E9E9"/>
<path d="M104.323 89.6821L98.9629 89.5668C98.9629 89.5668 99.9318 83.6611 104.484 83.6919C106.983 83.7073 111.958 83.6842 115.027 83.7303C116.649 83.7611 118.095 84.7761 118.671 86.291C119.448 88.3672 120.325 91.197 119.963 92.6888C119.356 95.2033 117.38 92.1813 116.495 90.2435C116.495 90.2435 117.71 93.9268 115.98 94.3267C113.381 94.9188 114.158 89.2438 111.136 87.6828C111.136 87.6828 114.296 94.442 112.105 94.4343C109.982 94.419 109.613 90.1589 107.606 88.4057C107.606 88.4057 110.213 92.9579 108.129 93.5423C106.522 93.996 105.699 91.2739 104.323 89.6821Z" fill="white"/>
<path fill-rule="evenodd" clip-rule="evenodd" d="M112.111 94.6035C112.106 94.6035 112.104 94.6035 112.104 94.6035C110.789 94.5958 110.112 93.1348 109.397 91.5892C109.089 90.9202 108.782 90.2435 108.405 89.6514C108.866 90.7048 109.335 92.1428 108.982 93.004C108.836 93.3655 108.567 93.5962 108.174 93.7115C106.952 94.0498 106.175 92.7964 105.352 91.4738C105.006 90.9125 104.652 90.328 104.245 89.8513L98.9621 89.7436C98.9083 89.7359 98.8622 89.7129 98.8314 89.6821C98.8007 89.6437 98.7853 89.5898 98.793 89.5437C98.8084 89.4822 99.8388 83.5227 104.453 83.5227C104.463 83.5227 104.473 83.5227 104.483 83.5227C105.375 83.5304 106.567 83.5304 107.882 83.5304C110.304 83.5304 113.05 83.5304 115.026 83.5612C116.733 83.5919 118.225 84.6377 118.825 86.2371C119.624 88.3518 120.501 91.2047 120.132 92.7272C119.963 93.4116 119.678 93.773 119.286 93.8115C119.26 93.8166 119.237 93.8192 119.217 93.8192C118.448 93.8192 117.563 92.558 116.979 91.543C117.11 92.3274 117.156 93.2732 116.818 93.8884C116.633 94.2036 116.364 94.4113 116.018 94.4881C114.534 94.8265 114.034 93.327 113.511 91.7352C113.08 90.428 112.596 88.9593 111.527 88.1288C112.135 89.5283 113.572 93.0809 112.842 94.219C112.688 94.4728 112.434 94.6035 112.111 94.6035ZM107.605 88.2365C107.644 88.2365 107.682 88.2518 107.713 88.2826C108.605 89.0593 109.166 90.2742 109.705 91.443C110.404 92.9579 111.004 94.2575 112.104 94.2651C112.109 94.2651 112.111 94.2651 112.111 94.2651C112.319 94.2651 112.465 94.1882 112.557 94.0421C113.203 93.0271 111.642 89.1592 110.981 87.7597C110.95 87.6905 110.966 87.6136 111.02 87.5598C111.073 87.5136 111.15 87.4983 111.219 87.5367C112.742 88.321 113.326 90.082 113.834 91.6353C114.403 93.3655 114.818 94.4189 115.941 94.1575C116.195 94.1037 116.387 93.9576 116.518 93.7192C117.11 92.6734 116.341 90.3204 116.333 90.2973C116.302 90.2127 116.348 90.1204 116.433 90.0897C116.518 90.0589 116.61 90.0974 116.648 90.1743C117.41 91.8506 118.594 93.5423 119.247 93.4731C119.547 93.45 119.717 93.0117 119.801 92.6503C120.155 91.2047 119.294 88.4287 118.509 86.3525C117.956 84.8915 116.587 83.9303 115.018 83.8995C113.042 83.8687 110.304 83.8687 107.882 83.8687C106.567 83.8687 105.368 83.8687 104.483 83.8611C104.473 83.8611 104.463 83.8611 104.453 83.8611C100.577 83.8611 99.3851 88.4056 99.1698 89.4053L104.33 89.5129C104.376 89.5129 104.422 89.536 104.453 89.5745C104.891 90.082 105.275 90.6971 105.644 91.2969C106.429 92.5657 107.105 93.6577 108.082 93.3808C108.374 93.3039 108.559 93.1348 108.666 92.8733C109.205 91.5661 107.475 88.521 107.459 88.4902C107.413 88.421 107.428 88.3287 107.498 88.2749C107.528 88.2518 107.567 88.2365 107.605 88.2365Z" fill="black"/>
<path d="M104.345 89.8743C104.291 89.8743 104.23 89.8435 104.199 89.7897C103.622 88.8593 102.807 87.8904 102.5 87.9519C102.407 87.9749 102.315 87.9134 102.3 87.8212C102.277 87.7289 102.338 87.6366 102.431 87.6212C103.115 87.4828 104.176 89.113 104.491 89.6128C104.537 89.6897 104.514 89.7974 104.438 89.8435C104.407 89.864 104.376 89.8743 104.345 89.8743Z" fill="black"/>
<path d="M116.495 90.4126C116.426 90.4126 116.356 90.3742 116.333 90.2973L115.088 86.6447C115.057 86.5524 115.103 86.4601 115.195 86.4294C115.28 86.3986 115.38 86.4447 115.411 86.5293L116.656 90.1896C116.687 90.2819 116.641 90.3742 116.549 90.4049C116.528 90.41 116.51 90.4126 116.495 90.4126Z" fill="black"/>
<path d="M177.49 69.835C177.167 68.6047 175.906 67.8819 174.683 68.2125L154.913 73.503L132.705 79.4548L152.96 99.7093L158.612 78.6166L174.952 74.2412C176.867 73.726 178.005 71.7498 177.49 69.835Z" fill="white"/>
<path fill-rule="evenodd" clip-rule="evenodd" d="M152.959 99.8785C152.913 99.8785 152.867 99.8632 152.836 99.8247L132.589 79.5779C132.543 79.5317 132.527 79.4702 132.543 79.4164C132.558 79.3549 132.604 79.3087 132.666 79.2933L154.858 73.3492C154.863 73.3441 154.869 73.3415 154.874 73.3415L174.636 68.0434C175.274 67.8742 175.936 67.9665 176.505 68.2894C177.074 68.6201 177.489 69.1507 177.658 69.7889C177.92 70.7578 177.781 71.7729 177.281 72.6495C176.774 73.5184 175.966 74.1413 174.99 74.4027L158.749 78.7551L153.12 99.7555C153.105 99.8093 153.059 99.8555 152.997 99.8708C152.987 99.876 152.974 99.8785 152.959 99.8785ZM133.035 79.5471L152.867 99.3787L158.442 78.5705C158.457 78.5167 158.503 78.4705 158.565 78.4552L174.905 74.0721C176.728 73.5876 177.82 71.7037 177.327 69.8735C177.181 69.3276 176.828 68.8662 176.335 68.5893C175.843 68.3048 175.274 68.2279 174.728 68.374L154.974 73.6645C154.968 73.6696 154.963 73.6722 154.958 73.6722L133.035 79.5471Z" fill="black" stroke="black" stroke-width="0.2"/>
<path fill-rule="evenodd" clip-rule="evenodd" d="M147.669 79.9086C147.669 86.6754 142.186 92.1582 135.42 92.1582C128.653 92.1582 123.17 86.6754 123.17 79.9086C123.17 73.1417 128.653 67.6589 135.42 67.6589C142.186 67.6589 147.669 73.1417 147.669 79.9086ZM145.193 79.9086C145.193 74.5104 140.818 70.135 135.42 70.135C130.021 70.135 125.646 74.5104 125.646 79.9086C125.646 85.3067 130.021 89.6821 135.42 89.6821C140.818 89.6821 145.193 85.3067 145.193 79.9086Z" fill="#E9E9E9"/>
<path d="M143.817 74.918C142.371 76.3944 140.356 77.3172 138.126 77.3172C134.466 77.3172 131.39 74.8488 130.452 71.4884C128.783 72.4804 127.43 73.9568 126.592 75.7177C130.021 76.602 132.559 79.724 132.559 83.4304C132.559 85.3528 131.875 87.1138 130.737 88.4902C132.128 89.2515 133.72 89.6821 135.42 89.6821C135.796 89.6821 136.173 89.659 136.542 89.6206C136.442 89.1054 136.388 88.5671 136.388 88.0288C136.388 83.6304 139.949 80.0701 144.347 80.0701C144.629 80.0701 144.909 80.0829 145.185 80.1085C145.185 80.047 145.193 79.9778 145.193 79.9086C145.193 78.0861 144.693 76.379 143.817 74.918Z" fill="white"/>
<path fill-rule="evenodd" clip-rule="evenodd" d="M135.421 89.8513C133.752 89.8513 132.106 89.4361 130.661 88.6363C130.615 88.6133 130.584 88.5748 130.569 88.521C130.561 88.4748 130.576 88.421 130.607 88.3826C131.753 86.9907 132.391 85.2298 132.391 83.4304C132.391 79.8701 129.984 76.7712 126.547 75.8869C126.501 75.8715 126.462 75.8407 126.439 75.7946C126.416 75.7485 126.416 75.6946 126.439 75.6485C127.3 73.8491 128.654 72.3573 130.369 71.3423C130.415 71.3192 130.469 71.3115 130.522 71.3346C130.569 71.3577 130.607 71.3961 130.622 71.4423C131.553 74.8026 134.636 77.148 138.127 77.148C140.242 77.148 142.218 76.3175 143.702 74.795C143.733 74.7565 143.787 74.7411 143.841 74.7488C143.895 74.7565 143.941 74.7873 143.964 74.8334C144.879 76.3636 145.363 78.1169 145.363 79.9086C145.363 79.9547 145.361 79.9983 145.356 80.0393V80.1162C145.356 80.1623 145.333 80.2085 145.302 80.2392C145.263 80.27 145.217 80.2854 145.171 80.2777C144.894 80.2546 144.618 80.2392 144.348 80.2392C140.05 80.2392 136.559 83.7303 136.559 88.0288C136.559 88.5517 136.613 89.0746 136.713 89.5821C136.72 89.6283 136.713 89.6744 136.682 89.7129C136.659 89.7513 136.613 89.7821 136.566 89.7821C136.174 89.8282 135.79 89.8513 135.421 89.8513ZM130.999 88.4364C132.353 89.1438 133.883 89.513 135.421 89.513C135.721 89.513 136.028 89.4976 136.343 89.4668C136.259 88.99 136.22 88.5133 136.22 88.0288C136.22 83.5458 139.865 79.9009 144.348 79.9009C144.569 79.9009 144.794 79.9086 145.025 79.9239C145.025 79.9188 145.025 79.9137 145.025 79.9086C145.025 78.2553 144.594 76.6251 143.787 75.1948C142.257 76.6712 140.257 77.4863 138.127 77.4863C134.559 77.4863 131.399 75.141 130.353 71.7499C128.846 72.688 127.631 74.0183 126.831 75.6101C130.315 76.602 132.729 79.7855 132.729 83.4304C132.729 85.2452 132.114 87.0138 130.999 88.4364Z" fill="black" stroke="black" stroke-width="0.2"/>
<path d="M138.595 80.4545C138.595 82.0617 137.295 83.3612 135.688 83.3612C134.081 83.3612 132.781 82.0617 132.781 80.4545C132.781 78.8474 134.081 77.5402 135.688 77.5402C137.295 77.5402 138.595 78.8474 138.595 80.4545Z" fill="white"/>
<path d="M136.742 80.4545C136.742 81.0312 136.273 81.5003 135.688 81.5003C135.104 81.5003 134.635 81.0312 134.635 80.4545C134.635 79.8701 135.104 79.401 135.688 79.401C136.273 79.401 136.742 79.8701 136.742 80.4545Z" fill="white"/>
<path fill-rule="evenodd" clip-rule="evenodd" d="M135.689 81.6694C135.013 81.6694 134.467 81.1235 134.467 80.4545C134.467 79.7778 135.013 79.2318 135.689 79.2318C136.366 79.2318 136.912 79.7778 136.912 80.4545C136.912 81.1235 136.366 81.6694 135.689 81.6694ZM135.689 79.5702C135.205 79.5702 134.805 79.9623 134.805 80.4545C134.805 80.9389 135.205 81.3311 135.689 81.3311C136.174 81.3311 136.574 80.9389 136.574 80.4545C136.574 79.9623 136.174 79.5702 135.689 79.5702Z" fill="black"/>
<path d="M127.607 85.9526C127.553 85.9526 127.499 85.9295 127.468 85.8834C126.161 84.1532 125.477 82.0847 125.477 79.9085C125.477 74.4258 129.937 69.9658 135.419 69.9658C136.096 69.9658 136.765 70.035 137.419 70.1657C137.511 70.1888 137.572 70.2811 137.557 70.3657C137.534 70.458 137.442 70.5195 137.357 70.5041C136.719 70.3734 136.073 70.3042 135.419 70.3042C130.121 70.3042 125.815 74.6181 125.815 79.9085C125.815 82.0155 126.476 84.0071 127.737 85.6835C127.799 85.7527 127.783 85.8603 127.707 85.9218C127.676 85.9449 127.637 85.9526 127.607 85.9526Z" fill="black" stroke="black" stroke-width="0.2"/>
<path d="M135.42 89.8513C134.435 89.8513 133.459 89.7129 132.521 89.4284C132.436 89.3976 132.382 89.3053 132.413 89.2131C132.436 89.1285 132.536 89.0746 132.621 89.0977C133.528 89.3745 134.466 89.513 135.42 89.513C139.395 89.513 143.002 87.0215 144.409 83.2997C144.44 83.2151 144.54 83.169 144.624 83.1997C144.709 83.2382 144.755 83.3305 144.724 83.4227C143.271 87.2676 139.534 89.8513 135.42 89.8513Z" fill="black"/>
<path d="M160.22 94.4266L153.953 100.463C153.376 101.024 152.338 100.886 151.63 100.155L148.27 96.6643C147.509 95.8799 147.463 94.7419 148.17 94.2267L155.406 88.9746C156.606 88.1057 158.49 88.4517 159.774 89.7897C161.173 91.2431 161.373 93.3116 160.22 94.4266Z" fill="white"/>
<path fill-rule="evenodd" clip-rule="evenodd" d="M153.059 100.978C152.977 100.978 152.895 100.971 152.813 100.955C152.337 100.894 151.875 100.648 151.506 100.271L148.146 96.7797C147.692 96.3106 147.454 95.6954 147.507 95.1264C147.546 94.6958 147.746 94.3267 148.069 94.0883L155.312 88.8362C156.574 87.9135 158.55 88.2749 159.896 89.6744C161.357 91.1893 161.549 93.3731 160.334 94.542L154.074 100.586C153.805 100.84 153.452 100.978 153.059 100.978ZM156.95 88.6671C156.42 88.6671 155.92 88.8055 155.505 89.1131L148.269 94.3651C148.023 94.5497 147.869 94.8188 147.846 95.1571C147.8 95.6262 148.007 96.1491 148.392 96.549L151.752 100.032C152.067 100.363 152.46 100.571 152.86 100.624C153.244 100.671 153.59 100.571 153.836 100.34L160.103 94.3036C161.18 93.2578 160.98 91.2892 159.649 89.9128C158.873 89.0977 157.873 88.6671 156.95 88.6671Z" fill="black" stroke="black" stroke-width="0.2"/>
<path d="M147.901 94.6727C147.865 94.6727 147.832 94.6625 147.801 94.642C147.724 94.5882 147.709 94.4805 147.762 94.4036C147.849 94.2806 147.952 94.1755 148.07 94.0883L155.314 88.8363C155.467 88.721 155.637 88.621 155.821 88.5441C155.906 88.5133 156.006 88.5518 156.044 88.6364C156.083 88.721 156.036 88.8209 155.952 88.8594C155.793 88.926 155.644 89.0106 155.506 89.1131L148.27 94.3652C148.178 94.4318 148.101 94.5087 148.039 94.5959C148.008 94.642 147.955 94.6727 147.901 94.6727Z" fill="black"/>
<path d="M201.274 28.68C201.274 28.68 205.527 33.586 206.649 37.6154C208.579 44.613 205.673 52.1027 199.49 56.0398L178.836 69.2199C178.028 69.7274 177.521 70.5963 177.49 71.5422C177.429 73.5107 176.883 76.7711 173.876 76.6481C173.876 76.6481 172.253 78.7935 170.562 77.7708C170.562 77.7708 168.893 79.6624 167.332 78.7012C167.332 78.7012 166.486 79.847 165.217 79.1242C163.941 78.4013 159.458 71.2961 166.463 62.5991C168.893 59.5771 171.408 57.5009 173.761 55.5784C179.151 51.1646 187.471 45.5896 184.265 41.5141L182.142 38.7304C182.142 38.7304 191.747 28.6108 201.274 28.68Z" fill="white"/>
<path d="M166.048 79.5318C165.771 79.5318 165.463 79.4626 165.133 79.2704C164.433 78.8705 163.164 77.0711 162.664 74.472C162.141 71.7345 162.357 67.4283 166.332 62.4915C168.808 59.408 171.384 57.3087 173.653 55.4478C174.36 54.8634 175.106 54.279 175.898 53.6484C181.012 49.6037 186.817 45.0206 184.126 41.6141L182.011 38.8305C181.95 38.7613 181.965 38.6536 182.042 38.5998C182.111 38.5383 182.219 38.5536 182.28 38.6305L184.395 41.4065C187.286 45.0822 181.35 49.7729 176.106 53.9176C175.321 54.5404 174.575 55.1325 173.868 55.7093C171.607 57.5548 169.054 59.6464 166.594 62.7068C162.703 67.5436 162.487 71.7422 162.995 74.4105C163.487 76.9942 164.74 78.6629 165.302 78.9782C166.424 79.6164 167.163 78.6398 167.193 78.6014C167.247 78.5322 167.339 78.5091 167.416 78.5552C168.839 79.4318 170.423 77.6786 170.438 77.6555C170.492 77.594 170.577 77.5863 170.654 77.6248C172.184 78.5552 173.73 76.5636 173.745 76.5482C173.776 76.5021 173.83 76.479 173.883 76.479C174.706 76.5098 175.398 76.2791 175.929 75.7793C177.005 74.7796 177.282 72.9187 177.321 71.5423C177.351 70.5426 177.882 69.6198 178.743 69.0739L199.405 55.9015C205.472 52.0259 208.387 44.5285 206.48 37.6616C205.388 33.7169 201.189 28.8416 201.143 28.7955C201.082 28.7186 201.089 28.6109 201.166 28.5571C201.235 28.4956 201.343 28.5033 201.405 28.5725C201.443 28.6186 205.695 33.5554 206.81 37.5771C207.772 41.0374 207.579 44.6592 206.272 48.035C204.957 51.4184 202.65 54.2328 199.582 56.186L178.92 69.3584C178.159 69.8428 177.69 70.6656 177.659 71.5499C177.613 72.9956 177.321 74.9488 176.16 76.033C175.575 76.5713 174.829 76.8327 173.953 76.8174C173.653 77.1788 172.169 78.809 170.592 77.9862C170.215 78.363 168.77 79.6548 167.363 78.9166C167.17 79.1243 166.701 79.5318 166.048 79.5318Z" fill="black" stroke="black" stroke-width="0.2"/>
<path d="M173.507 76.4482C173.469 76.4482 173.423 76.4251 173.384 76.3944C172.515 75.4639 171.985 74.2567 171.893 72.9879C171.893 72.8956 171.962 72.8187 172.054 72.811C172.146 72.8033 172.223 72.8725 172.231 72.9648C172.323 74.1567 172.815 75.2871 173.63 76.156C173.7 76.2252 173.692 76.3329 173.623 76.4021C173.592 76.4328 173.554 76.4482 173.507 76.4482Z" fill="black"/>
<path d="M170.301 77.6094C170.254 77.6094 170.216 77.594 170.177 77.5632C169.001 76.4328 168.224 74.8565 168.047 73.2339C168.04 73.1417 168.109 73.0571 168.201 73.0494C168.294 73.034 168.378 73.1032 168.386 73.1955C168.555 74.7411 169.293 76.2406 170.416 77.3171C170.485 77.3864 170.485 77.4863 170.416 77.5555C170.385 77.594 170.339 77.6094 170.301 77.6094Z" fill="black"/>
<path d="M166.947 78.6244C166.901 78.6244 166.855 78.6013 166.824 78.5705C165.786 77.494 165.071 76.0945 164.817 74.6181C164.801 74.5258 164.863 74.4412 164.955 74.4258C165.047 74.4104 165.132 74.472 165.147 74.5642C165.394 75.9714 166.078 77.3094 167.062 78.3322C167.131 78.4014 167.131 78.509 167.062 78.5782C167.031 78.609 166.985 78.6244 166.947 78.6244Z" fill="black"/>
<path d="M164.171 18.0453L160.434 18.7374L153.483 12.1012L147.569 13.816L146.162 17.2456L150.514 22.3976L148.784 24.1047C151.529 26.204 157.32 25.6888 159.627 23.1205L164.171 18.0453Z" fill="white"/>
<path d="M148.785 24.2739C148.738 24.2739 148.692 24.2585 148.661 24.2277C148.592 24.1585 148.6 24.0509 148.661 23.9894L150.284 22.3899L146.032 17.3532C145.993 17.3071 145.978 17.2378 146.009 17.184L147.416 13.7544C147.431 13.7006 147.47 13.6698 147.523 13.6545L153.437 11.9397C153.491 11.9166 153.552 11.932 153.598 11.9781L160.488 18.5605L164.141 17.8838C164.233 17.8684 164.325 17.9299 164.341 18.0145C164.356 18.1068 164.295 18.1991 164.202 18.2144L160.465 18.9065C160.411 18.9142 160.357 18.8988 160.319 18.8604L153.437 12.2857L147.693 13.9544L146.355 17.2148L150.645 22.2899C150.699 22.3592 150.699 22.4591 150.638 22.5206L148.9 24.2277C148.869 24.2585 148.823 24.2739 148.785 24.2739Z" fill="black" stroke="black" stroke-width="0.2"/>
<path d="M149.254 17.0918C148.169 18.7451 143.263 19.8293 140.856 17.9146C140.28 14.3927 139.695 9.77124 139.695 9.77124L149.707 8.54089C149.792 10.6017 149.946 16.0229 149.254 17.0918Z" fill="white"/>
<path fill-rule="evenodd" clip-rule="evenodd" d="M144.285 19.1065C142.863 19.1065 141.617 18.7374 140.748 18.053C140.717 18.0222 140.694 17.9838 140.687 17.9453C140.118 14.4619 139.533 9.84043 139.525 9.79429C139.518 9.74815 139.533 9.70201 139.564 9.66356C139.587 9.63281 139.625 9.60974 139.672 9.60205L149.683 8.3717C149.73 8.3717 149.776 8.37939 149.814 8.41015C149.853 8.44091 149.868 8.48705 149.876 8.53319C149.991 11.3092 150.083 16.1306 149.391 17.184C148.853 17.9991 147.423 18.7066 145.746 18.9834C145.239 19.068 144.754 19.1065 144.285 19.1065ZM141.01 17.8223C142.086 18.6451 143.824 18.9527 145.692 18.6528C147.277 18.3913 148.622 17.7454 149.107 16.9918C149.56 16.3074 149.722 13.2239 149.545 8.73312L139.887 9.91732C139.994 10.7786 140.502 14.731 141.01 17.8223Z" fill="black" stroke="black" stroke-width="0.2"/>
<path d="M141.486 21.1903C141.363 20.4829 141.078 19.291 140.855 17.9145C143.262 19.8293 148.168 18.745 149.253 17.0917C149.945 16.0229 149.791 10.6017 149.706 8.54085L152.851 8.15637C152.851 8.15637 153.428 15.6692 151.706 20.3445C150.06 24.7891 142.101 24.6814 141.486 21.1903Z" fill="black"/>
<path fill-rule="evenodd" clip-rule="evenodd" d="M145.901 23.9201C145.66 23.9201 145.426 23.9099 145.201 23.8894C143.063 23.6972 141.579 22.6744 141.325 21.2211C141.271 20.9519 141.202 20.6136 141.118 20.2137C140.987 19.5832 140.825 18.7988 140.687 17.9453C140.672 17.8761 140.71 17.8069 140.764 17.7684C140.825 17.7377 140.902 17.7377 140.956 17.7838C142.033 18.6297 143.801 18.9526 145.693 18.6527C147.277 18.3913 148.623 17.7454 149.107 16.9918C149.569 16.292 149.722 13.1393 149.538 8.54853C149.53 8.46395 149.592 8.38705 149.684 8.37167L152.829 7.98719C152.875 7.9795 152.921 7.99488 152.96 8.02564C152.998 8.0564 153.021 8.09484 153.021 8.14098C153.029 8.21788 153.575 15.746 151.86 20.3983C150.953 22.8744 148.261 23.9201 145.901 23.9201ZM141.656 21.1596C141.925 22.7129 143.678 23.4126 145.232 23.551C147.692 23.774 150.645 22.7206 151.545 20.2829C153.09 16.0921 152.767 9.50974 152.698 8.3486L149.876 8.69464C149.991 11.486 150.068 16.1459 149.392 17.184C148.853 17.9991 147.423 18.7066 145.747 18.9834C143.917 19.2833 142.248 19.0295 141.087 18.2913C141.21 18.9834 141.341 19.6216 141.456 20.1445C141.533 20.5444 141.61 20.8904 141.656 21.1596Z" fill="black"/>
<path fill-rule="evenodd" clip-rule="evenodd" d="M45.5659 72.8648C48.2343 71.7575 51.3024 73.034 52.4097 75.71C52.4943 75.9099 52.5558 76.1098 52.6097 76.3097C54.7551 75.9868 56.9082 76.0022 58.9921 76.3174C59.0459 76.1098 59.1151 75.9099 59.1997 75.71C60.307 73.034 63.3675 71.7729 66.0435 72.8802C68.7195 73.9875 69.9883 77.0556 68.881 79.7316C68.7964 79.9316 68.6964 80.1161 68.5965 80.3007C70.2959 81.5541 71.8184 83.0689 73.1026 84.8145C73.2871 84.7145 73.4717 84.6146 73.6716 84.53C76.3476 83.4304 79.4158 84.6992 80.5231 87.3752C81.6227 90.0512 80.3539 93.1193 77.6779 94.2189C77.478 94.3035 77.2781 94.3727 77.0781 94.4266C77.4011 96.572 77.3934 98.7174 77.0781 100.809C77.2781 100.863 77.478 100.924 77.6779 101.009C80.3539 102.124 81.6227 105.184 80.5077 107.86C79.4004 110.536 76.3322 111.805 73.6639 110.69C73.464 110.613 73.2718 110.513 73.0949 110.413C71.8338 112.105 70.3266 113.635 68.5811 114.919C68.681 115.104 68.781 115.289 68.8579 115.489C69.9652 118.165 68.6964 121.233 66.0204 122.34C63.3444 123.44 60.2839 122.171 59.1766 119.495C59.0921 119.295 59.0305 119.095 58.969 118.895C56.8313 119.21 54.6782 119.203 52.5943 118.887C52.5405 119.087 52.4713 119.295 52.3867 119.487C51.2794 122.163 48.2112 123.432 45.5429 122.325C42.8669 121.21 41.5981 118.149 42.7054 115.473C42.79 115.273 42.8899 115.081 42.9899 114.904C41.2905 113.643 39.768 112.128 38.4838 110.383C38.2992 110.49 38.107 110.583 37.9147 110.667C35.2387 111.774 32.1706 110.506 31.0633 107.83C29.956 105.154 31.2324 102.085 33.9007 100.978C34.1007 100.901 34.3083 100.832 34.5082 100.778C34.1853 98.6328 34.193 96.4874 34.5082 94.3958C34.3083 94.342 34.1084 94.2728 33.9084 94.1882C31.2324 93.0809 29.9636 90.0127 31.071 87.3444C32.186 84.6684 35.2464 83.3996 37.9224 84.5069C38.1224 84.5915 38.3069 84.6915 38.4915 84.7914C39.7449 83.092 41.2597 81.5695 43.0053 80.2853C42.9053 80.1007 42.8054 79.9085 42.7208 79.7086C41.6212 77.0403 42.8899 73.9721 45.5659 72.8648ZM52.0714 88.6055C47.1039 90.6586 44.7432 96.349 46.7963 101.316C48.8571 106.292 54.5475 108.652 59.515 106.599C64.4825 104.546 66.8432 98.8481 64.7824 93.8806C62.7292 88.9131 57.0389 86.5524 52.0714 88.6055Z" fill="white"/>
<path fill-rule="evenodd" clip-rule="evenodd" d="M64.0287 122.901C61.8987 122.901 59.884 121.64 59.0228 119.564C58.9612 119.41 58.8997 119.256 58.8536 119.08C56.8158 119.372 54.7473 119.372 52.7172 119.08C52.6634 119.249 52.6096 119.41 52.5481 119.556C51.9944 120.894 50.9486 121.932 49.6183 122.478C48.2803 123.032 46.8116 123.032 45.4736 122.478C42.7207 121.333 41.4058 118.165 42.5515 115.404C42.613 115.258 42.6822 115.112 42.7745 114.95C41.1289 113.712 39.6679 112.259 38.4375 110.606C38.2761 110.69 38.1223 110.767 37.9762 110.829C36.6382 111.375 35.1694 111.375 33.8315 110.821C32.5011 110.267 31.463 109.229 30.9094 107.891C30.3557 106.553 30.3557 105.084 30.9094 103.746C31.463 102.416 32.5011 101.378 33.8391 100.824C33.9852 100.763 34.1467 100.709 34.3159 100.655C34.0237 98.6174 34.0314 96.5489 34.3236 94.5189C34.1467 94.465 33.9852 94.4112 33.8391 94.3497C31.0862 93.2039 29.779 90.0281 30.9171 87.2752C31.4707 85.9372 32.5088 84.8991 33.8468 84.3531C35.1848 83.7995 36.6536 83.7995 37.9839 84.3531C38.1377 84.4146 38.2838 84.4839 38.4452 84.5684C39.6756 82.9229 41.1366 81.4695 42.7899 80.2392C42.6976 80.0777 42.6284 79.9239 42.5669 79.7778C41.4288 77.0172 42.7438 73.8491 45.4967 72.711C48.2572 71.5652 51.4254 72.8879 52.5634 75.6408C52.625 75.7869 52.6788 75.9483 52.7326 76.1252C54.7704 75.833 56.8389 75.833 58.869 76.1252C58.9228 75.9483 58.9766 75.7945 59.0381 75.6484C59.5918 74.3104 60.6299 73.2723 61.9679 72.7187C63.3059 72.165 64.7746 72.1727 66.1126 72.7264C68.8655 73.8644 70.1727 77.0403 69.0347 79.7932C68.9732 79.9393 68.904 80.0931 68.8117 80.2545C70.4573 81.4849 71.9183 82.9459 73.1486 84.5992C73.3101 84.5069 73.4639 84.4377 73.61 84.3762C74.948 83.8225 76.4168 83.8225 77.7471 84.3839C79.0851 84.9375 80.1232 85.9756 80.6768 87.3136C81.8149 90.0665 80.5 93.2424 77.7471 94.3804C77.601 94.442 77.4395 94.4958 77.2626 94.5496C77.5548 96.5874 77.5548 98.6482 77.2626 100.686C77.4395 100.74 77.5933 100.794 77.7394 100.855C80.5 102.001 81.8072 105.169 80.6691 107.93C80.1155 109.26 79.0697 110.298 77.7394 110.852C76.4014 111.405 74.9327 111.405 73.5947 110.852C73.4485 110.79 73.3024 110.713 73.141 110.629C71.9029 112.274 70.4496 113.735 68.7963 114.966C68.8886 115.127 68.9578 115.281 69.0193 115.427C69.573 116.765 69.573 118.234 69.0193 119.564C68.4657 120.902 67.4198 121.94 66.0895 122.494C65.4128 122.771 64.7131 122.901 64.0287 122.901ZM58.9689 118.726C59.0458 118.726 59.115 118.772 59.1381 118.849C59.1996 119.064 59.2611 119.256 59.3303 119.433C60.3992 122.017 63.3751 123.247 65.9588 122.179C67.2122 121.663 68.1811 120.687 68.704 119.441C69.2192 118.188 69.2192 116.811 68.704 115.558C68.6348 115.381 68.5425 115.204 68.4349 115.004C68.3887 114.927 68.4118 114.835 68.481 114.781C70.1881 113.52 71.6953 112.013 72.9564 110.313C73.0025 110.244 73.1025 110.221 73.1717 110.26C73.3717 110.375 73.5562 110.467 73.7254 110.536C74.9788 111.059 76.3552 111.059 77.6086 110.536C78.8621 110.021 79.8386 109.045 80.3539 107.799C81.4227 105.215 80.1924 102.239 77.6163 101.17C77.4395 101.094 77.2472 101.032 77.0319 100.97C76.9473 100.947 76.8935 100.863 76.9089 100.778C77.2242 98.6867 77.2242 96.5566 76.9089 94.4496C76.8935 94.3651 76.9473 94.2882 77.0319 94.2651C77.2549 94.2036 77.4472 94.1344 77.6163 94.0652C80.2001 92.9963 81.4304 90.0281 80.3615 87.4367C79.8463 86.191 78.8697 85.2144 77.624 84.6915C76.3706 84.1763 74.9942 84.1763 73.7407 84.6915C73.5639 84.7607 73.387 84.853 73.1871 84.9606C73.1102 85.0068 73.0179 84.9837 72.9641 84.9145C71.703 83.2074 70.2035 81.7002 68.4964 80.4391C68.4272 80.3853 68.4041 80.293 68.4503 80.2161C68.5579 80.0162 68.6502 79.8393 68.7194 79.6624C69.7883 77.0787 68.5656 74.1105 65.9819 73.034C64.7285 72.5188 63.352 72.5188 62.0986 73.034C60.8452 73.5492 59.8686 74.5258 59.3534 75.7792C59.2842 75.9483 59.215 76.1406 59.1535 76.3636C59.1304 76.4405 59.0535 76.4943 58.9689 76.4789C56.8696 76.1637 54.7396 76.1637 52.6403 76.4789C52.5558 76.4943 52.4712 76.4405 52.4481 76.3559C52.3866 76.1329 52.3251 75.9407 52.2559 75.7715C51.187 73.1878 48.2111 71.9497 45.6274 73.0186C43.0437 74.0875 41.8133 77.0633 42.8822 79.6471C42.9514 79.8239 43.036 80.0008 43.1513 80.2007C43.1974 80.2776 43.1744 80.3699 43.1052 80.416C41.3981 81.6771 39.8909 83.1843 38.6298 84.8914C38.576 84.9606 38.4837 84.9837 38.4068 84.9376C38.2146 84.8299 38.03 84.7376 37.8608 84.6684C36.6074 84.1455 35.231 84.1455 33.9776 84.6607C32.7241 85.1836 31.7476 86.1525 31.2323 87.4059C30.1558 89.9897 31.3861 92.9655 33.9699 94.0344C34.1467 94.1036 34.339 94.1728 34.5543 94.2343C34.6389 94.2574 34.6927 94.3343 34.6773 94.4189C34.362 96.5182 34.362 98.6482 34.6773 100.747C34.685 100.832 34.6389 100.917 34.5543 100.94C34.3313 101.001 34.139 101.063 33.9699 101.14C32.7164 101.655 31.7399 102.631 31.2247 103.877C30.7018 105.131 30.7018 106.507 31.2247 107.76C31.7399 109.014 32.7165 109.99 33.9622 110.506C35.2156 111.029 36.592 111.029 37.8455 110.513C38.0146 110.444 38.1992 110.352 38.3991 110.237C38.476 110.198 38.5683 110.213 38.6221 110.283C39.8832 111.997 41.3827 113.505 43.0898 114.766C43.159 114.82 43.1821 114.912 43.1359 114.981C43.0283 115.181 42.936 115.366 42.8668 115.535C41.7902 118.118 43.0206 121.094 45.6043 122.163C46.8577 122.686 48.2342 122.686 49.4876 122.171C50.741 121.648 51.7176 120.679 52.2328 119.426C52.302 119.256 52.3712 119.064 52.4327 118.841C52.4558 118.757 52.5327 118.703 52.6173 118.718C54.7165 119.041 56.8466 119.041 58.9459 118.726C58.9561 118.726 58.9638 118.726 58.9689 118.726ZM55.8085 107.507C51.9175 107.507 48.2188 105.2 46.6424 101.386C45.6351 98.9404 45.6351 96.249 46.6501 93.8037C47.6574 91.3584 49.5645 89.4591 52.0098 88.4517C54.4551 87.4367 57.1465 87.4367 59.5841 88.4517C62.0294 89.4668 63.9288 91.3738 64.9438 93.8191C67.0277 98.8635 64.6208 104.669 59.5764 106.753C58.3461 107.261 57.0696 107.507 55.8085 107.507ZM55.7931 88.0288C54.5551 88.0288 53.317 88.2749 52.1405 88.7593C49.7798 89.7359 47.9343 91.5737 46.9577 93.9344C45.9811 96.2952 45.9811 98.8943 46.9577 101.255C48.9724 106.13 54.5781 108.453 59.4457 106.438C64.3209 104.423 66.6432 98.8174 64.6285 93.9498C63.6519 91.5891 61.8141 89.7436 59.4534 88.767C58.2769 88.2749 57.0311 88.0288 55.7931 88.0288Z" fill="black" stroke="black" stroke-width="0.2"/>
<path fill-rule="evenodd" clip-rule="evenodd" d="M18.9436 111.69C20.5046 111.674 21.7888 112.928 21.8119 114.489C21.8119 114.607 21.8042 114.722 21.7888 114.835C22.9346 115.104 24.0111 115.535 24.9954 116.119C25.0672 116.027 25.1415 115.937 25.2184 115.85C26.3103 114.735 28.1097 114.712 29.2324 115.804C30.3474 116.896 30.3705 118.695 29.2785 119.81C29.1965 119.897 29.1119 119.974 29.0248 120.041C29.6246 121.017 30.086 122.079 30.3858 123.217C30.4986 123.201 30.6114 123.191 30.7242 123.186C32.2929 123.17 33.5771 124.424 33.6001 125.985C33.6155 127.554 32.3621 128.838 30.8011 128.861C30.6832 128.861 30.5678 128.853 30.4551 128.838C30.1859 129.984 29.7476 131.06 29.1709 132.044C29.2632 132.111 29.3503 132.185 29.4323 132.267C30.555 133.359 30.5781 135.159 29.4862 136.281C28.3942 137.404 26.6025 137.419 25.4798 136.327C25.3978 136.245 25.3209 136.161 25.2492 136.074C24.2803 136.674 23.2114 137.135 22.0733 137.435C22.0887 137.55 22.1041 137.658 22.1041 137.781C22.1272 139.342 20.8737 140.626 19.3051 140.649C17.7364 140.672 16.4522 139.411 16.4368 137.85C16.4368 137.732 16.4419 137.617 16.4522 137.504C15.3141 137.235 14.2376 136.804 13.2533 136.228C13.1815 136.315 13.1046 136.402 13.0226 136.489C11.9307 137.604 10.139 137.627 9.0163 136.535C7.89361 135.443 7.87054 133.651 8.97016 132.529C9.05218 132.447 9.13677 132.37 9.22392 132.298C8.62413 131.329 8.16275 130.26 7.86285 129.122C7.75007 129.138 7.63472 129.148 7.51682 129.153C5.95582 129.168 4.67165 127.915 4.64858 126.354C4.6332 124.785 5.88661 123.501 7.44761 123.478C7.56552 123.478 7.68086 123.486 7.79364 123.501C8.06278 122.355 8.4934 121.279 9.07013 120.295C8.98298 120.228 8.89583 120.154 8.80868 120.072C7.68599 118.98 7.67061 117.18 8.76254 116.058C9.85447 114.943 11.6462 114.919 12.7688 116.011C12.8509 116.093 12.9278 116.178 12.9995 116.265C13.9684 115.665 15.0373 115.204 16.1677 114.904C16.1523 114.791 16.1446 114.679 16.1446 114.566C16.1215 112.997 17.3749 111.713 18.9436 111.69ZM19.059 120.902C16.1523 120.94 13.8223 123.324 13.8608 126.239C13.8992 129.145 16.283 131.475 19.1897 131.437C22.0964 131.398 24.4264 129.015 24.3879 126.1C24.3495 123.194 21.9657 120.871 19.059 120.902Z" fill="white"/>
<path fill-rule="evenodd" clip-rule="evenodd" d="M19.2678 140.818C18.4835 140.818 17.7376 140.518 17.1762 139.965C16.5995 139.403 16.2765 138.658 16.2688 137.85C16.2688 137.783 16.2714 137.712 16.2765 137.635C15.2307 137.373 14.2311 136.974 13.293 136.443C13.2468 136.499 13.1981 136.553 13.1469 136.604C12.5855 137.181 11.8396 137.504 11.0322 137.512C10.2325 137.519 9.4712 137.22 8.90216 136.658C7.71796 135.505 7.6872 133.598 8.84833 132.406C8.89447 132.36 8.94574 132.311 9.00213 132.26C8.44847 131.337 8.02554 130.345 7.74103 129.307C7.66413 129.317 7.59236 129.322 7.52572 129.322C6.7183 129.33 5.96472 129.03 5.38799 128.469C4.81127 127.907 4.4883 127.154 4.48061 126.354C4.47292 125.554 4.77282 124.793 5.33416 124.216C5.89551 123.647 6.64141 123.324 7.44882 123.309C7.51546 123.309 7.58723 123.312 7.66413 123.317C7.92558 122.271 8.32544 121.271 8.85602 120.333C8.79451 120.287 8.74068 120.241 8.69454 120.195C7.51034 119.034 7.48727 117.127 8.64072 115.942C9.20206 115.366 9.94796 115.043 10.7554 115.035C11.5551 115.027 12.3164 115.327 12.8854 115.889C12.9367 115.935 12.9879 115.988 13.0392 116.05C13.9543 115.489 14.9462 115.066 15.9843 114.781C15.9792 114.704 15.9766 114.633 15.9766 114.566C15.9536 112.905 17.2839 111.544 18.9372 111.521C19.7446 111.513 20.4982 111.813 21.0749 112.374C21.6516 112.936 21.9746 113.689 21.9823 114.489C21.9823 114.556 21.9797 114.627 21.9746 114.704C23.0204 114.966 24.02 115.366 24.9582 115.896C25.0043 115.84 25.0504 115.786 25.0966 115.735C25.6579 115.158 26.4115 114.835 27.2112 114.827C28.0109 114.82 28.7722 115.12 29.3489 115.681C30.5332 116.842 30.5562 118.741 29.4028 119.933C29.3566 119.979 29.3028 120.028 29.2413 120.079C29.8026 121.002 30.2256 121.994 30.5101 123.032C30.587 123.022 30.6588 123.017 30.7254 123.017C32.3864 122.994 33.7474 124.332 33.7705 125.985C33.7859 127.646 32.4556 129.007 30.8023 129.03C30.7356 129.03 30.6639 129.028 30.587 129.022C30.3255 130.068 29.9257 131.068 29.3951 132.006C29.4515 132.052 29.5053 132.098 29.5566 132.144C30.7408 133.306 30.7638 135.213 29.6104 136.397C29.0491 136.974 28.2955 137.296 27.4957 137.304C26.696 137.312 25.9347 137.012 25.358 136.451C25.3119 136.404 25.2632 136.353 25.2119 136.297C24.2892 136.85 23.3049 137.273 22.2668 137.558C22.2719 137.635 22.2745 137.707 22.2745 137.773C22.2975 139.434 20.9672 140.795 19.3063 140.818C19.296 140.818 19.2832 140.818 19.2678 140.818ZM13.2545 136.058C13.2801 136.058 13.3083 136.066 13.3391 136.082C14.3234 136.651 15.3845 137.081 16.4919 137.343C16.5764 137.358 16.6303 137.435 16.6226 137.519C16.6072 137.643 16.6072 137.75 16.6072 137.85C16.6149 138.558 16.8994 139.227 17.4069 139.719C17.9221 140.219 18.5911 140.488 19.3063 140.48C20.775 140.465 21.9515 139.25 21.9361 137.781C21.9361 137.681 21.9284 137.573 21.9131 137.458C21.8977 137.373 21.9515 137.289 22.0361 137.273C23.1434 136.981 24.1892 136.528 25.1581 135.928C25.235 135.882 25.3273 135.897 25.3811 135.966C25.458 136.066 25.5272 136.143 25.5964 136.212C26.1039 136.704 26.7729 136.974 27.4957 136.966C28.2032 136.958 28.8722 136.674 29.3643 136.158C30.3947 135.105 30.3717 133.413 29.3182 132.39C29.249 132.321 29.1644 132.252 29.0721 132.183C29.0029 132.129 28.9875 132.037 29.026 131.96C29.6027 130.976 30.0256 129.914 30.2871 128.799C30.3102 128.715 30.3871 128.661 30.4716 128.669C30.5895 128.684 30.6972 128.692 30.7946 128.692C32.2633 128.669 33.4475 127.461 33.4322 125.993C33.4091 124.532 32.2172 123.355 30.7638 123.355C30.7536 123.355 30.7433 123.355 30.7331 123.355C30.6331 123.355 30.5255 123.371 30.4101 123.386C30.3255 123.394 30.2409 123.34 30.2179 123.255C29.9334 122.156 29.4797 121.102 28.8799 120.133C28.8337 120.056 28.8491 119.964 28.9183 119.91C29.0106 119.833 29.0875 119.764 29.1567 119.695C30.1871 118.641 30.1641 116.95 29.1106 115.927C28.6031 115.427 27.9341 115.158 27.2189 115.166C26.5038 115.173 25.8425 115.466 25.3426 115.973C25.2734 116.042 25.2042 116.119 25.135 116.219C25.0812 116.288 24.9889 116.304 24.912 116.265C23.9277 115.689 22.8666 115.258 21.7516 114.996C21.6747 114.981 21.6132 114.904 21.6285 114.82C21.6362 114.697 21.6439 114.589 21.6439 114.497C21.6362 113.782 21.3517 113.113 20.8365 112.62C20.329 112.121 19.6523 111.844 18.9448 111.859C17.4761 111.882 16.2919 113.089 16.315 114.558C16.315 114.658 16.3227 114.766 16.3381 114.881C16.3534 114.966 16.2996 115.05 16.215 115.073C15.1077 115.358 14.0542 115.812 13.0853 116.411C13.0161 116.458 12.9239 116.442 12.87 116.373C12.7931 116.281 12.7239 116.196 12.6547 116.135C12.1395 115.635 11.4705 115.366 10.7554 115.373C10.0479 115.381 9.37892 115.665 8.8791 116.181C7.85637 117.234 7.87944 118.926 8.93292 119.949C9.00213 120.018 9.07903 120.087 9.17899 120.156C9.2482 120.21 9.26358 120.31 9.21744 120.379C8.64072 121.364 8.21779 122.425 7.95634 123.54C7.94096 123.624 7.85637 123.678 7.77178 123.67C7.65644 123.655 7.54878 123.647 7.44882 123.647C6.74137 123.663 6.07237 123.947 5.58023 124.455C5.0804 124.962 4.81127 125.639 4.81896 126.346C4.82665 127.062 5.11116 127.731 5.62637 128.223C6.13389 128.723 6.81058 128.992 7.51803 128.984C7.61799 128.984 7.71796 128.976 7.84099 128.953C7.92558 128.946 8.01016 128.999 8.02554 129.084C8.31775 130.184 8.77144 131.237 9.37123 132.206C9.41737 132.283 9.3943 132.375 9.33278 132.429C9.23282 132.506 9.15592 132.575 9.08671 132.644C8.06399 133.698 8.08706 135.389 9.14054 136.412C9.64806 136.912 10.3094 137.181 11.0322 137.173C11.7396 137.166 12.4086 136.881 12.9085 136.366C12.9777 136.297 13.0469 136.22 13.1161 136.12C13.1469 136.082 13.2007 136.058 13.2545 136.058ZM19.1217 131.606C17.6991 131.606 16.3534 131.06 15.3307 130.061C14.2926 129.045 13.7082 127.692 13.6928 126.239C13.6544 123.24 16.0612 120.771 19.0525 120.733C22.0592 120.702 24.5198 123.101 24.5583 126.1C24.5967 129.099 22.1899 131.568 19.1909 131.606C19.1704 131.606 19.1473 131.606 19.1217 131.606ZM19.1217 121.071C19.1012 121.071 19.0807 121.071 19.0602 121.071C16.2535 121.11 13.9927 123.424 14.0312 126.231C14.0465 127.592 14.5925 128.869 15.5691 129.822C16.538 130.768 17.8222 131.283 19.1909 131.268C21.9976 131.229 24.2507 128.915 24.22 126.108C24.1815 123.317 21.9054 121.071 19.1217 121.071Z" fill="black" stroke="black" stroke-width="0.2"/>
<path d="M91.9507 73.5262L91.5278 73.3186C91.2279 73.1802 91.1048 72.8264 91.2509 72.5342L92.2429 70.4426C92.389 70.1504 92.7427 70.0274 93.0349 70.1658L93.4579 70.3657C93.7577 70.5119 93.8808 70.8656 93.7424 71.1578L92.7427 73.2494C92.5966 73.5416 92.2429 73.6646 91.9507 73.5262Z" fill="white"/>
<path fill-rule="evenodd" clip-rule="evenodd" d="M92.2034 73.7491C92.0957 73.7491 91.9803 73.7261 91.8804 73.6799L91.4498 73.4723C91.073 73.2954 90.9115 72.8417 91.096 72.4573L92.088 70.3734C92.2726 69.9889 92.7262 69.8351 93.103 70.012L93.5337 70.2196C93.7182 70.3042 93.8566 70.458 93.9181 70.6502C93.9873 70.8424 93.9797 71.0501 93.8874 71.2269L92.8954 73.3185C92.7647 73.5953 92.4879 73.7491 92.2034 73.7491ZM92.7801 70.2734C92.6186 70.2734 92.4725 70.3657 92.3956 70.5195L91.3959 72.6034C91.296 72.8187 91.3882 73.0648 91.5959 73.1724L92.0265 73.3723C92.2341 73.4723 92.4879 73.38 92.5878 73.1724L93.5875 71.0808C93.6875 70.8732 93.5952 70.6194 93.3876 70.5195L92.9569 70.3195C92.9005 70.2888 92.8416 70.2734 92.7801 70.2734Z" fill="black" stroke="black" stroke-width="0.2"/>
<path fill-rule="evenodd" clip-rule="evenodd" d="M95.2335 84.8991H84.4219L84.345 83.3765C84.2527 81.5695 83.3376 79.9008 81.8535 78.8627L88.2667 52.5795C88.2667 52.5795 98.1171 62.5837 99.0783 67.136C100.009 71.5806 95.2335 84.8991 95.2335 84.8991ZM95.2643 66.5516L93.9032 65.5596L90.5044 79.0319H94.3261L96.5869 70.2118C96.9406 68.8354 96.4177 67.3897 95.2643 66.5516Z" fill="white"/>
<path fill-rule="evenodd" clip-rule="evenodd" d="M95.2328 85.0683H84.4212C84.3289 85.0683 84.252 84.9914 84.252 84.9068L84.1751 83.3843C84.0828 81.6156 83.2062 80.0162 81.7529 79.0012C81.699 78.9627 81.6683 78.8935 81.6836 78.8243L88.0968 52.5411C88.1122 52.4795 88.1583 52.4334 88.2199 52.4103C88.2814 52.395 88.3429 52.418 88.3813 52.4565C88.7889 52.8717 98.2856 62.553 99.2391 67.0976C100.177 71.5422 95.5865 84.407 95.3866 84.9529C95.3635 85.0222 95.302 85.0683 95.2328 85.0683ZM84.5826 84.7299H95.1098C95.5712 83.4304 99.7774 71.3038 98.9085 67.1668C98.0549 63.0836 89.7962 54.402 88.3583 52.9179L82.0451 78.7935C83.5215 79.8701 84.4212 81.5311 84.5134 83.3612L84.5826 84.7299ZM94.3254 79.2088H90.5037C90.4498 79.2088 90.4037 79.1857 90.3653 79.1396C90.3345 79.1011 90.3268 79.0473 90.3422 78.9935L93.741 65.5212C93.7564 65.4674 93.7948 65.4212 93.8487 65.4059C93.8948 65.3828 93.9563 65.3982 94.0025 65.4289L95.3712 66.4209C96.5785 67.3052 97.1245 68.8124 96.7477 70.2657L94.4946 79.078C94.4715 79.1549 94.4023 79.2088 94.3254 79.2088ZM90.719 78.8704H94.1947L96.4247 70.1811C96.7631 68.8662 96.2709 67.4974 95.1713 66.6977L94.0025 65.8518L90.719 78.8704Z" fill="black"/>
<path d="M96.5862 70.2196H96.5939M95.2328 85.0683H84.4212C84.3289 85.0683 84.252 84.9914 84.252 84.9068L84.1751 83.3843C84.0828 81.6156 83.2062 80.0162 81.7529 79.0012C81.699 78.9627 81.6683 78.8935 81.6836 78.8243L88.0968 52.5411C88.1122 52.4795 88.1583 52.4334 88.2199 52.4103C88.2814 52.395 88.3429 52.418 88.3813 52.4565C88.7889 52.8717 98.2856 62.553 99.2391 67.0976C100.177 71.5422 95.5865 84.407 95.3866 84.9529C95.3635 85.0222 95.302 85.0683 95.2328 85.0683ZM84.5826 84.7299H95.1098C95.5712 83.4304 99.7774 71.3038 98.9085 67.1668C98.0549 63.0836 89.7962 54.402 88.3583 52.9179L82.0451 78.7935C83.5215 79.8701 84.4212 81.5311 84.5134 83.3612L84.5826 84.7299ZM94.3254 79.2088H90.5037C90.4498 79.2088 90.4037 79.1857 90.3653 79.1396C90.3345 79.1011 90.3268 79.0473 90.3422 78.9935L93.741 65.5212C93.7564 65.4674 93.7948 65.4212 93.8487 65.4059C93.8948 65.3828 93.9563 65.3982 94.0025 65.4289L95.3712 66.4209C96.5785 67.3052 97.1245 68.8124 96.7477 70.2657L94.4946 79.078C94.4715 79.1549 94.4023 79.2088 94.3254 79.2088ZM90.719 78.8704H94.1947L96.4247 70.1811C96.7631 68.8662 96.2709 67.4974 95.1713 66.6977L94.0025 65.8518L90.719 78.8704Z" stroke="black" stroke-width="0.2"/>
<path d="M81.0393 79.9086C81.3546 79.9855 81.6776 79.7933 81.7545 79.478L88.4291 52.1951C88.5137 51.8798 88.3138 51.5645 87.9985 51.4876C87.6832 51.4107 87.3679 51.603 87.291 51.9183L80.6087 79.1935C80.5318 79.5087 80.7241 79.8317 81.0393 79.9086Z" fill="white"/>
<path fill-rule="evenodd" clip-rule="evenodd" d="M81.185 80.0931C81.1234 80.0931 81.0619 80.0854 81.0004 80.07C80.8082 80.0239 80.639 79.9009 80.5313 79.7317C80.4314 79.5548 80.4006 79.3549 80.4468 79.155L87.1214 51.8798C87.1752 51.6798 87.2982 51.5184 87.4674 51.4107C87.6443 51.303 87.8442 51.2723 88.0441 51.3261C88.2364 51.3723 88.4055 51.4953 88.5055 51.6645C88.6132 51.8413 88.6439 52.0412 88.5978 52.2412L81.9155 79.5164C81.8309 79.8624 81.5233 80.0931 81.185 80.0931ZM87.8596 51.6414C87.7827 51.6414 87.7135 51.6568 87.6443 51.7029C87.5443 51.7567 87.4828 51.849 87.452 51.9567L80.7774 79.2395C80.7466 79.3472 80.762 79.4549 80.8236 79.5548C80.8851 79.6471 80.9696 79.7163 81.085 79.7394C81.308 79.8009 81.531 79.6625 81.5925 79.4395L88.2671 52.1566C88.2979 52.0489 88.2748 51.9336 88.221 51.8413C88.1595 51.749 88.0672 51.6798 87.9595 51.6491C87.9288 51.644 87.8955 51.6414 87.8596 51.6414Z" fill="black" stroke="black" stroke-width="0.2"/>
<path d="M84.099 80.8005C84.0887 80.8005 84.0785 80.7979 84.0682 80.7928C83.9298 80.7774 83.8299 80.6467 83.8529 80.5083C86.106 63.4603 91.6272 57.4932 91.8579 57.2548C91.9578 57.1471 92.1193 57.1471 92.2193 57.2394C92.3192 57.3394 92.3269 57.5008 92.227 57.6008C92.1731 57.6623 86.5828 63.7218 84.3528 80.5775C84.3374 80.7005 84.2297 80.8005 84.099 80.8005Z" fill="#E9E9E9"/>
</svg>
