<svg width="212" height="142" viewBox="0 0 212 142" fill="none" xmlns="http://www.w3.org/2000/svg">
<path d="M182.168 116.647H148.258V54.3964H182.168V116.647Z" fill="white"/>
<path d="M109.408 31.8253C108.438 26.8557 105.754 27.902 105.515 29.9867C105.269 32.0715 106.669 36.6103 102.222 38.5874C97.7837 40.5721 90.8986 39.4951 87.2291 38.7874C83.5595 38.072 82.7441 39.5567 82.7441 39.5567C81.5825 38.8182 80.3055 38.272 78.5438 39.5567C76.7898 40.8414 79.1131 43.6185 79.1131 43.6185C77.8899 44.234 79.1131 45.9879 79.1131 45.9879C83.8288 51.5268 98.7453 50.1421 98.7453 50.1421C99.33 53.9039 100.168 57.9119 101.245 61.8429C110.162 65.074 117.077 62.5045 121.555 52.8115C117.408 46.6264 110.1 35.3641 109.408 31.8253Z" fill="white"/>
<path fill-rule="evenodd" clip-rule="evenodd" d="M108.031 63.3277C105.915 63.3277 103.63 62.8892 101.192 62.0046C101.138 61.9815 101.099 61.943 101.084 61.8892C100.076 58.2273 99.2147 54.2348 98.5992 50.3268C96.8991 50.4652 83.4904 51.3961 78.9824 46.0957C78.9439 46.0418 78.2285 45.011 78.4362 44.1879C78.5029 43.9314 78.6439 43.7263 78.8593 43.5724C78.5208 43.1185 77.59 41.7877 77.7361 40.6184C77.79 40.126 78.0362 39.726 78.4439 39.4183C80.2594 38.0951 81.5903 38.649 82.6981 39.3336C83.0212 38.949 84.1597 38.0182 87.2599 38.6182C93.9604 39.9183 98.9685 39.8568 102.153 38.4336C105.554 36.9258 105.431 33.8486 105.338 31.6023C105.315 30.9715 105.292 30.4253 105.346 29.9714C105.469 28.9098 106.161 28.1174 106.992 28.0867C107.546 28.0636 108.908 28.379 109.577 31.7946C110.262 35.2872 117.462 46.4034 121.693 52.7193C121.732 52.7654 121.732 52.827 121.709 52.8808C119.501 57.6658 116.616 60.8429 113.131 62.3277C111.569 62.9969 109.862 63.3277 108.031 63.3277ZM101.392 61.7122C110.523 64.9894 117.054 62.0892 121.362 52.827C117.108 46.4803 109.939 35.3949 109.246 31.8639C108.815 29.6714 107.969 28.3867 107.008 28.4251C106.354 28.4482 105.784 29.1329 105.684 30.0099C105.631 30.433 105.654 30.9715 105.677 31.5869C105.769 33.9332 105.9 37.1412 102.292 38.749C99.0454 40.1953 93.9604 40.2645 87.1984 38.949C83.7212 38.2797 82.8981 39.626 82.8904 39.6414C82.8673 39.6798 82.8288 39.7106 82.7827 39.7183C82.7365 39.7337 82.6904 39.726 82.6519 39.7029C81.5672 39.0105 80.3594 38.4413 78.6439 39.6952C78.3054 39.9414 78.1208 40.2568 78.0669 40.6568C77.9208 41.9108 79.2286 43.4955 79.244 43.5109C79.2747 43.5493 79.2901 43.6032 79.2824 43.6493C79.267 43.7032 79.2363 43.7417 79.1901 43.7647C78.9593 43.8801 78.8208 44.0494 78.767 44.2725C78.5977 44.9418 79.2439 45.8803 79.2516 45.8957C83.8443 51.2884 98.5761 49.9883 98.73 49.9729C98.8146 49.9652 98.8993 50.0267 98.9069 50.1191C99.5224 54.027 100.376 58.035 101.392 61.7122Z" fill="black" stroke="black" stroke-width="0.2"/>
<path d="M152.681 29.2022C149.611 29.6484 146.796 31.1485 144.703 33.4563C137.772 41.1031 124.386 56.9812 124.386 56.9812C124.386 56.9812 123.232 55.3118 121.555 52.8116C115.101 58.3274 108.316 61.1969 101.246 61.8431C104.5 73.6285 109.985 84.6832 117.786 85.9448C128.187 87.6219 142.241 74.5748 142.241 74.5748L132.702 116.647H154.112L159.389 29.0945L152.681 29.2022Z" fill="white"/>
<path fill-rule="evenodd" clip-rule="evenodd" d="M154.111 116.816H132.702C132.656 116.816 132.602 116.793 132.571 116.755C132.54 116.716 132.525 116.662 132.54 116.609L141.957 75.0594C140.903 75.9902 137.856 78.5904 134.002 81.0367C129.586 83.8292 123.186 86.9833 117.755 86.1063C108.654 84.637 103.408 70.3052 101.084 61.8891C101.069 61.8353 101.084 61.7891 101.107 61.743C101.138 61.7045 101.184 61.6814 101.23 61.6738C108.423 61.0199 115.224 57.9966 121.447 52.6808C121.478 52.65 121.532 52.6346 121.578 52.6423C121.624 52.65 121.67 52.6808 121.694 52.7192C123.04 54.7194 124.055 56.2041 124.401 56.6965C125.863 54.9656 138.102 40.4799 144.58 33.3409C146.688 31.0176 149.557 29.4867 152.657 29.0329C152.668 29.0329 152.675 29.0329 152.68 29.0329L159.389 28.9252C159.44 28.9303 159.481 28.9483 159.512 28.979C159.542 29.0175 159.558 29.0636 159.558 29.1098L154.281 116.655C154.281 116.747 154.204 116.816 154.111 116.816ZM132.917 116.478H153.957L159.212 29.2714L152.696 29.3714C149.68 29.8099 146.888 31.3023 144.834 33.5717C137.979 41.1261 124.648 56.9272 124.517 57.0888C124.486 57.1273 124.432 57.1503 124.378 57.1503C124.324 57.1426 124.278 57.1196 124.248 57.0734C124.24 57.058 123.117 55.4502 121.517 53.0654C115.347 58.2966 108.6 61.2968 101.469 61.9892C103.792 70.3513 108.962 84.3447 117.809 85.7755C128.017 87.4218 141.987 74.5824 142.126 74.4516C142.18 74.4055 142.264 74.3978 142.326 74.4285C142.387 74.467 142.418 74.5439 142.403 74.6132L132.917 116.478Z" fill="black" stroke="black" stroke-width="0.2"/>
<path d="M130.308 64.7048C130.254 64.7048 130.2 64.6817 130.17 64.6279C128.762 62.4662 127.254 60.6814 125.662 58.7813C125.231 58.2735 124.8 57.7658 124.377 57.2427C124.315 57.1735 124.323 57.0658 124.4 57.0042C124.469 56.9504 124.577 56.9581 124.639 57.0273C125.062 57.5504 125.492 58.0581 125.916 58.5659C127.446 60.3891 129.031 62.2661 130.454 64.4432C130.5 64.5202 130.477 64.6279 130.4 64.6817C130.37 64.6971 130.339 64.7048 130.308 64.7048Z" fill="black" stroke="black" stroke-width="0.2"/>
<path d="M90.4066 46.5495C88.9526 46.5495 87.491 46.4034 86.0755 46.1034C85.9422 46.0726 85.8063 46.0418 85.6678 46.011C84.5292 45.7649 83.3522 45.511 82.3137 45.9187C82.2214 45.9572 82.1291 45.911 82.0906 45.8264C82.0598 45.7418 82.0983 45.6418 82.1829 45.6033C83.3215 45.1571 84.5523 45.4264 85.737 45.6802C85.8755 45.711 86.0114 45.7418 86.1447 45.7726C89.1142 46.3957 92.2375 46.3495 95.1839 45.6572C95.2762 45.6341 95.3685 45.6879 95.3916 45.7803C95.4147 45.8726 95.3531 45.9649 95.2685 45.988C93.6761 46.3572 92.0375 46.5495 90.4066 46.5495Z" fill="black" stroke="black" stroke-width="0.2"/>
<path d="M92.8224 41.6723C89.6991 41.6723 86.5527 41.2415 83.5602 40.3953C83.4756 40.3722 83.4217 40.2799 83.4448 40.1876C83.4679 40.0952 83.5679 40.0414 83.6525 40.0722C87.7605 41.2338 92.1685 41.6031 96.415 41.1415C96.5073 41.1338 96.5842 41.1953 96.5996 41.2953C96.6073 41.3877 96.5381 41.4646 96.4458 41.48C95.2534 41.6107 94.0379 41.6723 92.8224 41.6723Z" fill="black" stroke="black" stroke-width="0.2"/>
<path d="M90.6454 44.4955C89.3299 44.4955 88.0067 44.3648 86.722 44.0955C86.3066 44.0109 85.8912 43.9109 85.4835 43.8109C84.8142 43.6493 84.1142 43.4801 83.4218 43.3724C82.1294 43.1877 81.0678 43.2724 80.1754 43.6493C80.0831 43.6801 79.9831 43.6416 79.9523 43.557C79.9138 43.4724 79.9523 43.3724 80.0446 43.3339C80.9908 42.9416 82.114 42.8416 83.468 43.0416C84.1757 43.1416 84.8834 43.3185 85.5681 43.4801C85.9681 43.5801 86.3836 43.6801 86.7913 43.7647C89.3068 44.2878 91.9609 44.2878 94.4688 43.7724C94.5611 43.7493 94.6534 43.8109 94.6688 43.9032C94.6919 43.9955 94.6303 44.0801 94.538 44.1032C93.2687 44.3648 91.9532 44.4955 90.6454 44.4955Z" fill="black" stroke="black" stroke-width="0.2"/>
<path d="M142.78 73.5362C142.77 73.5362 142.757 73.5362 142.742 73.5362C142.649 73.5131 142.596 73.4208 142.619 73.3285L145.357 61.2814C145.373 61.1968 145.465 61.1353 145.557 61.1583C145.65 61.1737 145.703 61.266 145.688 61.3584L142.949 73.4054C142.926 73.4823 142.857 73.5362 142.78 73.5362Z" fill="black" stroke="black" stroke-width="0.2"/>
<path d="M182.628 35.6103L178.728 28.9483C178.728 28.9483 168.681 28.1174 158.88 28.7944C157.749 28.879 156.757 29.5945 156.318 30.6561L150.587 44.4648C148.579 49.2959 147.848 54.5732 148.464 59.7736L150.072 73.3669L184.49 75.0747L182.628 35.6103Z" fill="#FF9536"/>
<path d="M175.189 116.647L175.42 28.2559C175.42 28.2559 187.698 28.5251 194.66 40.5183C201.03 51.473 201.084 73.3669 201.084 73.3669L195.445 76.7748L201.761 116.647H175.189Z" fill="white"/>
<path d="M201.661 116.816H175.236C175.189 116.816 175.151 116.801 175.12 116.762C175.089 116.732 175.066 116.693 175.066 116.647L175.251 106.446C175.251 106.354 175.32 106.277 175.42 106.277C175.513 106.277 175.59 106.354 175.59 106.454L175.413 116.478H201.461L195.276 76.8057C195.268 76.7364 195.299 76.6672 195.36 76.6364L200.914 73.2746C200.899 71.6899 200.568 51.0268 194.514 40.603C190.945 34.4564 185.99 31.61 182.459 30.3022C178.644 28.8867 175.628 28.9329 175.605 28.9329C175.605 28.9329 175.602 28.9329 175.597 28.9329C175.505 28.9329 175.436 28.856 175.428 28.7636C175.428 28.6713 175.505 28.5944 175.597 28.5944C175.628 28.5944 178.697 28.5482 182.582 29.9868C186.16 31.31 191.191 34.1948 194.806 40.4337C201.122 51.3038 201.253 73.1516 201.253 73.367C201.253 73.4285 201.222 73.4823 201.176 73.5131L195.629 76.8672L201.822 116.624C201.83 116.67 201.815 116.716 201.784 116.755C201.753 116.793 201.707 116.816 201.661 116.816Z" fill="black" stroke="black" stroke-width="0.2"/>
<path d="M160.427 15.7472C160.427 15.7472 156.296 12.0393 157.358 7.46969C158.812 1.23846 166.751 -1.75406 168.413 1.76927C168.413 1.76927 182.114 -1.32326 175.005 16.2396L179.237 29.2405L166.843 27.8943L165.551 16.8627L160.427 15.7472Z" fill="black"/>
<path d="M168.45 14.0317L173.958 28.6713L159.834 39.1028L159.888 30.2252L162.765 28.602L162.78 19.6322L168.45 14.0317Z" fill="white"/>
<path d="M161.459 29.5099C161.397 29.5099 161.343 29.4791 161.313 29.4253C161.267 29.3407 161.297 29.2406 161.374 29.1945L162.597 28.5021L162.782 18.9091C162.782 18.863 162.805 18.8168 162.836 18.786L168.336 13.9087C168.382 13.8703 168.436 13.8549 168.49 13.8703C168.544 13.8857 168.59 13.9241 168.606 13.978L174.121 28.6098C174.152 28.7021 174.106 28.7945 174.021 28.8329C173.929 28.8637 173.837 28.8175 173.806 28.7329L168.375 14.3242L163.121 18.986L162.936 28.6021C162.936 28.6637 162.897 28.7175 162.851 28.7483L161.543 29.4868C161.518 29.5022 161.49 29.5099 161.459 29.5099Z" fill="black" stroke="black" stroke-width="0.2"/>
<path d="M170.828 10.8161C171.443 10.1392 172.574 10.0699 173.336 10.5777C174.097 11.0931 174.467 12.0778 174.343 12.9855C174.22 13.8933 173.659 14.701 172.92 15.2549C172.189 15.8011 171.297 16.1011 170.389 16.2396C169.435 18.1936 168.212 20.1091 166.389 21.2938C164.573 22.4862 162.043 22.8016 160.242 21.5708C159.104 20.7861 158.388 19.4783 158.073 18.1321C157.758 16.7781 157.758 15.3626 157.919 13.9856C158.358 10.3853 157.481 12.1624 158.681 8.70829C160.342 8.03132 163.25 5.8927 163.25 5.8927C163.25 5.8927 164.104 7.80823 165.043 8.9237C166.866 11.0777 168.651 11.9547 169.628 11.8855C170.289 11.8393 170.443 11.2469 170.828 10.8161Z" fill="white"/>
<path fill-rule="evenodd" clip-rule="evenodd" d="M162.912 22.5324C161.958 22.5324 160.996 22.2862 160.15 21.7093C159.065 20.9631 158.265 19.7091 157.912 18.1706C157.619 16.9166 157.565 15.5088 157.758 13.9702C157.935 12.5086 157.888 11.9547 157.865 11.547C157.819 10.9469 157.804 10.7238 158.519 8.65446C158.535 8.60831 158.573 8.56984 158.619 8.54676C160.242 7.89287 163.12 5.77733 163.15 5.75425C163.189 5.72348 163.243 5.71578 163.289 5.72348C163.343 5.73886 163.381 5.77733 163.404 5.82348C163.412 5.83887 164.258 7.73132 165.166 8.80832C166.943 10.9085 168.689 11.7855 169.62 11.7162C170.005 11.6931 170.182 11.4393 170.397 11.1085C170.489 10.9777 170.589 10.8392 170.705 10.7085C171.359 9.98533 172.582 9.86224 173.428 10.4392C174.213 10.9623 174.644 11.9932 174.513 13.0086C174.39 13.9087 173.843 14.778 173.028 15.3857C172.359 15.8858 171.513 16.2243 170.505 16.3935C169.735 17.9475 168.497 20.1245 166.481 21.44C165.497 22.0862 164.204 22.5324 162.912 22.5324ZM158.812 8.8314C158.142 10.7777 158.158 10.9854 158.196 11.5239C158.227 11.9162 158.273 12.5163 158.088 14.0087C157.912 15.5088 157.958 16.8781 158.242 18.0936C158.581 19.5476 159.327 20.7323 160.342 21.4323C161.935 22.517 164.381 22.4093 166.297 21.1554C168.274 19.863 169.497 17.6859 170.243 16.1704C170.266 16.1166 170.312 16.0858 170.366 16.0781C171.351 15.9165 172.182 15.5934 172.82 15.1165C173.574 14.5549 174.067 13.7702 174.174 12.9625C174.29 12.0778 173.92 11.1777 173.243 10.7238C172.52 10.2392 171.497 10.3315 170.959 10.9316C170.851 11.0469 170.766 11.1777 170.682 11.3008C170.451 11.6393 170.197 12.0163 169.643 12.0547C168.697 12.124 166.889 11.37 164.912 9.03141C164.127 8.10827 163.42 6.66201 163.181 6.14659C162.543 6.60816 160.273 8.22366 158.812 8.8314Z" fill="black"/>
<path d="M170.828 10.8162H170.836M162.912 22.5324C161.958 22.5324 160.996 22.2862 160.15 21.7093C159.065 20.9631 158.265 19.7091 157.912 18.1706C157.619 16.9166 157.565 15.5088 157.758 13.9702C157.935 12.5086 157.888 11.9547 157.865 11.547C157.819 10.9469 157.804 10.7238 158.519 8.65446C158.535 8.60831 158.573 8.56984 158.619 8.54676C160.242 7.89287 163.12 5.77733 163.15 5.75425C163.189 5.72348 163.243 5.71578 163.289 5.72348C163.343 5.73886 163.381 5.77733 163.404 5.82348C163.412 5.83887 164.258 7.73132 165.166 8.80832C166.943 10.9085 168.689 11.7855 169.62 11.7162C170.005 11.6931 170.182 11.4393 170.397 11.1085C170.489 10.9777 170.589 10.8392 170.705 10.7085C171.359 9.98533 172.582 9.86224 173.428 10.4392C174.213 10.9623 174.644 11.9932 174.513 13.0086C174.39 13.9087 173.843 14.778 173.028 15.3857C172.359 15.8858 171.513 16.2243 170.505 16.3935C169.735 17.9475 168.497 20.1245 166.481 21.44C165.497 22.0862 164.204 22.5324 162.912 22.5324ZM158.812 8.8314C158.142 10.7777 158.158 10.9854 158.196 11.5239C158.227 11.9162 158.273 12.5163 158.088 14.0087C157.912 15.5088 157.958 16.8782 158.242 18.0936C158.581 19.5476 159.327 20.7323 160.342 21.4323C161.935 22.517 164.381 22.4093 166.297 21.1554C168.274 19.863 169.497 17.6859 170.243 16.1704C170.266 16.1166 170.312 16.0858 170.366 16.0781C171.351 15.9165 172.182 15.5934 172.82 15.1165C173.574 14.5549 174.067 13.7702 174.174 12.9625C174.29 12.0778 173.92 11.1777 173.243 10.7238C172.52 10.2392 171.497 10.3315 170.959 10.9316C170.851 11.0469 170.766 11.1777 170.682 11.3008C170.451 11.6393 170.197 12.0163 169.643 12.0547C168.697 12.124 166.889 11.37 164.912 9.03141C164.127 8.10827 163.42 6.66201 163.181 6.14659C162.543 6.60816 160.273 8.22366 158.812 8.8314Z" stroke="black" stroke-width="0.2"/>
<path d="M169.789 15.1087C169.754 15.1087 169.72 15.0985 169.689 15.078C169.613 15.0241 169.597 14.9164 169.651 14.8395C170.182 14.0625 171.051 13.5317 171.982 13.4163C172.074 13.4086 172.159 13.4701 172.174 13.5625C172.182 13.6548 172.12 13.7394 172.028 13.7548C171.19 13.8548 170.405 14.3317 169.928 15.0318C169.897 15.078 169.843 15.1087 169.789 15.1087Z" fill="black"/>
<path d="M173.029 20.5169C172.993 20.5169 172.96 20.5144 172.929 20.5092C172.483 20.4785 172.029 20.2169 171.69 19.7938C171.39 19.4322 171.206 19.0091 171.029 18.5937C170.99 18.5091 171.029 18.4091 171.113 18.3706C171.198 18.3321 171.298 18.3706 171.336 18.4552C171.506 18.8476 171.683 19.2553 171.952 19.5861C172.236 19.9323 172.598 20.1477 172.952 20.1707C173.606 20.2169 174.152 19.6245 174.283 19.0399C174.452 18.3168 174.152 17.5936 173.875 17.109C173.375 16.2397 172.598 15.5165 171.698 15.0781C171.621 15.0396 171.582 14.9319 171.621 14.8473C171.667 14.7703 171.767 14.7319 171.852 14.7703C172.813 15.2473 173.637 16.0089 174.167 16.9397C174.475 17.4705 174.806 18.286 174.614 19.1168C174.46 19.8169 173.829 20.5169 173.029 20.5169Z" fill="#FF9536"/>
<path d="M193.869 106.123L166.643 112.07C165.259 112.37 163.859 111.662 163.274 110.37L145.842 71.9207C145.034 70.136 146.065 68.0589 147.965 67.6435L174.49 61.843C175.89 61.543 177.313 62.2584 177.906 63.5739L195.607 102.623C196.269 104.077 195.422 105.785 193.869 106.123Z" fill="black"/>
<path d="M180.898 53.6039C180.898 53.6039 189.445 34.1409 189.722 34.3948C190.007 34.6487 207.385 51.3653 210.339 69.1743C213.301 86.991 201.669 93.4299 183.183 100.2C164.697 106.977 160.143 107.754 160.774 104.854C160.774 104.854 158.573 104.6 158.173 102.638C158.173 102.638 156.019 101.761 155.75 99.7919C155.75 99.7919 151.019 97.7379 155.404 93.0068L156.473 95.3762C156.473 95.3762 162.205 94.4454 164.359 92.476C166.513 90.5143 165.097 89.0912 163.951 88.5527C162.812 88.0065 159.45 85.5678 160.058 84.2139C160.658 82.8599 166.036 84.9601 167.99 84.8908C169.936 84.8216 186.876 76.5595 191.245 73.3669C191.245 73.3669 185.537 59.7736 180.898 53.6039Z" fill="white"/>
<path d="M176.244 81.6676C176.183 81.6676 176.121 81.6291 176.091 81.5676C176.052 81.4829 176.083 81.3829 176.168 81.3445C181.614 78.752 188.415 75.1902 191.038 73.3131C190.453 71.9284 185.099 59.4736 180.76 53.704C180.706 53.627 180.722 53.527 180.791 53.4655C180.868 53.4116 180.976 53.427 181.029 53.5039C185.63 59.6121 191.346 73.1669 191.407 73.3054C191.438 73.3746 191.415 73.4593 191.346 73.5054C188.668 75.4594 181.676 79.0981 176.314 81.6522C176.293 81.6624 176.27 81.6676 176.244 81.6676Z" fill="black" stroke="black" stroke-width="0.2"/>
<path d="M162.457 106.616C161.711 106.616 161.219 106.477 160.919 106.216C160.603 105.939 160.488 105.539 160.573 104.992C160.034 104.885 158.419 104.408 158.026 102.761C157.619 102.577 155.895 101.684 155.595 99.9074C155.218 99.7228 153.764 98.915 153.434 97.3457C153.157 96.0148 153.772 94.5147 155.272 92.8915C155.311 92.853 155.372 92.83 155.426 92.8454C155.48 92.853 155.534 92.8838 155.557 92.9377L156.572 95.184C157.426 95.0378 162.327 94.0993 164.242 92.353C165.034 91.6299 165.388 90.9375 165.288 90.2836C165.158 89.3759 164.181 88.8451 163.881 88.7066C162.727 88.1527 159.226 85.6602 159.903 84.1447C160.342 83.1677 162.542 83.6677 164.873 84.1986C166.111 84.4832 167.281 84.7524 167.981 84.7217C168.704 84.6986 171.843 83.4062 176.166 81.3445C176.251 81.306 176.351 81.3368 176.397 81.4214C176.435 81.506 176.397 81.6061 176.312 81.6522C174.651 82.4369 169.142 85.0217 167.996 85.0602C167.25 85.0909 166.058 84.814 164.796 84.5294C162.896 84.0986 160.534 83.5601 160.211 84.2832C159.673 85.491 162.904 87.8604 164.027 88.3989C164.358 88.5527 165.465 89.1605 165.627 90.2375C165.742 90.9991 165.35 91.7991 164.473 92.6069C162.311 94.5763 156.734 95.5071 156.503 95.5455C156.426 95.5532 156.349 95.5148 156.318 95.4455L155.349 93.3146C154.057 94.7763 153.518 96.1071 153.764 97.2764C154.103 98.8766 155.803 99.6305 155.818 99.6382C155.872 99.6612 155.911 99.7151 155.918 99.7689C156.172 101.615 158.219 102.477 158.234 102.485C158.288 102.5 158.326 102.546 158.334 102.608C158.711 104.431 160.773 104.685 160.788 104.692C160.842 104.692 160.88 104.723 160.911 104.762C160.934 104.8 160.95 104.846 160.934 104.892C160.826 105.4 160.896 105.746 161.142 105.962C162.396 107.054 168.358 105.454 183.12 100.038C183.213 100.007 183.305 100.054 183.336 100.146C183.374 100.231 183.328 100.331 183.236 100.361C171.227 104.762 165.173 106.616 162.457 106.616Z" fill="black"/>
<path d="M183.183 100.369C183.114 100.369 183.044 100.33 183.021 100.261C182.991 100.169 183.037 100.077 183.121 100.038C192.63 96.5609 199.93 93.2992 204.684 88.7065C209.816 83.7523 211.562 77.5595 210.177 69.2051C208.646 60.0198 203.2 51.1345 198.892 45.3033C194.122 38.8413 189.653 34.5563 189.606 34.5256C189.537 34.464 189.537 34.3563 189.599 34.2871C189.66 34.2179 189.768 34.2102 189.837 34.2717C189.876 34.3102 194.299 38.5028 199.161 45.1033C203.492 50.9653 208.969 59.8967 210.508 69.1512C211.916 77.6211 210.139 83.9138 204.923 88.9527C200.123 93.5838 192.784 96.861 183.237 100.361C183.221 100.366 183.203 100.369 183.183 100.369Z" fill="black" stroke="black" stroke-width="0.2"/>
<path d="M182.898 99.2843C182.892 99.2843 182.89 99.2843 182.89 99.2843C182.798 99.2843 182.721 99.2073 182.728 99.115C182.859 93.0069 180.644 86.868 176.643 82.2753C176.582 82.1984 176.589 82.0984 176.659 82.0368C176.728 81.9753 176.836 81.983 176.897 82.0522C180.951 86.7064 183.198 92.93 183.067 99.1227C183.059 99.215 182.982 99.2843 182.898 99.2843Z" fill="black" stroke="black" stroke-width="0.2"/>
<path d="M191.844 73.3515C191.79 73.3515 191.736 73.3285 191.705 73.2823C191.644 73.2054 191.667 73.0977 191.744 73.0438C192.99 72.1668 194.175 71.1745 195.259 70.1051C195.321 70.0359 195.428 70.0359 195.498 70.1051C195.559 70.1667 195.559 70.2744 195.498 70.3436C194.398 71.4283 193.198 72.4361 191.936 73.3208C191.905 73.3413 191.874 73.3515 191.844 73.3515Z" fill="black" stroke="black" stroke-width="0.2"/>
<path d="M161.481 105.046C161.209 105.046 160.94 105.039 160.673 105.023C160.581 105.015 160.512 104.931 160.512 104.839C160.519 104.746 160.604 104.677 160.696 104.685C163.135 104.846 165.635 104.238 167.735 102.969C167.82 102.923 167.92 102.946 167.966 103.031C168.02 103.108 167.989 103.215 167.912 103.262C165.981 104.423 163.727 105.046 161.481 105.046Z" fill="black"/>
<path d="M159.072 102.815C158.739 102.815 158.408 102.802 158.08 102.777C157.988 102.769 157.911 102.685 157.919 102.592C157.926 102.5 158.011 102.431 158.103 102.438C160.696 102.638 163.357 102.023 165.596 100.7C165.681 100.654 165.781 100.677 165.827 100.761C165.881 100.838 165.85 100.946 165.773 100.992C163.757 102.177 161.411 102.815 159.072 102.815Z" fill="black"/>
<path d="M158.627 100.446C157.674 100.446 156.72 100.323 155.804 100.069C155.712 100.038 155.658 99.9459 155.681 99.8613C155.712 99.769 155.804 99.7151 155.889 99.7382C158.797 100.546 162.02 100.015 164.52 98.3073C164.597 98.2535 164.697 98.2765 164.751 98.3535C164.805 98.4304 164.789 98.5304 164.705 98.5842C162.92 99.8074 160.774 100.446 158.627 100.446Z" fill="black"/>
<path d="M66.9359 140.71H30.6562V103.962H66.9359V140.71Z" fill="white"/>
<path fill-rule="evenodd" clip-rule="evenodd" d="M66.9352 140.88H30.6556C30.5633 140.88 30.4863 140.803 30.4863 140.71V103.961C30.4863 103.869 30.5633 103.792 30.6556 103.792H66.9352C67.0275 103.792 67.1044 103.869 67.1044 103.961V140.71C67.1044 140.803 67.0275 140.88 66.9352 140.88ZM30.8248 140.541H66.7659V104.131H30.8248V140.541Z" fill="black" stroke="black" stroke-width="0.2"/>
<path d="M48.796 132.894H36.1797V109.416H48.796V132.894Z" fill="white"/>
<path fill-rule="evenodd" clip-rule="evenodd" d="M48.7953 133.064H36.179C36.0867 133.064 36.0098 132.987 36.0098 132.894V109.416C36.0098 109.323 36.0867 109.246 36.179 109.246H48.7953C48.8876 109.246 48.9646 109.323 48.9646 109.416V132.894C48.9646 132.987 48.8876 133.064 48.7953 133.064ZM36.3482 132.725H48.6261V109.585H36.3482V132.725Z" fill="black" stroke="black" stroke-width="0.2"/>
<path d="M61.1127 103.962H28.041L33.5491 99.115H61.1127V103.962Z" fill="white"/>
<path fill-rule="evenodd" clip-rule="evenodd" d="M61.1108 104.131H28.0391C27.9699 104.131 27.9083 104.085 27.8776 104.015C27.8545 103.954 27.8699 103.877 27.9237 103.831L33.4395 98.9843C33.4703 98.9535 33.5088 98.9458 33.5472 98.9458H61.1108C61.2031 98.9458 61.28 99.015 61.28 99.115V103.962C61.28 104.054 61.2031 104.131 61.1108 104.131ZM28.4853 103.792H60.9416V99.2843H33.6165L28.4853 103.792Z" fill="black" stroke="black" stroke-width="0.2"/>
<path d="M99.4303 140.71H53.75V77.4056H99.4303V140.71Z" fill="white"/>
<path fill-rule="evenodd" clip-rule="evenodd" d="M99.4296 140.88H53.7493C53.657 140.88 53.5801 140.803 53.5801 140.71V77.4057C53.5801 77.3057 53.657 77.2365 53.7493 77.2365H99.4296C99.5219 77.2365 99.5989 77.3057 99.5989 77.4057V140.71C99.5989 140.803 99.5219 140.88 99.4296 140.88ZM53.9186 140.541H99.2604V77.5749H53.9186V140.541Z" fill="black" stroke="black" stroke-width="0.2"/>
<path d="M74.1131 107.685H58.6504V81.9598H74.1131V107.685Z" fill="white"/>
<path fill-rule="evenodd" clip-rule="evenodd" d="M74.1124 107.854H58.6497C58.5574 107.854 58.4805 107.777 58.4805 107.685V81.9599C58.4805 81.8676 58.5574 81.7906 58.6497 81.7906H74.1124C74.2047 81.7906 74.2816 81.8676 74.2816 81.9599V107.685C74.2816 107.777 74.2047 107.854 74.1124 107.854ZM58.819 107.516H73.9432V82.1291H58.819V107.516Z" fill="black" stroke="black" stroke-width="0.2"/>
<path d="M71.2901 112.985H68.4515V110.147H65.782V112.985H62.9434V115.655H65.782V118.493H68.4515V115.655H71.2901V112.985Z" fill="#FF9536"/>
<path d="M94.5214 96.5378H79.0664V81.9598H94.5214V96.5378Z" fill="white"/>
<path fill-rule="evenodd" clip-rule="evenodd" d="M94.5227 96.7071H79.0677C78.9754 96.7071 78.8984 96.6379 78.8984 96.5379V81.9599C78.8984 81.8676 78.9754 81.7906 79.0677 81.7906H94.5227C94.615 81.7906 94.6919 81.8676 94.6919 81.9599V96.5379C94.6919 96.6379 94.615 96.7071 94.5227 96.7071ZM79.2369 96.3687H94.3534V82.1291H79.2369V96.3687Z" fill="black" stroke="black" stroke-width="0.2"/>
<path d="M96.3989 70.536H56.7806L51.8418 78.0443H101.33L96.3989 70.536Z" fill="white"/>
<path fill-rule="evenodd" clip-rule="evenodd" d="M101.33 78.2134H51.8422C51.7806 78.2134 51.7268 78.1827 51.696 78.1288C51.6653 78.075 51.6653 78.0057 51.7037 77.9519L56.6349 70.4436C56.6656 70.3898 56.7195 70.3667 56.781 70.3667H96.3993C96.4532 70.3667 96.507 70.3898 96.5378 70.4436L101.477 77.9519C101.507 78.0057 101.515 78.075 101.484 78.1288C101.454 78.1827 101.392 78.2134 101.33 78.2134ZM52.1576 77.8749H101.023L96.307 70.7052H56.8656L52.1576 77.8749Z" fill="black" stroke="black" stroke-width="0.2"/>
<path d="M72.9365 140.71H61.8203V120.978H72.9365V140.71Z" fill="white"/>
<path fill-rule="evenodd" clip-rule="evenodd" d="M72.9358 140.88H61.8196C61.7273 140.88 61.6504 140.803 61.6504 140.71V120.978C61.6504 120.886 61.7273 120.809 61.8196 120.809H72.9358C73.0282 120.809 73.1051 120.886 73.1051 120.978V140.71C73.1051 140.803 73.0282 140.88 72.9358 140.88ZM61.9889 140.541H72.7666V121.147H61.9889V140.541Z" fill="black" stroke="black" stroke-width="0.2"/>
<path d="M137.279 140.71H79.998V104.739H137.279V140.71Z" fill="white"/>
<path fill-rule="evenodd" clip-rule="evenodd" d="M137.279 140.88H79.9974C79.9051 140.88 79.8281 140.803 79.8281 140.71V104.738C79.8281 104.646 79.9051 104.569 79.9974 104.569H137.279C137.371 104.569 137.448 104.646 137.448 104.738V140.71C137.448 140.803 137.371 140.88 137.279 140.88ZM80.1666 140.541H137.109V104.908H80.1666V140.541Z" fill="black" stroke="black" stroke-width="0.2"/>
<path d="M137.279 104.739H79.998V100.907H130.433L137.279 104.739Z" fill="white"/>
<path fill-rule="evenodd" clip-rule="evenodd" d="M137.279 104.908H79.9974C79.9051 104.908 79.8281 104.831 79.8281 104.738V100.907C79.8281 100.815 79.9051 100.738 79.9974 100.738H130.432C130.463 100.738 130.491 100.746 130.516 100.761L137.363 104.592C137.432 104.631 137.463 104.708 137.44 104.785C137.425 104.862 137.355 104.908 137.279 104.908ZM80.1666 104.569H136.632L130.386 101.077H80.1666V104.569Z" fill="black" stroke="black" stroke-width="0.2"/>
<path d="M137.279 132.894H85.2598V109.093H137.279V132.894Z" fill="white"/>
<path fill-rule="evenodd" clip-rule="evenodd" d="M137.28 133.064H85.261C85.1687 133.064 85.0918 132.987 85.0918 132.894V109.093C85.0918 109 85.1687 108.923 85.261 108.923H137.28C137.373 108.923 137.45 109 137.45 109.093V132.894C137.45 132.987 137.373 133.064 137.28 133.064ZM85.4303 132.725H137.111V109.262H85.4303V132.725Z" fill="black" stroke="black" stroke-width="0.2"/>
<path d="M102.316 133.064C102.223 133.064 102.146 132.987 102.146 132.894V109.093C102.146 109 102.223 108.923 102.316 108.923C102.416 108.923 102.485 109 102.485 109.093V132.894C102.485 132.987 102.416 133.064 102.316 133.064Z" fill="black" stroke="black" stroke-width="0.2"/>
<path d="M119.378 133.064C119.286 133.064 119.209 132.987 119.209 132.894V109.093C119.209 109 119.286 108.923 119.378 108.923C119.471 108.923 119.547 109 119.547 109.093V132.894C119.547 132.987 119.471 133.064 119.378 133.064Z" fill="black" stroke="black" stroke-width="0.2"/>
<path d="M61.796 0.269165H27.9012C24.8087 0.269165 22.3008 2.77704 22.3008 5.86958V58.5273C22.3008 61.6275 24.8087 64.1354 27.9012 64.1354H61.796C64.8885 64.1354 67.3964 61.6275 67.3964 58.5273V5.86958C67.3964 2.77704 64.8885 0.269165 61.796 0.269165Z" fill="white"/>
<path fill-rule="evenodd" clip-rule="evenodd" d="M61.7953 64.3047H27.9005C24.7157 64.3047 22.1309 61.7122 22.1309 58.5274V5.86963C22.1309 2.69248 24.7157 0.0999756 27.9005 0.0999756H61.7953C64.9725 0.0999756 67.565 2.69248 67.565 5.86963V58.5274C67.565 61.7122 64.9725 64.3047 61.7953 64.3047ZM27.9005 0.438462C24.9003 0.438462 22.4693 2.8771 22.4693 5.86963V58.5274C22.4693 61.5276 24.9003 63.9662 27.9005 63.9662H61.7953C64.7879 63.9662 67.2265 61.5276 67.2265 58.5274V5.86963C67.2265 2.8771 64.7879 0.438462 61.7953 0.438462H27.9005Z" fill="black" stroke="black" stroke-width="0.2"/>
<path d="M44.8489 58.9813C44.7566 58.9813 44.6797 58.9043 44.6797 58.812V5.5927C44.6797 5.50039 44.7566 5.42346 44.8489 5.42346C44.9412 5.42346 45.0182 5.50039 45.0182 5.5927V58.812C45.0182 58.9043 44.9412 58.9813 44.8489 58.9813Z" fill="#E9E9E9"/>
<path d="M37.3644 7.42354C39.4723 9.53139 39.4723 12.9547 37.3644 15.0626C35.2489 17.1704 31.8333 17.1704 29.7254 15.0626C27.6176 12.9547 27.6176 9.53139 29.7254 7.42354C31.8333 5.31569 35.2489 5.31569 37.3644 7.42354Z" fill="white"/>
<path fill-rule="evenodd" clip-rule="evenodd" d="M33.5404 16.809C32.0557 16.809 30.6556 16.232 29.6094 15.1781C27.4323 13.0087 27.4323 9.47765 29.6094 7.30826C30.6556 6.25433 32.0557 5.67737 33.5404 5.67737C35.0329 5.67737 36.4253 6.25433 37.4792 7.30826C39.6486 9.47765 39.6486 13.0087 37.4792 15.1781C36.4253 16.232 35.0329 16.809 33.5404 16.809ZM33.5404 6.01585C32.148 6.01585 30.8325 6.55436 29.8479 7.54674C27.8092 9.58535 27.8092 12.901 29.8479 14.9396C30.8325 15.9243 32.148 16.4705 33.5404 16.4705C34.9405 16.4705 36.256 15.9243 37.2407 14.9396C39.2793 12.901 39.2793 9.58535 37.2407 7.54674C36.256 6.55436 34.9405 6.01585 33.5404 6.01585Z" fill="black" stroke="black" stroke-width="0.2"/>
<path d="M36.2245 14.0934C36.1784 14.0934 36.1399 14.078 36.1014 14.0395L30.7395 8.67758C30.678 8.61604 30.678 8.50834 30.7395 8.4391C30.8088 8.37756 30.9165 8.37756 30.978 8.4391L36.3399 13.801C36.4092 13.8703 36.4092 13.978 36.3399 14.0395C36.3092 14.078 36.263 14.0934 36.2245 14.0934Z" fill="black" stroke="black" stroke-width="0.2"/>
<path d="M37.3644 21.4785C39.4723 23.5863 39.4723 27.0096 37.3644 29.1175C35.2489 31.2253 31.8333 31.2253 29.7254 29.1175C27.6176 27.0096 27.6176 23.5863 29.7254 21.4785C31.8333 19.3706 35.2489 19.3706 37.3644 21.4785Z" fill="white"/>
<path fill-rule="evenodd" clip-rule="evenodd" d="M33.5404 30.8638C32.0557 30.8638 30.6556 30.2868 29.6094 29.2329C27.4323 27.0635 27.4323 23.5325 29.6094 21.3631C30.6556 20.3091 32.0557 19.7322 33.5404 19.7322C35.0329 19.7322 36.4253 20.3091 37.4792 21.3631C39.6486 23.5325 39.6486 27.0635 37.4792 29.2329C36.4253 30.2868 35.0329 30.8638 33.5404 30.8638ZM33.5404 20.0707C32.148 20.0707 30.8325 20.6169 29.8479 21.6015C27.8092 23.6402 27.8092 26.9558 29.8479 28.9944C30.8325 29.9868 32.148 30.5253 33.5404 30.5253C34.9405 30.5253 36.256 29.9868 37.2407 28.9944C39.2793 26.9558 39.2793 23.6402 37.2407 21.6015C36.256 20.6169 34.9405 20.0707 33.5404 20.0707Z" fill="black" stroke="black" stroke-width="0.2"/>
<path d="M36.2245 28.1482C36.1784 28.1482 36.1399 28.1328 36.1014 28.102L30.7395 22.7401C30.678 22.6709 30.678 22.5632 30.7395 22.5016C30.8088 22.4324 30.9165 22.4324 30.978 22.5016L36.3399 27.8636C36.4092 27.9251 36.4092 28.0328 36.3399 28.102C36.3092 28.1328 36.263 28.1482 36.2245 28.1482Z" fill="black" stroke="black" stroke-width="0.2"/>
<path d="M37.3644 35.5411C39.4723 37.6489 39.4723 41.0646 37.3644 43.1724C35.2489 45.2803 31.8333 45.2803 29.7254 43.1724C27.6176 41.0646 27.6176 37.6489 29.7254 35.5411C31.8333 33.4332 35.2489 33.4332 37.3644 35.5411Z" fill="white"/>
<path fill-rule="evenodd" clip-rule="evenodd" d="M33.5405 44.9264C32.0557 44.9264 30.6556 44.3417 29.6094 43.2955C28.5555 42.2416 27.9785 40.8415 27.9785 39.3567C27.9785 37.872 28.5555 36.4719 29.6094 35.418C30.6556 34.3641 32.0557 33.7871 33.5405 33.7871C35.0329 33.7871 36.4253 34.3641 37.4792 35.418C38.5331 36.4719 39.1101 37.872 39.1101 39.3567C39.1101 40.8415 38.5331 42.2416 37.4792 43.2955C36.4253 44.3417 35.0329 44.9264 33.5405 44.9264ZM33.5405 34.1256C32.1481 34.1256 30.8326 34.6718 29.8479 35.6565C28.8555 36.6489 28.317 37.9566 28.317 39.3567C28.317 40.7492 28.8555 42.0646 29.8479 43.057C30.8326 44.0417 32.1481 44.5879 33.5405 44.5879C34.9406 44.5879 36.2561 44.0417 37.2407 43.057C38.2254 42.0646 38.7716 40.7492 38.7716 39.3567C38.7716 37.9566 38.2254 36.6489 37.2407 35.6565C36.2561 34.6718 34.9406 34.1256 33.5405 34.1256Z" fill="black" stroke="black" stroke-width="0.2"/>
<path d="M36.2245 42.2031C36.1784 42.2031 36.1399 42.1878 36.1014 42.157L30.7395 36.795C30.678 36.7258 30.678 36.6181 30.7395 36.5566C30.8088 36.4873 30.9165 36.4873 30.978 36.5566L36.3399 41.9185C36.4092 41.98 36.4092 42.0877 36.3399 42.157C36.3092 42.1878 36.263 42.2031 36.2245 42.2031Z" fill="black" stroke="black" stroke-width="0.2"/>
<path d="M37.3644 49.5959C39.4723 51.7037 39.4723 55.1194 37.3644 57.2272C35.2489 59.3351 31.8333 59.3351 29.7254 57.2272C27.6176 55.1194 27.6176 51.7037 29.7254 49.5959C31.8333 47.4881 35.2489 47.4881 37.3644 49.5959Z" fill="white"/>
<path fill-rule="evenodd" clip-rule="evenodd" d="M33.5405 58.9812C32.0557 58.9812 30.6556 58.4042 29.6094 57.3503C28.5555 56.2964 27.9785 54.8963 27.9785 53.4116C27.9785 51.9268 28.5555 50.5267 29.6094 49.4728C30.6556 48.4266 32.0557 47.8419 33.5405 47.8419C35.0329 47.8419 36.4253 48.4266 37.4792 49.4728C38.5331 50.5267 39.1101 51.9268 39.1101 53.4116C39.1101 54.8963 38.5331 56.2964 37.4792 57.3503C36.4253 58.4042 35.0329 58.9812 33.5405 58.9812ZM33.5405 48.1804C32.1481 48.1804 30.8326 48.7266 29.8479 49.7113C28.8555 50.7037 28.317 52.0115 28.317 53.4116C28.317 54.8117 28.8555 56.1195 29.8479 57.1118C30.8326 58.0965 32.1481 58.6427 33.5405 58.6427C34.9406 58.6427 36.2561 58.0965 37.2407 57.1118C38.2254 56.1195 38.7716 54.8117 38.7716 53.4116C38.7716 52.0115 38.2254 50.7037 37.2407 49.7113C36.2561 48.7266 34.9406 48.1804 33.5405 48.1804Z" fill="black" stroke="black" stroke-width="0.2"/>
<path d="M36.2245 56.2656C36.1784 56.2656 36.1399 56.2426 36.1014 56.2118L30.7395 50.8499C30.678 50.7806 30.678 50.6806 30.7395 50.6114C30.8088 50.5421 30.9165 50.5421 30.978 50.6114L36.3399 55.9733C36.4092 56.0426 36.4092 56.1503 36.3399 56.2118C36.3092 56.2426 36.263 56.2656 36.2245 56.2656Z" fill="black" stroke="black" stroke-width="0.2"/>
<path d="M59.9661 7.42354C62.074 9.53139 62.074 12.9547 59.9661 15.0626C57.8583 17.1704 54.4426 17.1704 52.3348 15.0626C50.2269 12.9547 50.2269 9.53139 52.3348 7.42354C54.4426 5.31569 57.8583 5.31569 59.9661 7.42354Z" fill="white"/>
<path fill-rule="evenodd" clip-rule="evenodd" d="M56.1498 16.809C54.6651 16.809 53.265 16.232 52.211 15.1781C50.0416 13.0087 50.0416 9.47765 52.211 7.30826C53.265 6.25433 54.6651 5.67737 56.1498 5.67737C57.6345 5.67737 59.0346 6.25433 60.0885 7.30826C62.2579 9.47765 62.2579 13.0087 60.0885 15.1781C59.0346 16.232 57.6345 16.809 56.1498 16.809ZM56.1498 6.01585C54.7574 6.01585 53.4419 6.55436 52.4495 7.54674C50.4109 9.58535 50.4109 12.901 52.4495 14.9396C53.4419 15.9243 54.7574 16.4705 56.1498 16.4705C57.5499 16.4705 58.8577 15.9243 59.8501 14.9396C61.8887 12.901 61.8887 9.58535 59.8501 7.54674C58.8577 6.55436 57.5499 6.01585 56.1498 6.01585Z" fill="black" stroke="black" stroke-width="0.2"/>
<path d="M58.8358 14.0934C58.7896 14.0934 58.7435 14.078 58.7127 14.0395L53.3508 8.67758C53.2815 8.61604 53.2815 8.50834 53.3508 8.4391C53.42 8.37756 53.5277 8.37756 53.5892 8.4391L58.9512 13.801C59.0204 13.8703 59.0204 13.978 58.9512 14.0395C58.9204 14.078 58.8742 14.0934 58.8358 14.0934Z" fill="black" stroke="black" stroke-width="0.2"/>
<path d="M59.9661 21.4785C62.074 23.5863 62.074 27.0096 59.9661 29.1175C57.8583 31.2253 54.4426 31.2253 52.3348 29.1175C50.2269 27.0096 50.2269 23.5863 52.3348 21.4785C54.4426 19.3706 57.8583 19.3706 59.9661 21.4785Z" fill="white"/>
<path fill-rule="evenodd" clip-rule="evenodd" d="M56.1498 30.8638C54.6651 30.8638 53.265 30.2868 52.211 29.2329C50.0416 27.0635 50.0416 23.5325 52.211 21.3631C53.265 20.3091 54.6651 19.7322 56.1498 19.7322C57.6345 19.7322 59.0346 20.3091 60.0885 21.3631C62.2579 23.5325 62.2579 27.0635 60.0885 29.2329C59.0346 30.2868 57.6345 30.8638 56.1498 30.8638ZM56.1498 20.0707C54.7574 20.0707 53.4419 20.6169 52.4495 21.6015C50.4109 23.6402 50.4109 26.9558 52.4495 28.9944C53.4419 29.9868 54.7574 30.5253 56.1498 30.5253C57.5499 30.5253 58.8577 29.9868 59.8501 28.9944C61.8887 26.9558 61.8887 23.6402 59.8501 21.6015C58.8577 20.6169 57.5499 20.0707 56.1498 20.0707Z" fill="black" stroke="black" stroke-width="0.2"/>
<path d="M58.8358 28.1482C58.7896 28.1482 58.7435 28.1328 58.7127 28.102L53.3508 22.7401C53.2815 22.6709 53.2815 22.5632 53.3508 22.5016C53.42 22.4324 53.5277 22.4324 53.5892 22.5016L58.9512 27.8636C59.0204 27.9251 59.0204 28.0328 58.9512 28.102C58.9204 28.1328 58.8742 28.1482 58.8358 28.1482Z" fill="black" stroke="black" stroke-width="0.2"/>
<path d="M59.9661 35.5411C62.074 37.6489 62.074 41.0646 59.9661 43.1724C57.8583 45.2803 54.4426 45.2803 52.3348 43.1724C50.2269 41.0646 50.2269 37.6489 52.3348 35.5411C54.4426 33.4332 57.8583 33.4332 59.9661 35.5411Z" fill="white"/>
<path fill-rule="evenodd" clip-rule="evenodd" d="M56.1497 44.9264C54.665 44.9264 53.2649 44.3417 52.211 43.2955C51.1647 42.2416 50.5801 40.8415 50.5801 39.3567C50.5801 37.872 51.1647 36.4719 52.211 35.418C53.2649 34.3641 54.665 33.7871 56.1497 33.7871C57.6344 33.7871 59.0346 34.3641 60.0885 35.418C61.1424 36.4719 61.7194 37.872 61.7194 39.3567C61.7194 40.8415 61.1424 42.2416 60.0885 43.2955C59.0346 44.3417 57.6344 44.9264 56.1497 44.9264ZM56.1497 34.1256C54.7573 34.1256 53.4418 34.6718 52.4494 35.6565C51.4648 36.6489 50.9186 37.9566 50.9186 39.3567C50.9186 40.7492 51.4648 42.0646 52.4494 43.057C53.4418 44.0417 54.7573 44.5879 56.1497 44.5879C57.5498 44.5879 58.8576 44.0417 59.85 43.057C60.8347 42.0646 61.3809 40.7492 61.3809 39.3567C61.3809 37.9566 60.8347 36.6489 59.85 35.6565C58.8576 34.6718 57.5498 34.1256 56.1497 34.1256Z" fill="black" stroke="black" stroke-width="0.2"/>
<path d="M58.8358 42.2031C58.7896 42.2031 58.7435 42.1878 58.7127 42.157L53.3508 36.795C53.2815 36.7258 53.2815 36.6181 53.3508 36.5566C53.42 36.4873 53.5277 36.4873 53.5892 36.5566L58.9512 41.9185C59.0204 41.98 59.0204 42.0877 58.9512 42.157C58.9204 42.1878 58.8742 42.2031 58.8358 42.2031Z" fill="black" stroke="black" stroke-width="0.2"/>
<path d="M59.9661 49.5959C62.074 51.7037 62.074 55.1194 59.9661 57.2272C57.8583 59.3351 54.4426 59.3351 52.3348 57.2272C50.2269 55.1194 50.2269 51.7037 52.3348 49.5959C54.4426 47.4881 57.8583 47.4881 59.9661 49.5959Z" fill="white"/>
<path fill-rule="evenodd" clip-rule="evenodd" d="M56.1497 58.9812C54.665 58.9812 53.2649 58.4042 52.211 57.3503C51.1647 56.2964 50.5801 54.8963 50.5801 53.4116C50.5801 51.9268 51.1647 50.5267 52.211 49.4728C53.2649 48.4266 54.665 47.8419 56.1497 47.8419C57.6344 47.8419 59.0346 48.4266 60.0885 49.4728C61.1424 50.5267 61.7194 51.9268 61.7194 53.4116C61.7194 54.8963 61.1424 56.2964 60.0885 57.3503C59.0346 58.4042 57.6344 58.9812 56.1497 58.9812ZM56.1497 48.1804C54.7573 48.1804 53.4418 48.7266 52.4494 49.7113C51.4648 50.7037 50.9186 52.0115 50.9186 53.4116C50.9186 54.8117 51.4648 56.1195 52.4494 57.1118C53.4418 58.0965 54.7573 58.6427 56.1497 58.6427C57.5498 58.6427 58.8576 58.0965 59.85 57.1118C60.8347 56.1195 61.3809 54.8117 61.3809 53.4116C61.3809 52.0115 60.8347 50.7037 59.85 49.7113C58.8576 48.7266 57.5498 48.1804 56.1497 48.1804Z" fill="black" stroke="black" stroke-width="0.2"/>
<path d="M58.8358 56.2656C58.7896 56.2656 58.7435 56.2426 58.7127 56.2118L53.3508 50.8499C53.2815 50.7806 53.2815 50.6806 53.3508 50.6114C53.42 50.5421 53.5277 50.5421 53.5892 50.6114L58.9512 55.9733C59.0204 56.0426 59.0204 56.1503 58.9512 56.2118C58.9204 56.2426 58.8742 56.2656 58.8358 56.2656Z" fill="black" stroke="black" stroke-width="0.2"/>
<path d="M35.0862 88.0372H7.3457V24.7172H35.0862V88.0372Z" fill="#E9E9E9"/>
<path d="M32.103 73.6823H10.3398V35.0872H32.103V73.6823Z" fill="white"/>
<path d="M37.4787 25.7557H4.96094V18.109H37.4787V25.7557Z" fill="#E9E9E9"/>
<path d="M7.34566 24.7403C7.20719 24.7403 7.0918 24.6249 7.0918 24.4864V19.3861C7.0918 19.2399 7.20719 19.1322 7.34566 19.1322C7.49183 19.1322 7.59953 19.2399 7.59953 19.3861V24.4864C7.59953 24.6249 7.49183 24.7403 7.34566 24.7403Z" fill="white"/>
<path d="M11.3164 24.7403C11.1702 24.7403 11.0625 24.6249 11.0625 24.4864V19.3861C11.0625 19.2399 11.1702 19.1322 11.3164 19.1322C11.4548 19.1322 11.5702 19.2399 11.5702 19.3861V24.4864C11.5702 24.6249 11.4548 24.7403 11.3164 24.7403Z" fill="white"/>
<path d="M15.2773 24.7403C15.1388 24.7403 15.0234 24.6249 15.0234 24.4864V19.3861C15.0234 19.2399 15.1388 19.1322 15.2773 19.1322C15.4158 19.1322 15.5312 19.2399 15.5312 19.3861V24.4864C15.5312 24.6249 15.4158 24.7403 15.2773 24.7403Z" fill="white"/>
<path d="M19.2402 24.7403C19.1017 24.7403 18.9863 24.6249 18.9863 24.4864V19.3861C18.9863 19.2399 19.1017 19.1322 19.2402 19.1322C19.3787 19.1322 19.4941 19.2399 19.4941 19.3861V24.4864C19.4941 24.6249 19.3787 24.7403 19.2402 24.7403Z" fill="white"/>
<path d="M27.164 24.7403C27.0256 24.7403 26.9102 24.6249 26.9102 24.4864V19.3861C26.9102 19.2399 27.0256 19.1322 27.164 19.1322C27.3025 19.1322 27.4179 19.2399 27.4179 19.3861V24.4864C27.4179 24.6249 27.3025 24.7403 27.164 24.7403Z" fill="white"/>
<path d="M23.2011 24.7403C23.0627 24.7403 22.9473 24.6249 22.9473 24.4864V19.3861C22.9473 19.2399 23.0627 19.1322 23.2011 19.1322C23.3396 19.1322 23.455 19.2399 23.455 19.3861V24.4864C23.455 24.6249 23.3396 24.7403 23.2011 24.7403Z" fill="white"/>
<path d="M31.125 24.7403C30.9865 24.7403 30.8711 24.6249 30.8711 24.4864V19.3861C30.8711 19.2399 30.9865 19.1322 31.125 19.1322C31.2711 19.1322 31.3788 19.2399 31.3788 19.3861V24.4864C31.3788 24.6249 31.2711 24.7403 31.125 24.7403Z" fill="white"/>
<path d="M35.0859 24.7403C34.9474 24.7403 34.832 24.6249 34.832 24.4864V19.3861C34.832 19.2399 34.9474 19.1322 35.0859 19.1322C35.2321 19.1322 35.3398 19.2399 35.3398 19.3861V24.4864C35.3398 24.6249 35.2321 24.7403 35.0859 24.7403Z" fill="white"/>
<path d="M107.531 18.6013C107.531 18.1295 107.498 17.6653 107.431 17.2089C106.754 12.8239 102.969 9.46216 98.3918 9.46216C95.4301 9.46216 92.7991 10.87 91.1297 13.047C89.4604 10.87 86.8294 9.46216 83.8677 9.46216C79.2904 9.46216 75.4978 12.8239 74.8285 17.2089C74.7619 17.6653 74.7285 18.1295 74.7285 18.6013C74.7285 23.6555 77.7749 29.7175 91.1297 36.7565C104.485 29.7175 107.531 23.6555 107.531 18.6013Z" fill="#FF9536"/>
<path d="M93.2457 26.125C93.1688 26.125 93.0996 26.0942 93.0457 26.0327L87.4607 18.9322L83.1065 23.2863C83.0603 23.3325 82.9988 23.3633 82.9296 23.3633H76.2675C76.1291 23.3633 76.0137 23.2479 76.0137 23.1094C76.0137 22.9709 76.1291 22.8555 76.2675 22.8555H82.8219L87.3068 18.3706C87.3607 18.3244 87.4299 18.2937 87.4991 18.3013C87.5761 18.3013 87.6376 18.3398 87.6838 18.3937L93.238 25.4557L96.8921 20.4938C96.9383 20.4323 97.0075 20.3938 97.0845 20.3861C97.1614 20.3861 97.2383 20.4169 97.2845 20.4784L99.3846 22.9402C99.4769 23.0479 99.4616 23.2094 99.3539 23.3017C99.2539 23.394 99.0923 23.3787 99 23.271L97.1075 21.0477L93.4534 26.025C93.4073 26.0865 93.3303 26.125 93.2534 26.125C93.2483 26.125 93.2457 26.125 93.2457 26.125Z" fill="white"/>
<path d="M27.1632 132.994H0.268851C0.176537 132.994 0.0996094 132.917 0.0996094 132.825V64.1354C0.0996094 64.0354 0.176537 63.9662 0.268851 63.9662H4.96151C5.05382 63.9662 5.13075 64.0354 5.13075 64.1354C5.13075 64.2277 5.05382 64.3047 4.96151 64.3047H0.438096V132.656H27.1632C27.2555 132.656 27.3324 132.733 27.3324 132.825C27.3324 132.917 27.2555 132.994 27.1632 132.994Z" fill="black" stroke="black" stroke-width="0.2"/>
<path d="M160.997 140.587C160.997 140.587 160.994 140.587 160.989 140.587C160.904 140.587 160.843 140.526 160.827 140.441C160.343 136.687 158.95 125.886 158.489 122.217C158.089 124.948 157.104 131.687 156.542 135.61C156.527 135.679 156.481 135.733 156.412 135.748C156.342 135.764 156.273 135.741 156.235 135.679L154.435 132.994H149.965C149.896 132.994 149.834 132.948 149.811 132.879L148.426 129.14L146.78 132.894C146.749 132.956 146.688 132.994 146.626 132.994H138.71C138.618 132.994 138.541 132.917 138.541 132.825C138.541 132.733 138.618 132.656 138.71 132.656H146.511L148.28 128.625C148.311 128.556 148.373 128.517 148.442 128.517C148.511 128.525 148.573 128.563 148.596 128.633L150.088 132.656H154.519C154.581 132.656 154.635 132.687 154.665 132.733L156.265 135.125C156.419 134.056 156.842 131.156 157.265 128.256C157.527 126.432 157.796 124.601 157.996 123.232C158.096 122.547 158.181 121.978 158.242 121.578C158.289 121.286 158.312 121.101 158.335 120.994C158.335 120.983 158.335 120.978 158.335 120.978H158.342C158.381 120.801 158.419 120.801 158.519 120.809C158.604 120.817 158.673 120.886 158.673 120.978C158.696 121.217 160.158 132.602 161.035 139.395L162.397 132.787C162.412 132.71 162.481 132.656 162.566 132.656H165.851L167.382 127.625C167.405 127.548 167.466 127.502 167.543 127.502C167.62 127.502 167.682 127.548 167.705 127.625L169.236 132.656H176.136L177.898 129.94C177.929 129.886 177.99 129.856 178.052 129.863C178.105 129.863 178.159 129.902 178.19 129.948L179.667 132.656H184.121C184.183 132.656 184.237 132.687 184.267 132.733L185.86 135.118L187.945 118.47C187.952 118.386 188.022 118.324 188.106 118.324C188.106 118.324 188.109 118.324 188.114 118.324C188.199 118.324 188.268 118.386 188.275 118.478L190.645 139.349L191.999 132.787C192.014 132.71 192.083 132.656 192.168 132.656H195.453L196.984 127.625C197.007 127.548 197.068 127.502 197.145 127.502C197.222 127.502 197.284 127.548 197.307 127.625L198.838 132.656L205.184 132.702C205.246 132.702 205.307 132.741 205.331 132.794L206.8 135.402L208.031 132.802C208.062 132.741 208.115 132.702 208.185 132.702H210.931C211.023 132.702 211.1 132.779 211.1 132.871C211.1 132.964 211.023 133.041 210.931 133.041H208.292L206.961 135.841C206.938 135.902 206.877 135.933 206.815 135.941C206.754 135.941 206.692 135.91 206.661 135.848L205.084 133.041L198.707 132.994C198.638 132.994 198.569 132.941 198.553 132.871L197.145 128.256L195.745 132.871C195.722 132.941 195.653 132.994 195.584 132.994H192.307L190.768 140.456C190.745 140.533 190.676 140.587 190.591 140.587C190.506 140.587 190.437 140.526 190.429 140.441L188.099 119.924L186.145 135.61C186.137 135.679 186.083 135.733 186.014 135.748C185.945 135.764 185.875 135.741 185.837 135.679L184.037 132.994H179.567C179.506 132.994 179.452 132.956 179.421 132.902L178.029 130.363L176.367 132.917C176.336 132.964 176.282 132.994 176.228 132.994H169.105C169.036 132.994 168.966 132.941 168.943 132.871L167.543 128.256L166.143 132.871C166.12 132.941 166.051 132.994 165.982 132.994H162.697L161.166 140.456C161.143 140.533 161.073 140.587 160.997 140.587Z" fill="black" stroke="black" stroke-width="0.2"/>
</svg>
