<svg width="211" height="141" viewBox="0 0 211 141" fill="none" xmlns="http://www.w3.org/2000/svg">
<path d="M26.8662 0.169067H5.69922V47.2755H26.8662V0.169067Z" fill="white"/>
<path d="M26.8664 47.4442H5.86815C5.77479 47.4442 5.69922 47.3686 5.69922 47.2753C5.69922 47.182 5.77479 47.1065 5.86815 47.1065H26.6975V0.3377H5.86815C5.77479 0.3377 5.69922 0.26217 5.69922 0.16885C5.69922 0.07553 5.77471 0 5.86815 0H26.8664C26.9598 0 27.0353 0.07553 27.0353 0.16885V47.2753C27.0353 47.3686 26.9598 47.4442 26.8664 47.4442Z" fill="black"/>
<path d="M58.0029 51.4712H5.87401C5.78064 51.4712 5.70508 51.3956 5.70508 51.3022C5.70508 51.2089 5.78064 51.1333 5.87401 51.1333H58.0029C58.0963 51.1333 58.1718 51.2089 58.1718 51.3022C58.1718 51.3956 58.0963 51.4712 58.0029 51.4712Z" fill="black" stroke="black" stroke-width="0.3"/>
<path d="M59.5957 47.2756H31.834V15.0402H54.1137L59.5957 32.2277V47.2756Z" fill="white"/>
<path d="M59.5946 47.4442H31.833C31.7396 47.4442 31.6641 47.3687 31.6641 47.2754V15.0399C31.6641 14.9466 31.7396 14.8711 31.833 14.8711H54.1127C54.1863 14.8711 54.2513 14.9186 54.2737 14.9886L59.7556 32.1763C59.7609 32.1929 59.7635 32.2101 59.7635 32.2276V47.2754C59.7635 47.3687 59.6879 47.4442 59.5946 47.4442ZM32.0019 47.1065H59.4256V32.2538L53.9893 15.2088H32.0019V47.1065Z" fill="black"/>
<path d="M58.1535 32.1764H40.3349C40.2416 32.1764 40.166 32.1008 40.166 32.0075V16.5419C40.166 16.4486 40.2416 16.373 40.3349 16.373C40.4283 16.373 40.5039 16.4486 40.5039 16.5419V31.8387H58.1535C58.2468 31.8387 58.3224 31.9142 58.3224 32.0075C58.3224 32.1008 58.2468 32.1764 58.1535 32.1764Z" fill="black"/>
<path d="M53.6204 13.9233C53.5683 13.9233 53.517 13.8994 53.4838 13.8541L51.3403 10.9227L31.8168 9.05517C31.7239 9.04628 31.6559 8.96385 31.6648 8.87099C31.6737 8.77828 31.7523 8.70919 31.8491 8.71908L51.448 10.5938C51.4961 10.5984 51.5398 10.6233 51.5683 10.6622L53.7567 13.6548C53.8116 13.73 53.7953 13.8357 53.7199 13.8907C53.6899 13.9127 53.655 13.9233 53.6204 13.9233Z" fill="black" stroke="black" stroke-width="0.3"/>
<path d="M45.8434 60.1631C50.7425 60.1052 54.6671 56.0891 54.6093 51.1927C54.5515 46.2963 50.5332 42.3739 45.6342 42.4317C40.7351 42.4895 36.8105 46.5057 36.8683 51.4021C36.9261 56.2984 40.9444 60.2209 45.8434 60.1631Z" fill="white"/>
<path d="M45.7376 60.3376C40.7528 60.3376 36.6973 56.2843 36.6973 51.3021C36.6973 46.32 40.7528 42.2667 45.7376 42.2667C50.7224 42.2667 54.7779 46.32 54.7779 51.3021C54.7779 56.2843 50.7224 60.3376 45.7376 60.3376ZM45.7376 42.6045C40.9391 42.6045 37.0351 46.5062 37.0351 51.3021C37.0351 56.0981 40.9391 59.9999 45.7376 59.9999C50.5361 59.9999 54.4401 56.0981 54.4401 51.3021C54.4401 46.5062 50.5361 42.6045 45.7376 42.6045Z" fill="black"/>
<path d="M45.7693 54.894C47.7506 54.8756 49.3418 53.2554 49.3234 51.2752C49.305 49.2949 47.6839 47.7046 45.7026 47.723C43.7214 47.7414 42.1302 49.3616 42.1486 51.3419C42.167 53.3221 43.7881 54.9124 45.7693 54.894Z" fill="#E9E9E9"/>
<mask id="mask0_380_2" style="mask-type:luminance" maskUnits="userSpaceOnUse" x="105" y="0" width="102" height="141">
<path d="M104.999 0.169067H206.836V140.12H104.999V0.169067Z" fill="white"/>
</mask>
<g mask="url(#mask0_380_2)">
<path d="M175.509 144.516L167.797 112.335L170.142 144.516H140.059C140.067 113.897 140.151 76.7544 140.183 63.7074C140.189 61.3377 142.343 59.5445 144.672 59.9871C157.471 62.4196 176.386 61.3648 176.386 61.3648C185.433 76.0241 197.859 113.523 207.268 144.516H175.509Z" fill="white"/>
<path d="M139.89 144.516C139.898 113.088 139.986 74.9277 140.014 63.707C140.014 63.614 140.09 63.5386 140.183 63.5386H140.183C140.276 63.5387 140.352 63.6146 140.352 63.7078C140.324 74.9285 140.236 113.089 140.228 144.516L139.89 144.516Z" fill="black" stroke="black" stroke-width="0.3"/>
<path d="M175.336 144.516L168.117 114.392L170.312 144.516H169.973L167.63 112.347C167.623 112.259 167.685 112.181 167.772 112.168C167.86 112.154 167.942 112.21 167.962 112.295L175.684 144.516L175.336 144.516Z" fill="black" stroke="black" stroke-width="0.3"/>
<path d="M207.09 144.516C205.229 138.386 203.251 132.004 201.205 125.598C190.799 93.013 182.4 71.4315 176.242 61.4535C176.193 61.374 176.217 61.2699 176.297 61.221C176.377 61.1718 176.481 61.1969 176.529 61.2761C182.702 71.2777 191.112 92.8842 201.527 125.496C203.585 131.937 205.573 138.355 207.443 144.516L207.09 144.516Z" fill="black" stroke="black" stroke-width="0.3"/>
<path d="M167.798 112.503C167.808 112.503 167.818 112.502 167.829 112.501C167.921 112.483 167.981 112.395 167.964 112.304C167.937 112.159 165.253 97.7916 163.878 90.6096C163.705 89.7054 162.996 86.7343 161.136 86.4548C161.043 86.4425 160.958 86.5047 160.944 86.5967C160.93 86.6889 160.994 86.775 161.086 86.7888C162.726 87.0352 163.384 89.824 163.546 90.6728C164.921 97.8541 167.605 112.221 167.632 112.365C167.647 112.447 167.718 112.503 167.798 112.503Z" fill="black" stroke="black" stroke-width="0.3"/>
<path d="M195.643 46.4275C195.688 46.5832 201.453 62.0298 195.099 69.6651C188.746 77.3004 173.622 72.1879 173.622 72.1879L176.857 49.6242L195.643 46.4275Z" fill="white"/>
<path d="M183.985 74.0314C189.035 74.0314 192.897 72.5757 195.23 69.7729C201.138 62.6727 196.762 49.0859 195.825 46.4345L195.805 46.3777C195.779 46.2981 195.699 46.2468 195.615 46.261L176.829 49.4578C176.756 49.47 176.7 49.5276 176.69 49.6003L173.455 72.1639C173.443 72.2444 173.491 72.3218 173.568 72.3478C173.606 72.3607 177.422 73.6366 181.966 73.9582C182.659 74.007 183.332 74.0314 183.985 74.0314ZM195.531 46.6178C196.507 49.4009 200.711 62.6576 194.97 69.5569C189.077 76.6394 175.316 72.5464 173.809 72.0709L177.007 49.7699L195.531 46.6178Z" fill="black"/>
<path d="M172.374 52.4436L197.521 49.2862C197.521 49.2862 194.49 41.2011 191.545 33.9743C189.083 27.9326 183.208 23.9803 176.681 23.9903C168.577 24.0026 156.934 24.2928 145.959 25.5509C138.758 26.3764 132.612 31.1566 130.069 37.9402C129.233 40.1695 128.449 42.7274 127.83 45.6012L153.201 54.0942L172.374 52.4436Z" fill="white" stroke="black" stroke-width="0.3"/>
<path d="M139.508 68.9463C139.508 68.9463 131.842 70.0041 128.552 66.8149C125.262 63.6257 121.78 43.6349 121.78 43.6349H133.914L139.508 68.9463Z" fill="white"/>
<path d="M136.578 69.2908C138.202 69.2908 139.409 69.1305 139.532 69.1135C139.579 69.107 139.62 69.0815 139.647 69.0428C139.674 69.0041 139.684 68.9559 139.674 68.9099L134.08 43.5985C134.063 43.5212 133.994 43.4661 133.915 43.4661H121.781C121.731 43.4661 121.683 43.4882 121.651 43.5263C121.619 43.5644 121.606 43.6148 121.614 43.6639C121.757 44.4822 125.144 63.7452 128.435 66.9361C130.458 68.8963 134.031 69.2908 136.578 69.2908ZM139.304 68.8009C138.128 68.9326 131.585 69.5187 128.671 66.6937C125.631 63.7468 122.357 45.8928 121.982 43.8037H133.78L139.304 68.8009Z" fill="black"/>
<path d="M135.215 33.0707H179.801V70.5295H135.215V33.0707Z" fill="#FF9536"/>
<path d="M135.216 70.6983H179.802C179.895 70.6983 179.971 70.6228 179.971 70.5295V51.4865C179.971 51.3932 179.895 51.3176 179.802 51.3176C179.708 51.3176 179.633 51.3932 179.633 51.4865V70.3606H135.385V53.3283C135.385 53.235 135.31 53.1595 135.216 53.1595C135.123 53.1595 135.047 53.235 135.047 53.3283V70.5295C135.047 70.6229 135.123 70.6983 135.216 70.6983Z" fill="black"/>
<path d="M147.106 66.5746C147.2 66.5746 147.275 66.4991 147.275 66.4057V34.4333C147.275 34.3399 147.2 34.2644 147.106 34.2644C147.013 34.2644 146.938 34.3399 146.938 34.4333V66.4057C146.938 66.4991 147.013 66.5746 147.106 66.5746Z" fill="black" stroke="black" stroke-width="0.3"/>
<path d="M161.799 44.6601H176.476C176.569 44.6601 176.645 44.5845 176.645 44.4912V36.8207C176.645 36.7274 176.569 36.6519 176.476 36.6519H161.799C161.706 36.6519 161.63 36.7274 161.63 36.8207V44.4912C161.63 44.5845 161.706 44.6601 161.799 44.6601ZM176.307 44.3223H161.968V36.9895H176.307V44.3223Z" fill="black"/>
<path d="M174.427 43.5637C174.52 43.5637 174.596 43.4882 174.596 43.3949V37.9167C174.596 37.8233 174.52 37.7478 174.427 37.7478C174.333 37.7478 174.258 37.8233 174.258 37.9167V43.3949C174.258 43.4882 174.333 43.5637 174.427 43.5637Z" fill="black"/>
<path d="M172.312 43.5637C172.405 43.5637 172.48 43.4882 172.48 43.3949V37.9167C172.48 37.8233 172.405 37.7478 172.312 37.7478C172.218 37.7478 172.143 37.8233 172.143 37.9167V43.3949C172.143 43.4882 172.218 43.5637 172.312 43.5637Z" fill="black"/>
<path d="M170.194 43.5637C170.288 43.5637 170.363 43.4882 170.363 43.3949V37.9167C170.363 37.8233 170.288 37.7478 170.194 37.7478C170.101 37.7478 170.025 37.8233 170.025 37.9167V43.3949C170.025 43.4882 170.101 43.5637 170.194 43.5637Z" fill="black"/>
<path d="M168.079 43.5637C168.172 43.5637 168.248 43.4882 168.248 43.3949V37.9167C168.248 37.8233 168.172 37.7478 168.079 37.7478C167.986 37.7478 167.91 37.8233 167.91 37.9167V43.3949C167.91 43.4882 167.986 43.5637 168.079 43.5637Z" fill="black"/>
<path d="M165.962 43.5637C166.055 43.5637 166.131 43.4882 166.131 43.3949V37.9167C166.131 37.8233 166.055 37.7478 165.962 37.7478C165.869 37.7478 165.793 37.8233 165.793 37.9167V43.3949C165.793 43.4882 165.869 43.5637 165.962 43.5637Z" fill="black"/>
<path d="M163.847 43.5637C163.94 43.5637 164.016 43.4882 164.016 43.3949V37.9167C164.016 37.8233 163.94 37.7478 163.847 37.7478C163.753 37.7478 163.678 37.8233 163.678 37.9167V43.3949C163.678 43.4882 163.753 43.5637 163.847 43.5637Z" fill="black"/>
<path d="M104.999 75.9146H128.356L140.932 43.635H117.574L104.999 75.9146Z" fill="white"/>
<path d="M105 76.0834H128.357C128.427 76.0834 128.489 76.0407 128.514 75.9759L141.09 43.6963C141.11 43.6441 141.104 43.5856 141.072 43.5396C141.041 43.4936 140.988 43.4661 140.933 43.4661H117.576C117.506 43.4661 117.443 43.5088 117.418 43.5736L104.843 75.8532C104.822 75.9053 104.829 75.9638 104.86 76.0098C104.892 76.0558 104.944 76.0834 105 76.0834ZM128.242 75.7457H105.247L117.691 43.8038H140.686L128.242 75.7457Z" fill="black" stroke="black" stroke-width="0.3"/>
<path d="M120.118 50.9895H131.691L132.592 48.6779H121.019L120.118 50.9895Z" fill="#E9E9E9"/>
<path d="M113.792 61.6155H130.196L133.371 53.3285H116.967L113.792 61.6155Z" fill="#E9E9E9"/>
<path d="M109.404 71.8348H118.007C118.1 71.8348 118.176 71.7592 118.176 71.6659C118.176 71.5725 118.1 71.4969 118.007 71.4969H109.404C109.311 71.4969 109.235 71.5725 109.235 71.6659C109.235 71.7592 109.311 71.8348 109.404 71.8348Z" fill="#E9E9E9"/>
<path d="M133.697 43.6302C132.088 42.4904 130.453 41.3365 128.593 40.6797C126.734 40.023 124.588 39.9166 122.849 40.846C121.958 40.4753 120.849 40.7087 120.184 41.4073C118.314 41.0047 116.233 42.1219 115.537 43.9028C114.841 45.6836 115.612 47.9145 117.26 48.8857C117.542 49.0519 117.855 49.1864 118.182 49.1873C118.51 49.1882 118.853 49.0315 119 48.7392C119.497 49.1134 120.238 49.1222 120.743 48.7597C120.983 48.9747 121.36 48.974 121.653 48.8404C121.946 48.7068 122.174 48.4647 122.388 48.2233C123.546 46.9125 124.524 45.2063 125.283 43.6302H133.697Z" fill="white"/>
<path d="M118.186 49.3561C118.535 49.3561 118.855 49.2105 119.049 48.9734C119.56 49.2723 120.229 49.2711 120.737 48.9657C121.04 49.1568 121.438 49.1241 121.724 48.9941C122.046 48.8473 122.291 48.5881 122.515 48.3351C123.505 47.2155 124.471 45.6897 125.389 43.799H133.698C133.772 43.799 133.837 43.7515 133.859 43.6814C133.881 43.6113 133.856 43.5348 133.796 43.4925C132.198 42.3603 130.545 41.1899 128.65 40.5206C126.557 39.7813 124.445 39.8332 122.84 40.6604C121.923 40.3141 120.832 40.5416 120.129 41.2237C118.206 40.8586 116.093 42.0188 115.381 43.8412C114.657 45.693 115.462 48.0212 117.175 49.0312C117.55 49.252 117.87 49.3552 118.183 49.3562C118.184 49.3561 118.185 49.3561 118.186 49.3561ZM119.001 48.5702C118.988 48.5702 118.975 48.5717 118.962 48.5747C118.914 48.586 118.872 48.6184 118.85 48.6631C118.726 48.9088 118.427 49.0184 118.186 49.0184C118.185 49.0184 118.184 49.0184 118.184 49.0184C117.934 49.0176 117.668 48.9293 117.347 48.7402C115.77 47.8107 115.029 45.6681 115.695 43.9641C116.361 42.2603 118.358 41.1871 120.149 41.5722C120.206 41.5843 120.266 41.5662 120.307 41.5236C120.921 40.8793 121.963 40.6604 122.785 41.0017C122.832 41.0214 122.885 41.0185 122.93 40.9948C124.46 40.1771 126.503 40.1207 128.538 40.8388C130.22 41.433 131.722 42.4425 133.167 43.4613H125.283C125.218 43.4613 125.159 43.4984 125.131 43.5569C124.213 45.4641 123.247 46.9965 122.262 48.1116C122.054 48.3466 121.845 48.5676 121.584 48.6867C121.363 48.7873 121.053 48.8097 120.856 48.634C120.797 48.5812 120.709 48.5764 120.645 48.6226C120.202 48.9408 119.539 48.9331 119.103 48.6043C119.073 48.582 119.037 48.5702 119.001 48.5702Z" fill="black" stroke="black" stroke-width="0.3"/>
<path d="M120.27 48.6329C120.278 48.6329 120.286 48.6324 120.294 48.6313C120.386 48.6181 120.45 48.5326 120.437 48.4403C120.079 45.9175 120.877 43.2757 122.574 41.3738C122.636 41.304 122.63 41.1974 122.561 41.1354C122.491 41.0736 122.384 41.0794 122.322 41.1489C120.56 43.1241 119.73 45.8677 120.103 48.4878C120.115 48.572 120.187 48.6329 120.27 48.6329Z" fill="black"/>
<path d="M118.762 48.3542C118.778 48.3542 118.793 48.352 118.809 48.3476C118.899 48.3219 118.951 48.2283 118.925 48.1388C118.311 46.0004 118.687 43.6219 119.93 41.7764C119.982 41.6991 119.962 41.5941 119.884 41.5421C119.807 41.4896 119.702 41.5103 119.65 41.5878C118.352 43.5151 117.959 45.9987 118.6 48.2319C118.621 48.306 118.689 48.3542 118.762 48.3542Z" fill="black"/>
<path d="M116.184 47.7921C116.195 47.7921 116.206 47.7911 116.216 47.789C116.308 47.7713 116.368 47.6826 116.35 47.591C116.015 45.8617 116.368 44.0191 117.319 42.536C117.369 42.4573 117.347 42.3529 117.268 42.3026C117.189 42.252 117.085 42.2751 117.035 42.3535C116.037 43.9092 115.667 45.8417 116.019 47.6553C116.034 47.7361 116.105 47.7921 116.184 47.7921Z" fill="black"/>
<path d="M186.641 59.7747C186.641 59.7747 151.567 58.2588 150.548 59.3465C149.528 60.4343 150.002 61.5109 155.672 62.5491C155.672 62.5491 153.521 68.3219 143.855 70.5295H140.003C140.003 70.5295 141.008 73.6061 146.138 73.8633C150.517 74.0829 176.346 74.8106 183.824 75.0191C186.424 75.0917 189.008 74.4844 191.264 73.1914C194.156 71.5338 196.9 68.8105 197.834 63.0738L186.641 59.7747Z" fill="white"/>
<path d="M184.242 75.1936C186.776 75.1938 189.224 74.5555 191.349 73.3377C193.71 71.9846 196.968 69.4512 198.002 63.1007C198.017 63.0086 197.954 62.9219 197.862 62.9069C197.769 62.8922 197.683 62.9547 197.668 63.0465C196.658 69.2547 193.482 71.726 191.181 73.0448C188.992 74.299 186.45 74.9266 183.83 74.8501C183.511 74.8407 151.846 73.9059 146.145 73.6945C141.435 73.5198 140.418 71.3573 140.217 70.6983H143.856C143.868 70.6983 143.881 70.6968 143.893 70.694C153.537 68.4916 155.81 62.6665 155.832 62.6078C155.849 62.5611 155.845 62.509 155.82 62.4654C155.796 62.4221 155.753 62.3918 155.704 62.3829C152.372 61.7728 150.56 61.0912 150.318 60.3573C150.233 60.0996 150.349 59.8066 150.672 59.4618C151.545 58.7127 172.657 59.3391 186.634 59.9433C186.725 59.948 186.806 59.875 186.81 59.7819C186.814 59.6887 186.742 59.6099 186.649 59.6059C186.561 59.6021 177.778 59.224 168.982 58.9838C151.115 58.4955 150.614 59.0298 150.425 59.2309C150.01 59.6741 149.87 60.0772 149.997 60.463C150.283 61.33 152.012 62.0346 155.433 62.676C154.959 63.6756 152.3 68.4214 143.836 70.3605H140.004C139.955 70.3605 139.909 70.3812 139.877 70.4173C139.845 70.4533 139.83 70.5014 139.836 70.5492C139.851 70.6824 140.289 73.8152 146.133 74.0319C151.835 74.2434 183.501 75.1782 183.82 75.1877C183.961 75.1917 184.102 75.1936 184.242 75.1936Z" fill="black" stroke="black" stroke-width="0.3"/>
<path d="M165.213 10.6598L171.891 15.6206C172.918 16.3834 172.666 18.0077 171.444 18.3866C171.11 18.4902 170.723 18.5645 170.276 18.5925C170.421 19.655 169.601 20.6039 168.528 20.6136C166.912 20.6283 164.801 20.6365 164.089 20.5899L160.712 12.3515L165.213 10.6598Z" fill="black"/>
<path d="M164.893 14.015L166.105 24.5976C166.105 24.5976 164.254 27.3617 159.693 27.4627C155.132 27.5636 156.6 24.836 156.6 24.836L156.294 18.2966C156.294 18.2966 160.902 13.3809 164.893 14.015Z" fill="white"/>
<path d="M166.106 24.7665C166.113 24.7665 166.119 24.7661 166.126 24.7653C166.218 24.7547 166.285 24.671 166.274 24.5783L165.062 13.9956C165.053 13.9204 164.995 13.86 164.92 13.8482C160.886 13.2061 156.362 17.9778 156.171 18.1811C156.108 18.2492 156.111 18.3559 156.179 18.4198C156.247 18.4836 156.354 18.4803 156.418 18.412C156.463 18.3642 160.911 13.6766 164.741 14.1635L165.939 24.6169C165.948 24.703 166.021 24.7665 166.106 24.7665Z" fill="black" stroke="black" stroke-width="0.3"/>
<path d="M156.6 25.0049C156.603 25.0049 156.606 25.0049 156.608 25.0047C156.702 25.0003 156.774 24.9213 156.769 24.8281L156.463 18.2887C156.458 18.1955 156.377 18.1213 156.286 18.1278C156.193 18.1323 156.121 18.2113 156.125 18.3044L156.432 24.8439C156.436 24.9343 156.511 25.0049 156.6 25.0049Z" fill="black" stroke="black" stroke-width="0.3"/>
<path d="M153.653 8.82167C153.653 8.82167 150.41 17.2111 155.451 19.9078C160.492 22.6045 164.643 15.8997 164.894 15.2287C165.145 14.5578 165.789 11.5821 165.789 11.5821L156.348 8.20056L154.399 8.47677L153.653 8.82167Z" fill="white"/>
<path d="M157.874 20.7132C158.502 20.7132 159.137 20.5929 159.774 20.3525C162.855 19.1909 164.914 15.6526 165.051 15.2879C165.303 14.6131 165.927 11.7397 165.953 11.6178C165.971 11.5349 165.925 11.4516 165.845 11.4231L156.404 8.04147C156.378 8.03211 156.351 8.02897 156.323 8.03326L154.374 8.30946C154.358 8.31177 154.342 8.31652 154.327 8.3235L153.581 8.66848C153.541 8.68681 153.51 8.71994 153.494 8.76081C153.461 8.84608 150.257 17.321 155.37 20.0566C156.188 20.494 157.025 20.7132 157.874 20.7132ZM165.591 11.6908C165.459 12.294 164.947 14.6014 164.734 15.1695C164.516 15.7525 162.416 18.9955 159.655 20.0366C158.252 20.5658 156.864 20.4724 155.53 19.7588C150.905 17.2849 153.506 9.71747 153.786 8.94561L154.446 8.64042L156.329 8.37349L165.591 11.6908Z" fill="black" stroke="black" stroke-width="0.3"/>
<path d="M153.879 7.60635C153.879 7.60635 151.14 7.11184 151.349 9.0014C151.558 10.891 155.08 10.5431 156.348 8.8705L153.879 7.60635Z" fill="black"/>
<path d="M165.788 12.3515L149.681 6.87195C149.392 6.7735 149.238 6.45849 149.339 6.16994C149.439 5.88078 149.757 5.72926 150.045 5.8327L166.816 11.8512L165.788 12.3515Z" fill="black"/>
<path d="M153.653 7.61844L155.109 4.12081C156.41 0.995156 160.035 -0.440228 163.125 0.946999C163.758 1.2311 164.415 1.58376 165.084 2.02045C167.471 3.57722 168.501 6.5538 167.638 9.26853L166.817 11.8514L153.653 7.61844Z" fill="#E9E9E9"/>
<path d="M162.764 10.2235C162.821 10.2235 162.877 10.1945 162.909 10.1417C164.369 7.71889 165.739 4.3612 163.972 2.12313C163.952 2.09775 163.936 2.07766 163.925 2.06209C163.912 2.01509 163.878 1.97421 163.83 1.9529C163.745 1.91479 163.645 1.95359 163.608 2.03878C163.56 2.14583 163.622 2.22412 163.707 2.33231C165.355 4.41871 164.025 7.63592 162.62 9.96755C162.571 10.0474 162.597 10.151 162.677 10.1992C162.704 10.2158 162.734 10.2235 162.764 10.2235Z" fill="black"/>
<path d="M164.894 12.9448C164.894 12.9448 165.552 10.5098 167.489 12.1494C169.427 13.7889 166.205 17.3705 163.904 15.9454L164.894 12.9448Z" fill="white"/>
<path d="M165.058 16.4452C166.078 16.4452 167.079 15.8079 167.683 14.9777C168.472 13.8932 168.438 12.7324 167.597 12.0208C166.977 11.4956 166.406 11.3103 165.899 11.4672C165.055 11.7304 164.743 12.8533 164.73 12.901C164.706 12.991 164.759 13.0835 164.849 13.108C164.94 13.1322 165.032 13.0791 165.056 12.9893C165.059 12.9794 165.334 11.9964 166.001 11.7895C166.389 11.6688 166.853 11.8334 167.379 12.2784C168.223 12.9929 167.948 14.0386 167.41 14.7792C166.646 15.8284 165.189 16.5439 163.991 15.8022C163.912 15.7527 163.808 15.7777 163.759 15.8568C163.71 15.9359 163.734 16.0401 163.814 16.0891C164.214 16.3368 164.637 16.4452 165.058 16.4452Z" fill="black"/>
<path d="M164.762 15.1072C164.828 15.1072 164.891 15.0677 164.918 15.0029C165.165 14.4061 165.856 14.0278 166.493 14.1426C166.584 14.1588 166.672 14.0983 166.689 14.0062C166.705 13.9145 166.644 13.8265 166.552 13.81C165.818 13.6772 165.022 14.0776 164.672 14.7333C164.654 14.7508 164.64 14.7725 164.632 14.7974L164.602 14.8829C164.572 14.9693 164.616 15.0637 164.702 15.0961C164.721 15.1037 164.742 15.1072 164.762 15.1072Z" fill="black"/>
</g>
<path d="M49.7804 139.784C49.7256 139.784 49.672 139.757 49.6395 139.708L46.4099 134.841H12.0596C11.9662 134.841 11.8906 134.766 11.8906 134.672V57.225C11.8906 57.1317 11.9662 57.0562 12.0596 57.0562C12.1529 57.0562 12.2285 57.1317 12.2285 57.225V134.503H46.5006C46.5572 134.503 46.6101 134.532 46.6413 134.579L49.9209 139.522C49.9726 139.599 49.9513 139.704 49.8736 139.756C49.8448 139.775 49.8124 139.784 49.7804 139.784Z" fill="black" stroke="black" stroke-width="0.3"/>
<path d="M13.0851 57.5589C12.7844 58.1252 12.0815 58.3404 11.5152 58.0396C10.9488 57.7387 10.7336 57.0358 11.0343 56.4696C11.335 55.9033 12.0379 55.6881 12.6042 55.989C13.1706 56.2897 13.3859 56.9926 13.0851 57.5589Z" fill="white"/>
<path d="M12.0569 58.3447C11.8422 58.3447 11.6294 58.2921 11.4346 58.1886C10.7869 57.8446 10.5398 57.0378 10.8836 56.3903C11.0504 56.0765 11.3292 55.8465 11.6689 55.7426C12.0086 55.6384 12.3687 55.6732 12.6823 55.8399C13.3298 56.1839 13.5769 56.9905 13.233 57.638C13.0664 57.9518 12.7876 58.1818 12.4479 58.2858C12.3192 58.3251 12.1877 58.3447 12.0569 58.3447ZM12.0593 56.0215C11.9617 56.0215 11.8637 56.036 11.7678 56.0654C11.5144 56.1429 11.3063 56.3145 11.182 56.5486C10.9254 57.0317 11.1099 57.6337 11.5931 57.8905C11.827 58.0146 12.0958 58.0402 12.3488 57.9628C12.6022 57.8853 12.8103 57.7137 12.9347 57.4797C13.1912 56.9965 13.0068 56.3947 12.5235 56.1379C12.3782 56.0607 12.2195 56.0215 12.0593 56.0215Z" fill="black"/>
<path d="M61.2263 105.711H12.0586V130.896H61.2263V105.711Z" fill="#FF9536" stroke="black" stroke-width="0.3"/>
<path d="M61.2274 131.064H12.0596C11.9662 131.064 11.8906 130.989 11.8906 130.896V105.711C11.8906 105.617 11.9662 105.542 12.0596 105.542H61.2274C61.3207 105.542 61.3963 105.617 61.3963 105.711V130.896C61.3964 130.989 61.3208 131.064 61.2274 131.064ZM12.2285 130.727H61.0584V105.88H12.2285V130.727Z" fill="black"/>
<path d="M12.2034 140.082C15.1664 139.575 17.1568 136.761 16.6492 133.798C16.1415 130.835 13.328 128.845 10.365 129.352C7.40198 129.859 5.41154 132.672 5.9192 135.635C6.42686 138.598 9.24038 140.589 12.2034 140.082Z" fill="white"/>
<path d="M11.2691 140.325C10.3633 140.325 9.46574 140.104 8.64302 139.667C5.91026 138.215 4.86744 134.811 6.31886 132.079C7.02182 130.755 8.19837 129.784 9.63153 129.345C11.0648 128.907 12.5834 129.052 13.9072 129.755C16.6399 131.207 17.6826 134.611 16.2315 137.344C15.5285 138.667 14.352 139.638 12.9186 140.077C12.3761 140.243 11.8209 140.325 11.2691 140.325ZM11.281 129.435C10.7623 129.435 10.2407 129.512 9.73057 129.668C8.38371 130.081 7.27791 130.993 6.61721 132.237C5.2534 134.805 6.23332 138.004 8.80183 139.369C10.0459 140.03 11.4731 140.166 12.8199 139.754C14.1669 139.342 15.2726 138.429 15.9333 137.185C17.2969 134.617 16.317 131.418 13.7485 130.053C12.9756 129.643 12.1321 129.435 11.281 129.435Z" fill="black" stroke="black" stroke-width="0.3"/>
<path d="M9.68701 133.867C9.22111 134.745 9.55467 135.834 10.432 136.3C11.3094 136.766 12.3983 136.432 12.8641 135.555C13.33 134.678 12.9965 133.589 12.1191 133.123C11.2418 132.657 10.1529 132.99 9.68701 133.867Z" fill="white"/>
<path d="M11.2737 136.68C10.9562 136.68 10.6413 136.602 10.353 136.449C9.39484 135.94 9.02928 134.746 9.53823 133.788C9.78472 133.324 10.1972 132.984 10.6997 132.83C11.2018 132.676 11.7343 132.727 12.1988 132.974C13.1568 133.483 13.5224 134.676 13.0138 135.634C12.7671 136.098 12.3547 136.439 11.8522 136.592C11.6619 136.651 11.4672 136.68 11.2737 136.68ZM11.2777 133.081C11.1174 133.081 10.9562 133.105 10.7986 133.153C10.3823 133.28 10.0407 133.562 9.8365 133.947C9.41502 134.74 9.7179 135.729 10.5115 136.15C10.8959 136.354 11.3367 136.397 11.7531 136.27C12.1693 136.142 12.511 135.86 12.7153 135.476C13.1366 134.682 12.8337 133.694 12.04 133.272C11.8013 133.145 11.5406 133.081 11.2777 133.081Z" fill="black"/>
<path d="M61.2263 79.2404H12.0586V104.425H61.2263V79.2404Z" fill="#FF9536"/>
<path d="M61.2274 104.594H12.0596C11.9662 104.594 11.8906 104.519 11.8906 104.425V79.2404C11.8906 79.1471 11.9662 79.0715 12.0596 79.0715H61.2274C61.3207 79.0715 61.3963 79.1471 61.3963 79.2404V104.425C61.3964 104.519 61.3208 104.594 61.2274 104.594ZM12.2285 104.256H61.0584V79.4093H12.2285V104.256Z" fill="black" stroke="black" stroke-width="0.3"/>
<path d="M38.2255 88.4243H27.1592C27.0658 88.4243 26.9902 88.3488 26.9902 88.2555V82.4684C26.9902 82.3751 27.0658 82.2996 27.1592 82.2996H38.2255C38.3189 82.2996 38.3945 82.3751 38.3945 82.4684V88.2555C38.3945 88.3488 38.3189 88.4243 38.2255 88.4243ZM27.3281 88.0866H38.0566V82.6373H27.3281V88.0866Z" fill="black"/>
<path d="M28.7021 87.5975C28.6088 87.5975 28.5332 87.522 28.5332 87.4287V83.2954C28.5332 83.2021 28.6088 83.1266 28.7021 83.1266C28.7955 83.1266 28.8711 83.2021 28.8711 83.2954V87.4287C28.8711 87.522 28.7955 87.5975 28.7021 87.5975Z" fill="black"/>
<path d="M30.2978 87.5975C30.2045 87.5975 30.1289 87.522 30.1289 87.4287V83.2954C30.1289 83.2021 30.2045 83.1266 30.2978 83.1266C30.3912 83.1266 30.4668 83.2021 30.4668 83.2954V87.4287C30.4668 87.522 30.3912 87.5975 30.2978 87.5975Z" fill="black"/>
<path d="M31.8935 87.5975C31.8002 87.5975 31.7246 87.522 31.7246 87.4287V83.2954C31.7246 83.2021 31.8002 83.1266 31.8935 83.1266C31.9869 83.1266 32.0625 83.2021 32.0625 83.2954V87.4287C32.0625 87.522 31.9869 87.5975 31.8935 87.5975Z" fill="black"/>
<path d="M33.4892 87.5975C33.3959 87.5975 33.3203 87.522 33.3203 87.4287V83.2954C33.3203 83.2021 33.3959 83.1266 33.4892 83.1266C33.5826 83.1266 33.6582 83.2021 33.6582 83.2954V87.4287C33.6582 87.522 33.5826 87.5975 33.4892 87.5975Z" fill="black"/>
<path d="M35.0849 87.5975C34.9916 87.5975 34.916 87.522 34.916 87.4287V83.2954C34.916 83.2021 34.9916 83.1266 35.0849 83.1266C35.1783 83.1266 35.2539 83.2021 35.2539 83.2954V87.4287C35.2539 87.522 35.1783 87.5975 35.0849 87.5975Z" fill="black"/>
<path d="M36.6806 87.5975C36.5873 87.5975 36.5117 87.522 36.5117 87.4287V83.2954C36.5117 83.2021 36.5873 83.1266 36.6806 83.1266C36.774 83.1266 36.8496 83.2021 36.8496 83.2954V87.4287C36.8496 87.522 36.7741 87.5975 36.6806 87.5975Z" fill="black"/>
<path d="M22.8584 101.903C22.765 101.903 22.6895 101.827 22.6895 101.734V81.9519C22.6895 81.8586 22.765 81.7831 22.8584 81.7831C22.9518 81.7831 23.0273 81.8586 23.0273 81.9519V101.734C23.0273 101.827 22.9518 101.903 22.8584 101.903Z" fill="black"/>
<path d="M38.2255 115.116H27.1592C27.0658 115.116 26.9902 115.04 26.9902 114.947V109.16C26.9902 109.066 27.0658 108.991 27.1592 108.991H38.2255C38.3189 108.991 38.3945 109.066 38.3945 109.16V114.947C38.3945 115.04 38.3189 115.116 38.2255 115.116ZM27.3281 114.778H38.0566V109.329H27.3281V114.778Z" fill="black"/>
<path d="M28.7021 114.289C28.6088 114.289 28.5332 114.213 28.5332 114.12V109.987C28.5332 109.894 28.6088 109.818 28.7021 109.818C28.7955 109.818 28.8711 109.894 28.8711 109.987V114.12C28.8711 114.213 28.7955 114.289 28.7021 114.289Z" fill="black"/>
<path d="M30.2978 114.289C30.2045 114.289 30.1289 114.213 30.1289 114.12V109.987C30.1289 109.894 30.2045 109.818 30.2978 109.818C30.3912 109.818 30.4668 109.894 30.4668 109.987V114.12C30.4668 114.213 30.3912 114.289 30.2978 114.289Z" fill="black"/>
<path d="M31.8935 114.289C31.8002 114.289 31.7246 114.213 31.7246 114.12V109.987C31.7246 109.894 31.8002 109.818 31.8935 109.818C31.9869 109.818 32.0625 109.894 32.0625 109.987V114.12C32.0625 114.213 31.9869 114.289 31.8935 114.289Z" fill="black"/>
<path d="M33.4892 114.289C33.3959 114.289 33.3203 114.213 33.3203 114.12V109.987C33.3203 109.894 33.3959 109.818 33.4892 109.818C33.5826 109.818 33.6582 109.894 33.6582 109.987V114.12C33.6582 114.213 33.5826 114.289 33.4892 114.289Z" fill="black"/>
<path d="M35.0849 114.289C34.9916 114.289 34.916 114.213 34.916 114.12V109.987C34.916 109.894 34.9916 109.818 35.0849 109.818C35.1783 109.818 35.2539 109.894 35.2539 109.987V114.12C35.2539 114.213 35.1783 114.289 35.0849 114.289Z" fill="black"/>
<path d="M36.6806 114.289C36.5873 114.289 36.5117 114.213 36.5117 114.12V109.987C36.5117 109.894 36.5873 109.818 36.6806 109.818C36.774 109.818 36.8496 109.894 36.8496 109.987V114.12C36.8496 114.213 36.7741 114.289 36.6806 114.289Z" fill="black"/>
<path d="M22.8584 128.594C22.765 128.594 22.6895 128.518 22.6895 128.425V108.643C22.6895 108.55 22.765 108.474 22.8584 108.474C22.9518 108.474 23.0273 108.55 23.0273 108.643V128.425C23.0273 128.518 22.9518 128.594 22.8584 128.594Z" fill="black"/>
<path d="M105.117 51.2229H73.1689C73.0756 51.2229 73 51.1474 73 51.0541V19.1033C73 19.01 73.0756 18.9344 73.1689 18.9344H103.287C103.381 18.9344 103.456 19.01 103.456 19.1033C103.456 19.1966 103.381 19.2721 103.287 19.2721H73.3379V50.8852H104.948V27.6871C104.948 27.5937 105.023 27.5182 105.117 27.5182C105.21 27.5182 105.286 27.5937 105.286 27.6871V51.0541C105.286 51.1474 105.21 51.2229 105.117 51.2229Z" fill="black" stroke="black" stroke-width="0.3"/>
<path d="M89.1427 45.7388C89.0881 45.7388 89.037 45.7124 89.0053 45.668L76.4885 28.1428C76.4342 28.067 76.4519 27.9615 76.5278 27.9074C76.6037 27.8531 76.7094 27.8708 76.7634 27.9466L89.1431 45.2796L110.821 15.0706C110.875 14.9946 110.98 14.9773 111.056 15.0318C111.132 15.0863 111.15 15.1916 111.095 15.2675L89.28 45.6683C89.2483 45.7126 89.1971 45.7388 89.1427 45.7388Z" fill="black" stroke="black" stroke-width="0.3"/>
<path d="M95.2958 108.867C95.2057 108.867 95.1328 108.794 95.1328 108.705V97.7482C95.1328 95.2819 96.7153 93.0939 99.0705 92.3041C99.156 92.2748 99.2483 92.321 99.2771 92.4057C99.3059 92.4905 99.2601 92.5823 99.1749 92.611C96.9522 93.3564 95.4588 95.4208 95.4588 97.7482V108.705C95.4589 108.794 95.3859 108.867 95.2958 108.867Z" fill="black" stroke="black" stroke-width="0.2"/>
<path d="M106.563 108.867C106.473 108.867 106.4 108.794 106.4 108.705V97.7481C106.241 95.0699 104.308 92.8144 101.804 92.3949C99.8284 92.0635 97.7878 92.9066 96.4797 94.5935C96.4246 94.6643 96.3222 94.6776 96.251 94.6229C96.1797 94.5683 96.1665 94.4666 96.2214 94.3958C97.6033 92.6139 99.7629 91.7248 101.858 92.0754C104.511 92.5199 106.558 94.9016 106.726 97.7387L106.726 108.705C106.726 108.794 106.653 108.867 106.563 108.867Z" fill="black" stroke="black" stroke-width="0.2"/>
<path d="M91.8691 139.947H111.083H116.609H121.55L117.201 102.348H94.4028L91.8691 139.947Z" fill="white"/>
<path d="M121.55 140.109H111.083C110.993 140.109 110.92 140.037 110.92 139.947C110.92 139.858 110.993 139.785 111.083 139.785H121.368L117.056 102.51H115.032C114.941 102.51 114.868 102.438 114.868 102.348C114.868 102.258 114.941 102.186 115.032 102.186H117.202C117.284 102.186 117.354 102.248 117.363 102.33L121.712 139.929C121.718 139.975 121.703 140.021 121.672 140.055C121.641 140.09 121.597 140.109 121.55 140.109Z" fill="black"/>
<path d="M79.8281 139.947H111.082L115.031 102.348H85.809L79.8281 139.947Z" fill="white" stroke="black" stroke-width="0.2"/>
<path d="M111.083 140.109H79.829C79.7812 140.109 79.736 140.089 79.705 140.053C79.6741 140.017 79.6606 139.969 79.668 139.922L85.649 102.323C85.6614 102.244 85.7297 102.186 85.81 102.186H115.032C115.078 102.186 115.122 102.206 115.153 102.24C115.184 102.274 115.199 102.319 115.194 102.365L111.245 139.964C111.237 140.047 111.166 140.109 111.083 140.109ZM80.0199 139.785H110.936L114.851 102.51H85.9493L80.0199 139.785Z" fill="black"/>
<path d="M94.1873 105.988C94.1873 106.573 93.7103 107.046 93.122 107.046C92.5336 107.046 92.0566 106.573 92.0566 105.988C92.0566 105.404 92.5336 104.93 93.122 104.93C93.7103 104.93 94.1873 105.404 94.1873 105.988Z" fill="#E9E9E9"/>
<path d="M105.455 105.988C105.455 106.573 104.978 107.046 104.39 107.046C103.801 107.046 103.324 106.573 103.324 105.988C103.324 105.404 103.801 104.93 104.39 104.93C104.978 104.93 105.455 105.404 105.455 105.988Z" fill="#E9E9E9"/>
<path d="M104.39 106.15C104.3 106.15 104.227 106.078 104.227 105.988V98.5551C104.227 95.5653 101.773 93.133 98.7559 93.133C95.7392 93.133 93.285 95.5653 93.285 98.5551V105.988C93.285 106.078 93.2121 106.15 93.122 106.15C93.0319 106.15 92.959 106.078 92.959 105.988V98.5551C92.959 95.3867 95.5595 92.8091 98.7559 92.8091C101.952 92.8091 104.553 95.3867 104.553 98.5551V105.988C104.553 106.078 104.48 106.15 104.39 106.15Z" fill="black" stroke="black" stroke-width="0.2"/>
<path d="M74.6669 115.526C74.5768 115.526 74.5039 115.453 74.5039 115.364V106.743C74.5039 104.787 75.7586 103.052 77.6261 102.426C77.7108 102.397 77.8036 102.443 77.8326 102.528C77.8614 102.613 77.8155 102.704 77.7302 102.733C75.9955 103.315 74.83 104.926 74.83 106.743V115.364C74.83 115.453 74.757 115.526 74.6669 115.526Z" fill="black"/>
<path d="M83.5309 115.526C83.4408 115.526 83.3679 115.454 83.3679 115.364V106.743C83.2438 104.653 81.7348 102.892 79.7804 102.564C78.2376 102.306 76.6459 102.964 75.6242 104.281C75.5691 104.352 75.4667 104.365 75.3956 104.311C75.3242 104.256 75.311 104.154 75.3659 104.084C76.4611 102.672 78.1724 101.967 79.8345 102.245C81.9373 102.597 83.5604 104.485 83.6937 106.733L83.694 115.364C83.694 115.454 83.621 115.526 83.5309 115.526Z" fill="black" stroke="black" stroke-width="0.2"/>
<path d="M71.9688 139.947H87.0871H91.4356H95.3234L91.9015 110.362H73.9624L71.9688 139.947Z" fill="white"/>
<path d="M95.325 140.109H87.0888C86.9987 140.109 86.9258 140.037 86.9258 139.947C86.9258 139.858 86.9987 139.785 87.0888 139.785H95.1422L91.7578 110.524H90.1957C90.1056 110.524 90.0327 110.452 90.0327 110.362C90.0327 110.273 90.1056 110.2 90.1957 110.2H91.9032C91.986 110.2 92.0558 110.262 92.0652 110.343L95.487 139.929C95.4924 139.975 95.4778 140.021 95.4467 140.055C95.4158 140.089 95.3715 140.109 95.325 140.109Z" fill="black" stroke="black" stroke-width="0.2"/>
<path d="M62.4961 139.947H87.0885L90.1953 110.362H67.2021L62.4961 139.947Z" fill="white" stroke="black" stroke-width="0.2"/>
<path d="M87.0894 140.109H62.497C62.4492 140.109 62.404 140.089 62.3729 140.053C62.3421 140.016 62.3285 139.969 62.336 139.922L67.0421 110.337C67.0545 110.258 67.1228 110.2 67.2031 110.2H90.1963C90.2425 110.2 90.2866 110.22 90.3175 110.254C90.3483 110.288 90.3633 110.333 90.3584 110.379L87.2515 139.964C87.243 140.047 87.1729 140.109 87.0894 140.109ZM62.6878 139.785H86.9425L90.0155 110.524H67.3423L62.6878 139.785Z" fill="black"/>
<path d="M73.1464 114.023C73.5969 113.917 73.8759 113.469 73.7695 113.021C73.6631 112.573 73.2116 112.296 72.7611 112.402C72.3106 112.508 72.0316 112.956 72.1379 113.404C72.2443 113.851 72.6958 114.128 73.1464 114.023Z" fill="#E9E9E9"/>
<path d="M81.8938 114.057C82.3545 114.011 82.691 113.604 82.6454 113.146C82.5998 112.688 82.1894 112.354 81.7287 112.399C81.268 112.445 80.9315 112.852 80.9771 113.31C81.0227 113.768 81.4331 114.102 81.8938 114.057Z" fill="#E9E9E9"/>
<path d="M81.8221 113.388C81.732 113.388 81.6591 113.316 81.6591 113.226V107.378C81.6591 105.044 79.7435 103.146 77.3891 103.146C75.0346 103.146 73.119 105.044 73.119 107.378V113.226C73.119 113.316 73.0461 113.388 72.956 113.388C72.8659 113.388 72.793 113.316 72.793 113.226V107.378C72.793 104.866 74.8547 102.822 77.3891 102.822C79.9234 102.822 81.9852 104.866 81.9852 107.378V113.226C81.9852 113.316 81.9123 113.388 81.8221 113.388Z" fill="black" stroke="black" stroke-width="0.2"/>
<path d="M115.52 92.5265L109.918 95.2409V105.317L115.52 108.032H130.318V92.5265H115.52Z" fill="white" stroke="black" stroke-width="0.2"/>
<path d="M130.317 108.194H115.519C115.494 108.194 115.47 108.188 115.447 108.177L109.845 105.463C109.789 105.436 109.754 105.379 109.754 105.317V95.2407C109.754 95.1787 109.789 95.1222 109.845 95.0951L115.447 92.3807C115.47 92.3698 115.494 92.3643 115.519 92.3643H130.317C130.407 92.3643 130.48 92.4367 130.48 92.5262V108.031C130.48 108.121 130.407 108.194 130.317 108.194ZM115.557 107.87H130.154V92.6884H115.557L110.08 95.342V105.216L115.557 107.87Z" fill="black"/>
<path d="M117.033 100.279C117.033 100.943 116.492 101.481 115.823 101.481C115.155 101.481 114.613 100.943 114.613 100.279C114.613 99.6151 115.155 99.0769 115.823 99.0769C116.492 99.0769 117.033 99.6151 117.033 100.279Z" fill="white"/>
<path d="M115.824 101.643C115.067 101.643 114.451 101.031 114.451 100.279C114.451 99.527 115.067 98.915 115.824 98.915C116.581 98.915 117.197 99.527 117.197 100.279C117.197 101.031 116.581 101.643 115.824 101.643ZM115.824 99.2389C115.247 99.2389 114.777 99.7055 114.777 100.279C114.777 100.852 115.247 101.319 115.824 101.319C116.401 101.319 116.871 100.852 116.871 100.279C116.871 99.7055 116.401 99.2389 115.824 99.2389Z" fill="black"/>
<path d="M102.868 101.68C102.715 101.68 102.557 101.646 102.404 101.577C102.041 101.413 101.765 101.085 101.684 100.722C101.53 100.023 101.959 99.3443 102.454 98.9824C102.97 98.6047 103.612 98.4456 104.229 98.3301C108.249 97.5762 112.327 98.1695 115.71 100C115.789 100.043 115.819 100.141 115.776 100.22C115.733 100.298 115.634 100.328 115.554 100.285C112.237 98.4899 108.236 97.9091 104.289 98.6484C103.62 98.7738 103.085 98.9229 102.647 99.2432C102.238 99.5431 101.88 100.095 102.003 100.653C102.061 100.914 102.271 101.161 102.539 101.282C102.76 101.382 102.982 101.383 103.163 101.284C103.242 101.241 103.342 101.27 103.385 101.348C103.428 101.427 103.399 101.525 103.32 101.568C103.182 101.643 103.028 101.68 102.868 101.68Z" fill="black" stroke="black" stroke-width="0.2"/>
<path d="M105.077 101.214C105.01 101.214 104.946 101.172 104.923 101.105C104.894 101.021 104.939 100.928 105.024 100.899C106.399 100.426 107.891 100.263 109.337 100.428C109.427 100.438 109.491 100.518 109.481 100.607C109.47 100.696 109.392 100.761 109.3 100.75C107.902 100.591 106.46 100.748 105.131 101.205C105.113 101.211 105.095 101.214 105.077 101.214Z" fill="black" stroke="black" stroke-width="0.2"/>
</svg>
