<svg width="211" height="141" viewBox="0 0 211 141" fill="none" xmlns="http://www.w3.org/2000/svg">
<path d="M105.693 140.572L90.2496 89.7716L72.8752 83.9493L56.0161 95.863L54.9316 140.572H105.693Z" fill="white"/>
<path d="M54.9309 140.58C54.8386 140.572 54.7617 140.495 54.7617 140.403L55.8462 95.863C55.8462 95.8092 55.8693 95.7553 55.9154 95.7246L72.7822 83.8109C72.8206 83.7801 72.8822 83.7725 72.9283 83.7878L90.3027 89.6101C90.3489 89.6255 90.395 89.6716 90.4104 89.7177L105.785 140.333C105.808 140.426 105.762 140.518 105.67 140.549C105.577 140.572 105.485 140.526 105.462 140.433L90.1104 89.9023L72.9052 84.1416L56.1769 95.9553L55.1001 140.41C55.1001 140.503 55.0232 140.58 54.9309 140.58Z" fill="black" stroke="black" stroke-width="0.3"/>
<path d="M80.7727 140.58C80.6881 140.58 80.6112 140.51 80.6035 140.426L77.4885 113.507C77.3809 112.553 77.7654 111.622 78.5191 111.015L80.0112 109.822C80.0805 109.761 80.1881 109.776 80.2497 109.846C80.3035 109.922 80.2958 110.03 80.2189 110.084L78.7268 111.284C78.0654 111.807 77.727 112.63 77.8269 113.468L80.9419 140.387C80.9496 140.48 80.888 140.564 80.7957 140.58C80.7855 140.58 80.7778 140.58 80.7727 140.58Z" fill="black" stroke="black" stroke-width="0.3"/>
<path d="M76.7054 48.7083L74.7365 48.4929L75.2595 41.7862C75.2595 41.7862 73.629 33.6182 67.3453 39.7173L66.1916 48.8237L64.3457 49.0544C64.3457 49.0544 65.0917 53.2999 70.3679 53.2846C74.8442 53.2769 76.7824 51.7617 76.7054 48.7083Z" fill="white"/>
<path d="M65.0914 49.1313C65.0068 49.1313 64.9376 49.0621 64.9299 48.9775C64.9145 48.8852 64.9837 48.8006 65.076 48.7929L66.0451 48.6698L67.1757 39.7019C67.1834 39.6634 67.1988 39.625 67.2295 39.6019C69.1831 37.7022 70.9059 36.9638 72.3519 37.4176C74.6746 38.1406 75.3976 41.6093 75.4207 41.7554C75.4258 41.7708 75.4284 41.7862 75.4284 41.8016L74.9207 48.3391L75.9129 48.4468C76.0052 48.4622 76.0744 48.5468 76.0667 48.639C76.0513 48.7313 75.9744 48.7929 75.8821 48.7852L74.7208 48.6621C74.6285 48.6467 74.5669 48.5698 74.5746 48.4775L75.0899 41.8016C75.0207 41.5093 74.2901 38.3713 72.2519 37.7406C70.9444 37.333 69.3446 38.0252 67.5064 39.8019L66.3604 48.839C66.3527 48.9159 66.2912 48.9775 66.2143 48.9852L65.1145 49.1236C65.1093 49.1287 65.1016 49.1313 65.0914 49.1313Z" fill="black" stroke="black" stroke-width="0.3"/>
<path d="M63.6607 34.1566C63.0147 33.0721 62.4301 31.88 62.4686 30.6186C62.5071 29.365 63.3531 28.0498 64.6067 27.8806C64.2606 26.4269 64.8375 24.8041 66.0142 23.8888C67.1987 22.9813 68.9215 22.8428 70.2367 23.5504C71.6673 21.9045 74.2284 21.443 76.2281 22.3198C78.2278 23.1966 79.5969 25.2502 79.8507 27.4191C79.9507 28.3497 79.8584 29.3342 79.3969 30.1495C78.7508 31.2954 77.4587 31.9569 76.1666 32.1569C75.4282 32.2799 74.5822 32.303 74.0823 32.8644C73.7746 33.2029 73.667 33.6797 73.5208 34.1258C72.9978 35.6794 71.7903 36.9946 70.2905 37.6561C69.0676 38.1944 66.9526 38.5175 65.745 37.7484C65.2759 37.4484 65.1836 36.8716 64.9529 36.387C64.5837 35.6102 64.0991 34.8949 63.6607 34.1566Z" fill="black"/>
<path d="M78.0818 34.9872C78.6817 37.0484 78.8894 39.3942 77.7665 41.217C76.7897 42.8091 74.8284 43.7243 72.9825 43.4628C71.1366 43.1937 69.5138 41.7631 69.0216 39.9634C67.2757 39.948 65.6067 38.702 65.0914 37.033C64.8914 36.41 64.9068 35.6101 65.4298 35.2179C66.0374 34.7718 66.8757 35.1256 67.5679 35.4179C68.2601 35.7101 68.7831 36.2254 69.1523 35.5717C68.8908 33.9104 67.6141 31.0954 70.0445 30.2725C70.9521 29.9648 76.0206 29.088 76.0206 29.088C76.0206 29.088 77.7588 33.8796 78.0818 34.9872Z" fill="white"/>
<path fill-rule="evenodd" clip-rule="evenodd" d="M73.6207 43.6783C73.4003 43.6783 73.1798 43.6629 72.9593 43.6322C71.098 43.363 69.4444 41.9324 68.8983 40.1327C67.114 40.0558 65.4527 38.7944 64.9297 37.087C64.722 36.4178 64.7143 35.541 65.3296 35.0873C66.0141 34.5796 66.914 34.9565 67.637 35.2642C67.7985 35.3257 67.9446 35.4026 68.0908 35.4795C68.6215 35.7641 68.7984 35.8102 68.9753 35.5333C68.9291 35.2488 68.8445 34.9257 68.7676 34.5873C68.383 33.0029 67.86 30.834 69.9905 30.1111C70.8981 29.8034 75.782 28.9574 75.9896 28.9189C76.0665 28.9112 76.1511 28.9574 76.1742 29.0343C76.2511 29.2266 77.9201 33.8413 78.2431 34.9411C79.0046 37.5715 78.8969 39.7097 77.9124 41.3094C77.0202 42.7631 75.3205 43.6783 73.6207 43.6783ZM66.1218 35.1796C65.9065 35.1796 65.7065 35.2257 65.5296 35.3564C65.0604 35.7026 65.0835 36.4486 65.2527 36.987C65.7526 38.5944 67.337 39.7789 69.0214 39.7943C69.0983 39.7943 69.1675 39.8481 69.1829 39.9173C69.6598 41.6478 71.2288 43.0399 73.0054 43.2938C74.7898 43.5476 76.6818 42.6554 77.6278 41.1325C78.5585 39.6174 78.6508 37.5638 77.9201 35.0334C77.6278 34.0489 76.1896 30.0649 75.905 29.2804C75.0821 29.4265 70.8981 30.1649 70.0982 30.4341C68.26 31.0571 68.7061 32.8953 69.0983 34.5104C69.1829 34.8796 69.2675 35.2257 69.3214 35.541C69.3214 35.5795 69.3214 35.6179 69.2983 35.6487C68.9368 36.3025 68.3984 36.0256 67.9293 35.7795C67.7985 35.7102 67.6524 35.6333 67.5062 35.5718C67.0525 35.3872 66.5602 35.1796 66.1218 35.1796Z" fill="black" stroke="black" stroke-width="0.3"/>
<path d="M68.329 37.9099C68.2829 37.9099 68.2367 37.8868 68.2059 37.8483C67.8291 37.4176 67.2369 37.1792 66.6754 37.2331C66.5754 37.2407 66.4985 37.1715 66.4908 37.0792C66.4831 36.9869 66.5523 36.9023 66.6446 36.8946C67.3215 36.8331 68.0137 37.1177 68.4598 37.6253C68.5213 37.6945 68.5136 37.8022 68.4444 37.8637C68.4136 37.8945 68.3675 37.9099 68.329 37.9099Z" fill="black"/>
<path fill-rule="evenodd" clip-rule="evenodd" d="M77.7808 36.3178C76.9193 36.3178 76.1271 35.6564 75.9426 34.7103C75.7272 33.649 76.3579 32.626 77.3501 32.4261C78.3345 32.2338 79.3113 32.9337 79.5267 34.0027C79.6266 34.5181 79.542 35.0334 79.2729 35.4641C79.0113 35.9025 78.596 36.1947 78.1192 36.287C78.0064 36.3075 77.8936 36.3178 77.7808 36.3178ZM77.6808 32.7337C77.5936 32.7337 77.5064 32.7414 77.4193 32.7568C76.6117 32.9183 76.0964 33.7643 76.2733 34.6488C76.4502 35.5256 77.2501 36.1178 78.0499 35.9563C78.4422 35.8794 78.7729 35.641 78.9883 35.2872C79.2036 34.9334 79.2805 34.495 79.1959 34.0643C79.0344 33.2875 78.3884 32.7337 77.6808 32.7337Z" fill="black"/>
<path fill-rule="evenodd" clip-rule="evenodd" d="M73.0279 37.2637C72.6587 37.2637 72.2895 37.1484 71.9742 36.9176C71.5665 36.6177 71.2897 36.1716 71.182 35.6563C71.082 35.1487 71.1743 34.6257 71.4358 34.195C71.6973 33.7643 72.1126 33.472 72.5972 33.372C73.074 33.2797 73.5662 33.3874 73.9816 33.6873C74.3892 33.9873 74.6661 34.4334 74.7738 34.9487C74.8738 35.4563 74.7815 35.9793 74.52 36.41C74.2508 36.8484 73.8431 37.1407 73.3586 37.233C73.2509 37.2535 73.1407 37.2637 73.0279 37.2637ZM72.9279 33.6797C72.8407 33.6797 72.751 33.6873 72.6587 33.7027C72.2741 33.7796 71.9434 34.0181 71.7204 34.3719C71.505 34.7333 71.4281 35.1641 71.5204 35.5948C71.605 36.0255 71.8357 36.3946 72.1741 36.6408C72.5126 36.8869 72.9048 36.9792 73.2971 36.9023C73.6816 36.8254 74.0123 36.5869 74.2277 36.2331C74.4507 35.8793 74.52 35.4409 74.4354 35.0102C74.3508 34.5872 74.12 34.2103 73.7816 33.9642C73.5201 33.7796 73.2278 33.6797 72.9279 33.6797Z" fill="black"/>
<path d="M74.605 35.1487C74.5743 35.1487 74.5461 35.141 74.5204 35.1257C74.4358 35.0795 74.4128 34.9718 74.4589 34.8949C74.6973 34.495 74.9819 34.2796 75.3203 34.2335C75.8126 34.1719 76.2125 34.5411 76.2279 34.5565C76.2894 34.6257 76.2971 34.7334 76.2279 34.8026C76.1664 34.8642 76.0587 34.8642 75.9895 34.8026C75.9818 34.7949 75.6972 34.5257 75.3588 34.5719C75.1357 34.6027 74.9281 34.7642 74.7512 35.0641C74.7204 35.118 74.6589 35.1487 74.605 35.1487Z" fill="black"/>
<path d="M71.3506 35.7948C71.3455 35.7948 71.3404 35.7948 71.3353 35.7948L68.3126 35.4718C68.2203 35.4641 68.1511 35.3795 68.1588 35.2872C68.1742 35.1949 68.2511 35.1257 68.3511 35.1334L71.366 35.4564C71.4583 35.4718 71.5275 35.5487 71.5198 35.6487C71.5121 35.7333 71.4352 35.7948 71.3506 35.7948Z" fill="black"/>
<path d="M102.069 71.3665C105.092 64.8598 96.378 53.6537 86.4333 49.985C82.6338 48.5775 79.1343 48.4545 76.7116 48.5929C76.504 49.2697 76.204 49.9235 75.7502 50.4772C74.8888 51.5386 73.5044 52.1308 72.1738 52.3385C70.9048 52.5385 69.5588 52.4693 68.3205 52.1232C67.1976 51.8155 66.1055 51.2464 65.2825 50.4234C64.898 50.0465 64.5903 49.6081 64.3596 49.1467C56.6222 49.762 51.7537 50.6926 47.6697 55.6842C42.4089 62.1063 38.0172 74.1969 39.3017 81.8265C40.5784 89.4639 44.0856 91.8251 48.5619 93.2941L48.3696 97.4243C48.1542 101.993 52.6767 105.3 56.9683 103.716L92.7247 90.4637C94.4629 89.8254 95.3704 87.9103 94.7782 86.1567C93.4707 83.0956 92.1632 80.037 90.8557 76.9811C99.739 75.9812 101.723 72.1126 102.069 71.3665Z" fill="#FF9536"/>
<path d="M90.2495 76.5043C90.188 76.5043 90.1342 76.4735 90.1034 76.4274L79.1973 59.476C79.1435 59.3991 79.1665 59.2914 79.2435 59.2375C79.3204 59.1914 79.428 59.2145 79.4819 59.2914L90.388 76.2428C90.4418 76.3197 90.4188 76.4274 90.3418 76.4735C90.3111 76.494 90.2803 76.5043 90.2495 76.5043Z" fill="black" stroke="black" stroke-width="0.3"/>
<path d="M85.2802 49.5081C82.6575 47.1162 83.0575 41.8862 78.312 39.7788C77.8198 40.5325 77.0199 41.2401 76.6507 41.4401C74.7971 40.0556 74.228 39.5942 72.5128 38.3405C71.9668 37.9483 71.2361 37.5868 70.5362 37.6868C70.1978 37.7329 69.7517 37.9713 69.5671 38.2559C69.1979 38.8328 69.7671 39.6019 70.1209 40.1249C71.09 41.5554 71.6976 41.84 72.6897 42.9168C72.6897 42.9168 70.2824 43.2859 70.4055 45.5548C70.4055 45.5548 68.9826 45.801 69.6286 48.5467C69.6286 48.5467 68.8211 50.6926 70.7439 51.8924C72.1206 52.7538 73.0282 52.4077 73.0282 52.4077C73.0282 52.4077 77.6506 58.1915 80.6578 60.1681C83.6651 62.1524 87.7414 51.7539 85.2802 49.5081Z" fill="white"/>
<path d="M79.0039 59.0375C78.9654 59.0375 78.9269 59.0298 78.8962 58.999C76.3427 56.7378 73.4508 53.1999 72.9663 52.6C72.6586 52.6692 71.8126 52.7615 70.6512 52.0308C68.8053 50.8772 69.3437 48.8851 69.4514 48.539C69.1899 47.3854 69.2437 46.5163 69.6206 45.9394C69.8283 45.6318 70.0744 45.4933 70.2282 45.4318C70.2051 43.6397 71.7049 43.0091 72.3664 42.8168C72.1126 42.5553 71.8895 42.3322 71.6665 42.1092C71.0742 41.5093 70.5589 40.994 69.7744 40.0172C69.5514 39.7403 69.0745 39.0327 69.3283 38.3174C69.5514 37.7021 70.259 37.4253 70.8358 37.4791C71.4127 37.5253 71.928 37.8175 72.4125 38.1175C73.3816 38.7174 73.9661 39.1942 74.5891 39.7019C75.1506 40.1633 75.7351 40.6325 76.658 41.2555C77.1349 40.9171 77.8886 40.3095 78.2194 39.6634C78.2578 39.5865 78.3578 39.548 78.4347 39.5865C81.4189 40.9324 82.4726 43.5398 83.4032 45.8317C83.9647 47.2315 84.4954 48.5467 85.3952 49.3851C85.4645 49.4466 85.4721 49.5543 85.4029 49.6235C85.3414 49.6927 85.2337 49.7004 85.1645 49.6312C84.2108 48.7467 83.6647 47.393 83.0879 45.9625C82.1957 43.7628 81.1958 41.2709 78.4424 39.9634C78.0271 40.6633 77.2195 41.2786 76.758 41.6016C76.6965 41.64 76.6273 41.64 76.5658 41.6016C75.5736 40.9401 74.966 40.4479 74.3815 39.9634C73.7662 39.4634 73.1816 38.9943 72.2356 38.402C71.7665 38.1175 71.3127 37.856 70.8127 37.8175C70.3667 37.7791 69.8129 37.979 69.6514 38.4328C69.5129 38.8174 69.6591 39.3327 70.0359 39.8018C70.8051 40.7632 71.3204 41.2786 71.9049 41.8708C72.1818 42.1477 72.474 42.4399 72.8125 42.8014C72.8509 42.8476 72.8663 42.9091 72.8509 42.9706C72.8278 43.0321 72.774 43.0706 72.7125 43.086C72.6202 43.1014 70.459 43.4628 70.5743 45.5395C70.5743 45.6318 70.5205 45.701 70.4359 45.7164C70.4205 45.7241 70.1282 45.7856 69.8975 46.1394C69.6744 46.4855 69.4745 47.17 69.7898 48.5083C69.8001 48.539 69.7975 48.5698 69.7821 48.6006C69.7514 48.6852 69.0515 50.6387 70.8281 51.7463C72.1126 52.5461 72.9663 52.2539 72.974 52.2539C73.0432 52.2231 73.1201 52.2462 73.1586 52.3077C73.197 52.3462 76.3658 56.2994 79.1192 58.7452C79.1885 58.8068 79.1961 58.9145 79.1346 58.9837C79.0962 59.0221 79.05 59.0375 79.0039 59.0375Z" fill="black" stroke="black" stroke-width="0.3"/>
<path d="M73.0059 52.5615C72.9751 52.5615 72.9469 52.5539 72.9213 52.5385C72.0291 52.0309 71.2753 51.1079 71.0215 50.4926C70.9831 50.408 71.0292 50.308 71.1138 50.2696C71.1984 50.2311 71.2984 50.2773 71.3369 50.3619C71.5368 50.8464 72.2137 51.7463 73.0828 52.2385C73.1674 52.2847 73.1981 52.3923 73.152 52.4693C73.1212 52.5308 73.0597 52.5615 73.0059 52.5615Z" fill="black" stroke="black" stroke-width="0.3"/>
<path d="M78.6573 42.5861C78.6368 42.5861 78.6188 42.581 78.6035 42.5707C78.5419 42.5553 77.1344 42.0554 76.5499 41.5939C76.4807 41.5324 76.4653 41.4247 76.5268 41.3555C76.5884 41.2786 76.696 41.2709 76.7653 41.3248C77.3036 41.7555 78.7034 42.2477 78.7111 42.2554C78.8034 42.2862 78.8496 42.3784 78.8188 42.4707C78.7957 42.54 78.7265 42.5861 78.6573 42.5861Z" fill="black" stroke="black" stroke-width="0.3"/>
<path d="M89.7102 57.1301H71.6898C71.4283 57.1301 71.2052 57.2993 71.1283 57.5454L64.2832 80.6113C64.1755 80.9805 64.4524 81.3574 64.8446 81.3574H82.8651C83.1189 81.3574 83.3496 81.1882 83.4189 80.942L90.264 57.8762C90.3794 57.4993 90.0948 57.1301 89.7102 57.1301Z" fill="black"/>
<path d="M80.4578 75.0891C81.2269 74.3431 81.7038 73.5355 81.2115 72.7433C80.7116 71.9434 79.4733 71.7588 78.7657 72.3741C79.2887 71.9665 79.8271 71.5358 80.1425 70.959C80.4578 70.3744 80.504 69.5822 80.0656 69.0823C79.681 68.6439 79.0196 68.5362 78.4504 68.6593C78.1658 68.7285 77.9043 68.8362 77.6505 68.9669C77.8966 68.5978 77.9659 68.0748 77.7505 67.6671C77.3967 66.9749 76.5199 66.675 75.7431 66.7673C74.974 66.8519 74.2664 67.2441 73.5896 67.6287C69.0441 70.1898 60.0531 75.3891 60.0531 75.3891C59.8223 76.6812 64.5524 87.0951 66.3445 88.8333C67.5058 88.4872 76.1892 81.5267 79.481 78.704C80.0348 78.2348 80.6039 77.7272 80.8808 77.0581C81.1654 76.3889 81.0577 75.4968 80.4578 75.0891Z" fill="white"/>
<path d="M72.3121 72.5972C72.2582 72.5972 72.2044 72.5664 72.1659 72.5126C72.1198 72.4357 72.1429 72.328 72.2275 72.2819C73.8888 71.2589 75.5501 70.1898 77.1729 69.1054C77.2498 69.0516 77.3498 69.0746 77.4036 69.1515C77.4575 69.2284 77.4344 69.3284 77.3575 69.3823C75.7347 70.4744 74.0657 71.5435 72.4044 72.5664C72.3736 72.5869 72.3428 72.5972 72.3121 72.5972Z" fill="black"/>
<path d="M74.4203 75.712C74.3665 75.712 74.3126 75.6889 74.2819 75.6428C74.228 75.5659 74.2434 75.4582 74.3203 75.4044L78.612 72.3356C78.6889 72.2817 78.7966 72.2971 78.8504 72.374C78.9043 72.451 78.8889 72.5586 78.812 72.6125L74.5203 75.6813C74.4895 75.7018 74.4562 75.712 74.4203 75.712Z" fill="black"/>
<path d="M76.4358 78.2732C76.3819 78.2732 76.3281 78.2424 76.2896 78.1963C76.2435 78.1194 76.2589 78.0117 76.3358 77.9578C77.6356 77.0811 78.9123 76.1274 80.1275 75.1275C80.2044 75.0737 80.3121 75.0813 80.366 75.1506C80.4275 75.2275 80.4198 75.3352 80.3429 75.389C79.12 76.3965 77.8356 77.3579 76.5281 78.2424C76.4973 78.2629 76.4665 78.2732 76.4358 78.2732Z" fill="black"/>
<path d="M52.6003 94.0094C51.3774 94.0094 50.1545 93.9094 48.9393 93.7094C48.847 93.694 48.7778 93.6094 48.7932 93.5171C48.8085 93.4249 48.9008 93.3633 48.9931 93.3787C54.9923 94.3555 61.2375 92.848 66.1291 89.2485C66.206 89.187 66.3137 89.2024 66.3675 89.2793C66.4214 89.3562 66.406 89.4639 66.3291 89.5177C62.3604 92.4404 57.4996 94.0094 52.6003 94.0094Z" fill="black" stroke="black" stroke-width="0.3"/>
<path d="M49.9156 81.4498C49.8541 81.4498 49.8002 81.419 49.7695 81.3652C49.7233 81.2805 49.7464 81.1806 49.831 81.1344L59.468 75.5583C59.5527 75.5122 59.6526 75.5429 59.6988 75.6198C59.7449 75.7044 59.7219 75.8044 59.6373 75.8506L50.0002 81.4267C49.9694 81.4421 49.9412 81.4498 49.9156 81.4498Z" fill="black" stroke="black" stroke-width="0.3"/>
<path d="M53.0004 78.9731C52.9901 78.9731 52.9799 78.9731 52.9696 78.9731C52.8773 78.9501 52.8158 78.8654 52.8389 78.7732L55.4308 66.1058C55.4539 66.0212 55.5385 65.9596 55.6308 65.975C55.723 65.9981 55.7846 66.0827 55.7615 66.175L53.1696 78.8424C53.1542 78.9193 53.085 78.9731 53.0004 78.9731Z" fill="black" stroke="black" stroke-width="0.3"/>
<path d="M99.8237 11.9445H72.9738C72.8815 11.9445 72.8045 11.8676 72.8045 11.7753V2.29203H19.9661C19.8661 2.29203 19.7969 2.21511 19.7969 2.12282C19.7969 2.03053 19.8661 1.95361 19.9661 1.95361H72.9738C73.0737 1.95361 73.143 2.03053 73.143 2.12282V11.6061H99.8237C99.916 11.6061 99.9929 11.6753 99.9929 11.7753C99.9929 11.8676 99.916 11.9445 99.8237 11.9445Z" fill="black" stroke="black" stroke-width="0.3"/>
<path d="M39.733 140.826H2.16921C2.07691 140.826 2 140.749 2 140.657V120.829C2 120.736 2.07691 120.659 2.16921 120.659H30.2728C30.3728 120.659 30.442 120.736 30.442 120.829V131.035C30.442 131.127 30.3728 131.204 30.2728 131.204C30.1805 131.204 30.1036 131.127 30.1036 131.035V120.998H2.33841V140.487H39.733C39.8253 140.487 39.9022 140.564 39.9022 140.657C39.9022 140.749 39.8253 140.826 39.733 140.826Z" fill="black" stroke="black" stroke-width="0.3"/>
<path fill-rule="evenodd" clip-rule="evenodd" d="M19.5829 113.759C19.506 113.708 19.4342 113.654 19.3675 113.598C18.7061 114.221 17.9677 114.728 17.1755 115.113C17.2063 115.195 17.2319 115.28 17.2524 115.367C17.5063 116.551 16.7525 117.713 15.5681 117.974C14.3913 118.228 13.2223 117.474 12.9685 116.29C12.9479 116.203 12.9351 116.115 12.93 116.028C12.0455 116.005 11.161 115.844 10.3073 115.551C10.2663 115.633 10.2227 115.71 10.1766 115.782C9.52281 116.797 8.16916 117.09 7.14623 116.436C6.13099 115.782 5.83873 114.429 6.49248 113.413C6.54375 113.336 6.59759 113.265 6.65399 113.198C6.03101 112.536 5.52339 111.798 5.13883 111.006C5.05679 111.037 4.97218 111.062 4.88502 111.083C3.70057 111.337 2.53151 110.583 2.27771 109.406C2.0239 108.222 2.77763 107.06 3.95439 106.799C4.04668 106.783 4.13641 106.771 4.22358 106.76C4.24665 105.884 4.40816 104.999 4.70043 104.145C4.61839 104.104 4.54148 104.061 4.46969 104.015C3.44677 103.361 3.1545 102 3.81594 100.984C4.46969 99.9691 5.82335 99.6768 6.83858 100.338C6.91549 100.384 6.98728 100.436 7.05393 100.492C7.71538 99.8768 8.45373 99.3692 9.24592 98.9769C9.21516 98.8949 9.19209 98.8103 9.1767 98.7231C8.9152 97.5387 9.66894 96.3773 10.8534 96.1235C12.0378 95.862 13.1992 96.6157 13.453 97.8002C13.4735 97.8873 13.4863 97.9745 13.4915 98.0617C14.3759 98.0847 15.2604 98.2463 16.1142 98.5385C16.1552 98.4616 16.1988 98.3847 16.2449 98.3078C16.9063 97.2926 18.26 97.0003 19.2752 97.654C20.2905 98.3078 20.5827 99.6614 19.929 100.677C19.8777 100.754 19.8239 100.825 19.7675 100.892C20.3905 101.553 20.8981 102.292 21.2826 103.084C21.3698 103.053 21.457 103.028 21.5441 103.007C22.7209 102.753 23.8899 103.507 24.1438 104.691C24.3976 105.868 23.6515 107.037 22.4671 107.291C22.3799 107.306 22.2927 107.319 22.2056 107.33C22.1748 108.206 22.021 109.091 21.721 109.952C21.8031 109.988 21.8825 110.029 21.9595 110.075C22.9747 110.737 23.267 112.09 22.6132 113.106C21.9518 114.121 20.5981 114.413 19.5829 113.759ZM15.4143 103.63C13.5299 102.415 11.0149 102.953 9.792 104.845C8.57679 106.73 9.12286 109.245 11.0072 110.46C12.8915 111.675 15.4143 111.137 16.6295 109.252C17.8447 107.36 17.3063 104.845 15.4143 103.63Z" fill="white"/>
<path fill-rule="evenodd" clip-rule="evenodd" d="M15.1061 118.19C14.0217 118.19 13.0372 117.436 12.7988 116.328C12.7936 116.287 12.786 116.241 12.7757 116.19C11.9681 116.159 11.1605 116.013 10.3914 115.759C10.3658 115.8 10.3427 115.839 10.3222 115.874C9.61462 116.967 8.15329 117.282 7.05345 116.582C6.53045 116.236 6.16127 115.713 6.03052 115.098C5.89977 114.482 6.00745 113.852 6.35355 113.321C6.37919 113.285 6.40483 113.247 6.43046 113.206C5.88439 112.606 5.42292 111.937 5.05374 111.214C5.00759 111.224 4.96145 111.234 4.9153 111.244C3.64625 111.521 2.3849 110.714 2.11571 109.437C1.97726 108.822 2.09263 108.191 2.43874 107.66C2.77715 107.137 3.30784 106.768 3.92314 106.637C3.96415 106.627 4.00774 106.619 4.05389 106.614C4.09234 105.799 4.23848 104.999 4.49229 104.222C4.45127 104.202 4.41281 104.179 4.37692 104.153C3.84623 103.815 3.47705 103.284 3.3463 102.669C3.21555 102.053 3.33091 101.423 3.66933 100.892C4.37692 99.7999 5.83824 99.4845 6.93039 100.192C6.96628 100.218 7.00474 100.243 7.04576 100.269C7.64567 99.723 8.3148 99.2615 9.03778 98.8923C9.02752 98.8462 9.01727 98.8 9.00701 98.7539C8.87626 98.1386 8.99163 97.5079 9.33004 96.9849C9.67615 96.4542 10.1991 96.085 10.8144 95.9543C12.0912 95.6774 13.3448 96.4927 13.6217 97.7617C13.632 97.8079 13.6397 97.854 13.6448 97.9002C14.4601 97.9386 15.2599 98.0848 16.0368 98.3309C16.0573 98.2898 16.0803 98.2514 16.106 98.2155C16.8059 97.1234 18.2749 96.808 19.367 97.5079C19.8977 97.854 20.2592 98.377 20.39 98.9923C20.5284 99.6076 20.413 100.238 20.0669 100.769C20.0464 100.805 20.0208 100.843 19.99 100.884C20.5361 101.484 21.0053 102.153 21.3744 102.876C21.4206 102.866 21.4642 102.856 21.5052 102.846C22.7742 102.569 24.0356 103.384 24.3125 104.653C24.4432 105.268 24.3279 105.899 23.9895 106.43C23.6433 106.96 23.1203 107.322 22.5051 107.453C22.4589 107.463 22.4128 107.473 22.3666 107.483C22.3282 108.291 22.182 109.091 21.9282 109.868C21.9692 109.888 22.0102 109.911 22.0513 109.937C22.582 110.275 22.9434 110.806 23.0742 111.421C23.2126 112.037 23.0973 112.667 22.7512 113.198C22.0513 114.29 20.5823 114.605 19.4901 113.898C19.4542 113.877 19.4158 113.852 19.3747 113.821C18.7748 114.367 18.1057 114.828 17.3827 115.198C17.393 115.244 17.4032 115.29 17.4135 115.336C17.5442 115.951 17.4366 116.582 17.0905 117.113C16.752 117.636 16.2213 118.005 15.6061 118.136C15.4368 118.172 15.2702 118.19 15.1061 118.19ZM10.3068 115.382C10.3222 115.382 10.3402 115.385 10.3607 115.39C11.1913 115.675 12.0604 115.836 12.9372 115.859C13.0218 115.867 13.091 115.928 13.0987 116.013C13.1039 116.105 13.1141 116.187 13.1295 116.259C13.3679 117.343 14.4447 118.043 15.5368 117.805C16.0598 117.69 16.5136 117.382 16.8059 116.928C17.0981 116.474 17.1981 115.936 17.0828 115.405C17.0674 115.336 17.0443 115.259 17.0135 115.167C16.9905 115.09 17.0212 114.998 17.0981 114.959C17.8903 114.575 18.6133 114.075 19.2517 113.475C19.3132 113.413 19.4132 113.413 19.4747 113.467C19.5465 113.524 19.6132 113.572 19.6747 113.613C20.613 114.221 21.8667 113.952 22.4666 113.013C22.7589 112.56 22.8588 112.021 22.7435 111.49C22.6281 110.967 22.3205 110.514 21.8667 110.221C21.8051 110.183 21.7359 110.145 21.6513 110.098C21.5744 110.068 21.536 109.975 21.5667 109.898C21.8513 109.068 22.0051 108.199 22.0359 107.322C22.0359 107.237 22.1051 107.168 22.1897 107.16C22.2769 107.15 22.3564 107.137 22.4281 107.122C22.9588 107.014 23.4126 106.699 23.7049 106.245C23.9971 105.791 24.0894 105.253 23.9818 104.722C23.7433 103.638 22.6666 102.938 21.5744 103.176C21.5026 103.192 21.4257 103.215 21.3437 103.246C21.2591 103.269 21.1745 103.238 21.136 103.161C20.7515 102.369 20.2438 101.646 19.6439 101.007C19.5901 100.946 19.5824 100.854 19.6362 100.784C19.6978 100.715 19.7439 100.654 19.7824 100.584C20.0746 100.131 20.1746 99.5922 20.0593 99.0692C19.9516 98.5385 19.6362 98.0848 19.1825 97.7925C18.2441 97.1926 16.9905 97.4618 16.3906 98.4001C16.3521 98.4616 16.3136 98.5308 16.2675 98.6154C16.229 98.6924 16.1444 98.7231 16.0598 98.7C15.2292 98.4155 14.3678 98.254 13.491 98.2309C13.4064 98.2309 13.3372 98.1617 13.3218 98.0771C13.3166 97.9848 13.3064 97.9027 13.291 97.8309C13.0526 96.7465 11.9758 96.0543 10.8914 96.285C10.3607 96.4004 9.90688 96.7157 9.61462 97.1618C9.32235 97.6156 9.22237 98.1617 9.33773 98.6847C9.35312 98.7616 9.37619 98.8308 9.40695 98.9231C9.43772 99 9.39926 99.0923 9.32235 99.1308C8.53016 99.5153 7.80719 100.015 7.16882 100.615C7.10729 100.677 7.01499 100.677 6.94577 100.623C6.87655 100.561 6.80733 100.515 6.7458 100.477C5.81517 99.8768 4.56151 100.146 3.9539 101.077C3.66164 101.53 3.56165 102.069 3.67702 102.599C3.79239 103.13 4.10003 103.576 4.55381 103.869C4.62303 103.915 4.68456 103.945 4.76917 103.992C4.84608 104.03 4.88453 104.115 4.86146 104.199C4.57689 105.03 4.41537 105.891 4.3923 106.768C4.38461 106.853 4.32308 106.922 4.23847 106.93C4.14618 106.94 4.06414 106.953 3.99236 106.968C3.46167 107.083 3.01558 107.391 2.72331 107.845C2.43105 108.299 2.33106 108.837 2.44643 109.368C2.67716 110.452 3.75393 111.152 4.84608 110.914C4.9153 110.898 4.99221 110.875 5.08451 110.844C5.16142 110.821 5.25371 110.86 5.29217 110.937C5.67673 111.721 6.17665 112.444 6.77657 113.083C6.8381 113.144 6.8381 113.244 6.78426 113.306C6.72786 113.377 6.67915 113.444 6.63813 113.506C6.34586 113.959 6.24588 114.498 6.36124 115.028C6.47661 115.551 6.78426 116.005 7.23804 116.297C8.17636 116.897 9.43003 116.628 10.0376 115.69C10.0735 115.628 10.112 115.559 10.153 115.482C10.1838 115.421 10.2453 115.382 10.3068 115.382ZM13.2064 111.275C12.4219 111.275 11.622 111.06 10.9144 110.606C9.96072 109.991 9.30697 109.045 9.06854 107.937C8.83012 106.83 9.03778 105.699 9.65307 104.753C10.9144 102.792 13.5448 102.223 15.5061 103.484C16.4598 104.099 17.1135 105.045 17.352 106.153C17.5904 107.26 17.3827 108.391 16.7751 109.345C15.9599 110.598 14.5985 111.275 13.2064 111.275ZM13.2141 103.153C11.9374 103.153 10.6837 103.784 9.93765 104.938C9.3685 105.807 9.18391 106.853 9.39926 107.868C9.62231 108.883 10.2222 109.752 11.099 110.321C12.9064 111.483 15.3215 110.96 16.4905 109.16C17.052 108.283 17.2443 107.245 17.0212 106.222C16.8059 105.207 16.1983 104.338 15.3215 103.769C14.6754 103.353 13.9448 103.153 13.2141 103.153Z" fill="black" stroke="black" stroke-width="0.3"/>
<path fill-rule="evenodd" clip-rule="evenodd" d="M31.4796 97.2079C31.4334 97.1976 31.3898 97.1823 31.3488 97.1617C31.1181 97.5771 30.8258 97.9462 30.4874 98.2616C30.5182 98.2975 30.5438 98.3359 30.5643 98.377C30.8797 98.9307 30.6874 99.6306 30.1336 99.946C29.5875 100.254 28.8876 100.061 28.5723 99.5076C28.5467 99.4665 28.5261 99.4255 28.5108 99.3845C28.0647 99.5076 27.6032 99.5691 27.1264 99.5537C27.1212 99.5999 27.111 99.646 27.0956 99.6921C26.9264 100.307 26.2957 100.661 25.6881 100.492C25.0728 100.323 24.719 99.6921 24.8882 99.0845C24.8985 99.0384 24.9139 98.9948 24.9344 98.9538C24.519 98.7231 24.1499 98.4308 23.8268 98.0924C23.7909 98.1231 23.7525 98.1488 23.7115 98.1693C23.1654 98.4846 22.4655 98.2924 22.1502 97.7386C21.8348 97.1848 22.0271 96.4849 22.5809 96.1773C22.6219 96.1516 22.6629 96.1311 22.7039 96.1157C22.5809 95.6697 22.5193 95.2082 22.5347 94.7313C22.4886 94.7262 22.4424 94.7159 22.3963 94.7006C21.7887 94.5314 21.4272 93.9007 21.5964 93.2931C21.7656 92.6855 22.3963 92.324 23.0116 92.4932C23.0577 92.5034 23.1013 92.5188 23.1423 92.5393C23.3731 92.124 23.6653 91.7548 23.996 91.4395C23.9704 91.4036 23.9473 91.3652 23.9268 91.3241C23.6115 90.7704 23.8038 90.0705 24.3575 89.7551C24.9036 89.4475 25.6035 89.6398 25.9188 90.1935C25.9393 90.2345 25.9599 90.2756 25.9804 90.3166C26.4265 90.1935 26.8879 90.132 27.3648 90.1474C27.3699 90.1012 27.3802 90.0551 27.3955 90.0089C27.5647 89.4013 28.1954 89.0398 28.803 89.2091C29.4183 89.3783 29.7721 90.0089 29.6029 90.6165C29.5927 90.6627 29.5773 90.7063 29.5568 90.7473C29.9721 90.9857 30.3413 91.2703 30.6643 91.6087C30.7002 91.5779 30.7386 91.5523 30.7797 91.5318C31.3257 91.2165 32.0256 91.4087 32.341 91.9625C32.6563 92.5163 32.464 93.2162 31.9103 93.5238C31.8693 93.5494 31.8282 93.57 31.7872 93.5853C31.9103 94.0314 31.9641 94.5006 31.9564 94.9698C32.0026 94.9749 32.0487 94.9851 32.0949 95.0005C32.7025 95.1697 33.0639 95.8004 32.8947 96.408C32.7255 97.0233 32.0949 97.3771 31.4796 97.2079ZM27.8109 92.8008C26.6803 92.4855 25.5035 93.1546 25.1882 94.2852C24.8805 95.4158 25.542 96.5926 26.6803 96.9002C27.8109 97.2156 28.9876 96.5541 29.2953 95.4158C29.6106 94.2852 28.9492 93.1085 27.8109 92.8008Z" fill="white"/>
<path fill-rule="evenodd" clip-rule="evenodd" d="M25.9886 100.707C25.8758 100.707 25.7604 100.689 25.6425 100.654C25.3041 100.561 25.0195 100.346 24.8503 100.038C24.6734 99.7306 24.6273 99.3768 24.7195 99.0384C24.7247 99.0333 24.7272 99.0307 24.7272 99.0307C24.3888 98.8231 24.0812 98.5846 23.8043 98.3155C23.8043 98.3155 23.8017 98.3155 23.7966 98.3155C23.1659 98.6769 22.3584 98.4539 22.0046 97.8232C21.8277 97.5156 21.7892 97.1618 21.8815 96.8234C21.9738 96.485 22.1891 96.2004 22.4968 96.0312C22.5019 96.026 22.5045 96.0235 22.5045 96.0235C22.4122 95.6466 22.366 95.262 22.366 94.8698C22.3609 94.8698 22.3558 94.8698 22.3507 94.8698C22.0122 94.7698 21.7354 94.5545 21.5585 94.2468C21.3893 93.9392 21.3431 93.5854 21.4354 93.247C21.6277 92.5471 22.3583 92.1394 23.0582 92.3317C23.0582 92.3317 23.0608 92.3317 23.0659 92.3317C23.2659 92.001 23.5043 91.6933 23.7812 91.4165C23.7812 91.4113 23.7787 91.4088 23.7735 91.4088C23.6043 91.1011 23.5582 90.7473 23.6505 90.4089C23.7428 90.0705 23.9658 89.7859 24.2735 89.609C24.9041 89.2552 25.7117 89.4783 26.0655 90.109C26.0655 90.109 26.0681 90.1115 26.0732 90.1166C26.4501 90.0244 26.8346 89.9782 27.2269 89.9705C27.2269 89.9705 27.2294 89.9679 27.2346 89.9628C27.4268 89.2629 28.1498 88.8553 28.8497 89.0476C29.1881 89.1399 29.4727 89.3552 29.6419 89.6629C29.8188 89.9705 29.865 90.3243 29.7727 90.6627C29.7675 90.6678 29.765 90.6704 29.765 90.6704C30.1034 90.8781 30.411 91.1165 30.6879 91.3857C30.6879 91.3857 30.6905 91.3857 30.6956 91.3857C31.3263 91.0242 32.1338 91.2473 32.4876 91.8779C32.6645 92.1856 32.703 92.5394 32.6107 92.8778C32.5184 93.2162 32.2954 93.5008 31.9954 93.67C31.9903 93.6751 31.9852 93.6777 31.98 93.6777C32.08 94.0545 32.1262 94.4468 32.1262 94.8313C32.1313 94.8313 32.1338 94.8339 32.1338 94.839C32.48 94.9313 32.7568 95.1467 32.9337 95.4543C33.1029 95.762 33.1491 96.1158 33.0568 96.4542C32.8645 97.1541 32.1338 97.5617 31.434 97.3694C31.434 97.3694 31.4314 97.3694 31.4263 97.3694C31.2263 97.7002 30.9879 98.0078 30.711 98.2847C30.711 98.2898 30.7135 98.2949 30.7187 98.3001C30.8879 98.6 30.934 98.9538 30.8417 99.2922C30.7417 99.6383 30.5264 99.9152 30.2187 100.092C29.5881 100.446 28.7805 100.223 28.4267 99.5922C28.4216 99.5922 28.419 99.5896 28.419 99.5845C28.0421 99.6768 27.6576 99.7306 27.2653 99.7306C27.2653 99.7306 27.2628 99.7332 27.2576 99.7383C27.0961 100.323 26.5654 100.707 25.9886 100.707ZM23.8274 97.9232C23.8735 97.9232 23.9197 97.9463 23.9504 97.977C24.2658 98.3078 24.6196 98.5846 25.0118 98.8077C25.0887 98.8461 25.1195 98.9384 25.0887 99.0154C25.0733 99.0512 25.0605 99.0897 25.0503 99.1307C24.981 99.3768 25.0118 99.646 25.1426 99.8691C25.2733 100.1 25.481 100.261 25.7348 100.331C26.2501 100.477 26.7885 100.169 26.9346 99.646C26.9449 99.6101 26.9526 99.5717 26.9577 99.5307C26.9731 99.4461 27.05 99.3845 27.1269 99.3845C27.5807 99.3999 28.0344 99.3461 28.4652 99.223C28.5498 99.1999 28.6344 99.2384 28.6651 99.323C28.6805 99.3589 28.6985 99.3948 28.719 99.4307C28.9882 99.8998 29.5804 100.061 30.0495 99.7922C30.2803 99.6691 30.4418 99.4537 30.511 99.2076C30.5802 98.9538 30.5495 98.6923 30.4187 98.4616C30.3982 98.4308 30.3777 98.3975 30.3572 98.3616C30.3033 98.2924 30.311 98.2001 30.3726 98.1386C30.7033 97.8309 30.9802 97.4771 31.2032 97.0772C31.2417 97.008 31.334 96.9772 31.4109 97.008C31.4519 97.0233 31.4904 97.0362 31.5262 97.0464C32.0492 97.1925 32.5876 96.8849 32.7261 96.3619C32.7953 96.1158 32.7645 95.8466 32.6338 95.6235C32.5107 95.3928 32.2954 95.2313 32.0492 95.1621C32.0082 95.1518 31.9698 95.1441 31.9339 95.139C31.8493 95.1236 31.7877 95.0544 31.7877 94.9698C31.7954 94.516 31.7416 94.0622 31.6185 93.6315C31.5955 93.5469 31.6416 93.4623 31.7185 93.4316C31.7544 93.4162 31.7903 93.3982 31.8262 93.3777C32.0569 93.247 32.2185 93.0393 32.2877 92.7855C32.3569 92.5394 32.3261 92.2702 32.1954 92.0471C31.9262 91.578 31.3263 91.4088 30.8648 91.678C30.8289 91.6985 30.7956 91.7215 30.7648 91.7472C30.6956 91.7933 30.5956 91.7856 30.5418 91.7241C30.2264 91.3934 29.8726 91.1165 29.4804 90.9011C29.4035 90.855 29.3727 90.7627 29.4035 90.6858C29.4189 90.6499 29.4317 90.6114 29.4419 90.5704C29.5112 90.3243 29.4804 90.0551 29.3496 89.8321C29.2189 89.6013 29.0112 89.4398 28.7574 89.3706C28.2421 89.2245 27.7037 89.5321 27.5576 90.0551C27.5473 90.091 27.5396 90.1295 27.5345 90.1705C27.5191 90.2551 27.4499 90.3166 27.3576 90.3166C26.9115 90.3012 26.4578 90.3551 26.027 90.4781C25.9424 90.5012 25.8578 90.4628 25.8271 90.3781C25.8117 90.3423 25.7937 90.3064 25.7732 90.2705C25.504 89.809 24.9041 89.6398 24.4427 89.909C24.2119 90.032 24.0504 90.2474 23.9812 90.4935C23.912 90.7473 23.9427 91.0088 24.0735 91.2396C24.094 91.2755 24.1145 91.3088 24.135 91.3395C24.1888 91.4088 24.1812 91.5011 24.1196 91.5626C23.7889 91.8702 23.512 92.2317 23.289 92.624C23.2505 92.6932 23.1582 92.724 23.0736 92.6932C23.0377 92.6778 23.0018 92.665 22.966 92.6547C22.443 92.5086 21.9046 92.8163 21.7584 93.3393C21.6892 93.5931 21.7277 93.8546 21.8507 94.0776C21.9815 94.3083 22.1891 94.4699 22.4429 94.5391C22.484 94.5493 22.5224 94.557 22.5583 94.5622C22.6429 94.5775 22.7045 94.6468 22.7045 94.7391C22.6968 95.1851 22.7506 95.6389 22.8737 96.0696C22.8967 96.1542 22.8506 96.2388 22.7737 96.2696C22.7378 96.285 22.7019 96.3029 22.666 96.3234C22.4353 96.4542 22.2737 96.6618 22.2045 96.9157C22.1353 97.1618 22.1661 97.431 22.2968 97.654C22.566 98.1232 23.1582 98.2924 23.6274 98.0232C23.6633 98.0027 23.6966 97.9822 23.7274 97.9617C23.7581 97.9386 23.7966 97.9232 23.8274 97.9232ZM27.2423 97.1464C27.0423 97.1464 26.8346 97.1233 26.6346 97.0695C26.0424 96.9003 25.5502 96.5157 25.2425 95.985C24.9426 95.4543 24.8657 94.8313 25.0272 94.2391C25.3656 93.0162 26.6346 92.3009 27.8575 92.6394C28.4498 92.8009 28.942 93.1854 29.2497 93.7161C29.5496 94.2545 29.6265 94.8698 29.465 95.462C29.1804 96.4773 28.2575 97.1464 27.2423 97.1464ZM27.2499 92.8932C26.3885 92.8932 25.5963 93.4623 25.3579 94.3314C25.2195 94.8313 25.281 95.362 25.5425 95.8158C25.7963 96.2696 26.2193 96.6003 26.7269 96.7388C27.7653 97.031 28.8497 96.4157 29.1343 95.3697C29.2727 94.8698 29.2112 94.3391 28.9497 93.8853C28.6959 93.4315 28.2729 93.1008 27.7653 92.9624C27.5909 92.9162 27.4191 92.8932 27.2499 92.8932Z" fill="black" stroke="black" stroke-width="0.3"/>
<path d="M208.263 50.2989C208.168 50.2989 208.102 50.2255 208.102 50.1374V20.0303H198.007C197.919 20.0303 197.846 19.9569 197.846 19.8688C197.846 19.7807 197.919 19.7073 198.007 19.7073H208.263C208.351 19.7073 208.425 19.7807 208.425 19.8688V50.1374C208.425 50.2255 208.351 50.2989 208.263 50.2989Z" fill="black" stroke="black" stroke-width="0.3"/>
<path d="M206.635 54.3365C206.635 53.4482 207.354 52.7288 208.243 52.7288C209.138 52.7288 209.858 53.4482 209.858 54.3365C209.858 55.2322 209.138 55.9516 208.243 55.9516C207.354 55.9516 206.635 55.2322 206.635 54.3365Z" fill="black"/>
<path d="M206.635 59.7179C206.635 58.8222 207.354 58.1028 208.243 58.1028C209.138 58.1028 209.858 58.8222 209.858 59.7179C209.858 60.6062 209.138 61.3257 208.243 61.3257C207.354 61.3257 206.635 60.6062 206.635 59.7179Z" fill="black"/>
<path d="M206.635 65.0918C206.635 64.2035 207.354 63.4767 208.243 63.4767C209.138 63.4767 209.858 64.2035 209.858 65.0918C209.858 65.9801 209.138 66.7069 208.243 66.7069C207.354 66.7069 206.635 65.9801 206.635 65.0918Z" fill="black"/>
<path d="M192.155 123.64H116.45C115.202 123.64 114.182 122.626 114.182 121.371V21.873C114.182 20.6176 115.202 19.6045 116.45 19.6045H192.155C193.41 19.6045 194.423 20.6176 194.423 21.873V121.371C194.423 122.626 193.41 123.64 192.155 123.64Z" fill="white"/>
<path fill-rule="evenodd" clip-rule="evenodd" d="M192.152 123.801H116.448C115.111 123.801 114.018 122.707 114.018 121.371V21.873C114.018 20.5295 115.111 19.443 116.448 19.443H192.152C193.488 19.443 194.582 20.5295 194.582 21.873V121.371C194.582 122.707 193.488 123.801 192.152 123.801ZM116.448 19.766C115.288 19.766 114.341 20.7057 114.341 21.873V121.371C114.341 122.531 115.288 123.478 116.448 123.478H192.152C193.312 123.478 194.259 122.531 194.259 121.371V21.873C194.259 20.7057 193.312 19.766 192.152 19.766H116.448Z" fill="black" stroke="black" stroke-width="0.3"/>
<path d="M164.129 15.1335C164.129 19.6411 160.466 23.2972 155.943 23.2972C151.421 23.2972 147.758 19.6411 147.758 15.1335C147.758 10.6185 151.421 6.96252 155.943 6.96252C160.466 6.96252 164.129 10.6185 164.129 15.1335Z" fill="white"/>
<path fill-rule="evenodd" clip-rule="evenodd" d="M155.943 23.4587C151.34 23.4587 147.596 19.7219 147.596 15.1335C147.596 10.5378 151.34 6.80103 155.943 6.80103C160.546 6.80103 164.29 10.5378 164.29 15.1335C164.29 19.7219 160.546 23.4587 155.943 23.4587ZM155.943 7.12405C151.523 7.12405 147.926 10.714 147.926 15.1335C147.926 19.5457 151.523 23.1357 155.943 23.1357C160.37 23.1357 163.967 19.5457 163.967 15.1335C163.967 10.714 160.37 7.12405 155.943 7.12405Z" fill="black" stroke="black" stroke-width="0.3"/>
<path d="M181.561 50.24H169.396C169.308 50.24 169.234 50.1666 169.234 50.0785V37.9431C169.234 37.8477 169.308 37.7743 169.396 37.7743H180.863C180.951 37.7743 181.025 37.8477 181.025 37.9431C181.025 38.0312 180.951 38.1047 180.863 38.1047H169.557V49.917H181.399V41.2027C181.399 41.1146 181.465 41.0412 181.561 41.0412C181.649 41.0412 181.722 41.1146 181.722 41.2027V50.0785C181.722 50.1666 181.649 50.24 181.561 50.24Z" fill="black" stroke="black" stroke-width="0.3"/>
<path d="M175.481 48.1552C175.422 48.1552 175.378 48.1332 175.349 48.0891L170.584 41.4305C170.526 41.3571 170.548 41.2543 170.621 41.2029C170.695 41.1515 170.79 41.1735 170.841 41.2396L175.481 47.7147L183.652 36.3502C183.703 36.2768 183.799 36.2621 183.872 36.3135C183.946 36.3649 183.968 36.4677 183.909 36.5411L175.606 48.0891C175.577 48.1332 175.532 48.1552 175.481 48.1552Z" fill="black" stroke="black" stroke-width="0.3"/>
<path d="M181.561 71.0969H169.396C169.308 71.0969 169.234 71.0235 169.234 70.9354V58.7927C169.234 58.7046 169.308 58.6312 169.396 58.6312H180.863C180.951 58.6312 181.025 58.7046 181.025 58.7927C181.025 58.8808 180.951 58.9542 180.863 58.9542H169.557V70.7739H181.399V62.0523C181.399 61.9642 181.465 61.8908 181.561 61.8908C181.649 61.8908 181.722 61.9642 181.722 62.0523V70.9354C181.722 71.0235 181.649 71.0969 181.561 71.0969Z" fill="black" stroke="black" stroke-width="0.3"/>
<path d="M175.481 69.0122C175.422 69.0122 175.378 68.9829 175.349 68.9462L170.584 62.2875C170.526 62.2141 170.548 62.1113 170.621 62.0599C170.695 62.0085 170.79 62.0232 170.841 62.0966L175.481 68.5718L183.652 57.2073C183.703 57.1339 183.799 57.1192 183.872 57.1706C183.946 57.222 183.968 57.3247 183.909 57.3908L175.606 68.9462C175.577 68.9829 175.532 69.0122 175.481 69.0122Z" fill="black" stroke="black" stroke-width="0.3"/>
<path d="M160.988 39.8446H149.792C149.704 39.8446 149.631 39.7712 149.631 39.6831C149.631 39.595 149.704 39.5216 149.792 39.5216H160.988C161.076 39.5216 161.15 39.595 161.15 39.6831C161.15 39.7712 161.076 39.8446 160.988 39.8446Z" fill="black" stroke="black" stroke-width="0.3"/>
<path d="M147.632 39.8446H136.855C136.767 39.8446 136.693 39.7712 136.693 39.6831C136.693 39.595 136.767 39.5216 136.855 39.5216H147.632C147.72 39.5216 147.794 39.595 147.794 39.6831C147.794 39.7712 147.72 39.8446 147.632 39.8446Z" fill="black" stroke="black" stroke-width="0.3"/>
<path d="M134.699 39.8446H127.16C127.071 39.8446 126.998 39.7712 126.998 39.6831C126.998 39.595 127.071 39.5216 127.16 39.5216H134.699C134.795 39.5216 134.861 39.595 134.861 39.6831C134.861 39.7712 134.795 39.8446 134.699 39.8446Z" fill="black" stroke="black" stroke-width="0.3"/>
<path d="M158.83 44.0145H154.572C154.484 44.0145 154.41 43.9411 154.41 43.853C154.41 43.7649 154.484 43.6915 154.572 43.6915H158.83C158.925 43.6915 158.991 43.7649 158.991 43.853C158.991 43.9411 158.925 44.0145 158.83 44.0145Z" fill="black" stroke="black" stroke-width="0.3"/>
<path d="M152.417 44.0145H133.96C133.865 44.0145 133.799 43.9411 133.799 43.853C133.799 43.7649 133.865 43.6915 133.96 43.6915H152.417C152.505 43.6915 152.578 43.7649 152.578 43.853C152.578 43.9411 152.505 44.0145 152.417 44.0145Z" fill="black" stroke="black" stroke-width="0.3"/>
<path d="M131.799 44.0145H125.001C124.913 44.0145 124.84 43.9411 124.84 43.853C124.84 43.7649 124.913 43.6915 125.001 43.6915H131.799C131.888 43.6915 131.961 43.7649 131.961 43.853C131.961 43.9411 131.888 44.0145 131.799 44.0145Z" fill="black" stroke="black" stroke-width="0.3"/>
<path d="M160.989 48.1845H143.046C142.958 48.1845 142.885 48.1184 142.885 48.023C142.885 47.9349 142.958 47.8615 143.046 47.8615H160.989C161.077 47.8615 161.15 47.9349 161.15 48.023C161.15 48.1184 161.077 48.1845 160.989 48.1845Z" fill="black" stroke="black" stroke-width="0.3"/>
<path d="M140.888 48.1845H125.001C124.913 48.1845 124.84 48.1184 124.84 48.023C124.84 47.9349 124.913 47.8615 125.001 47.8615H140.888C140.976 47.8615 141.05 47.9349 141.05 48.023C141.05 48.1184 140.976 48.1845 140.888 48.1845Z" fill="black" stroke="black" stroke-width="0.3"/>
<path fill-rule="evenodd" clip-rule="evenodd" d="M192.425 120.49H116.177C116.089 120.49 116.016 120.417 116.016 120.329V30.9176C116.016 30.8295 116.089 30.7561 116.177 30.7561H192.425C192.513 30.7561 192.586 30.8295 192.586 30.9176V120.329C192.586 120.417 192.513 120.49 192.425 120.49ZM116.339 120.167H192.263V31.0791H116.339V120.167Z" fill="black" stroke="black" stroke-width="0.3"/>
<path d="M172.186 32.8411H139.193V15.0602H172.186V32.8411Z" fill="white"/>
<path fill-rule="evenodd" clip-rule="evenodd" d="M172.185 33.0026H139.193C139.105 33.0026 139.031 32.9292 139.031 32.8411V15.0602C139.031 14.9721 139.105 14.8987 139.193 14.8987H172.185C172.273 14.8987 172.347 14.9721 172.347 15.0602V32.8411C172.347 32.9292 172.273 33.0026 172.185 33.0026ZM139.362 32.6796H172.024V15.2217H139.362V32.6796Z" fill="black" stroke="black" stroke-width="0.3"/>
<path d="M160.989 60.7017H143.046C142.958 60.7017 142.885 60.6283 142.885 60.5402C142.885 60.4521 142.958 60.3787 143.046 60.3787H160.989C161.077 60.3787 161.15 60.4521 161.15 60.5402C161.15 60.6283 161.077 60.7017 160.989 60.7017Z" fill="black" stroke="black" stroke-width="0.3"/>
<path d="M140.888 60.7017H125.001C124.913 60.7017 124.84 60.6283 124.84 60.5402C124.84 60.4521 124.913 60.3787 125.001 60.3787H140.888C140.976 60.3787 141.05 60.4521 141.05 60.5402C141.05 60.6283 140.976 60.7017 140.888 60.7017Z" fill="black" stroke="black" stroke-width="0.3"/>
<path d="M160.991 64.8715H146.609C146.521 64.8715 146.447 64.7981 146.447 64.71C146.447 64.6219 146.521 64.5485 146.609 64.5485H160.991C161.079 64.5485 161.152 64.6219 161.152 64.71C161.152 64.7981 161.079 64.8715 160.991 64.8715Z" fill="black" stroke="black" stroke-width="0.3"/>
<path d="M144.45 64.8715H134.796C134.708 64.8715 134.635 64.7981 134.635 64.71C134.635 64.6219 134.708 64.5485 134.796 64.5485H144.45C144.538 64.5485 144.612 64.6219 144.612 64.71C144.612 64.7981 144.538 64.8715 144.45 64.8715Z" fill="black" stroke="black" stroke-width="0.3"/>
<path d="M132.644 64.8715H125.001C124.913 64.8715 124.84 64.7981 124.84 64.71C124.84 64.6219 124.913 64.5485 125.001 64.5485H132.644C132.732 64.5485 132.805 64.6219 132.805 64.71C132.805 64.7981 132.732 64.8715 132.644 64.8715Z" fill="black" stroke="black" stroke-width="0.3"/>
<path d="M148.046 69.0415H139.669C139.581 69.0415 139.508 68.9681 139.508 68.88C139.508 68.7919 139.581 68.7185 139.669 68.7185H148.046C148.134 68.7185 148.207 68.7919 148.207 68.88C148.207 68.9681 148.134 69.0415 148.046 69.0415Z" fill="black" stroke="black" stroke-width="0.3"/>
<path d="M137.511 69.0415H125.001C124.913 69.0415 124.84 68.9681 124.84 68.88C124.84 68.7919 124.913 68.7185 125.001 68.7185H137.511C137.607 68.7185 137.673 68.7919 137.673 68.88C137.673 68.9681 137.607 69.0415 137.511 69.0415Z" fill="black" stroke="black" stroke-width="0.3"/>
<path d="M181.561 91.6014H169.396C169.308 91.6014 169.234 91.528 169.234 91.4399V79.3046C169.234 79.2165 169.308 79.1431 169.396 79.1431H180.863C180.951 79.1431 181.025 79.2165 181.025 79.3046C181.025 79.3927 180.951 79.4661 180.863 79.4661H169.557V91.2784H181.399V82.5642C181.399 82.4761 181.465 82.4027 181.561 82.4027C181.649 82.4027 181.722 82.4761 181.722 82.5642V91.4399C181.722 91.528 181.649 91.6014 181.561 91.6014Z" fill="black" stroke="black" stroke-width="0.3"/>
<path d="M175.481 89.5168C175.422 89.5168 175.378 89.4947 175.349 89.4507L170.584 82.792C170.526 82.7186 170.548 82.6232 170.621 82.5645C170.695 82.5131 170.79 82.5351 170.841 82.6085L175.481 89.0836L183.652 77.7118C183.703 77.6384 183.799 77.6237 183.872 77.6751C183.946 77.7265 183.968 77.8292 183.909 77.9027L175.606 89.4507C175.577 89.4947 175.532 89.5168 175.481 89.5168Z" fill="black" stroke="black" stroke-width="0.3"/>
<path d="M181.561 112.459H169.396C169.308 112.459 169.234 112.385 169.234 112.297V100.154C169.234 100.066 169.308 99.9928 169.396 99.9928H180.863C180.951 99.9928 181.025 100.066 181.025 100.154C181.025 100.25 180.951 100.316 180.863 100.316H169.557V112.135H181.399V103.421C181.399 103.326 181.465 103.252 181.561 103.252C181.649 103.252 181.722 103.326 181.722 103.421V112.297C181.722 112.385 181.649 112.459 181.561 112.459Z" fill="black" stroke="black" stroke-width="0.3"/>
<path d="M175.481 110.374C175.422 110.374 175.378 110.352 175.349 110.308L170.584 103.649C170.526 103.575 170.548 103.473 170.621 103.421C170.695 103.37 170.79 103.385 170.841 103.458L175.481 109.933L183.652 98.5686C183.703 98.4952 183.799 98.4805 183.872 98.5319C183.946 98.5833 183.968 98.6861 183.909 98.7595L175.606 110.308C175.577 110.352 175.532 110.374 175.481 110.374Z" fill="black" stroke="black" stroke-width="0.3"/>
<path d="M160.988 81.2062H149.792C149.704 81.2062 149.631 81.1328 149.631 81.0447C149.631 80.9566 149.704 80.8832 149.792 80.8832H160.988C161.076 80.8832 161.15 80.9566 161.15 81.0447C161.15 81.1328 161.076 81.2062 160.988 81.2062Z" fill="black" stroke="black" stroke-width="0.3"/>
<path d="M147.632 81.2062H136.855C136.767 81.2062 136.693 81.1328 136.693 81.0447C136.693 80.9566 136.767 80.8832 136.855 80.8832H147.632C147.72 80.8832 147.794 80.9566 147.794 81.0447C147.794 81.1328 147.72 81.2062 147.632 81.2062Z" fill="black" stroke="black" stroke-width="0.3"/>
<path d="M134.699 81.2062H127.16C127.071 81.2062 126.998 81.1328 126.998 81.0447C126.998 80.9566 127.071 80.8832 127.16 80.8832H134.699C134.795 80.8832 134.861 80.9566 134.861 81.0447C134.861 81.1328 134.795 81.2062 134.699 81.2062Z" fill="black" stroke="black" stroke-width="0.3"/>
<path d="M158.83 85.3761H154.572C154.484 85.3761 154.41 85.3101 154.41 85.2146C154.41 85.1265 154.484 85.0531 154.572 85.0531H158.83C158.925 85.0531 158.991 85.1265 158.991 85.2146C158.991 85.3101 158.925 85.3761 158.83 85.3761Z" fill="black" stroke="black" stroke-width="0.3"/>
<path d="M152.417 85.3761H133.96C133.865 85.3761 133.799 85.3101 133.799 85.2146C133.799 85.1265 133.865 85.0531 133.96 85.0531H152.417C152.505 85.0531 152.578 85.1265 152.578 85.2146C152.578 85.3101 152.505 85.3761 152.417 85.3761Z" fill="black" stroke="black" stroke-width="0.3"/>
<path d="M131.799 85.3761H125.001C124.913 85.3761 124.84 85.3101 124.84 85.2146C124.84 85.1265 124.913 85.0531 125.001 85.0531H131.799C131.888 85.0531 131.961 85.1265 131.961 85.2146C131.961 85.3101 131.888 85.3761 131.799 85.3761Z" fill="black" stroke="black" stroke-width="0.3"/>
<path d="M160.989 89.5534H143.046C142.958 89.5534 142.885 89.48 142.885 89.3845C142.885 89.2964 142.958 89.223 143.046 89.223H160.989C161.077 89.223 161.15 89.2964 161.15 89.3845C161.15 89.48 161.077 89.5534 160.989 89.5534Z" fill="black" stroke="black" stroke-width="0.3"/>
<path d="M140.888 89.5534H125.001C124.913 89.5534 124.84 89.48 124.84 89.3845C124.84 89.2964 124.913 89.223 125.001 89.223H140.888C140.976 89.223 141.05 89.2964 141.05 89.3845C141.05 89.48 140.976 89.5534 140.888 89.5534Z" fill="black" stroke="black" stroke-width="0.3"/>
<path d="M160.989 102.063H143.046C142.958 102.063 142.885 101.989 142.885 101.901C142.885 101.813 142.958 101.74 143.046 101.74H160.989C161.077 101.74 161.15 101.813 161.15 101.901C161.15 101.989 161.077 102.063 160.989 102.063Z" fill="black" stroke="black" stroke-width="0.3"/>
<path d="M140.888 102.063H125.001C124.913 102.063 124.84 101.989 124.84 101.901C124.84 101.813 124.913 101.74 125.001 101.74H140.888C140.976 101.74 141.05 101.813 141.05 101.901C141.05 101.989 140.976 102.063 140.888 102.063Z" fill="black" stroke="black" stroke-width="0.3"/>
<path d="M160.991 106.233H146.609C146.521 106.233 146.447 106.16 146.447 106.072C146.447 105.983 146.521 105.91 146.609 105.91H160.991C161.079 105.91 161.152 105.983 161.152 106.072C161.152 106.16 161.079 106.233 160.991 106.233Z" fill="black" stroke="black" stroke-width="0.3"/>
<path d="M144.45 106.233H134.796C134.708 106.233 134.635 106.16 134.635 106.072C134.635 105.983 134.708 105.91 134.796 105.91H144.45C144.538 105.91 144.612 105.983 144.612 106.072C144.612 106.16 144.538 106.233 144.45 106.233Z" fill="black" stroke="black" stroke-width="0.3"/>
<path d="M132.644 106.233H125.001C124.913 106.233 124.84 106.16 124.84 106.072C124.84 105.983 124.913 105.91 125.001 105.91H132.644C132.732 105.91 132.805 105.983 132.805 106.072C132.805 106.16 132.732 106.233 132.644 106.233Z" fill="black" stroke="black" stroke-width="0.3"/>
<path d="M145.286 110.403H139.669C139.581 110.403 139.508 110.33 139.508 110.241C139.508 110.153 139.581 110.08 139.669 110.08H145.286C145.374 110.08 145.447 110.153 145.447 110.241C145.447 110.33 145.374 110.403 145.286 110.403Z" fill="black" stroke="black" stroke-width="0.3"/>
<path d="M137.511 110.403H125.001C124.913 110.403 124.84 110.33 124.84 110.241C124.84 110.153 124.913 110.08 125.001 110.08H137.511C137.607 110.08 137.673 110.153 137.673 110.241C137.673 110.33 137.607 110.403 137.511 110.403Z" fill="black" stroke="black" stroke-width="0.3"/>
<path d="M6.09119 2.04584C6.09119 3.08415 5.25285 3.92249 4.21454 3.92249C3.18392 3.92249 2.33789 3.08415 2.33789 2.04584C2.33789 1.00753 3.18392 0.169189 4.21454 0.169189C5.25285 0.169189 6.09119 1.00753 6.09119 2.04584Z" fill="#E9E9E9"/>
<path d="M11.5678 2.04584C11.5678 3.08415 10.7294 3.92249 9.6911 3.92249C8.65279 3.92249 7.81445 3.08415 7.81445 2.04584C7.81445 1.00753 8.65279 0.169189 9.6911 0.169189C10.7294 0.169189 11.5678 1.00753 11.5678 2.04584Z" fill="#E9E9E9"/>
<path d="M17.0366 2.04584C17.0366 3.08415 16.1983 3.92249 15.16 3.92249C14.1294 3.92249 13.291 3.08415 13.291 2.04584C13.291 1.00753 14.1294 0.169189 15.16 0.169189C16.1983 0.169189 17.0366 1.00753 17.0366 2.04584Z" fill="white"/>
<path d="M29.6654 7.99881H25.2122C25.1199 7.99881 25.043 7.9219 25.043 7.82961C25.043 7.73731 25.1199 7.6604 25.2122 7.6604H29.6654C29.7577 7.6604 29.8346 7.73731 29.8346 7.82961C29.8346 7.9219 29.7577 7.99881 29.6654 7.99881Z" fill="black" stroke="black" stroke-width="0.3"/>
<path d="M21.5517 7.99881H2.33913C2.24683 7.99881 2.16992 7.9219 2.16992 7.82961C2.16992 7.73731 2.24683 7.6604 2.33913 7.6604H21.5517C21.644 7.6604 21.7209 7.73731 21.7209 7.82961C21.7209 7.9219 21.644 7.99881 21.5517 7.99881Z" fill="black" stroke="black" stroke-width="0.3"/>
<path d="M29.6654 11.9444H14.1907C14.0984 11.9444 14.0215 11.8675 14.0215 11.7752C14.0215 11.6829 14.0984 11.606 14.1907 11.606H29.6654C29.7577 11.606 29.8346 11.6829 29.8346 11.7752C29.8346 11.8675 29.7577 11.9444 29.6654 11.9444Z" fill="black" stroke="black" stroke-width="0.3"/>
<path d="M10.2303 11.9444H2.33913C2.24683 11.9444 2.16992 11.8675 2.16992 11.7752C2.16992 11.6829 2.24683 11.606 2.33913 11.606H10.2303C10.3226 11.606 10.3995 11.6829 10.3995 11.7752C10.3995 11.8675 10.3226 11.9444 10.2303 11.9444Z" fill="black" stroke="black" stroke-width="0.3"/>
<path d="M29.6654 15.89H23.6048C23.5125 15.89 23.4355 15.8131 23.4355 15.7208C23.4355 15.6285 23.5125 15.5516 23.6048 15.5516H29.6654C29.7577 15.5516 29.8346 15.6285 29.8346 15.7208C29.8346 15.8131 29.7577 15.89 29.6654 15.89Z" fill="black" stroke="black" stroke-width="0.3"/>
<path d="M18.829 15.89H2.33913C2.24683 15.89 2.16992 15.8131 2.16992 15.7208C2.16992 15.6285 2.24683 15.5516 2.33913 15.5516H18.829C18.929 15.5516 18.9982 15.6285 18.9982 15.7208C18.9982 15.8131 18.929 15.89 18.829 15.89Z" fill="black" stroke="black" stroke-width="0.3"/>
<path d="M22.7578 41.6943C24.5334 46.4352 22.1297 51.7198 17.3888 53.4954C12.6417 55.271 7.3572 52.8673 5.5816 48.1203C3.81204 43.3793 6.21574 38.0947 10.9567 36.3191C15.7037 34.5435 20.9883 36.9533 22.7578 41.6943Z" fill="#E9E9E9"/>
<path fill-rule="evenodd" clip-rule="evenodd" d="M14.1686 52.2573C13.1298 52.2573 12.0971 52.0338 11.1308 51.593C9.3431 50.7776 7.98422 49.3161 7.29573 47.4801C6.60723 45.6441 6.67366 43.6511 7.48899 41.8634C8.30432 40.0817 9.75983 38.7168 11.5958 38.0344C15.3886 36.6151 19.6283 38.5417 21.0476 42.3345C22.4669 46.1273 20.5342 50.367 16.7475 51.7862C15.908 52.1003 15.0383 52.2573 14.1686 52.2573ZM14.1626 37.8351C13.3412 37.8351 12.5078 37.98 11.6925 38.282C9.92289 38.9463 8.5157 40.2569 7.73057 41.9781C6.95148 43.6994 6.88504 45.6199 7.54334 47.3895C8.20768 49.1591 9.51825 50.5663 11.2395 51.3453C12.9607 52.1305 14.8813 52.1969 16.6509 51.5386C20.3047 50.1677 22.1649 46.085 20.8 42.4311C19.737 39.5865 17.0313 37.8351 14.1626 37.8351Z" fill="white"/>
<path d="M15.729 50.4092L15.2338 49.0926C14.4788 49.3643 13.6091 49.4247 13.0354 49.2677L13.0233 48.2833C13.6031 48.4162 14.3762 48.4101 15.1009 48.1383C16.0249 47.7941 16.4477 47.0271 16.1699 46.2842C15.9041 45.5716 15.2338 45.3179 14.1225 45.2877C12.6066 45.2636 11.5618 44.9737 11.139 43.8443C10.7344 42.7693 11.1934 41.658 12.3167 41.0178L11.8275 39.7072L12.6308 39.4053L13.1018 40.6675C13.893 40.4018 14.503 40.4078 14.962 40.4863V41.4647C14.6298 41.4104 13.9896 41.3258 13.1562 41.6399C12.1536 42.0143 12.0026 42.7511 12.1959 43.2705C12.4496 43.9469 13.0596 44.104 14.3641 44.1463C15.9041 44.1946 16.8342 44.6173 17.2691 45.7709C17.6495 46.7976 17.2932 48.0296 16.043 48.7483L16.5443 50.1012L15.729 50.4092Z" fill="white"/>
<path d="M33.9788 29.1683C33.6285 33.3175 29.9867 36.3915 25.8376 36.0413C21.6945 35.697 18.6144 32.0492 18.9647 27.9061C19.3149 23.757 22.9567 20.6769 27.1058 21.0271C31.2489 21.3774 34.329 25.0192 33.9788 29.1683Z" fill="#FF9536"/>
<path fill-rule="evenodd" clip-rule="evenodd" d="M26.4782 34.5918C26.3091 34.5918 26.138 34.5857 25.9649 34.5736C24.3523 34.4347 22.8908 33.6798 21.8459 32.4417C20.8011 31.2097 20.2998 29.6394 20.4387 28.0269C20.5716 26.4143 21.3265 24.9528 22.5646 23.908C23.8027 22.8631 25.3669 22.3618 26.9795 22.5008C28.592 22.6336 30.0536 23.3886 31.0984 24.6266C32.1432 25.8647 32.6445 27.429 32.5056 29.0415C32.2399 32.2001 29.5885 34.5918 26.4782 34.5918ZM26.4601 22.7423C25.0952 22.7423 23.7906 23.2195 22.7337 24.1133C21.556 25.1098 20.8313 26.511 20.7045 28.051C20.5716 29.5911 21.0487 31.0889 22.0513 32.2726C23.0478 33.4563 24.4429 34.175 25.989 34.3079C29.1658 34.5736 31.9741 32.2062 32.2399 29.0234C32.3727 27.4833 31.8956 25.9795 30.8991 24.8018C29.8965 23.6181 28.5014 22.8933 26.9614 22.7665C26.7923 22.7504 26.6252 22.7423 26.4601 22.7423Z" fill="white"/>
<path d="M25.6923 33.1664L25.7889 32.0189C25.1306 31.9525 24.4662 31.6928 24.0918 31.3727L24.43 30.6359C24.8165 30.9439 25.3903 31.2096 26.0244 31.258C26.8337 31.3304 27.4135 30.9077 27.4679 30.2614C27.5222 29.6394 27.1115 29.2106 26.3022 28.7999C25.1789 28.2503 24.5085 27.6645 24.5931 26.68C24.6716 25.7379 25.4024 25.0735 26.4593 24.995L26.5559 23.8475L27.2625 23.9079L27.1719 25.0071C27.8483 25.0856 28.3013 25.3091 28.6154 25.5325L28.2651 26.2573C28.0356 26.1003 27.5947 25.8104 26.8639 25.75C25.9942 25.6775 25.6198 26.1727 25.5775 26.6257C25.5292 27.2176 25.9278 27.5437 26.882 28.0389C28.0114 28.6127 28.5489 29.2529 28.4644 30.2675C28.3919 31.1613 27.6913 31.9525 26.5076 32.0431L26.4109 33.2268L25.6923 33.1664Z" fill="white"/>
</svg>
