<svg width="40" height="40" viewBox="0 0 40 40" fill="none" xmlns="http://www.w3.org/2000/svg">
<g clip-path="url(#clip0_670_1369)">
<path fill-rule="evenodd" clip-rule="evenodd" d="M35.4095 26.5755C34.7563 27.5622 34.2609 28.7766 32.9342 28.7766C30.7004 28.7766 30.5803 25.3358 28.3448 25.3358C26.1107 25.3358 26.2321 28.7766 23.9989 28.7766C21.7648 28.7766 21.6451 25.3358 19.4096 25.3358C17.1754 25.3358 17.2965 28.7766 15.0637 28.7766C12.8295 28.7766 12.7098 25.3358 10.4756 25.3358C8.24013 25.3358 8.36119 28.7766 6.12872 28.7766C5.42627 28.7766 4.93357 28.4367 4.51743 27.9706C2.91963 25.1922 2 21.9359 2 18.454C2 8.26216 9.88008 0 19.6004 0C29.3211 0 37.2012 8.26216 37.2012 18.4543C37.2012 21.368 36.5571 24.1252 35.4095 26.5755Z" fill="#FB70A9"/>
<path fill-rule="evenodd" clip-rule="evenodd" d="M12.5716 24.754V32.3984C12.5716 33.7695 11.4584 34.8814 10.0858 34.8814C9.75952 34.8816 9.43636 34.8176 9.13481 34.6929C8.83326 34.5683 8.55924 34.3854 8.32839 34.1548C8.09755 33.9241 7.91441 33.6503 7.78945 33.3489C7.66448 33.0474 7.60014 32.7243 7.6001 32.398V23.1707C8.06379 22.3199 8.59324 21.5833 9.54929 21.5833C11.1039 21.5833 11.6479 23.5359 12.5716 24.7543V24.754ZM21.9611 25.1529V37.2407C21.961 37.6031 21.8895 37.962 21.7507 38.2969C21.6119 38.6318 21.4085 38.936 21.1522 39.1922C20.8958 39.4485 20.5914 39.6517 20.2565 39.7904C19.9216 39.929 19.5627 40.0003 19.2002 40.0002C17.6749 40.0002 16.4379 38.7646 16.4379 37.2407V23.5592C16.9583 22.5566 17.4941 21.583 18.5928 21.583C20.3329 21.583 20.8061 24.0252 21.9614 25.1529H21.9611ZM30.8003 24.9304V33.7061C30.8003 35.0777 29.6874 36.1895 28.3149 36.1895C26.942 36.1895 25.8288 35.0777 25.8288 33.7061V22.9201C26.2608 22.1799 26.7761 21.583 27.6377 21.583C29.2699 21.583 29.7875 23.7345 30.8003 24.9304Z" fill="#4E56A6"/>
<path fill-rule="evenodd" clip-rule="evenodd" d="M12.5716 27.0972C12.1301 26.5569 11.6084 26.1563 10.8537 26.1563C9.06098 26.1563 8.73151 28.4144 7.6001 29.4315V19.6953C7.60014 19.369 7.66447 19.0459 7.78942 18.7445C7.91436 18.4431 8.09747 18.1693 8.32827 17.9387C8.55908 17.708 8.83307 17.5252 9.13458 17.4005C9.43609 17.2758 9.75921 17.2117 10.0855 17.2119C11.4584 17.2119 12.5716 18.3238 12.5716 19.6953V27.0972ZM21.9611 27.2708C21.491 26.6453 20.9416 26.1566 20.1077 26.1566C18.1133 26.1566 17.9302 28.9506 16.4379 29.7239V25.4174C16.4379 23.8931 17.6749 22.6579 19.2002 22.6579C19.5627 22.6577 19.9217 22.729 20.2566 22.8676C20.5916 23.0062 20.896 23.2095 21.1524 23.4657C21.4088 23.722 21.6122 24.0262 21.751 24.3611C21.8898 24.696 21.9613 25.0549 21.9614 25.4174L21.9611 27.2708ZM30.8003 26.7876C30.4172 26.4109 29.9639 26.1566 29.362 26.1566C27.4296 26.1566 27.1976 28.7793 25.8288 29.6446V20.9056C25.8288 20.2464 26.0907 19.6141 26.5568 19.1479C27.023 18.6818 27.6553 18.4199 28.3145 18.4199C28.9738 18.4199 29.606 18.6818 30.0722 19.1479C30.5384 19.6141 30.8003 20.2464 30.8003 20.9056V26.7876Z" fill="black" fill-opacity="0.298"/>
<path fill-rule="evenodd" clip-rule="evenodd" d="M35.4095 26.5755C34.7563 27.5622 34.2609 28.7766 32.9342 28.7766C30.7004 28.7766 30.5803 25.3358 28.3448 25.3358C26.1107 25.3358 26.2321 28.7766 23.9989 28.7766C21.7648 28.7766 21.6451 25.3358 19.4096 25.3358C17.1754 25.3358 17.2965 28.7766 15.0637 28.7766C12.8295 28.7766 12.7098 25.3358 10.4756 25.3358C8.24013 25.3358 8.36119 28.7766 6.12872 28.7766C5.42627 28.7766 4.93357 28.4367 4.51743 27.9706C2.91963 25.1922 2 21.9359 2 18.454C2 8.26216 9.88008 0 19.6004 0C29.3211 0 37.2012 8.26216 37.2012 18.4543C37.2012 21.368 36.5571 24.1252 35.4095 26.5755Z" fill="#FB70A9"/>
<path fill-rule="evenodd" clip-rule="evenodd" d="M31.6011 28.4091C36.213 21.5525 36.3318 13.949 31.9582 5.59473C35.2 8.91443 37.2011 13.4684 37.2011 18.4938C37.2011 21.3974 36.5334 24.1424 35.3437 26.5847C34.6679 27.566 34.1529 28.7767 32.7773 28.7767C32.3564 28.7806 31.9449 28.652 31.6011 28.4091Z" fill="#E24CA6"/>
<path fill-rule="evenodd" clip-rule="evenodd" d="M18.6572 23.0581C24.778 23.0581 27.3544 19.5105 27.3544 14.4722C27.3544 9.43332 23.4604 4.79639 18.6572 4.79639C13.8534 4.79639 9.95935 9.43331 9.95935 14.4719C9.95935 19.5108 12.5355 23.0581 18.6572 23.0581Z" fill="white"/>
<path fill-rule="evenodd" clip-rule="evenodd" d="M19.5796 11.1606C19.5796 13.1469 18.1187 14.7582 16.3179 14.7582C14.5157 14.7582 13.0562 13.1472 13.0562 11.1606C13.0562 9.17428 14.5157 7.56299 16.3179 7.56299C18.1187 7.56299 19.5796 9.17394 19.5796 11.1606Z" fill="#030776"/>
<path fill-rule="evenodd" clip-rule="evenodd" d="M17.4048 10.3303C17.4048 11.2472 16.675 11.9901 15.7739 11.9901C14.8728 11.9901 14.1431 11.2472 14.1431 10.3303C14.1431 9.41333 14.8728 8.67041 15.7739 8.67041C16.675 8.67041 17.4048 9.41333 17.4048 10.3303Z" fill="white"/>
</g>
<defs>
<clipPath id="clip0_670_1369">
<rect width="40" height="40" fill="white"/>
</clipPath>
</defs>
</svg>
