<svg width="212" height="142" viewBox="0 0 212 142" fill="none" xmlns="http://www.w3.org/2000/svg">
<path d="M201.63 101.554C201.75 101.554 201.849 101.653 201.85 101.773V132.333C201.849 132.453 201.75 132.552 201.63 132.552H185.907C185.788 132.552 185.689 132.453 185.688 132.333C185.688 132.214 185.787 132.114 185.907 132.114H201.411V101.773C201.411 101.655 201.501 101.554 201.63 101.554Z" fill="black" stroke="black" stroke-width="0.1"/>
<path d="M107.647 132.114C107.767 132.114 107.866 132.213 107.866 132.333C107.866 132.452 107.767 132.552 107.647 132.552H68.3018C68.1728 132.552 68.083 132.451 68.083 132.333C68.0832 132.214 68.173 132.114 68.3018 132.114H107.647Z" fill="black" stroke="black" stroke-width="0.1"/>
<path d="M199.443 87.4212H64.4922V5.36655C64.4922 2.55619 66.779 0.269409 69.597 0.269409H194.338C197.156 0.269409 199.443 2.55619 199.443 5.36655V87.4212Z" fill="white"/>
<path d="M194.338 0.0501709C197.276 0.0502205 199.662 2.43619 199.662 5.36658V87.4213C199.662 87.5412 199.562 87.641 199.442 87.641H64.4912C64.3714 87.6407 64.2725 87.5411 64.2725 87.4213V5.36658C64.2725 2.43616 66.6587 0.0501709 69.5967 0.0501709H194.338ZM69.5967 0.488647C66.8986 0.488647 64.7109 2.67628 64.7109 5.36658V87.2015H199.224V5.36658C199.224 2.67631 197.036 0.488697 194.338 0.488647H69.5967Z" fill="black" stroke="black" stroke-width="0.1"/>
<path d="M190.773 4.12329C193.711 4.12329 196.098 6.50928 196.098 9.4397V86.8206C196.098 86.9405 195.999 87.0402 195.879 87.0403H68.1572C68.0374 87.04 67.9385 86.9404 67.9385 86.8206V9.4397C67.9385 6.50933 70.3245 4.12329 73.2549 4.12329H190.773ZM73.2549 4.56177C70.5645 4.56177 68.377 6.74935 68.377 9.4397V86.6008H195.659V9.4397C195.659 6.7494 193.472 4.56177 190.773 4.56177H73.2549Z" fill="black" stroke="black" stroke-width="0.1"/>
<path d="M195.17 97.6694H61.7282C55.8303 97.6694 50.4021 95.1516 47.5994 91.1016L46.252 89.1613C45.3049 87.7908 46.2905 85.9275 47.9536 85.9275H208.768C210.354 85.9275 211.347 87.6445 210.554 89.015L209.815 90.2932C207.228 94.782 201.491 97.6694 195.17 97.6694Z" fill="white"/>
<path d="M208.767 85.7083C209.593 85.7083 210.333 86.1335 210.742 86.8499C211.151 87.5657 211.151 88.4158 210.742 89.1243L210.003 90.4026C207.382 94.9568 201.557 97.8889 195.169 97.8889H61.7275C55.7477 97.8889 50.2637 95.3422 47.4189 91.2297L46.0713 89.2825C45.5834 88.5743 45.5283 87.6992 45.9297 86.9358C46.331 86.1649 47.0877 85.7083 47.9531 85.7083H208.767ZM47.9531 86.1467C47.2483 86.1467 46.641 86.5211 46.3184 87.136C45.9958 87.7512 46.0336 88.463 46.4307 89.0325L47.7783 90.9807C50.5389 94.9681 55.8885 97.4504 61.7275 97.4504H195.169C201.408 97.4504 207.079 94.5995 209.624 90.1838L210.363 88.9055L210.421 88.7961C210.692 88.2432 210.673 87.6101 210.363 87.0686C210.026 86.4911 209.434 86.1467 208.767 86.1467H47.9531Z" fill="black" stroke="black" stroke-width="0.1"/>
<path d="M95.0198 64.4148H81.6841C81.0451 64.4148 80.5215 63.8912 80.5215 63.2521V49.9164C80.5215 49.2697 81.0451 48.7461 81.6841 48.7461H95.0198C95.6666 48.7461 96.1902 49.2697 96.1902 49.9164V63.2521C96.1902 63.8912 95.6666 64.4148 95.0198 64.4148Z" fill="white"/>
<path fill-rule="evenodd" clip-rule="evenodd" d="M95.0213 64.5841H81.6855C80.9541 64.5841 80.3535 63.9836 80.3535 63.2521V49.9164C80.3535 49.1772 80.9541 48.5767 81.6855 48.5767H95.0213C95.7604 48.5767 96.361 49.1772 96.361 49.9164V63.2521C96.361 63.9836 95.7604 64.5841 95.0213 64.5841ZM81.6855 48.9154C81.1389 48.9154 80.6923 49.362 80.6923 49.9164V63.2521C80.6923 63.7988 81.1389 64.2454 81.6855 64.2454H95.0213C95.5756 64.2454 96.0222 63.7988 96.0222 63.2521V49.9164C96.0222 49.362 95.5756 48.9154 95.0213 48.9154H81.6855Z" fill="black"/>
<path d="M87.9373 61.6275V60.3879C87.2289 60.3725 86.4898 60.1492 86.0586 59.8412L86.3512 59.025C86.7978 59.3176 87.4368 59.5486 88.1221 59.5486C88.9921 59.5486 89.585 59.0481 89.585 58.3475C89.585 57.6699 89.0999 57.2541 88.1991 56.8845C86.9441 56.3918 86.1664 55.8297 86.1664 54.7595C86.1664 53.7354 86.8979 52.9654 88.022 52.7807V51.541H88.7843V52.7345C89.5234 52.7576 90.0239 52.95 90.3781 53.1579L90.0701 53.9741C89.816 53.8278 89.3155 53.5506 88.5302 53.5506C87.5831 53.5506 87.2289 54.1204 87.2289 54.6132C87.2289 55.2522 87.6832 55.5679 88.7458 56.0145C90.0085 56.5304 90.6476 57.1694 90.6476 58.2628C90.6476 59.2329 89.9777 60.1415 88.7073 60.3494V61.6275H87.9373Z" fill="#E9E9E9"/>
<path d="M128.006 64.0451H108.988V49.1156H128.006V64.0451Z" fill="#FF9536"/>
<path d="M117.126 63.6448C117.034 63.6448 116.957 63.5678 116.957 63.4754V50.9867C116.957 50.8943 117.034 50.8173 117.126 50.8173C117.219 50.8173 117.296 50.8943 117.296 50.9867V63.4754C117.296 63.5678 117.219 63.6448 117.126 63.6448Z" fill="#E9E9E9"/>
<path d="M122.47 57.4312C122.37 57.4312 122.301 57.3543 122.301 57.2619V49.1157C122.301 49.0233 122.37 48.9463 122.47 48.9463C122.563 48.9463 122.64 49.0233 122.64 49.1157V57.2619C122.64 57.3543 122.563 57.4312 122.47 57.4312Z" fill="#E9E9E9"/>
<path d="M127.074 63.1367H124.109V58.0396H127.074V63.1367Z" fill="#E9E9E9"/>
<path d="M130.347 53.9279H119.475L117.127 49.1156H128.006L130.347 53.9279Z" fill="#FF9536"/>
<path d="M128.006 54.0973H119.474C119.405 54.0973 119.343 54.0665 119.32 54.0049L116.972 49.1926C116.933 49.1079 116.972 49.0078 117.057 48.9693C117.141 48.9232 117.241 48.9616 117.28 49.0463L119.574 53.7585H128.006C128.098 53.7585 128.175 53.8355 128.175 53.9279C128.175 54.0203 128.098 54.0973 128.006 54.0973Z" fill="#E9E9E9"/>
<path d="M115.125 53.9279H106.986L108.988 49.1156H117.127L115.125 53.9279Z" fill="#FF9536"/>
<path d="M115.124 54.0974H108.988C108.895 54.0974 108.818 54.0204 108.818 53.928C108.818 53.8356 108.895 53.7586 108.988 53.7586H115.009L116.972 49.0541C117.011 48.9694 117.111 48.9232 117.196 48.9617C117.28 49.0002 117.319 49.1003 117.288 49.185L115.278 53.9973C115.255 54.0589 115.194 54.0974 115.124 54.0974Z" fill="#E9E9E9"/>
<path d="M156.54 59.1174H141.164V49.2927H156.54V59.1174Z" fill="#E9E9E9"/>
<path d="M164.332 61.9201H141.164V60.0645L157.518 60.0953V53.9972H162.992L164.332 58.2243V61.9201Z" fill="white"/>
<path d="M162.992 53.778C163.083 53.7781 163.171 53.8378 163.201 53.9362L164.541 58.1549L164.551 58.2242V61.9196C164.551 62.0379 164.461 62.1391 164.332 62.1393H141.163C141.043 62.139 140.944 62.0394 140.944 61.9196V60.0641C140.944 60.0003 140.976 59.9503 141.009 59.9098L141.013 59.9059C141.032 59.8864 141.057 59.8694 141.083 59.858C141.096 59.8524 141.111 59.8477 141.126 59.8453H141.164L157.298 59.8746V53.9967C157.298 53.8769 157.398 53.778 157.518 53.778H162.992ZM157.737 60.0953C157.737 60.1538 157.717 60.205 157.676 60.2457L157.672 60.2496C157.631 60.2821 157.581 60.315 157.518 60.3151L141.383 60.2838V61.7008H164.112V58.2555L162.832 54.2164H157.737V60.0953Z" fill="black" stroke="black" stroke-width="0.1"/>
<path d="M159.604 54.1476C159.724 54.1476 159.824 54.2465 159.824 54.3663V57.9513H163.979C164.107 57.9514 164.197 58.0518 164.197 58.17C164.197 58.2885 164.108 58.3897 163.979 58.3898H159.604C159.485 58.3895 159.386 58.2899 159.386 58.17V54.3663C159.386 54.2467 159.485 54.1478 159.604 54.1476Z" fill="black" stroke="black" stroke-width="0.1"/>
<path d="M160.929 60.5691C161.849 60.5691 162.604 61.3153 162.604 62.2439C162.603 63.1723 161.849 63.9177 160.929 63.9177C160.001 63.9175 159.247 63.1723 159.247 62.2439C159.247 61.3153 160.001 60.5693 160.929 60.5691Z" fill="black" stroke="black" stroke-width="0.1"/>
<path d="M144.576 60.5691C145.504 60.5693 146.258 61.3152 146.258 62.2439C146.258 63.1724 145.504 63.9175 144.576 63.9177C143.648 63.9177 142.902 63.1722 142.901 62.2439C142.901 61.3154 143.648 60.5691 144.576 60.5691Z" fill="black" stroke="black" stroke-width="0.1"/>
<path d="M144.544 63.4641C144.664 63.4642 144.763 63.5631 144.764 63.6829C144.764 63.8028 144.664 63.9025 144.544 63.9026H138.646C138.526 63.9023 138.427 63.8027 138.427 63.6829C138.427 63.5632 138.526 63.4644 138.646 63.4641H144.544Z" fill="black" stroke="black" stroke-width="0.1"/>
<path d="M142.058 61.7009C142.177 61.701 142.277 61.7999 142.277 61.9197C142.277 62.0397 142.178 62.1394 142.058 62.1394H136.159C136.039 62.1392 135.94 62.0395 135.94 61.9197C135.941 61.8 136.04 61.7012 136.159 61.7009H142.058Z" fill="black" stroke="black" stroke-width="0.1"/>
<path d="M183.721 53.3812C183.721 55.514 181.988 57.2387 179.863 57.2387C177.731 57.2387 176.006 55.514 176.006 53.3812C176.006 51.2561 177.731 49.5237 179.863 49.5237C181.988 49.5237 183.721 51.2561 183.721 53.3812Z" fill="white"/>
<path fill-rule="evenodd" clip-rule="evenodd" d="M185.868 53.2658C185.868 58.6401 180.224 64.4148 180.224 64.4148C180.224 64.4148 174.588 58.694 174.588 53.2658C174.588 50.1474 177.113 47.6219 180.224 47.6219C183.342 47.6219 185.868 50.1474 185.868 53.2658ZM182.857 53.3889C182.857 51.9414 181.679 50.7634 180.224 50.7634C178.776 50.7634 177.598 51.9414 177.598 53.3889C177.598 54.8442 178.776 56.0222 180.224 56.0222C181.679 56.0222 182.857 54.8442 182.857 53.3889Z" fill="#E9E9E9"/>
<path d="M118.496 37.2351H91.2085C91.1161 37.2351 91.0391 37.1581 91.0391 37.0657C91.0391 36.9734 91.1161 36.8964 91.2085 36.8964H118.496C118.588 36.8964 118.665 36.9734 118.665 37.0657C118.665 37.1581 118.588 37.2351 118.496 37.2351Z" fill="#FF9536"/>
<path d="M178.901 37.2736L118.498 37.2351C118.405 37.2351 118.328 37.1581 118.328 37.0657C118.328 36.9734 118.405 36.8964 118.498 36.8964L178.901 36.9349C178.993 36.9349 179.07 37.0042 179.07 37.1042C179.07 37.1966 178.993 37.2736 178.901 37.2736Z" fill="#E9E9E9"/>
<path d="M92.1959 37.1043C92.1959 39.2217 90.4789 40.9464 88.3538 40.9464C86.2364 40.9464 84.5117 39.2217 84.5117 37.1043C84.5117 34.9792 86.2364 33.2545 88.3538 33.2545C90.4789 33.2545 92.1959 34.9792 92.1959 37.1043Z" fill="#FF9536"/>
<path d="M87.8839 39.2909C87.8788 39.2909 87.8762 39.2909 87.8762 39.2909C87.8223 39.2909 87.7684 39.2601 87.7376 39.2139L86.2208 36.9271C86.1669 36.8501 86.19 36.7423 86.267 36.6961C86.344 36.6422 86.4518 36.6653 86.498 36.7423L87.8839 38.8135L90.3478 35.187C90.4017 35.11 90.5095 35.0869 90.5865 35.1408C90.6635 35.1947 90.6789 35.3025 90.625 35.3795L88.0225 39.2139C87.9917 39.2601 87.9378 39.2909 87.8839 39.2909Z" fill="white"/>
<path d="M121.978 37.0658C121.978 38.9907 120.423 40.546 118.498 40.546C116.573 40.546 115.018 38.9907 115.018 37.0658C115.018 35.1409 116.573 33.5856 118.498 33.5856C120.423 33.5856 121.978 35.1409 121.978 37.0658Z" fill="white"/>
<path fill-rule="evenodd" clip-rule="evenodd" d="M118.497 40.7154C116.48 40.7154 114.848 39.083 114.848 37.0657C114.848 35.0485 116.48 33.4161 118.497 33.4161C120.507 33.4161 122.147 35.0485 122.147 37.0657C122.147 39.083 120.507 40.7154 118.497 40.7154ZM118.497 33.7549C116.672 33.7549 115.186 35.2409 115.186 37.0657C115.186 38.8906 116.672 40.3766 118.497 40.3766C120.322 40.3766 121.808 38.8906 121.808 37.0657C121.808 35.2409 120.322 33.7549 118.497 33.7549Z" fill="#FF9536"/>
<path d="M152.337 37.1043C152.337 39.0215 150.782 40.5845 148.857 40.5845C146.932 40.5845 145.377 39.0215 145.377 37.1043C145.377 35.1794 146.932 33.6163 148.857 33.6163C150.782 33.6163 152.337 35.1794 152.337 37.1043Z" fill="white"/>
<path fill-rule="evenodd" clip-rule="evenodd" d="M148.857 40.7538C146.839 40.7538 145.207 39.1138 145.207 37.1042C145.207 35.0869 146.839 33.4469 148.857 33.4469C150.874 33.4469 152.506 35.0869 152.506 37.1042C152.506 39.1138 150.874 40.7538 148.857 40.7538ZM148.857 33.7857C147.032 33.7857 145.546 35.2717 145.546 37.1042C145.546 38.929 147.032 40.415 148.857 40.415C150.681 40.415 152.167 38.929 152.167 37.1042C152.167 35.2717 150.681 33.7857 148.857 33.7857Z" fill="#E9E9E9"/>
<path d="M183.712 37.0658C183.712 38.9907 182.149 40.546 180.224 40.546C178.299 40.546 176.744 38.9907 176.744 37.0658C176.744 35.1409 178.299 33.5856 180.224 33.5856C182.149 33.5856 183.712 35.1409 183.712 37.0658Z" fill="white"/>
<path fill-rule="evenodd" clip-rule="evenodd" d="M180.224 40.7154C178.214 40.7154 176.574 39.083 176.574 37.0657C176.574 35.0485 178.214 33.4161 180.224 33.4161C182.241 33.4161 183.881 35.0485 183.881 37.0657C183.881 39.083 182.241 40.7154 180.224 40.7154ZM180.224 33.7549C178.399 33.7549 176.913 35.2409 176.913 37.0657C176.913 38.8906 178.399 40.3766 180.224 40.3766C182.056 40.3766 183.542 38.8906 183.542 37.0657C183.542 35.2409 182.056 33.7549 180.224 33.7549Z" fill="#E9E9E9"/>
<path d="M159.39 22.2055H104.477V13.8438H159.39V22.2055Z" fill="#E9E9E9"/>
<path d="M64.0988 140.833H17.5547V121.577L58.8246 122.377L64.0988 140.833Z" fill="white"/>
<path d="M64.0998 140.941C64.0228 140.941 63.9535 140.887 63.9381 140.818L58.1865 121.068C58.1557 120.984 58.2096 120.891 58.2943 120.861C58.3867 120.837 58.4791 120.891 58.5099 120.976L64.2615 140.726C64.2846 140.81 64.2384 140.903 64.146 140.933C64.1306 140.939 64.1152 140.941 64.0998 140.941Z" fill="black"/>
<path d="M17.5483 140.941C17.4559 140.941 17.3789 140.864 17.3789 140.772V120.622C17.3789 120.522 17.4559 120.453 17.5483 120.453C17.6407 120.453 17.7177 120.522 17.7177 120.622V140.772C17.7177 140.864 17.6407 140.941 17.5483 140.941Z" fill="black"/>
<path d="M39.7906 58.7325L35.9023 54.2436L45.3575 46.0512C46.5971 44.981 48.4681 45.1119 49.546 46.3515C50.6163 47.5912 50.4854 49.4699 49.2458 50.5401L39.7906 58.7325Z" fill="#FF9536"/>
<path d="M46.6746 53.2966C46.4283 52.0955 45.5582 51.903 44.4495 51.8183C45.0731 50.7249 45.3426 49.7009 45.589 48.3381C42.1473 48.1148 39.0443 51.21 39.0443 51.21C39.0443 51.21 28.8809 54.9751 28.8809 58.5092C28.8809 62.7979 31.5526 64.3378 33.285 64.769C35.5333 65.3388 38.0203 65.3157 40.0684 64.2301C41.4543 63.4986 42.5862 62.2205 43.0712 60.7267C43.1944 60.3494 43.2791 59.9568 43.3099 59.5564C43.333 59.2638 43.1867 58.7402 43.2945 58.4861C43.4331 58.1859 43.9875 57.8856 44.2339 57.6623C44.5881 57.3543 47.2752 56.1378 46.6746 53.2966Z" fill="black"/>
<path d="M29.6902 62.3282C29.6902 62.3282 31.9693 56.7306 41.4321 49.4545C41.4321 49.4545 36.4273 45.5816 31.746 49.0926C27.0646 52.6036 26.7874 56.2224 27.5343 58.6709C28.2812 61.1502 29.6902 62.3282 29.6902 62.3282Z" fill="#FF9536"/>
<path d="M43.087 76.4261L40.8002 76.1797L41.4085 68.3877C41.4085 68.3877 39.5067 58.8864 32.2075 65.9777L30.8677 76.557L28.7734 77.0036C28.7734 77.0036 29.5896 81.7619 35.7185 81.7465C40.9311 81.7388 43.1794 79.9833 43.087 76.4261Z" fill="white"/>
<path d="M32.0566 65.8262C34.3226 63.6218 36.3361 62.7489 38.0352 63.2812L38.2852 63.3701C39.5083 63.857 40.3208 65.0027 40.8359 66.0654C41.3854 67.199 41.6027 68.2496 41.6191 68.3398H41.6182C41.6236 68.3594 41.6235 68.3788 41.6191 68.3984L41.0371 75.9805L43.1074 76.207H43.1064C43.2271 76.2172 43.3154 76.3266 43.3057 76.4453V76.4502C43.2863 76.5655 43.1878 76.6554 43.0596 76.6455H43.0576L40.7803 76.3906C40.6585 76.3804 40.5801 76.2787 40.5801 76.1641V76.1602H40.5811L41.1807 68.3994C41.1417 68.2232 40.9125 67.2416 40.4023 66.208C39.9167 65.2241 39.1818 64.2036 38.1221 63.7773L37.9053 63.7002C36.4043 63.2326 34.5563 64.0184 32.415 66.0869L31.0859 76.585C31.0756 76.6784 31.0044 76.7458 30.9219 76.7734L30.918 76.7754L28.7695 77.291L28.7578 77.2939V77.292H28.7188C28.6218 77.2918 28.532 77.2333 28.502 77.1338L28.501 77.1309C28.4708 77.0091 28.5526 76.8914 28.6689 76.8623L30.668 76.3779L31.9883 65.9561V65.9521C31.9965 65.911 32.0148 65.8603 32.0566 65.8262Z" fill="black" stroke="black" stroke-width="0.1"/>
<path d="M35.5877 66.3474C36.6811 67.279 37.9823 68.0105 39.399 68.2723C40.8158 68.5418 42.348 68.3262 43.5491 67.5254C45.5587 66.1934 46.2902 63.4908 45.936 61.1039C45.5741 58.7171 44.3345 56.5689 43.1026 54.4977C43.1026 54.4977 38.3981 58.1088 34.0786 58.6863C33.5319 60.0876 33.4626 61.4581 33.786 62.7979C33.786 62.7979 32.8236 61.9278 31.9458 62.5053C30.9911 63.1212 30.6061 64.4687 31.0681 65.5081C31.5224 66.5476 32.7158 67.1866 33.8476 67.0711C34.4867 67.0095 35.0719 66.8863 35.5877 66.3474Z" fill="white"/>
<path d="M43.1396 54.288L43.1406 54.287C43.142 54.2872 43.1432 54.2887 43.1445 54.2889C43.1459 54.2894 43.148 54.2885 43.1494 54.2889L43.1484 54.2899C43.2147 54.3019 43.2633 54.3398 43.292 54.3876C44.392 56.2414 45.7761 58.5518 46.1475 61.0731C46.5576 63.8283 45.5908 66.4377 43.6689 67.7137C42.79 68.297 41.6944 68.6073 40.5615 68.6073C40.1656 68.6073 39.7617 68.5687 39.3584 68.4911V68.4901C38.0674 68.2441 36.7713 67.6027 35.5967 66.6356C35.0378 67.1377 34.4142 67.2368 33.8682 67.2899C32.6159 67.4151 31.3547 66.7041 30.8682 65.5975C30.3658 64.4592 30.789 62.9931 31.8262 62.3173L31.9492 62.245C32.5176 61.9482 33.0877 62.1196 33.4658 62.3202C33.265 61.067 33.4024 59.8216 33.8779 58.6063L33.8789 58.6053C33.9067 58.5406 33.9648 58.4784 34.0488 58.4677L34.4443 58.4061C36.428 58.0562 38.4776 57.0976 40.0723 56.1962C41.7721 55.2353 42.9477 54.3431 42.9746 54.3251V54.326C43.019 54.2916 43.0768 54.2707 43.1396 54.288ZM43.041 54.8153C42.5818 55.15 41.3589 56.0089 39.7822 56.8593C38.1613 57.7335 36.1633 58.6005 34.2393 58.8837C33.789 60.0788 33.6961 61.2668 33.9424 62.4989L33.9961 62.7479L33.9971 62.7499C34.0163 62.8465 33.9768 62.9364 33.8975 62.9862C33.8169 63.0365 33.7078 63.0268 33.6377 62.9667L33.6348 62.9637C33.6162 62.9455 33.4028 62.7577 33.1035 62.6337C32.8026 62.509 32.4233 62.4517 32.0654 62.6854C31.2086 63.2416 30.8463 64.4709 31.2676 65.4188C31.6819 66.3527 32.762 66.965 33.8271 66.8593C34.4999 66.7904 34.9934 66.6544 35.4277 66.1903L35.4287 66.1884H35.4297C35.472 66.1464 35.532 66.1278 35.5879 66.1278C35.6315 66.1278 35.6831 66.1374 35.7266 66.1786H35.7275C36.8847 67.1672 38.1711 67.8169 39.4395 68.0614C40.8832 68.3363 42.333 68.0681 43.4297 67.3446C45.4391 66.0121 46.0309 63.2649 45.7168 61.1346C45.3673 58.8019 44.1063 56.6097 43.041 54.8153Z" fill="black" stroke="black" stroke-width="0.1"/>
<path d="M32.9717 64.2913C33.0335 64.2306 33.123 64.2101 33.2061 64.2375L33.2471 64.2551L33.249 64.2571C33.706 64.5389 34.2096 64.7366 34.7285 64.8586L34.7715 64.8743C34.8637 64.9184 34.9138 65.0206 34.8965 65.1165V65.1213L34.8477 65.1077L34.8955 65.1213C34.867 65.2252 34.7801 65.2959 34.6787 65.2961C34.6621 65.2961 34.6447 65.2917 34.6279 65.2864V65.2874C34.0611 65.1553 33.5172 64.9373 33.0195 64.6262V64.6252C32.9103 64.5635 32.8832 64.4343 32.9404 64.3293L32.9434 64.3245L32.9717 64.2913Z" fill="black" stroke="black" stroke-width="0.1"/>
<path d="M59.9635 104.645C59.9635 104.645 76.741 110.589 93.8033 88.1065C89.8842 85.8582 87.4742 81.8313 86.1884 76.4878C86.1884 76.4878 76.6024 85.5733 70.204 85.5733C64.6526 85.5733 56.7913 76.9113 43.1014 76.2953C42.855 77.0806 42.5008 77.8429 41.9773 78.482C40.9763 79.7216 39.3671 80.3992 37.8272 80.6456C36.3411 80.8843 34.7858 80.7996 33.3383 80.3992C32.0371 80.0373 30.7743 79.3751 29.8119 78.4204C29.3653 77.9815 29.0034 77.481 28.7339 76.9344C19.7485 77.6504 14.0893 78.7361 9.33863 84.5339C3.22515 92.0025 -0.647755 106.586 0.368593 115.525C1.26175 123.378 6.34349 126.689 10.3781 128.252L10.1548 130.485C9.9084 134.019 13.6658 134.266 17.5926 132.934L61.7036 122.401C63.7286 121.654 64.7835 119.428 64.0982 117.388L59.9635 104.645Z" fill="#FF9536"/>
<path d="M48.2979 95.8368L43 76.1L47.5 76.6L52.2979 95.8368H48.2979Z" fill="white"/>
<path d="M26 98.1L33.5 129.1L57.5 123.6L50.5 98.1H26Z" fill="white"/>
<path d="M33.5 129.1L57.5 123.6" stroke="black" stroke-width="0.1"/>
<path d="M56.2842 96.6976C56.3902 96.6623 56.4946 96.713 56.5449 96.7982L56.5625 96.8363L56.5635 96.8373C56.6548 97.1074 56.9029 97.6612 57.2295 98.3529C57.5556 99.0435 57.958 99.8688 58.3545 100.681L58.9658 101.93C59.1605 102.33 59.3432 102.709 59.5059 103.053C59.7497 103.568 59.9488 104.005 60.0742 104.313L60.1738 104.576L60.1758 104.579C60.2043 104.694 60.1469 104.814 60.0361 104.854L60.0312 104.856C60.0081 104.862 59.9855 104.865 59.9648 104.865C59.8753 104.864 59.7861 104.806 59.7559 104.715C59.6646 104.445 59.4155 103.891 59.0889 103.2C58.7628 102.509 58.3613 101.684 57.9648 100.871C57.5453 100.017 57.1389 99.1869 56.8135 98.4994C56.5697 97.9844 56.3706 97.5474 56.2451 97.2396L56.1445 96.9769C56.1042 96.856 56.176 96.7376 56.2832 96.6986L56.2842 96.6976Z" fill="black" stroke="black" stroke-width="0.1"/>
<path d="M86.5739 76.3337C92.0868 71.2982 97.1532 65.6621 103.498 61.7276C104.06 61.3811 104.653 61.0423 105.307 60.9884C105.962 60.9268 106.693 61.2425 106.916 61.8662C107.14 62.4898 106.785 63.1674 106.416 63.7218C105.245 65.4465 103.528 67.2405 101.773 68.3723C101.773 68.3723 104.676 68.8189 104.529 71.5523C104.529 71.5523 106.246 71.8603 105.469 75.1711C105.469 75.1711 106.439 77.7582 104.121 79.2057C102.458 80.2451 101.357 79.8293 101.357 79.8293C101.357 79.8293 95.7903 86.8052 92.1561 89.1998C88.5296 91.5866 83.6096 79.044 86.5739 76.3337Z" fill="white"/>
<path d="M105.421 60.7618C106.093 60.749 106.87 61.082 107.118 61.7882L107.161 61.9308C107.242 62.2637 107.194 62.5976 107.089 62.9064C106.999 63.1708 106.865 63.4191 106.73 63.6359L106.597 63.8419C105.435 65.5572 103.848 67.1891 102.297 68.2863C102.702 68.4165 103.295 68.6647 103.797 69.1212C104.335 69.6107 104.766 70.3362 104.756 71.3966C104.919 71.4652 105.164 71.6059 105.388 71.882L105.488 72.0167V72.0177C105.945 72.718 106.011 73.7773 105.697 75.1534C105.764 75.3654 105.956 76.0614 105.861 76.881C105.765 77.7199 105.369 78.6883 104.241 79.3947C102.849 80.2647 101.821 80.1623 101.438 80.0831C100.842 80.816 97.3645 85.0676 94.292 87.797L94.291 87.796C94.2473 87.8384 94.1955 87.8487 94.1514 87.8488C94.0934 87.8488 94.0342 87.8283 93.9854 87.7794L93.9824 87.7775C93.9025 87.6871 93.9131 87.5483 94.002 87.4689C96.4939 85.2538 99.2686 82.0169 100.517 80.5167L101.188 79.6974C101.247 79.6216 101.338 79.6035 101.42 79.6251L101.429 79.6261C101.43 79.6263 101.431 79.627 101.432 79.6271H101.434C101.435 79.6274 101.436 79.6277 101.438 79.6281C101.44 79.6287 101.443 79.6299 101.446 79.631C101.454 79.6333 101.467 79.6369 101.482 79.6407C101.513 79.6484 101.559 79.6581 101.619 79.6671C101.739 79.6853 101.917 79.6993 102.142 79.6837C102.591 79.6525 103.236 79.5013 104.011 79.0167C105.076 78.3494 105.397 77.4323 105.448 76.6681C105.499 75.9024 105.279 75.2911 105.261 75.2433V75.2404C105.248 75.2008 105.247 75.1608 105.26 75.1212H105.259C105.634 73.5044 105.387 72.673 105.127 72.2726C104.989 72.0567 104.832 71.931 104.708 71.8595C104.646 71.8239 104.593 71.8015 104.555 71.7882C104.535 71.7816 104.519 71.7771 104.509 71.7745C104.504 71.7733 104.5 71.7721 104.497 71.7716H104.49V71.7706C104.378 71.7501 104.311 71.6495 104.311 71.545V71.5421C104.379 70.2897 103.766 69.5577 103.121 69.1349C102.473 68.7104 101.794 68.5982 101.743 68.5909H101.74C101.661 68.5734 101.577 68.5173 101.563 68.421V68.422C101.544 68.3353 101.573 68.2429 101.654 68.1915L101.961 67.9855C103.5 66.9178 105.077 65.3001 106.236 63.5939C106.39 63.3677 106.558 63.0924 106.663 62.8029C106.768 62.5132 106.807 62.2141 106.708 61.9366C106.613 61.6715 106.402 61.4776 106.145 61.3556C105.887 61.2336 105.588 61.1848 105.327 61.2072V61.2081C104.875 61.242 104.456 61.4237 104.037 61.6622L103.617 61.9161C98.9104 64.831 94.5098 69.0466 90.2588 73.1359C89.0348 74.306 87.8797 75.4152 86.7246 76.4933L86.7236 76.4943C86.6363 76.5719 86.4963 76.575 86.4141 76.4825C86.3365 76.3952 86.3333 76.2552 86.4258 76.173C87.5802 75.0955 88.735 73.9953 89.9512 72.8253C94.2236 68.7223 98.6394 64.4837 103.388 61.5392C103.957 61.1854 104.59 60.8247 105.288 60.7697L105.421 60.7618Z" fill="black" stroke="black" stroke-width="0.1"/>
<path d="M104.415 71.8109C104.522 71.8109 104.611 71.8945 104.625 71.9965L104.627 72.0414C104.596 72.453 104.518 72.8803 104.386 73.2924C104.021 74.4638 103.315 75.4551 102.753 76.1947V76.1957C102.306 76.7656 101.8 77.3505 101.135 77.6947C100.774 77.883 100.381 77.9779 100.011 77.9779C99.5936 77.9779 99.1977 77.8598 98.8877 77.6293V77.6283C98.5284 77.3568 98.306 76.904 98.29 76.4437V76.4427C98.2821 76.0299 98.4257 75.6761 98.708 75.434L98.709 75.432C98.8088 75.3522 98.9391 75.3741 99.0166 75.4613C99.097 75.5518 99.0865 75.6914 98.9971 75.7709L98.9961 75.7719C98.8172 75.9222 98.7212 76.153 98.7285 76.4252C98.7359 76.7652 98.8993 77.0893 99.1475 77.2719H99.1484C99.6657 77.6632 100.413 77.5712 100.936 77.306C101.525 77.0036 101.989 76.4649 102.404 75.9261L102.831 75.347C103.267 74.7269 103.709 73.987 103.967 73.1625V73.1615C104.089 72.7801 104.166 72.3915 104.188 72.0111V72.0101C104.198 71.8934 104.295 71.8032 104.415 71.8109Z" fill="black" stroke="black" stroke-width="0.1"/>
<path d="M96.4453 69.3851C97.7325 69.1758 99.0512 69.3234 100.269 69.8197C100.948 70.0977 102.168 70.7522 102.561 71.9916C102.75 72.5909 102.655 73.298 102.301 73.849L102.302 73.85C102.018 74.3077 101.597 74.5938 101.11 74.6576L101.111 74.6586C100.652 74.722 100.209 74.5788 99.7959 74.4486C99.4234 74.3322 99.0861 74.2212 98.7432 74.2435C98.1403 74.2809 97.613 74.729 97.2119 75.1224C97.1455 75.1888 97.0791 75.2552 97.0127 75.3217C96.6055 75.7288 96.1752 76.1517 95.6182 76.3871L95.6172 76.3881C95.3959 76.475 95.1511 76.5218 94.9062 76.5219C94.3864 76.5219 93.8653 76.309 93.6152 75.8256C93.5544 75.7136 93.6063 75.5862 93.7021 75.5287L93.707 75.5258L93.748 75.5121C93.832 75.4914 93.9211 75.519 93.9775 75.5873L94.0029 75.6244V75.6254C94.1211 75.8546 94.3528 75.9965 94.623 76.0541C94.8932 76.1116 95.1968 76.0838 95.4492 75.9799C95.9234 75.7841 96.3162 75.3912 96.7031 75.0121C96.7697 74.9404 96.8367 74.8717 96.9033 74.8051L96.9043 74.8041C97.3505 74.3733 97.9625 73.8516 98.7139 73.8041H98.7148C99.141 73.7805 99.5422 73.9069 99.9258 74.0297L100.221 74.1195C100.509 74.2028 100.778 74.26 101.051 74.2211H101.052C101.404 74.177 101.715 73.9632 101.932 73.6195H101.933C102.217 73.1776 102.291 72.5999 102.142 72.1215V72.1205C101.81 71.0666 100.729 70.4812 100.1 70.2279C99.0321 69.7909 97.8773 69.6425 96.7422 69.7894L96.5156 69.8226C96.3955 69.8426 96.2855 69.7621 96.2656 69.6429C96.2462 69.5253 96.3239 69.4054 96.4453 69.3851Z" fill="black" stroke="black" stroke-width="0.1"/>
<path d="M104.878 75.7405C104.935 75.6357 105.064 75.5812 105.177 75.6428L105.176 75.6438C105.286 75.6961 105.323 75.8253 105.275 75.9309L105.274 75.9329C104.8 76.8813 104.015 77.7403 102.879 78.552L102.88 78.553C102.539 78.8084 102.111 79.0802 101.634 79.2366L101.635 79.2375C101.383 79.3241 101.131 79.3635 100.895 79.3635C100.694 79.3635 100.506 79.3368 100.327 79.2834L100.151 79.2209C99.6353 78.9986 99.2751 78.5053 99.251 77.9915V77.9895C99.251 77.8662 99.3376 77.7642 99.4658 77.762C99.5892 77.7517 99.6884 77.8536 99.6895 77.9719L99.7061 78.0989C99.7694 78.3947 100.004 78.6766 100.32 78.8127C100.654 78.9535 101.073 78.963 101.503 78.8274L101.657 78.7708C102.014 78.6272 102.346 78.4044 102.629 78.2024C103.71 77.4203 104.443 76.6174 104.877 75.7415L104.878 75.7405Z" fill="black" stroke="black" stroke-width="0.1"/>
<path d="M101.289 79.8755C101.251 79.8755 101.204 79.8602 101.174 79.8294C101.012 79.6677 100.889 79.4829 100.804 79.2827C100.766 79.198 100.804 79.0979 100.889 79.0594C100.973 79.0209 101.074 79.0594 101.112 79.1441C101.181 79.3135 101.289 79.4598 101.412 79.5907C101.474 79.6523 101.474 79.7601 101.412 79.8294C101.381 79.8602 101.335 79.8755 101.289 79.8755Z" fill="black"/>
<path d="M58.2011 86.2124H37.2581C36.9579 86.2124 36.6961 86.4126 36.6114 86.6975L28.65 113.507C28.5191 113.946 28.8502 114.378 29.2967 114.378H50.2474C50.54 114.378 50.8094 114.185 50.8941 113.892L58.8478 87.0825C58.9787 86.6513 58.6553 86.2124 58.2011 86.2124Z" fill="black"/>
<path d="M41.998 97.6641C42.7923 97.5767 43.6199 97.861 44.0098 98.4551L44.0811 98.5771C44.2796 98.9619 44.2225 99.474 43.9795 99.8418L44.3047 100.2C44.5856 100.052 44.8709 99.9329 45.1709 99.8701L45.1758 99.8682C45.7802 99.7276 46.4351 99.8575 46.8018 100.273V100.274C47.2181 100.754 47.2019 101.548 46.8633 102.169C46.5225 102.794 45.9429 103.257 45.3271 103.74C45.324 103.743 45.3205 103.745 45.3174 103.748L45.6357 104.134C45.639 104.131 45.6423 104.129 45.6455 104.126C45.9929 103.824 46.4812 103.71 46.957 103.781C47.433 103.852 47.8669 104.104 48.1104 104.493C48.3516 104.879 48.3593 105.263 48.2051 105.659C48.0455 106.069 47.7117 106.492 47.2715 106.913L47.0469 107.128L47.3057 107.302C47.5876 107.491 47.7644 107.802 47.833 108.168C47.9018 108.535 47.8572 108.94 47.7139 109.284C47.417 109.998 46.8045 110.547 46.1582 111.107C44.2643 112.731 40.4787 115.121 36.9834 117.163C35.2392 118.182 33.5733 119.112 32.2598 119.812C31.6028 120.161 31.035 120.453 30.5908 120.67C30.2546 120.834 29.9974 120.949 29.8281 121.016C29.3549 120.506 28.7571 119.566 28.1221 118.379C27.4431 117.11 26.7326 115.588 26.0947 114.08C25.4568 112.572 24.893 111.082 24.5068 109.879C24.3136 109.277 24.1667 108.75 24.0762 108.331C24.0027 107.991 23.9732 107.745 23.9756 107.591C23.9774 107.59 23.9796 107.589 23.9814 107.588C24.0592 107.543 24.1735 107.476 24.3213 107.391C24.6171 107.22 25.0465 106.973 25.5771 106.666C26.6385 106.053 28.1087 105.204 29.7441 104.263C33.0155 102.379 36.9471 100.123 39.5908 98.6338H39.5918C40.384 98.1833 41.1565 97.7576 41.998 97.6641Z" fill="white" stroke="black" stroke-width="0.5"/>
<path d="M37.982 104.16C37.9281 104.16 37.8742 104.137 37.8434 104.083C37.7895 104.006 37.8126 103.898 37.8973 103.852C39.8299 102.659 41.7625 101.419 43.6412 100.156C43.7182 100.102 43.826 100.126 43.8799 100.203C43.9338 100.28 43.9107 100.387 43.8337 100.434C41.9473 101.704 40.007 102.951 38.0744 104.137C38.0436 104.152 38.0128 104.16 37.982 104.16Z" fill="black"/>
<path d="M40.4301 107.787C40.3762 107.787 40.33 107.764 40.2915 107.717C40.2376 107.64 40.2607 107.533 40.33 107.479L45.3193 103.914C45.3963 103.86 45.5041 103.875 45.558 103.952C45.6119 104.029 45.5965 104.137 45.5195 104.191L40.5302 107.756C40.4994 107.776 40.466 107.787 40.4301 107.787Z" fill="black"/>
<path d="M42.7715 110.759C42.7176 110.759 42.6637 110.736 42.6329 110.689C42.579 110.612 42.6021 110.505 42.6791 110.451C44.1882 109.427 45.6742 108.318 47.0833 107.163C47.1603 107.101 47.2681 107.109 47.322 107.186C47.3835 107.255 47.3758 107.363 47.2988 107.425C45.8821 108.587 44.3884 109.704 42.8639 110.736C42.8382 110.751 42.8074 110.759 42.7715 110.759Z" fill="black"/>
<path d="M29.6309 121.128C29.7289 121.059 29.8686 121.077 29.9395 121.179C30.009 121.278 29.987 121.407 29.8906 121.484L29.8896 121.486C24.7247 125.289 19.1912 128.949 13.1592 128.949C12.3878 128.949 11.6089 128.887 10.8145 128.756C10.6883 128.745 10.6115 128.622 10.6309 128.506C10.6507 128.387 10.7607 128.306 10.8809 128.326C17.6559 129.431 23.8451 125.387 29.6299 121.128H29.6309Z" fill="black" stroke="black" stroke-width="0.1"/>
<path d="M23.084 107.602C23.1805 107.57 23.2871 107.603 23.3408 107.7L23.3594 107.739C23.3922 107.833 23.3581 107.947 23.2607 108L23.2598 107.999L12.0586 114.475L12.0576 114.474C12.0243 114.494 11.9882 114.504 11.9492 114.504C11.8699 114.504 11.7986 114.465 11.7588 114.395V114.394C11.7012 114.288 11.7281 114.156 11.8389 114.095L23.042 107.62L23.043 107.62L23.084 107.602Z" fill="black" stroke="black" stroke-width="0.1"/>
<path d="M18.5938 96.4811L18.5947 96.4801L18.5977 96.4811H18.5986L18.5977 96.4821C18.7161 96.5035 18.7935 96.62 18.7656 96.7389L18.7666 96.7399L15.7559 111.454L15.7549 111.459C15.7269 111.552 15.6415 111.632 15.5381 111.632C15.5243 111.632 15.5116 111.627 15.499 111.623V111.625C15.3781 111.604 15.2972 111.484 15.3271 111.363L18.3379 96.651V96.649C18.366 96.5364 18.4718 96.4535 18.5938 96.4811Z" fill="black" stroke="black" stroke-width="0.1"/>
<path d="M18.0631 18.8947C18.0631 17.4318 16.8773 16.2538 15.4144 16.2538C13.9592 16.2538 12.7734 17.4318 12.7734 18.8947C12.7734 20.35 13.9592 21.5357 15.4144 21.5357C16.8773 21.5357 18.0631 20.35 18.0631 18.8947Z" fill="#E9E9E9"/>
<path d="M25.7702 18.8947C25.7702 17.4318 24.5845 16.2538 23.1292 16.2538C21.6663 16.2538 20.4883 17.4318 20.4883 18.8947C20.4883 20.35 21.6663 21.5357 23.1292 21.5357C24.5845 21.5357 25.7702 20.35 25.7702 18.8947Z" fill="#E9E9E9"/>
<path d="M33.4849 18.8947C33.4849 17.4318 32.2992 16.2538 30.8363 16.2538C29.3811 16.2538 28.1953 17.4318 28.1953 18.8947C28.1953 20.35 29.3811 21.5357 30.8363 21.5357C32.2992 21.5357 33.4849 20.35 33.4849 18.8947Z" fill="#E9E9E9"/>
<path d="M0.169392 84.1335C0.076997 84.1335 0 84.0565 0 83.9641V18.8947C0 18.8023 0.076997 18.7253 0.169392 18.7253H9.50131C9.59371 18.7253 9.6707 18.8023 9.6707 18.8947C9.6707 18.9871 9.59371 19.0641 9.50131 19.0641H0.338784V83.9641C0.338784 84.0565 0.261788 84.1335 0.169392 84.1335Z" fill="black"/>
<path d="M60.6646 19.118H36.226C36.1259 19.118 36.0566 19.041 36.0566 18.9486C36.0566 18.8562 36.1259 18.7792 36.226 18.7792H60.6646C60.757 18.7792 60.834 18.8562 60.834 18.9486C60.834 19.041 60.757 19.118 60.6646 19.118Z" fill="black"/>
<path d="M142.15 123.833H114.547V107.078H142.15V123.833Z" fill="white"/>
<path d="M142.149 106.859C142.269 106.859 142.369 106.958 142.369 107.078V123.833C142.369 123.953 142.269 124.052 142.149 124.052H114.546C114.426 124.052 114.327 123.953 114.327 123.833V107.078C114.327 106.958 114.426 106.859 114.546 106.859H142.149ZM114.766 123.613H141.93V107.298H114.766V123.613Z" fill="black" stroke="black" stroke-width="0.1"/>
<path d="M153.383 123.833H137.176V107.078H153.383V123.833Z" fill="white"/>
<path d="M153.383 106.859C153.503 106.859 153.602 106.958 153.603 107.078V123.833C153.602 123.953 153.503 124.052 153.383 124.052H137.175C137.055 124.052 136.956 123.953 136.956 123.833V107.078C136.956 106.958 137.055 106.859 137.175 106.859H153.383ZM137.395 123.613H153.163V107.298H137.395V123.613Z" fill="black" stroke="black" stroke-width="0.1"/>
<path d="M153.384 110.717C153.502 110.717 153.602 110.806 153.603 110.935C153.603 111.055 153.504 111.155 153.384 111.155H114.569C114.45 111.155 114.351 111.055 114.351 110.935C114.351 110.807 114.451 110.717 114.569 110.717H153.384Z" fill="black" stroke="black" stroke-width="0.1"/>
<path d="M145.63 114.709H167.374V124.179H145.592C145.592 124.179 145.63 114.578 145.63 114.709Z" fill="white"/>
<path d="M167.373 114.489C167.493 114.489 167.593 114.588 167.593 114.708V124.179C167.593 124.299 167.493 124.399 167.373 124.399H145.591C145.541 124.398 145.482 124.379 145.44 124.338C145.402 124.3 145.372 124.241 145.372 124.179L145.41 114.817V114.704C145.414 114.657 145.428 114.603 145.463 114.561C145.5 114.516 145.555 114.489 145.63 114.489H167.373ZM145.83 119.447C145.823 121.385 145.814 123.322 145.811 123.96H167.154V114.928H145.85C145.846 115.569 145.838 117.509 145.83 119.447Z" fill="black" stroke="black" stroke-width="0.1"/>
<path d="M154.339 114.709H173.304V124.179H154.309C154.309 124.179 154.339 114.578 154.339 114.709Z" fill="white"/>
<path d="M173.303 114.489C173.423 114.489 173.522 114.588 173.522 114.708V124.179C173.522 124.299 173.423 124.399 173.303 124.399H154.308C154.249 124.398 154.198 124.379 154.157 124.338V124.337C154.107 124.294 154.089 124.234 154.089 124.179L154.119 114.817C154.119 114.793 154.123 114.767 154.127 114.74C154.123 114.729 154.119 114.718 154.119 114.708V114.658H154.136C154.143 114.625 154.156 114.591 154.179 114.562C154.214 114.517 154.267 114.489 154.339 114.489H173.303ZM154.527 123.96H173.084V114.928H154.559C154.558 116.211 154.535 122.683 154.527 123.96Z" fill="black" stroke="black" stroke-width="0.1"/>
<path d="M162.809 114.886V120.16H165.989V114.878L162.809 114.886Z" fill="#E9E9E9"/>
<path d="M148.871 114.886V120.152H150.981V114.878L148.871 114.886Z" fill="#E9E9E9"/>
<path d="M164.594 140.826H110.158V123.825H164.594V140.826Z" fill="white"/>
<path d="M164.594 123.606C164.723 123.606 164.813 123.706 164.813 123.824V140.825C164.813 140.944 164.723 141.045 164.594 141.045H110.157C110.037 141.045 109.938 140.945 109.938 140.825V123.824C109.939 123.705 110.038 123.606 110.157 123.606H164.594ZM110.377 140.607H164.374V124.044H110.377V140.607Z" fill="black" stroke="black" stroke-width="0.1"/>
<path d="M183.312 140.833H158.48V123.833H183.312V140.833Z" fill="white"/>
<path d="M183.313 123.613C183.433 123.614 183.532 123.712 183.532 123.832V140.833C183.532 140.953 183.433 141.053 183.313 141.053H158.481C158.362 141.053 158.263 140.953 158.263 140.833V123.832C158.263 123.712 158.362 123.614 158.481 123.613H183.313ZM158.701 140.614H183.094V124.052H158.701V140.614Z" fill="black" stroke="black" stroke-width="0.1"/>
<path d="M131.17 124.002L131.162 133.657H138.107V123.994L131.17 124.002Z" fill="#E9E9E9"/>
<path d="M168.859 124.017L168.852 133.673H174.187V124.01L168.859 124.017Z" fill="#E9E9E9"/>
<path d="M147.802 105.23H169.546V114.701H147.764C147.764 114.701 147.802 105.092 147.802 105.23Z" fill="white"/>
<path d="M169.545 105.011C169.665 105.011 169.764 105.11 169.765 105.23V114.701C169.765 114.821 169.665 114.92 169.545 114.92H147.763C147.699 114.92 147.648 114.888 147.612 114.852C147.575 114.815 147.544 114.756 147.544 114.701L147.582 105.331V105.226C147.586 105.175 147.6 105.121 147.636 105.079C147.673 105.034 147.729 105.011 147.802 105.011H169.545ZM147.982 114.482H169.326V105.45H148.014C148.013 106.727 147.99 113.198 147.982 114.482Z" fill="black" stroke="black" stroke-width="0.1"/>
<path d="M175.523 105.18V114.751H156.429V114.593C156.429 114.523 156.429 114.42 156.43 114.288C156.431 114.026 156.432 113.651 156.434 113.202C156.436 112.303 156.44 111.106 156.444 109.913C156.448 108.721 156.451 107.533 156.454 106.652C156.456 106.211 156.457 105.847 156.458 105.597C156.458 105.473 156.459 105.377 156.459 105.314V105.227C156.476 105.21 156.494 105.208 156.51 105.208V105.18H175.523Z" fill="white" stroke="black" stroke-width="0.1"/>
<path fill-rule="evenodd" clip-rule="evenodd" d="M175.475 114.87H156.48C156.434 114.87 156.395 114.847 156.364 114.816C156.326 114.786 156.311 114.739 156.311 114.701L156.341 105.331C156.341 105.305 156.344 105.279 156.349 105.254C156.344 105.243 156.341 105.236 156.341 105.23H156.349C156.357 105.138 156.395 105.061 156.511 105.061C156.521 105.061 156.529 105.061 156.534 105.061H175.475C175.567 105.061 175.644 105.138 175.644 105.23V114.701C175.644 114.793 175.567 114.87 175.475 114.87ZM156.649 114.532H175.305V105.4H156.68C156.68 106.562 156.657 113.361 156.649 114.532Z" fill="black"/>
<path d="M156.597 105.022L156.603 105.024L156.602 105.025C156.679 105.063 156.729 105.14 156.729 105.222L156.775 108.407H175.482C175.602 108.407 175.701 108.506 175.701 108.625C175.701 108.745 175.602 108.845 175.482 108.845H156.557C156.437 108.845 156.337 108.746 156.337 108.626L156.3 105.739L152.279 109.632L152.276 109.635C152.231 109.672 152.18 109.692 152.121 109.692C152.084 109.692 152.041 109.682 152.005 109.659L151.971 109.631L147.705 105.427C147.618 105.34 147.615 105.2 147.697 105.118C147.784 105.031 147.923 105.028 148.006 105.11H148.007L152.129 109.171L156.359 105.072C156.42 105.011 156.518 104.992 156.597 105.022Z" fill="black" stroke="black" stroke-width="0.1"/>
<path d="M147.763 114.87C147.732 114.87 147.704 114.86 147.679 114.839C147.594 114.793 147.571 114.686 147.625 114.609L151.29 108.741C151.336 108.664 151.444 108.641 151.521 108.688C151.598 108.741 151.621 108.842 151.575 108.919L147.91 114.786C147.879 114.84 147.825 114.87 147.763 114.87Z" fill="black"/>
<path d="M156.48 114.87C156.426 114.87 156.372 114.84 156.333 114.786L152.684 108.919C152.638 108.842 152.661 108.741 152.738 108.688C152.815 108.641 152.923 108.664 152.969 108.741L156.626 114.609C156.672 114.686 156.649 114.793 156.572 114.839C156.541 114.86 156.511 114.87 156.48 114.87Z" fill="black"/>
<path d="M26 98.1L20.5 78.1L24.5 77.6L29.5 98.1H26Z" fill="white"/>
</svg>
