<svg width="212" height="142" viewBox="0 0 212 142" fill="none" xmlns="http://www.w3.org/2000/svg">
<path d="M32.2413 140.648H101.205C104.471 140.648 107.119 138.002 107.119 134.739L107.119 6.22836C107.119 2.96481 104.471 0.319168 101.205 0.319168H32.2413C28.9752 0.319168 26.3274 2.96481 26.3274 6.22836L26.3274 134.739C26.3274 138.002 28.9752 140.648 32.2413 140.648Z" fill="white"/>
<path d="M101.205 140.817H32.2413C28.8871 140.817 26.1582 138.09 26.1582 134.738V6.22829C26.1582 2.87672 28.8871 0.150024 32.2413 0.150024H101.205C104.559 0.150024 107.288 2.87672 107.288 6.22829V134.738C107.288 138.09 104.559 140.817 101.205 140.817ZM32.2413 0.488163C29.0737 0.488163 26.4966 3.06317 26.4966 6.22829V134.738C26.4966 137.904 29.0737 140.479 32.2413 140.479H101.205C104.373 140.479 106.95 137.904 106.95 134.738V6.22829C106.95 3.06317 104.373 0.488163 101.205 0.488163H32.2413Z" fill="black" stroke="black" stroke-width="0.3"/>
<path d="M98.8525 136.193H34.5946C32.1212 136.193 30.1131 134.186 30.1131 131.715L30.1131 8.86462C30.1131 6.3932 32.1212 4.38671 34.5945 4.38671H98.8525C101.326 4.38671 103.334 6.3932 103.334 8.86462L103.334 131.715C103.334 134.186 101.326 136.193 98.8525 136.193Z" fill="white"/>
<path d="M98.852 136.362H34.594C32.0297 136.362 29.9434 134.277 29.9434 131.715V8.86463C29.9434 6.30228 32.0297 4.21765 34.594 4.21765H98.852C101.416 4.21765 103.503 6.30228 103.503 8.86463V131.715C103.503 134.277 101.416 136.362 98.852 136.362ZM34.594 4.55579C32.2162 4.55579 30.2818 6.48873 30.2818 8.86463V131.715C30.2818 134.091 32.2162 136.024 34.594 136.024H98.852C101.23 136.024 103.164 134.091 103.164 131.715V8.86463C103.164 6.48873 101.23 4.55579 98.852 4.55579H34.594Z" fill="black" stroke="black" stroke-width="0.3"/>
<path d="M75.7687 8.52637H60.4329C60.3393 8.52637 60.2637 8.45067 60.2637 8.3573C60.2637 8.26394 60.3393 8.18823 60.4329 8.18823H75.7687C75.8622 8.18823 75.9379 8.26394 75.9379 8.3573C75.9379 8.45067 75.8622 8.52637 75.7687 8.52637Z" fill="black"/>
<path d="M149.018 56.7496H86.1973V119.52H149.018V56.7496Z" fill="white"/>
<path d="M149.015 119.69H86.1946C86.1011 119.69 86.0254 119.614 86.0254 119.52V56.7498C86.0254 56.6564 86.1011 56.5807 86.1946 56.5807H149.015C149.109 56.5807 149.184 56.6564 149.184 56.7498V119.52C149.184 119.614 149.109 119.69 149.015 119.69ZM86.3638 119.351H148.846V56.9188H86.3638V119.351Z" fill="black" stroke="black" stroke-width="0.3"/>
<path d="M138.35 70.9409C134.083 65.0443 127.142 61.2068 119.303 61.2068V84.6796L138.35 70.9409Z" fill="#E9E9E9"/>
<path d="M135.178 73.4844C135.099 73.4844 135.021 73.448 134.972 73.3794C131.343 68.3659 125.487 65.3727 119.305 65.3727C119.164 65.3727 119.051 65.2591 119.051 65.1191C119.051 64.979 119.164 64.8655 119.305 64.8655C125.649 64.8655 131.66 67.9372 135.383 73.0822C135.465 73.1957 135.44 73.3543 135.326 73.4364C135.281 73.4688 135.229 73.4844 135.178 73.4844Z" fill="white"/>
<path d="M117.605 88.1352V64.6624C104.631 64.6624 94.1133 75.1715 94.1133 88.1352C94.1133 101.099 104.631 111.608 117.605 111.608C130.579 111.608 141.096 101.099 141.096 88.1352C141.096 83.0044 139.448 78.2589 136.652 74.3965L117.605 88.1352Z" fill="#E9E9E9"/>
<path d="M117.603 107.95C106.669 107.95 97.7734 99.0608 97.7734 88.1352C97.7734 77.2096 106.669 68.3209 117.603 68.3209C117.744 68.3209 117.857 68.4345 117.857 68.5745C117.857 68.7146 117.744 68.8281 117.603 68.8281C106.949 68.8281 98.281 77.4893 98.281 88.1352C98.281 98.7812 106.949 107.442 117.603 107.442C128.258 107.442 136.926 98.7812 136.926 88.1352C136.926 84.0467 135.662 80.1391 133.271 76.8349C133.188 76.7214 133.214 76.5629 133.328 76.4808C133.441 76.3987 133.6 76.4241 133.682 76.5377C136.136 79.929 137.433 83.9393 137.433 88.1352C137.433 99.0608 128.538 107.95 117.603 107.95Z" fill="white"/>
<path d="M108.235 90.1008C110.366 90.1008 112.093 88.3749 112.093 86.2459C112.093 84.1169 110.366 82.391 108.235 82.391C106.104 82.391 104.377 84.1169 104.377 86.2459C104.377 88.3749 106.104 90.1008 108.235 90.1008Z" fill="white"/>
<path d="M124.868 74.8478C126.177 74.8478 127.238 73.7876 127.238 72.4797C127.238 71.1718 126.177 70.1116 124.868 70.1116C123.559 70.1116 122.498 71.1718 122.498 72.4797C122.498 73.7876 123.559 74.8478 124.868 74.8478Z" fill="white"/>
<path d="M124.082 101.159C126.472 100.17 127.607 97.432 126.617 95.0441C125.627 92.6561 122.887 91.5222 120.497 92.5113C118.107 93.5004 116.972 96.238 117.962 98.626C118.952 101.014 121.692 102.148 124.082 101.159Z" fill="white"/>
<path d="M86.1821 103.737V119.514H98.4336C98.4336 119.514 99.7279 121.351 98.0041 122.292C98.0041 122.292 100.187 124.724 97.9103 125.87C96.2675 126.696 89.9689 126.779 85.6273 126.686C83.3848 126.637 81.423 125.167 80.7466 123.03L78.3129 115.342C77.9119 114.075 76.7357 113.214 75.4061 113.214H30.1133V89.7195C30.1133 89.7195 76.7283 88.9328 84.9165 89.9076C88.1822 90.2964 90.87 92.6592 91.6975 95.8396C92.36 98.3859 93.1751 101.196 93.7271 101.99C94.802 103.536 95.7841 104.514 98.0338 105.26C100.283 106.005 99.8889 108.954 97.3568 109.399C94.8246 109.844 88.6999 106.116 86.1821 103.737Z" fill="white"/>
<path d="M88.3853 126.884C87.2269 126.884 86.2408 126.868 85.6229 126.855C83.308 126.805 81.2831 125.288 80.5846 123.081L78.1508 115.393C77.7705 114.191 76.6672 113.383 75.4054 113.383H30.1126C30.019 113.383 29.9434 113.308 29.9434 113.214V89.7195C29.9434 89.6272 30.0174 89.552 30.1098 89.5504C30.5761 89.5425 76.8301 88.7747 84.9359 89.7397C88.2374 90.1327 91.0202 92.567 91.8606 95.797C92.7343 99.1554 93.4275 101.263 93.8652 101.893C94.948 103.45 95.8982 104.374 98.0863 105.099C99.1393 105.448 99.7476 106.292 99.6737 107.302C99.6048 108.24 98.8707 109.304 97.3853 109.565C97.2331 109.592 97.0694 109.605 96.8962 109.605C94.0967 109.605 88.7451 106.25 86.3507 104.121V119.345H98.4329C98.488 119.345 98.5397 119.372 98.5712 119.417C98.5987 119.456 99.2395 120.379 99.0247 121.301C98.9268 121.72 98.6697 122.068 98.2594 122.336C98.5625 122.721 99.2692 123.744 99.0856 124.716C98.9815 125.267 98.6114 125.706 97.9858 126.021C96.5386 126.749 91.7411 126.884 88.3853 126.884ZM30.2818 113.045H75.4054C76.8154 113.045 78.0484 113.948 78.4734 115.291L80.9072 122.979C81.562 125.048 83.4601 126.47 85.6302 126.517C90.5525 126.623 96.3422 126.469 97.8336 125.719C98.3602 125.454 98.6696 125.095 98.7532 124.653C98.9495 123.614 97.8881 122.417 97.8774 122.405C97.8429 122.366 97.8278 122.314 97.8366 122.263C97.8454 122.212 97.8769 122.168 97.9222 122.143C98.3463 121.912 98.6063 121.603 98.6948 121.225C98.8449 120.585 98.4747 119.902 98.3406 119.683H86.1815C86.0879 119.683 86.0123 119.608 86.0123 119.514V103.737C86.0123 103.67 86.0524 103.609 86.1145 103.582C86.1765 103.555 86.2487 103.568 86.2976 103.614C88.9611 106.13 94.9623 109.647 97.3268 109.232C98.6327 109.003 99.277 108.085 99.3361 107.277C99.3983 106.43 98.8786 105.718 97.9799 105.42C95.7138 104.669 94.6878 103.669 93.5873 102.086C93.1205 101.414 92.4293 99.3271 91.5331 95.8821C90.7274 92.7857 88.0601 90.4522 84.8959 90.0755C77.0575 89.1423 33.3509 89.8357 30.2818 89.8858V113.045Z" fill="black" stroke="black" stroke-width="0.3"/>
<path d="M98.0018 122.461H87.0925C86.1594 122.461 85.3297 121.868 85.028 120.986L83.5423 116.64C83.5121 116.552 83.5594 116.455 83.6478 116.425C83.7362 116.395 83.8323 116.442 83.8626 116.531L85.3482 120.876C85.6032 121.622 86.3042 122.123 87.0925 122.123H98.0018C98.0953 122.123 98.171 122.198 98.171 122.292C98.171 122.385 98.0953 122.461 98.0018 122.461Z" fill="black" stroke="black" stroke-width="0.3"/>
<path d="M137.871 32.0194C140.806 31.2691 142.359 29.8786 143.178 28.6716C142.867 27.6832 142.557 26.6948 142.217 25.7217C140.906 21.9679 138.912 18.1552 135.415 16.2579C134.792 15.9199 134.095 15.6443 133.391 15.7282C132.687 15.8122 131.998 16.3601 131.971 17.0679C131.909 18.6525 134.665 18.949 134.963 20.5066C133.997 19.6806 132.232 20.2441 131.924 21.477C130.957 21.5987 130.251 22.7103 130.551 23.6362C129.959 24.1623 129.737 25.0645 130.016 25.8052C130.296 26.5459 131.059 27.0767 131.851 27.0815C131.96 28.5593 132.128 30.0327 132.354 31.4973C133.631 32.1 135.565 32.609 137.871 32.0194Z" fill="white"/>
<path d="M135.819 32.4506C134.351 32.4506 133.137 32.0546 132.28 31.6502C132.229 31.6262 132.194 31.5785 132.185 31.523C131.966 30.1019 131.801 28.6631 131.692 27.2435C130.885 27.1756 130.144 26.6266 129.857 25.8648C129.563 25.0878 129.771 24.1659 130.359 23.5836C130.243 23.1208 130.335 22.6097 130.618 22.1645C130.9 21.7206 131.322 21.4204 131.789 21.3275C131.977 20.7416 132.476 20.272 133.143 20.0587C133.66 19.8938 134.183 19.9125 134.621 20.0997C134.35 19.6589 133.835 19.3254 133.333 19.0003C132.561 18.5008 131.764 17.9843 131.8 17.0613C131.833 16.2351 132.624 15.6493 133.37 15.5604C134.188 15.4627 134.974 15.827 135.495 16.1094C138.436 17.7052 140.687 20.8312 142.376 25.666C142.715 26.6383 143.03 27.6411 143.335 28.6108C143.35 28.66 143.345 28.7239 143.317 28.7666C142.554 29.8898 140.998 31.3944 137.912 32.1832C137.171 32.3727 136.47 32.4506 135.819 32.4506ZM132.506 31.3822C133.697 31.9283 135.565 32.4343 137.828 31.8557C140.75 31.1088 142.245 29.7108 142.99 28.6437C142.691 27.6913 142.385 26.7188 142.056 25.7774C140.396 21.0257 138.197 17.9604 135.333 16.4065C134.853 16.1462 134.133 15.81 133.41 15.8961C132.818 15.9667 132.163 16.4374 132.138 17.0746C132.11 17.8052 132.793 18.2479 133.517 18.7166C134.232 19.18 134.972 19.6591 135.128 20.4749C135.141 20.5454 135.109 20.6168 135.047 20.6528C134.985 20.6889 134.906 20.6818 134.852 20.6351C134.443 20.2855 133.843 20.1905 133.247 20.3808C132.65 20.5711 132.217 20.9962 132.087 21.5179C132.07 21.5857 132.013 21.636 131.943 21.6448C131.533 21.6965 131.154 21.952 130.904 22.3457C130.653 22.7395 130.583 23.1909 130.711 23.584C130.732 23.6479 130.713 23.7179 130.663 23.7625C130.126 24.2398 129.92 25.0737 130.173 25.7455C130.427 26.4174 131.132 26.9081 131.851 26.9124C131.939 26.913 132.012 26.9812 132.018 27.0691C132.124 28.4985 132.288 29.9491 132.506 31.3822Z" fill="black" stroke="black" stroke-width="0.3"/>
<path d="M163.717 27.4024C163.364 27.199 161.926 28.2645 161.573 28.4604C160.041 29.3106 158.509 30.1607 156.977 31.0108C153.499 32.9405 150.022 34.8703 146.544 36.8C144.953 34.3214 144.064 31.4957 143.178 28.6714C142.358 29.8784 140.806 31.2689 137.871 32.0192C135.565 32.6088 133.631 32.0999 132.354 31.4971C133.041 35.9618 134.266 40.344 135.999 44.5163C136.809 46.4675 137.791 48.451 139.484 49.7174C141.175 50.9833 143.416 51.3729 145.51 51.0902C147.604 50.8075 149.571 49.9043 151.369 48.7949C155.906 45.996 159.494 41.7502 161.649 36.8898C162.728 34.4594 163.451 31.8696 163.756 29.2275C163.798 28.8659 164.107 27.6267 163.717 27.4024Z" fill="white"/>
<path d="M144.217 51.3466C142.393 51.3466 140.679 50.8256 139.379 49.8528C137.657 48.5639 136.66 46.5575 135.84 44.5812C134.105 40.4036 132.875 36.0101 132.184 31.5228C132.174 31.4611 132.2 31.3991 132.25 31.3616C132.3 31.3242 132.367 31.3176 132.423 31.3442C133.61 31.9042 135.51 32.4475 137.826 31.8555C140.81 31.0929 142.305 29.6515 143.035 28.5766C143.071 28.523 143.134 28.4948 143.199 28.5042C143.264 28.5137 143.317 28.559 143.336 28.6209C144.189 31.3362 145.07 34.1423 146.599 36.5748L161.488 28.3126C161.561 28.2723 161.694 28.185 161.848 28.084C162.9 27.3955 163.49 27.078 163.799 27.2559C164.189 27.4801 164.099 28.2019 163.963 28.9854C163.945 29.0931 163.929 29.1839 163.921 29.247C163.617 31.8777 162.904 34.4722 161.801 36.9584C159.597 41.9279 155.923 46.1827 151.455 48.9388C149.334 50.2474 147.396 51.0059 145.53 51.2577C145.089 51.3173 144.65 51.3466 144.217 51.3466ZM132.566 31.7793C133.261 36.1329 134.467 40.3946 136.152 44.4516C136.954 46.3834 137.925 48.3421 139.582 49.5821C141.12 50.7329 143.272 51.2214 145.485 50.9227C147.303 50.6773 149.198 49.9343 151.278 48.6511C155.688 45.9304 159.315 41.7292 161.492 36.8214C162.581 34.3664 163.285 31.8049 163.585 29.2082C163.593 29.1405 163.61 29.0431 163.63 28.9276C163.683 28.6178 163.847 27.6755 163.631 27.5493C163.421 27.459 162.377 28.142 162.034 28.3668C161.867 28.4758 161.736 28.5619 161.652 28.6083L146.624 36.9478C146.545 36.9912 146.447 36.9663 146.399 36.8913C144.855 34.4865 143.959 31.7302 143.115 29.0448C142.292 30.1275 140.747 31.4577 137.91 32.1831C135.677 32.7541 133.813 32.3113 132.566 31.7793Z" fill="black" stroke="black" stroke-width="0.3"/>
<path d="M137.213 27.7978C136.787 27.7979 136.367 27.5393 136.117 27.2139C135.843 26.8584 135.709 26.4329 135.581 26.0214C135.56 25.9561 135.54 25.8909 135.519 25.8262C135.384 25.4085 135.197 24.9457 134.837 24.6804C134.643 24.5377 134.408 24.4569 134.16 24.3713C134.032 24.3273 133.9 24.2819 133.772 24.2268C133.255 24.0046 132.939 23.6278 132.926 23.2189C132.913 22.8028 133.209 22.4097 133.758 22.1122C134.738 21.5813 135.923 21.4127 137.013 21.6495C138.101 21.8863 139.11 22.5323 139.78 23.422C139.837 23.4966 139.822 23.6026 139.747 23.6588C139.672 23.7151 139.566 23.6999 139.51 23.6254C138.888 22.7995 137.951 22.1997 136.94 21.9799C135.929 21.7599 134.828 21.9166 133.919 22.4094C133.67 22.5446 133.253 22.8283 133.265 23.2086C133.274 23.5314 133.602 23.7858 133.905 23.9162C134.022 23.9663 134.142 24.0077 134.27 24.0516C134.531 24.1417 134.802 24.2348 135.037 24.4081C135.475 24.7303 135.689 25.2533 135.841 25.7223C135.862 25.788 135.883 25.8541 135.904 25.9204C136.029 26.3213 136.148 26.6999 136.385 27.0076C136.626 27.321 137.087 27.5686 137.466 27.4098C137.551 27.3738 137.651 27.414 137.687 27.5002C137.723 27.5863 137.683 27.6854 137.597 27.7216C137.471 27.7742 137.342 27.7978 137.213 27.7978Z" fill="black" stroke="black" stroke-width="0.3"/>
<path d="M134.401 25.6063C134.183 25.6063 133.968 25.5611 133.781 25.4807C133.341 25.2915 132.957 24.9195 132.608 24.3436C132.13 23.5545 131.845 22.651 131.782 21.7307C131.775 21.6376 131.846 21.5569 131.939 21.5506C132.038 21.5442 132.113 21.6147 132.119 21.7078C132.179 22.5744 132.448 23.4253 132.898 24.1686C133.209 24.6821 133.542 25.0097 133.915 25.1701C134.293 25.3329 134.85 25.311 135.136 24.9492C135.194 24.876 135.3 24.8633 135.373 24.9213C135.447 24.9791 135.459 25.0855 135.401 25.1588C135.152 25.4739 134.774 25.6063 134.401 25.6063Z" fill="black" stroke="black" stroke-width="0.3"/>
<path d="M133.073 26.5499C133.016 26.5499 132.958 26.5469 132.901 26.5407C132.297 26.4754 131.7 26.0975 131.263 25.5038C130.869 24.9685 130.633 24.3171 130.444 23.7937C130.412 23.7059 130.457 23.609 130.545 23.5772C130.633 23.5456 130.73 23.5908 130.762 23.6787C130.994 24.3183 131.198 24.8441 131.536 25.3035C131.916 25.821 132.427 26.1494 132.937 26.2045C133.513 26.2666 134.082 25.9368 134.235 25.454C134.263 25.3652 134.358 25.3157 134.447 25.344C134.537 25.3722 134.586 25.4673 134.557 25.5563C134.373 26.1372 133.741 26.5499 133.073 26.5499Z" fill="black" stroke="black" stroke-width="0.3"/>
<path d="M132.013 27.1965C131.914 27.1965 131.816 27.1855 131.72 27.1626C131.629 27.141 131.573 27.0499 131.594 26.959C131.616 26.8681 131.708 26.8122 131.798 26.8337C132.202 26.9295 132.658 26.7465 132.883 26.3981C132.933 26.3197 133.038 26.2971 133.116 26.3477C133.195 26.3983 133.218 26.5029 133.167 26.5814C132.921 26.9633 132.466 27.1965 132.013 27.1965Z" fill="black"/>
<path d="M148.577 39.314C148.535 39.314 148.493 39.2984 148.46 39.2671C147.882 38.7135 147.355 38.1012 146.894 37.4473C146.84 37.371 146.859 37.2655 146.935 37.2117C147.011 37.1581 147.117 37.1763 147.171 37.2527C147.619 37.8888 148.131 38.4844 148.694 39.0229C148.762 39.0874 148.764 39.1945 148.699 39.2619C148.666 39.2966 148.622 39.314 148.577 39.314Z" fill="black" stroke="black" stroke-width="0.3"/>
<path d="M162.695 25.0287C162.103 25.1834 161.641 25.6427 161.482 26.2333C159.145 34.8954 153.728 42.5612 151.728 51.3228C151.38 52.8473 151.142 54.4592 151.585 55.9587C151.989 57.3247 152.934 58.4809 154.043 59.3759C155.152 60.271 156.428 60.9326 157.693 61.5879C159.446 57.6262 160.851 53.5217 162.255 49.4232C163.614 45.4522 164.977 41.4689 165.835 37.3605C166.437 34.483 175.966 34.7388 175.882 31.7961C175.859 30.9607 178.852 26.4594 178.293 25.7756C176.956 24.139 163.846 24.7283 162.695 25.0287Z" fill="white"/>
<path d="M157.696 61.7569C157.669 61.7569 157.642 61.7506 157.618 61.738C156.363 61.0884 155.066 60.4167 153.939 59.5074C152.669 58.4823 151.8 57.2717 151.426 56.0066C150.959 54.4303 151.235 52.7353 151.566 51.2852C152.621 46.662 154.654 42.2783 156.62 38.0389C158.388 34.2263 160.216 30.2839 161.32 26.1892C161.495 25.5416 162.006 25.0342 162.655 24.8651C163.706 24.5908 177.009 23.9339 178.427 25.6686C178.798 26.1224 178.171 27.4106 177.093 29.4782C176.578 30.4667 176.045 31.4888 176.054 31.7912C176.1 33.4282 173.623 34.0993 171 34.8099C168.678 35.439 166.276 36.0895 166.003 37.395C165.142 41.5193 163.757 45.5651 162.417 49.4779C161.035 53.5139 159.606 57.6872 157.85 61.6562C157.831 61.6989 157.796 61.7319 157.752 61.7473C157.733 61.7537 157.715 61.7569 157.696 61.7569ZM162.74 25.1922C162.209 25.3308 161.791 25.7466 161.647 26.2773C160.535 30.3999 158.701 34.3556 156.927 38.181C154.968 42.4046 152.943 46.7719 151.896 51.3604C151.574 52.7679 151.306 54.4092 151.75 55.9107C152.105 57.1098 152.935 58.2625 154.152 59.2443C155.205 60.094 156.424 60.7384 157.613 61.3549C159.33 57.4484 160.736 53.3417 162.097 49.3684C163.433 45.4655 164.815 41.4297 165.672 37.3259C165.987 35.8174 168.491 35.1393 170.911 34.4835C173.292 33.8385 175.754 33.1716 175.715 31.8008C175.705 31.4294 176.118 30.6169 176.793 29.322C177.402 28.1531 178.422 26.1965 178.165 25.8825C176.919 24.3584 163.852 24.9021 162.74 25.1922Z" fill="black"/>
<path d="M162.697 25.0287L162.74 25.1922M162.74 25.1922C162.209 25.3308 161.791 25.7466 161.647 26.2773C160.535 30.3999 158.701 34.3556 156.927 38.181C154.968 42.4046 152.943 46.7719 151.896 51.3604C151.574 52.7679 151.306 54.4092 151.75 55.9107C152.105 57.1098 152.935 58.2625 154.152 59.2443C155.205 60.094 156.424 60.7384 157.613 61.3549C159.33 57.4484 160.736 53.3417 162.097 49.3684C163.433 45.4655 164.815 41.4297 165.672 37.3259C165.987 35.8174 168.491 35.1393 170.911 34.4835C173.292 33.8385 175.754 33.1716 175.715 31.8008C175.705 31.4294 176.118 30.6169 176.793 29.322C177.402 28.1531 178.422 26.1965 178.165 25.8825C176.919 24.3584 163.852 24.9021 162.74 25.1922ZM157.696 61.7569C157.669 61.7569 157.642 61.7506 157.618 61.738C156.363 61.0884 155.066 60.4167 153.939 59.5074C152.669 58.4823 151.8 57.2717 151.426 56.0066C150.959 54.4303 151.235 52.7353 151.566 51.2852C152.621 46.662 154.654 42.2783 156.62 38.0389C158.388 34.2263 160.216 30.2839 161.32 26.1892C161.495 25.5416 162.006 25.0342 162.655 24.8651C163.706 24.5908 177.009 23.9339 178.427 25.6686C178.798 26.1224 178.171 27.4106 177.093 29.4782C176.578 30.4667 176.045 31.4888 176.054 31.7912C176.1 33.4282 173.623 34.0993 171 34.8099C168.678 35.439 166.276 36.0895 166.003 37.395C165.142 41.5193 163.757 45.5651 162.417 49.4779C161.035 53.5139 159.606 57.6872 157.85 61.6562C157.831 61.6989 157.796 61.7319 157.752 61.7473C157.733 61.7537 157.715 61.7569 157.696 61.7569Z" stroke="black" stroke-width="0.3"/>
<path d="M157.599 54.7421C157.599 54.7421 151.364 100.076 161.78 134.035L156.931 138.953C156.316 139.576 156.758 140.63 157.633 140.63H178.664C180.965 140.63 182.699 138.54 182.271 136.281C180.485 126.858 176.335 104.841 175.199 97.7584L188.893 135.343L185.557 138.998C184.979 139.63 185.429 140.648 186.286 140.648H207.299C209.831 140.648 211.603 138.147 210.761 135.76C204.944 119.285 186.039 65.9057 180.136 55.4233L157.599 54.7421Z" fill="white"/>
<path d="M207.299 140.817H186.286C185.821 140.817 185.416 140.553 185.228 140.128C185.041 139.704 185.119 139.227 185.432 138.884L188.699 135.305L175.664 99.5286C177.106 108.023 180.819 127.711 182.437 136.249C182.651 137.376 182.354 138.528 181.622 139.41C180.89 140.293 179.812 140.8 178.664 140.8H157.633C157.159 140.8 156.75 140.528 156.567 140.091C156.384 139.653 156.477 139.172 156.81 138.834L161.589 133.988C156.228 116.446 155.381 95.8509 155.615 81.6512C155.869 66.2409 157.416 54.8326 157.431 54.7192C157.443 54.6337 157.514 54.5704 157.604 54.5732L180.141 55.2545C180.201 55.2562 180.255 55.2889 180.284 55.3405C184.255 62.3922 194.849 90.1815 210.92 135.704C211.34 136.894 211.163 138.166 210.434 139.196C209.704 140.226 208.562 140.817 207.299 140.817ZM175.199 97.5894C175.269 97.5894 175.333 97.6326 175.358 97.7007L189.052 135.286C189.074 135.345 189.061 135.411 189.018 135.457L185.682 139.112C185.461 139.354 185.405 139.691 185.538 139.992C185.671 140.292 185.957 140.479 186.286 140.479H207.299C208.45 140.479 209.492 139.94 210.158 139.001C210.823 138.062 210.984 136.901 210.601 135.816C194.599 90.4898 184.033 62.7583 180.036 55.5895L157.747 54.9158C157.564 56.3125 156.19 67.2286 155.953 81.6614C155.719 95.8614 156.568 116.466 161.942 133.986C161.96 134.045 161.944 134.11 161.901 134.154L157.051 139.072C156.77 139.357 156.778 139.718 156.879 139.96C156.981 140.203 157.232 140.462 157.633 140.462H178.664C179.711 140.462 180.694 140 181.361 139.195C182.029 138.39 182.3 137.339 182.105 136.312C180.358 127.096 176.171 104.892 175.032 97.7853C175.018 97.6992 175.072 97.6168 175.157 97.5949C175.171 97.5912 175.185 97.5894 175.199 97.5894Z" fill="black" stroke="black" stroke-width="0.3"/>
<path d="M201.489 136.03C195.003 136.03 188.967 135.519 188.881 135.512C188.788 135.504 188.719 135.422 188.727 135.329C188.735 135.236 188.814 135.167 188.91 135.175C189.032 135.185 201.134 136.21 209.471 135.347C209.566 135.337 209.648 135.405 209.657 135.498C209.667 135.591 209.599 135.674 209.507 135.683C207.028 135.94 204.219 136.03 201.489 136.03Z" fill="black" stroke="black" stroke-width="0.3"/>
<path d="M176.084 135.544C165.891 135.544 161.777 134.211 161.731 134.196C161.642 134.166 161.594 134.07 161.624 133.982C161.654 133.893 161.75 133.845 161.838 133.875C161.891 133.892 167.244 135.62 180.934 135.112C181.03 135.109 181.106 135.182 181.109 135.275C181.112 135.368 181.04 135.447 180.946 135.45C179.192 135.515 177.573 135.544 176.084 135.544Z" fill="black" stroke="black" stroke-width="0.3"/>
<path d="M175.204 97.9276C175.132 97.9276 175.066 97.8824 175.043 97.8112L165.644 69.2183C165.312 68.2087 164.462 67.4331 163.426 67.1941L161.746 66.8068C161.655 66.7858 161.599 66.695 161.62 66.604C161.641 66.5131 161.732 66.4562 161.823 66.4773L163.502 66.8646C164.653 67.1301 165.597 67.9915 165.966 69.1128L175.364 97.7057C175.394 97.7944 175.345 97.89 175.257 97.9191C175.239 97.9249 175.221 97.9276 175.204 97.9276Z" fill="black" stroke="black" stroke-width="0.3"/>
<path d="M176.956 55.4596H157.962C156.994 55.4596 156.292 54.5386 156.55 53.6062C157.143 51.4636 158.228 47.5493 159.684 42.3171C161.941 34.2086 163.399 28.4986 164.187 26.6026C164.976 24.7066 165.114 23.6818 168.329 23.5388C171.292 23.4071 174.852 22.9532 175.202 26.2988C175.27 26.9479 175.624 27.5332 176.149 27.9219L178.253 29.4802L176.956 55.4596Z" fill="#FF9536"/>
<path d="M170.133 39.3555C170.073 39.3555 170.015 39.3237 169.984 39.2675C168.355 36.289 168.145 32.633 169.42 29.4876C169.455 29.401 169.554 29.3593 169.641 29.3944C169.727 29.4295 169.769 29.528 169.734 29.6145C168.496 32.667 168.7 36.2149 170.281 39.1054C170.326 39.1873 170.296 39.29 170.214 39.3348C170.188 39.3489 170.16 39.3555 170.133 39.3555Z" fill="black" stroke="black" stroke-width="0.3"/>
<path d="M170.736 40.6651C170.707 40.6651 170.678 40.6631 170.649 40.6591C170.409 40.6259 170.203 40.4587 170.098 40.2116C169.992 39.9646 170.013 39.7001 170.155 39.5043C170.163 39.4933 170.172 39.4834 170.182 39.4749C170.188 39.4636 170.195 39.4529 170.205 39.4429C170.366 39.2634 170.621 39.1867 170.884 39.2378C171.148 39.2889 171.355 39.4549 171.438 39.6818C171.521 39.9086 171.47 40.1688 171.301 40.378C171.153 40.5616 170.947 40.6651 170.736 40.6651ZM170.441 39.6843C170.437 39.6904 170.433 39.6964 170.429 39.7022C170.359 39.7995 170.351 39.9437 170.409 40.0787C170.467 40.2136 170.576 40.3077 170.695 40.3241C170.814 40.3404 170.945 40.28 171.038 40.1656C171.13 40.0514 171.162 39.9105 171.12 39.7979C171.079 39.6851 170.964 39.5977 170.82 39.5698C170.676 39.542 170.537 39.5799 170.456 39.6691C170.451 39.6746 170.446 39.6796 170.441 39.6843Z" fill="black" stroke="black" stroke-width="0.3"/>
<path d="M165.136 37.1866C165.062 37.1866 164.994 37.1374 164.973 37.0625C164.272 34.5304 164.656 31.6711 166.002 29.414C166.05 29.3338 166.154 29.3075 166.234 29.3553C166.314 29.4031 166.34 29.5068 166.293 29.587C164.993 31.7665 164.622 34.5274 165.299 36.9724C165.324 37.0624 165.271 37.1555 165.181 37.1804C165.166 37.1846 165.151 37.1866 165.136 37.1866Z" fill="black" stroke="black" stroke-width="0.3"/>
<path d="M165.446 38.8195C165.435 38.8195 165.424 38.8191 165.413 38.8185C165.19 38.8062 164.986 38.669 164.867 38.4515C164.749 38.2339 164.745 37.9882 164.856 37.7943C164.866 37.7761 164.879 37.7606 164.895 37.748C164.901 37.7294 164.911 37.7116 164.924 37.6956C165.068 37.5239 165.3 37.4426 165.545 37.4778C165.79 37.513 165.99 37.6564 166.079 37.8614C166.169 38.0663 166.137 38.31 165.996 38.5133C165.861 38.7068 165.658 38.8194 165.446 38.8195ZM165.162 37.9341C165.159 37.9437 165.155 37.953 165.15 37.9622C165.098 38.0523 165.104 38.1779 165.165 38.29C165.226 38.4021 165.328 38.4752 165.432 38.4809C165.535 38.487 165.645 38.4251 165.718 38.3202C165.791 38.2155 165.811 38.0914 165.769 37.9963C165.728 37.901 165.623 37.8307 165.497 37.8125C165.37 37.7944 165.251 37.8326 165.184 37.9123C165.177 37.9203 165.17 37.9276 165.162 37.9341Z" fill="black" stroke="black" stroke-width="0.3"/>
<path d="M194.208 71.5336C194.598 65.479 194.657 59.4126 193.681 53.44C192.307 45.0338 188.667 36.7103 182.113 31.2631C181.038 30.3691 179.818 29.448 179.493 28.0882C179.275 27.1742 179.229 25.8583 178.292 25.7756C178.292 25.7756 176.406 25.5669 175.109 27.7373C174.459 28.8257 174.267 30.1205 174.096 31.3767C172.983 39.5456 172.742 47.805 172.503 56.0458C172.471 57.1334 172.449 58.2703 172.926 59.2486C173.733 60.905 175.732 61.6217 177.572 61.7485C179.411 61.8753 183.101 61.7984 183.101 61.7984C183.061 64.5892 183.088 67.3808 183.182 70.1703C184.94 71.2877 186.968 71.9825 189.045 72.1571C190.785 72.3033 192.552 72.0833 194.208 71.5336Z" fill="white"/>
<path d="M190.091 72.3696C189.736 72.3696 189.383 72.355 189.033 72.3255C186.942 72.1498 184.888 71.4538 183.093 70.3129C183.046 70.2829 183.017 70.2317 183.015 70.1759C182.923 67.4459 182.895 64.6863 182.931 61.9707C182.175 61.9838 179.159 62.0272 177.562 61.9171C176.467 61.8416 173.807 61.4376 172.776 59.3226C172.27 58.2847 172.305 57.0926 172.335 56.0409C172.338 55.9492 172.413 55.8767 172.504 55.8767C172.506 55.8767 172.508 55.8767 172.51 55.8768C172.603 55.8795 172.676 55.9573 172.674 56.0507C172.644 57.0635 172.611 58.2114 173.08 59.1746C173.742 60.5318 175.426 61.4309 177.585 61.5798C179.396 61.7046 183.062 61.6301 183.099 61.6293C183.145 61.627 183.189 61.6461 183.222 61.6784C183.254 61.7107 183.272 61.7549 183.272 61.8008C183.233 64.5376 183.259 67.3211 183.35 70.0751C185.081 71.1586 187.054 71.8199 189.061 71.9885C190.716 72.1278 192.438 71.9271 194.049 71.4085C194.514 64.1014 194.349 58.5639 193.516 53.4672C191.99 44.1332 187.903 36.2937 182.007 31.393L181.773 31.1989C180.727 30.3362 179.645 29.444 179.331 28.1275C179.29 27.9579 179.256 27.7806 179.221 27.5928C179.073 26.8099 178.919 26.0004 178.28 25.944C178.222 25.938 176.937 25.8193 175.796 27.0868C175.734 27.1562 175.627 27.1619 175.557 27.0994C175.488 27.0369 175.482 26.9301 175.544 26.8606C176.807 25.4585 178.252 25.6007 178.313 25.6075C179.204 25.6861 179.389 26.6656 179.553 27.5299C179.588 27.7136 179.621 27.8871 179.66 28.0489C179.948 29.2554 180.985 30.1108 181.988 30.9381L182.224 31.133C188.182 36.0859 192.311 43.9983 193.85 53.4127C194.691 58.5621 194.855 64.1541 194.379 71.5444C194.375 71.6131 194.329 71.6723 194.264 71.694C192.918 72.1404 191.494 72.3696 190.091 72.3696Z" fill="black" stroke="black" stroke-width="0.3"/>
<path d="M183.127 61.3744C183.035 61.3744 182.959 61.3006 182.958 61.2082C182.841 54.3968 181.567 47.7096 179.169 41.3324C179.136 41.2451 179.18 41.1476 179.268 41.1148C179.355 41.0819 179.453 41.1261 179.486 41.2136C181.897 47.627 183.179 54.3522 183.296 61.2025C183.298 61.2958 183.223 61.3728 183.13 61.3744C183.129 61.3744 183.128 61.3744 183.127 61.3744Z" fill="black" stroke="black" stroke-width="0.3"/>
<path d="M193.621 78.9216C193.863 76.3879 194.096 73.853 194.214 71.5335C192.557 72.0832 190.79 72.3033 189.051 72.1571C186.974 71.9825 184.946 71.2877 183.188 70.1703C183.241 71.7761 183.317 73.3812 183.415 74.985C183.537 76.9854 183.769 79.1591 185.163 80.6001C186.305 81.7806 188.148 82.2252 189.703 81.6953C190.517 82.2993 191.781 82.181 192.468 81.4364C193.142 81.9782 194.3 81.7049 194.661 80.9187C195.021 80.1325 194.472 79.078 193.621 78.9216Z" fill="white"/>
<path d="M190.919 82.2477C190.478 82.2477 190.039 82.1283 189.674 81.8825C188.066 82.394 186.214 81.9314 185.04 80.7176C183.616 79.2458 183.373 77.0837 183.245 74.9953C183.148 73.4116 183.072 71.7901 183.018 70.1759C183.016 70.1133 183.048 70.0546 183.103 70.0235C183.157 69.9924 183.224 69.9939 183.278 70.0276C185.027 71.1393 187.028 71.8174 189.064 71.9886C190.756 72.131 192.518 71.9179 194.16 71.3731C194.213 71.3555 194.271 71.3652 194.316 71.399C194.36 71.4329 194.385 71.4864 194.382 71.5422C194.265 73.8444 194.033 76.3813 193.802 78.7925C194.192 78.912 194.537 79.2072 194.745 79.6061C194.979 80.0559 195.004 80.5729 194.814 80.9891C194.623 81.4054 194.214 81.7235 193.72 81.8401C193.282 81.9437 192.832 81.875 192.486 81.6571C192.068 82.0458 191.492 82.2476 190.919 82.2477ZM189.702 81.5262C189.738 81.5262 189.774 81.5376 189.803 81.5596C190.55 82.1133 191.713 82.0045 192.343 81.3217C192.403 81.2562 192.504 81.2489 192.573 81.3046C192.85 81.5267 193.25 81.6037 193.642 81.511C194.035 81.4182 194.358 81.1705 194.506 80.8483C194.654 80.5262 194.631 80.1201 194.444 79.7621C194.258 79.404 193.938 79.152 193.59 79.0878C193.503 79.072 193.443 78.9928 193.452 78.9055C193.678 76.5401 193.908 74.046 194.031 71.7696C192.414 72.2726 190.692 72.4647 189.036 72.3256C187.049 72.1586 185.096 71.5221 183.367 70.4805C183.42 71.9871 183.493 73.4973 183.583 74.9747C183.707 77 183.94 79.0937 185.283 80.4826C186.372 81.6073 188.166 82.0401 189.648 81.5353C189.666 81.5292 189.684 81.5262 189.702 81.5262Z" fill="black" stroke="black" stroke-width="0.3"/>
<path d="M192.393 81.5052C192.359 81.5052 192.324 81.4945 192.293 81.4724C191.003 80.5261 190.32 78.8316 190.596 77.2557C190.612 77.1638 190.697 77.1019 190.791 77.1182C190.883 77.1342 190.945 77.2218 190.929 77.3138C190.675 78.766 191.304 80.3277 192.494 81.1998C192.569 81.255 192.585 81.3608 192.53 81.4361C192.497 81.4813 192.445 81.5052 192.393 81.5052Z" fill="black" stroke="black" stroke-width="0.3"/>
<path d="M189.747 81.7947C189.705 81.7947 189.663 81.7791 189.63 81.7476C188.519 80.6827 187.924 79.131 188.037 77.5968C188.044 77.5037 188.122 77.4338 188.218 77.4406C188.312 77.4475 188.382 77.5286 188.375 77.6217C188.268 79.0565 188.825 80.5077 189.864 81.5036C189.932 81.5683 189.934 81.6753 189.869 81.7427C189.836 81.7773 189.792 81.7947 189.747 81.7947Z" fill="black" stroke="black" stroke-width="0.3"/>
<path d="M186.873 81.7616C186.829 81.7616 186.784 81.7442 186.751 81.7095C185.619 80.5286 185.044 78.8525 185.213 77.226C185.222 77.1331 185.305 77.0655 185.398 77.0753C185.491 77.0849 185.559 77.168 185.549 77.2609C185.391 78.7898 185.931 80.3654 186.995 81.4756C187.06 81.5431 187.058 81.6501 186.99 81.7146C186.957 81.746 186.915 81.7616 186.873 81.7616Z" fill="black" stroke="black" stroke-width="0.3"/>
<path d="M173.853 10.781C173.624 9.99426 173.267 9.20438 172.619 8.70146C171.972 8.19857 170.974 8.07507 170.348 8.6039C168.865 7.58654 166.88 7.26288 165.209 7.93089C163.539 8.59889 162.292 10.3107 162.341 12.1076C162.391 13.9044 163.853 15.6075 165.644 15.7705C165.93 17.3303 167.394 18.5101 168.962 18.7528C170.379 18.9721 173.124 18.4985 173.687 16.962C174.394 15.03 174.427 12.7465 173.853 10.781Z" fill="black"/>
<path d="M166.379 21.4266L167.552 28.8426C167.552 28.8426 172.943 25.4901 172.982 25.4372C173.022 25.3843 172.064 19.0744 172.064 19.0744C172.064 19.0744 170.817 16.9886 166.379 21.4266Z" fill="white"/>
<path d="M167.553 29.0117C167.529 29.0117 167.505 29.0066 167.482 28.9964C167.431 28.9728 167.395 28.925 167.386 28.869L166.213 21.4531C166.204 21.3996 166.222 21.3454 166.26 21.3072C168.827 18.7407 170.368 18.326 171.212 18.4304C171.922 18.5184 172.199 18.9686 172.21 18.9877C172.222 19.0065 172.229 19.0273 172.232 19.049C173.201 25.4287 173.175 25.4631 173.119 25.5383C173.094 25.5714 173.061 25.6168 167.642 28.9862C167.615 29.0031 167.584 29.0117 167.553 29.0117ZM166.561 21.4855L167.68 28.5643C169.63 27.3513 172.339 25.6606 172.81 25.352C172.75 24.7778 172.25 21.4169 171.904 19.1382C171.845 19.0613 171.626 18.8178 171.155 18.7642C170.392 18.6775 168.981 19.082 166.561 21.4855Z" fill="black" stroke="black" stroke-width="0.3"/>
<path d="M164.41 14.7589C164.41 14.7589 162.397 20.0597 164.411 21.7664C165.605 22.779 169.379 23.3101 171.791 19.6652C171.791 19.6652 173.462 19.7471 173.843 18.0394C174.225 16.3318 173.372 15.6884 171.99 16.8898C171.99 16.8898 170.32 17.7398 170.869 15.3727C171.108 14.3416 170.227 13.402 168.298 12.8457C164.809 11.8392 165.133 12.7193 164.41 14.7589Z" fill="white"/>
<path d="M166.902 22.6838C165.755 22.6838 164.803 22.3198 164.303 21.8953C162.228 20.1361 164.159 14.9466 164.253 14.7007C164.349 14.4282 164.429 14.1717 164.498 13.9454C164.998 12.3267 165.325 11.8116 168.347 12.6832C170.325 13.2539 171.305 14.248 171.035 15.4108C170.87 16.1257 170.9 16.6145 171.12 16.7871C171.362 16.9758 171.807 16.7886 171.899 16.7469C172.594 16.1476 173.213 15.9581 173.642 16.2134C174.082 16.475 174.216 17.1539 174.01 18.0762C173.659 19.652 172.269 19.8178 171.884 19.8331C170.525 21.8401 168.85 22.4619 167.677 22.6286C167.411 22.6664 167.152 22.6838 166.902 22.6838ZM166.165 12.5928C165.27 12.5928 165.113 13.1015 164.822 14.0452C164.751 14.2751 164.67 14.5357 164.571 14.8153C164.571 14.8165 164.57 14.8177 164.57 14.8188C164.55 14.8707 162.623 20.0275 164.522 21.6375C165.056 22.0905 166.257 22.4892 167.629 22.2939C168.748 22.1348 170.353 21.5335 171.652 19.5719C171.685 19.5221 171.744 19.4933 171.801 19.4963C171.864 19.4989 173.335 19.5466 173.68 18.0026C173.849 17.2435 173.77 16.6833 173.469 16.504C173.18 16.3324 172.67 16.5243 172.103 17.0173C172.093 17.0263 172.081 17.0341 172.069 17.0404C172.04 17.0552 171.353 17.3982 170.912 17.0534C170.567 16.784 170.5 16.2217 170.706 15.3344C170.93 14.3701 170.036 13.5222 168.253 13.0081C167.282 12.7279 166.625 12.5928 166.165 12.5928Z" fill="black" stroke="black" stroke-width="0.3"/>
<path d="M171.755 18.7116C171.727 18.7116 171.698 18.7044 171.671 18.6892C171.59 18.6429 171.562 18.5396 171.608 18.4585C171.883 17.9792 172.417 17.6703 172.969 17.6703H172.975C173.069 17.6707 173.144 17.7466 173.144 17.84C173.143 17.9332 173.068 18.0084 172.975 18.0084C172.973 18.0084 172.971 18.0084 172.97 18.0084C172.543 18.0084 172.114 18.2564 171.902 18.6265C171.871 18.681 171.814 18.7116 171.755 18.7116Z" fill="black"/>
<path d="M166.615 29.6554C166.559 29.6554 166.504 29.6278 166.472 29.5773C166.422 29.4987 166.445 29.3941 166.523 29.3438L171.067 26.4436C171.146 26.3934 171.251 26.4163 171.301 26.4951C171.351 26.5738 171.328 26.6783 171.249 26.7286L166.706 29.6288C166.677 29.6468 166.646 29.6554 166.615 29.6554Z" fill="black" stroke="black" stroke-width="0.3"/>
<path d="M78.354 12.5303H0.322266V79.82H78.354V12.5303Z" fill="white"/>
<path d="M78.3514 79.9891H0.319594C0.226072 79.9891 0.150391 79.9134 0.150391 79.82V12.5303C0.150391 12.4369 0.226072 12.3612 0.319594 12.3612H78.3514C78.4449 12.3612 78.5206 12.4369 78.5206 12.5303V79.82C78.5206 79.9134 78.4449 79.9891 78.3514 79.9891ZM0.488797 79.6509H78.1822V12.6993H0.488797V79.6509Z" fill="black" stroke="black" stroke-width="0.3"/>
<path d="M47.8346 18.2122H6.3418V74.1379H47.8346V18.2122Z" fill="#E9E9E9"/>
<path d="M30.0226 74.138H29.515V49.9126L14.4766 34.8861V18.349H14.9842V34.676L30.0226 49.7025V74.138Z" fill="white"/>
<path d="M42.9573 58.8943H6.3418V58.3871H42.7471L44.4517 56.6838V35.8667H23.7593V25.4733H6.3418V24.9661H24.2669V35.3595H44.9593V56.8939L42.9573 58.8943Z" fill="white"/>
<path d="M16.8471 59.5926C19.387 59.5926 21.4461 57.5352 21.4461 54.9972C21.4461 52.4593 19.387 50.4019 16.8471 50.4019C14.3071 50.4019 12.248 52.4593 12.248 54.9972C12.248 57.5352 14.3071 59.5926 16.8471 59.5926Z" fill="white"/>
<path d="M17.2868 48.1329C13.5731 48.1329 10.5625 51.1411 10.5625 54.852C10.5625 61.3232 17.2868 68.1375 17.2868 68.1375C17.2868 68.1375 24.0112 61.2612 24.0112 54.852C24.0112 51.1411 21.0006 48.1329 17.2868 48.1329ZM17.2868 58.1352C15.5564 58.1352 14.1535 56.7335 14.1535 55.0044C14.1535 53.2753 15.5564 51.8736 17.2868 51.8736C19.0173 51.8736 20.4202 53.2753 20.4202 55.0044C20.4202 56.7335 19.0173 58.1352 17.2868 58.1352Z" fill="#FF9536"/>
<path d="M40.047 31.5927C41.843 29.7981 41.843 26.8884 40.047 25.0938C38.251 23.2992 35.339 23.2992 33.543 25.0938C31.747 26.8884 31.747 29.7981 33.543 31.5927C35.339 33.3873 38.251 33.3873 40.047 31.5927Z" fill="white"/>
<path d="M37.2341 21.4789C33.5203 21.4789 30.5098 24.4871 30.5098 28.1979C30.5098 34.6691 37.2341 41.4835 37.2341 41.4835C37.2341 41.4835 43.9585 34.6071 43.9585 28.1979C43.9585 24.4871 40.9479 21.4789 37.2341 21.4789ZM37.2341 31.4812C35.5036 31.4812 34.1008 30.0794 34.1008 28.3504C34.1008 26.6213 35.5036 25.2195 37.2341 25.2195C38.9646 25.2195 40.3674 26.6212 40.3674 28.3504C40.3674 30.0795 38.9646 31.4812 37.2341 31.4812Z" fill="#FF9536"/>
<path d="M37.2331 70.0946H17.2844C17.1909 70.0946 17.1152 70.0189 17.1152 69.9256C17.1152 69.8322 17.1909 69.7565 17.2844 69.7565H37.0639V43.6521C37.0639 43.5587 37.1396 43.483 37.2331 43.483C37.3266 43.483 37.4023 43.5587 37.4023 43.6521V69.9256C37.4023 70.0189 37.3266 70.0946 37.2331 70.0946Z" fill="black" stroke="black" stroke-width="0.3"/>
<path d="M73.693 31.0131H52.0462C51.9526 31.0131 51.877 30.9374 51.877 30.844C51.877 30.7506 51.9526 30.6749 52.0462 30.6749H73.693C73.7865 30.6749 73.8622 30.7506 73.8622 30.844C73.8622 30.9374 73.7865 31.0131 73.693 31.0131Z" fill="black" stroke="black" stroke-width="0.3"/>
<path d="M73.6919 34.5379H68.0149C67.9214 34.5379 67.8457 34.4621 67.8457 34.3688C67.8457 34.2754 67.9214 34.1997 68.0149 34.1997H73.6919C73.7854 34.1997 73.8611 34.2754 73.8611 34.3688C73.8611 34.4621 73.7854 34.5379 73.6919 34.5379Z" fill="black" stroke="black" stroke-width="0.3"/>
<path d="M73.693 38.3505H52.0462C51.9526 38.3505 51.877 38.2748 51.877 38.1814C51.877 38.088 51.9526 38.0123 52.0462 38.0123H73.693C73.7865 38.0123 73.8622 38.088 73.8622 38.1814C73.8622 38.2748 73.7865 38.3505 73.693 38.3505Z" fill="black" stroke="black" stroke-width="0.3"/>
<path d="M73.6919 41.8754H68.0149C67.9214 41.8754 67.8457 41.7997 67.8457 41.7063C67.8457 41.6129 67.9214 41.5372 68.0149 41.5372H73.6919C73.7854 41.5372 73.8611 41.6129 73.8611 41.7063C73.8611 41.7997 73.7854 41.8754 73.6919 41.8754Z" fill="black" stroke="black" stroke-width="0.3"/>
<path d="M73.693 45.6879H52.0462C51.9526 45.6879 51.877 45.6122 51.877 45.5188C51.877 45.4254 51.9526 45.3497 52.0462 45.3497H73.693C73.7865 45.3497 73.8622 45.4254 73.8622 45.5188C73.8622 45.6122 73.7865 45.6879 73.693 45.6879Z" fill="black" stroke="black" stroke-width="0.3"/>
<path d="M73.6919 49.2126H68.0149C67.9214 49.2126 67.8457 49.137 67.8457 49.0436C67.8457 48.9502 67.9214 48.8745 68.0149 48.8745H73.6919C73.7854 48.8745 73.8611 48.9502 73.8611 49.0436C73.8611 49.137 73.7854 49.2126 73.6919 49.2126Z" fill="black" stroke="black" stroke-width="0.3"/>
<path d="M73.693 57.6232H52.0462C51.9526 57.6232 51.877 57.5475 51.877 57.4541C51.877 57.3607 51.9526 57.285 52.0462 57.285H73.693C73.7865 57.285 73.8622 57.3607 73.8622 57.4541C73.8622 57.5475 73.7865 57.6232 73.693 57.6232Z" fill="black" stroke="black" stroke-width="0.3"/>
<path d="M73.6945 60.1936H68.0176V63.649H73.6945V60.1936Z" fill="black"/>
<path d="M135.654 10.0717H99.5628C97.1496 10.0717 95.1934 12.0263 95.1934 14.4375C95.1934 16.8487 97.1496 18.8033 99.5628 18.8033H135.654C138.067 18.8033 140.024 16.8487 140.024 14.4375C140.024 12.0263 138.067 10.0717 135.654 10.0717Z" fill="#E9E9E9"/>
<path d="M117.605 31.0131H80.9036C80.81 31.0131 80.7344 30.9374 80.7344 30.8441C80.7344 30.7507 80.81 30.675 80.9036 30.675H117.435C117.426 29.0837 117.383 20.8391 117.438 20.453C117.451 20.3606 117.537 20.2965 117.629 20.3094C117.722 20.3225 117.786 20.4081 117.773 20.5006C117.732 20.7867 117.752 26.8425 117.775 30.8431C117.775 30.8881 117.757 30.9314 117.725 30.9633C117.694 30.9952 117.65 31.0131 117.605 31.0131Z" fill="black" stroke="black" stroke-width="0.3"/>
</svg>
