<svg width="40" height="40" viewBox="0 0 40 40" fill="none" xmlns="http://www.w3.org/2000/svg">
<g clip-path="url(#clip0_670_1295)">
<path d="M20 40C31.0457 40 40 31.0457 40 20C40 8.9543 31.0457 0 20 0C8.9543 0 0 8.9543 0 20C0 31.0457 8.9543 40 20 40Z" fill="#081E2B"/>
<path d="M22.664 8.26649C21.3948 6.76854 20.3027 5.23775 20.0798 4.9269C20.0751 4.92037 20.069 4.91503 20.0619 4.91136C20.0547 4.90767 20.0467 4.90576 20.0387 4.90576C20.0308 4.90576 20.0228 4.90767 20.0156 4.91136C20.0085 4.91503 20.0024 4.92037 19.9977 4.9269C19.776 5.24127 18.6839 6.77206 17.417 8.27001C6.54197 22.1175 19.1308 31.463 19.1308 31.463L19.2329 31.5345C19.3291 32.9797 19.566 35.0536 19.566 35.0536H20.5126C20.5126 35.0536 20.7472 32.9844 20.8446 31.5345L20.9478 31.4536C20.9478 31.4536 33.5367 22.1175 22.664 8.26649ZM20.0399 31.2577C20.0399 31.2577 19.4757 30.7768 19.3232 30.5351V30.5093L20.0059 15.429C20.0074 15.4206 20.0119 15.413 20.0183 15.4075C20.0249 15.4021 20.0331 15.399 20.0417 15.399C20.0502 15.399 20.0585 15.4021 20.065 15.4075C20.0715 15.413 20.0759 15.4206 20.0775 15.429L20.7625 30.5117V30.5375C20.61 30.7721 20.0458 31.26 20.0458 31.26" fill="#00ED64"/>
</g>
<defs>
<clipPath id="clip0_670_1295">
<rect width="40" height="40" fill="white"/>
</clipPath>
</defs>
</svg>
