<svg width="40" height="40" viewBox="0 0 40 40" fill="none" xmlns="http://www.w3.org/2000/svg">
<path d="M37.9 30.0002V10.0007L20.45 0L3 10.0007V30.0002L20.45 40L37.9 30.0002Z" fill="#43A047"/>
<path d="M28.2566 9.69229C26.9883 9.69229 25.9606 10.72 25.9606 11.9883V22.3445L15.8432 11.0268L15.7229 10.8872C14.5804 9.63535 13.2744 9.69229 12.6435 9.69229C11.3751 9.69229 10.3474 10.72 10.3474 11.9883V27.6015C10.3474 28.8698 11.3751 29.8976 12.6435 29.8976C13.9118 29.8976 14.9395 28.8698 14.9395 27.6015V17.1692L25.2975 28.7661L25.3985 28.8965C26.53 30.0197 28.0683 29.8976 28.2566 29.8976C29.525 29.8976 30.5527 28.8698 30.5527 27.6015V11.9883C30.5527 10.72 29.525 9.69229 28.2566 9.69229Z" fill="white"/>
</svg>
